<?xml version="1.0" encoding="utf-8"?>
<svg xmlns="http://www.w3.org/2000/svg" xmlns:xlink="http://www.w3.org/1999/xlink" width="672" height="480" viewBox="0 0 2688 1920">
<defs>
  <clipPath id="clip400">
    <rect x="0" y="0" width="2688" height="1920"/>
  </clipPath>
</defs>
<path clip-path="url(#clip400)" d="M0 1920 L2688 1920 L2688 0 L0 0  Z" fill="#ffffff" fill-rule="evenodd" fill-opacity="1"/>
<defs>
  <clipPath id="clip401">
    <rect x="537" y="0" width="1883" height="1883"/>
  </clipPath>
</defs>
<path clip-path="url(#clip400)" d="M144.733 1800.78 L2640.76 1800.78 L2640.76 47.2441 L144.733 47.2441  Z" fill="#ffffff" fill-rule="evenodd" fill-opacity="1"/>
<defs>
  <clipPath id="clip402">
    <rect x="144" y="47" width="2497" height="1755"/>
  </clipPath>
</defs>
<polyline clip-path="url(#clip402)" style="stroke:#000000; stroke-linecap:round; stroke-linejoin:round; stroke-width:2; stroke-opacity:0.1; fill:none" points="282.019,1800.78 282.019,47.2441 "/>
<polyline clip-path="url(#clip402)" style="stroke:#000000; stroke-linecap:round; stroke-linejoin:round; stroke-width:2; stroke-opacity:0.1; fill:none" points="652.261,1800.78 652.261,47.2441 "/>
<polyline clip-path="url(#clip402)" style="stroke:#000000; stroke-linecap:round; stroke-linejoin:round; stroke-width:2; stroke-opacity:0.1; fill:none" points="1022.5,1800.78 1022.5,47.2441 "/>
<polyline clip-path="url(#clip402)" style="stroke:#000000; stroke-linecap:round; stroke-linejoin:round; stroke-width:2; stroke-opacity:0.1; fill:none" points="1392.74,1800.78 1392.74,47.2441 "/>
<polyline clip-path="url(#clip402)" style="stroke:#000000; stroke-linecap:round; stroke-linejoin:round; stroke-width:2; stroke-opacity:0.1; fill:none" points="1762.99,1800.78 1762.99,47.2441 "/>
<polyline clip-path="url(#clip402)" style="stroke:#000000; stroke-linecap:round; stroke-linejoin:round; stroke-width:2; stroke-opacity:0.1; fill:none" points="2133.23,1800.78 2133.23,47.2441 "/>
<polyline clip-path="url(#clip402)" style="stroke:#000000; stroke-linecap:round; stroke-linejoin:round; stroke-width:2; stroke-opacity:0.1; fill:none" points="2503.47,1800.78 2503.47,47.2441 "/>
<polyline clip-path="url(#clip400)" style="stroke:#000000; stroke-linecap:round; stroke-linejoin:round; stroke-width:4; stroke-opacity:1; fill:none" points="144.733,1800.78 2640.76,1800.78 "/>
<polyline clip-path="url(#clip400)" style="stroke:#000000; stroke-linecap:round; stroke-linejoin:round; stroke-width:4; stroke-opacity:1; fill:none" points="282.019,1800.78 282.019,1781.88 "/>
<polyline clip-path="url(#clip400)" style="stroke:#000000; stroke-linecap:round; stroke-linejoin:round; stroke-width:4; stroke-opacity:1; fill:none" points="652.261,1800.78 652.261,1781.88 "/>
<polyline clip-path="url(#clip400)" style="stroke:#000000; stroke-linecap:round; stroke-linejoin:round; stroke-width:4; stroke-opacity:1; fill:none" points="1022.5,1800.78 1022.5,1781.88 "/>
<polyline clip-path="url(#clip400)" style="stroke:#000000; stroke-linecap:round; stroke-linejoin:round; stroke-width:4; stroke-opacity:1; fill:none" points="1392.74,1800.78 1392.74,1781.88 "/>
<polyline clip-path="url(#clip400)" style="stroke:#000000; stroke-linecap:round; stroke-linejoin:round; stroke-width:4; stroke-opacity:1; fill:none" points="1762.99,1800.78 1762.99,1781.88 "/>
<polyline clip-path="url(#clip400)" style="stroke:#000000; stroke-linecap:round; stroke-linejoin:round; stroke-width:4; stroke-opacity:1; fill:none" points="2133.23,1800.78 2133.23,1781.88 "/>
<polyline clip-path="url(#clip400)" style="stroke:#000000; stroke-linecap:round; stroke-linejoin:round; stroke-width:4; stroke-opacity:1; fill:none" points="2503.47,1800.78 2503.47,1781.88 "/>
<path clip-path="url(#clip400)" d="M259.403 1834 Q255.792 1834 253.963 1837.57 Q252.158 1841.11 252.158 1848.24 Q252.158 1855.34 253.963 1858.91 Q255.792 1862.45 259.403 1862.45 Q263.037 1862.45 264.843 1858.91 Q266.672 1855.34 266.672 1848.24 Q266.672 1841.11 264.843 1837.57 Q263.037 1834 259.403 1834 M259.403 1830.3 Q265.213 1830.3 268.269 1834.9 Q271.347 1839.49 271.347 1848.24 Q271.347 1856.96 268.269 1861.57 Q265.213 1866.15 259.403 1866.15 Q253.593 1866.15 250.514 1861.57 Q247.459 1856.96 247.459 1848.24 Q247.459 1839.49 250.514 1834.9 Q253.593 1830.3 259.403 1830.3 Z" fill="#000000" fill-rule="nonzero" fill-opacity="1" /><path clip-path="url(#clip400)" d="M279.565 1859.6 L284.449 1859.6 L284.449 1865.48 L279.565 1865.48 L279.565 1859.6 Z" fill="#000000" fill-rule="nonzero" fill-opacity="1" /><path clip-path="url(#clip400)" d="M304.634 1834 Q301.023 1834 299.194 1837.57 Q297.389 1841.11 297.389 1848.24 Q297.389 1855.34 299.194 1858.91 Q301.023 1862.45 304.634 1862.45 Q308.269 1862.45 310.074 1858.91 Q311.903 1855.34 311.903 1848.24 Q311.903 1841.11 310.074 1837.57 Q308.269 1834 304.634 1834 M304.634 1830.3 Q310.444 1830.3 313.5 1834.9 Q316.579 1839.49 316.579 1848.24 Q316.579 1856.96 313.5 1861.57 Q310.444 1866.15 304.634 1866.15 Q298.824 1866.15 295.745 1861.57 Q292.69 1856.96 292.69 1848.24 Q292.69 1839.49 295.745 1834.9 Q298.824 1830.3 304.634 1830.3 Z" fill="#000000" fill-rule="nonzero" fill-opacity="1" /><path clip-path="url(#clip400)" d="M630.258 1834 Q626.647 1834 624.819 1837.57 Q623.013 1841.11 623.013 1848.24 Q623.013 1855.34 624.819 1858.91 Q626.647 1862.45 630.258 1862.45 Q633.893 1862.45 635.698 1858.91 Q637.527 1855.34 637.527 1848.24 Q637.527 1841.11 635.698 1837.57 Q633.893 1834 630.258 1834 M630.258 1830.3 Q636.069 1830.3 639.124 1834.9 Q642.203 1839.49 642.203 1848.24 Q642.203 1856.96 639.124 1861.57 Q636.069 1866.15 630.258 1866.15 Q624.448 1866.15 621.37 1861.57 Q618.314 1856.96 618.314 1848.24 Q618.314 1839.49 621.37 1834.9 Q624.448 1830.3 630.258 1830.3 Z" fill="#000000" fill-rule="nonzero" fill-opacity="1" /><path clip-path="url(#clip400)" d="M650.42 1859.6 L655.305 1859.6 L655.305 1865.48 L650.42 1865.48 L650.42 1859.6 Z" fill="#000000" fill-rule="nonzero" fill-opacity="1" /><path clip-path="url(#clip400)" d="M666.3 1861.55 L673.939 1861.55 L673.939 1835.18 L665.629 1836.85 L665.629 1832.59 L673.892 1830.92 L678.568 1830.92 L678.568 1861.55 L686.207 1861.55 L686.207 1865.48 L666.3 1865.48 L666.3 1861.55 Z" fill="#000000" fill-rule="nonzero" fill-opacity="1" /><path clip-path="url(#clip400)" d="M1000.69 1834 Q997.074 1834 995.246 1837.57 Q993.44 1841.11 993.44 1848.24 Q993.44 1855.34 995.246 1858.91 Q997.074 1862.45 1000.69 1862.45 Q1004.32 1862.45 1006.13 1858.91 Q1007.95 1855.34 1007.95 1848.24 Q1007.95 1841.11 1006.13 1837.57 Q1004.32 1834 1000.69 1834 M1000.69 1830.3 Q1006.5 1830.3 1009.55 1834.9 Q1012.63 1839.49 1012.63 1848.24 Q1012.63 1856.96 1009.55 1861.57 Q1006.5 1866.15 1000.69 1866.15 Q994.875 1866.15 991.797 1861.57 Q988.741 1856.96 988.741 1848.24 Q988.741 1839.49 991.797 1834.9 Q994.875 1830.3 1000.69 1830.3 Z" fill="#000000" fill-rule="nonzero" fill-opacity="1" /><path clip-path="url(#clip400)" d="M1020.85 1859.6 L1025.73 1859.6 L1025.73 1865.48 L1020.85 1865.48 L1020.85 1859.6 Z" fill="#000000" fill-rule="nonzero" fill-opacity="1" /><path clip-path="url(#clip400)" d="M1039.94 1861.55 L1056.26 1861.55 L1056.26 1865.48 L1034.32 1865.48 L1034.32 1861.55 Q1036.98 1858.79 1041.56 1854.16 Q1046.17 1849.51 1047.35 1848.17 Q1049.6 1845.65 1050.48 1843.91 Q1051.38 1842.15 1051.38 1840.46 Q1051.38 1837.71 1049.44 1835.97 Q1047.51 1834.23 1044.41 1834.23 Q1042.21 1834.23 1039.76 1835 Q1037.33 1835.76 1034.55 1837.31 L1034.55 1832.59 Q1037.38 1831.46 1039.83 1830.88 Q1042.28 1830.3 1044.32 1830.3 Q1049.69 1830.3 1052.88 1832.98 Q1056.08 1835.67 1056.08 1840.16 Q1056.08 1842.29 1055.27 1844.21 Q1054.48 1846.11 1052.38 1848.7 Q1051.8 1849.37 1048.69 1852.59 Q1045.59 1855.78 1039.94 1861.55 Z" fill="#000000" fill-rule="nonzero" fill-opacity="1" /><path clip-path="url(#clip400)" d="M1370.45 1834 Q1366.84 1834 1365.01 1837.57 Q1363.21 1841.11 1363.21 1848.24 Q1363.21 1855.34 1365.01 1858.91 Q1366.84 1862.45 1370.45 1862.45 Q1374.09 1862.45 1375.89 1858.91 Q1377.72 1855.34 1377.72 1848.24 Q1377.72 1841.11 1375.89 1837.57 Q1374.09 1834 1370.45 1834 M1370.45 1830.3 Q1376.26 1830.3 1379.32 1834.9 Q1382.4 1839.49 1382.4 1848.24 Q1382.4 1856.96 1379.32 1861.57 Q1376.26 1866.15 1370.45 1866.15 Q1364.64 1866.15 1361.56 1861.57 Q1358.51 1856.96 1358.51 1848.24 Q1358.51 1839.49 1361.56 1834.9 Q1364.64 1830.3 1370.45 1830.3 Z" fill="#000000" fill-rule="nonzero" fill-opacity="1" /><path clip-path="url(#clip400)" d="M1390.61 1859.6 L1395.5 1859.6 L1395.5 1865.48 L1390.61 1865.48 L1390.61 1859.6 Z" fill="#000000" fill-rule="nonzero" fill-opacity="1" /><path clip-path="url(#clip400)" d="M1419.85 1846.85 Q1423.21 1847.57 1425.08 1849.84 Q1426.98 1852.1 1426.98 1855.44 Q1426.98 1860.55 1423.46 1863.35 Q1419.94 1866.15 1413.46 1866.15 Q1411.29 1866.15 1408.97 1865.71 Q1406.68 1865.3 1404.23 1864.44 L1404.23 1859.93 Q1406.17 1861.06 1408.49 1861.64 Q1410.8 1862.22 1413.32 1862.22 Q1417.72 1862.22 1420.01 1860.48 Q1422.33 1858.75 1422.33 1855.44 Q1422.33 1852.38 1420.17 1850.67 Q1418.05 1848.93 1414.23 1848.93 L1410.2 1848.93 L1410.2 1845.09 L1414.41 1845.09 Q1417.86 1845.09 1419.69 1843.72 Q1421.52 1842.34 1421.52 1839.74 Q1421.52 1837.08 1419.62 1835.67 Q1417.74 1834.23 1414.23 1834.23 Q1412.3 1834.23 1410.11 1834.65 Q1407.91 1835.07 1405.27 1835.95 L1405.27 1831.78 Q1407.93 1831.04 1410.24 1830.67 Q1412.58 1830.3 1414.64 1830.3 Q1419.97 1830.3 1423.07 1832.73 Q1426.17 1835.14 1426.17 1839.26 Q1426.17 1842.13 1424.53 1844.12 Q1422.88 1846.09 1419.85 1846.85 Z" fill="#000000" fill-rule="nonzero" fill-opacity="1" /><path clip-path="url(#clip400)" d="M1740.13 1834 Q1736.52 1834 1734.69 1837.57 Q1732.88 1841.11 1732.88 1848.24 Q1732.88 1855.34 1734.69 1858.91 Q1736.52 1862.45 1740.13 1862.45 Q1743.76 1862.45 1745.57 1858.91 Q1747.4 1855.34 1747.4 1848.24 Q1747.4 1841.11 1745.57 1837.57 Q1743.76 1834 1740.13 1834 M1740.13 1830.3 Q1745.94 1830.3 1748.99 1834.9 Q1752.07 1839.49 1752.07 1848.24 Q1752.07 1856.96 1748.99 1861.57 Q1745.94 1866.15 1740.13 1866.15 Q1734.32 1866.15 1731.24 1861.57 Q1728.18 1856.96 1728.18 1848.24 Q1728.18 1839.49 1731.24 1834.9 Q1734.32 1830.3 1740.13 1830.3 Z" fill="#000000" fill-rule="nonzero" fill-opacity="1" /><path clip-path="url(#clip400)" d="M1760.29 1859.6 L1765.17 1859.6 L1765.17 1865.48 L1760.29 1865.48 L1760.29 1859.6 Z" fill="#000000" fill-rule="nonzero" fill-opacity="1" /><path clip-path="url(#clip400)" d="M1788.21 1835 L1776.4 1853.45 L1788.21 1853.45 L1788.21 1835 M1786.98 1830.92 L1792.86 1830.92 L1792.86 1853.45 L1797.79 1853.45 L1797.79 1857.34 L1792.86 1857.34 L1792.86 1865.48 L1788.21 1865.48 L1788.21 1857.34 L1772.6 1857.34 L1772.6 1852.82 L1786.98 1830.92 Z" fill="#000000" fill-rule="nonzero" fill-opacity="1" /><path clip-path="url(#clip400)" d="M2111.11 1834 Q2107.5 1834 2105.67 1837.57 Q2103.87 1841.11 2103.87 1848.24 Q2103.87 1855.34 2105.67 1858.91 Q2107.5 1862.45 2111.11 1862.45 Q2114.74 1862.45 2116.55 1858.91 Q2118.38 1855.34 2118.38 1848.24 Q2118.38 1841.11 2116.55 1837.57 Q2114.74 1834 2111.11 1834 M2111.11 1830.3 Q2116.92 1830.3 2119.98 1834.9 Q2123.05 1839.49 2123.05 1848.24 Q2123.05 1856.96 2119.98 1861.57 Q2116.92 1866.15 2111.11 1866.15 Q2105.3 1866.15 2102.22 1861.57 Q2099.17 1856.96 2099.17 1848.24 Q2099.17 1839.49 2102.22 1834.9 Q2105.3 1830.3 2111.11 1830.3 Z" fill="#000000" fill-rule="nonzero" fill-opacity="1" /><path clip-path="url(#clip400)" d="M2131.27 1859.6 L2136.16 1859.6 L2136.16 1865.48 L2131.27 1865.48 L2131.27 1859.6 Z" fill="#000000" fill-rule="nonzero" fill-opacity="1" /><path clip-path="url(#clip400)" d="M2146.39 1830.92 L2164.74 1830.92 L2164.74 1834.86 L2150.67 1834.86 L2150.67 1843.33 Q2151.69 1842.98 2152.71 1842.82 Q2153.73 1842.64 2154.74 1842.64 Q2160.53 1842.64 2163.91 1845.81 Q2167.29 1848.98 2167.29 1854.4 Q2167.29 1859.97 2163.82 1863.08 Q2160.35 1866.15 2154.03 1866.15 Q2151.85 1866.15 2149.58 1865.78 Q2147.34 1865.41 2144.93 1864.67 L2144.93 1859.97 Q2147.01 1861.11 2149.24 1861.66 Q2151.46 1862.22 2153.93 1862.22 Q2157.94 1862.22 2160.28 1860.11 Q2162.61 1858.01 2162.61 1854.4 Q2162.61 1850.78 2160.28 1848.68 Q2157.94 1846.57 2153.93 1846.57 Q2152.06 1846.57 2150.18 1846.99 Q2148.33 1847.4 2146.39 1848.28 L2146.39 1830.92 Z" fill="#000000" fill-rule="nonzero" fill-opacity="1" /><path clip-path="url(#clip400)" d="M2480.77 1834 Q2477.16 1834 2475.33 1837.57 Q2473.53 1841.11 2473.53 1848.24 Q2473.53 1855.34 2475.33 1858.91 Q2477.16 1862.45 2480.77 1862.45 Q2484.41 1862.45 2486.21 1858.91 Q2488.04 1855.34 2488.04 1848.24 Q2488.04 1841.11 2486.21 1837.57 Q2484.41 1834 2480.77 1834 M2480.77 1830.3 Q2486.58 1830.3 2489.64 1834.9 Q2492.72 1839.49 2492.72 1848.24 Q2492.72 1856.96 2489.64 1861.57 Q2486.58 1866.15 2480.77 1866.15 Q2474.96 1866.15 2471.88 1861.57 Q2468.83 1856.96 2468.83 1848.24 Q2468.83 1839.49 2471.88 1834.9 Q2474.96 1830.3 2480.77 1830.3 Z" fill="#000000" fill-rule="nonzero" fill-opacity="1" /><path clip-path="url(#clip400)" d="M2500.94 1859.6 L2505.82 1859.6 L2505.82 1865.48 L2500.94 1865.48 L2500.94 1859.6 Z" fill="#000000" fill-rule="nonzero" fill-opacity="1" /><path clip-path="url(#clip400)" d="M2526.58 1846.34 Q2523.44 1846.34 2521.58 1848.49 Q2519.75 1850.65 2519.75 1854.4 Q2519.75 1858.12 2521.58 1860.3 Q2523.44 1862.45 2526.58 1862.45 Q2529.73 1862.45 2531.56 1860.3 Q2533.41 1858.12 2533.41 1854.4 Q2533.41 1850.65 2531.56 1848.49 Q2529.73 1846.34 2526.58 1846.34 M2535.87 1831.69 L2535.87 1835.95 Q2534.11 1835.11 2532.3 1834.67 Q2530.52 1834.23 2528.76 1834.23 Q2524.13 1834.23 2521.68 1837.36 Q2519.25 1840.48 2518.9 1846.8 Q2520.26 1844.79 2522.32 1843.72 Q2524.38 1842.64 2526.86 1842.64 Q2532.07 1842.64 2535.08 1845.81 Q2538.11 1848.96 2538.11 1854.4 Q2538.11 1859.72 2534.96 1862.94 Q2531.81 1866.15 2526.58 1866.15 Q2520.59 1866.15 2517.42 1861.57 Q2514.25 1856.96 2514.25 1848.24 Q2514.25 1840.04 2518.13 1835.18 Q2522.02 1830.3 2528.57 1830.3 Q2530.33 1830.3 2532.12 1830.65 Q2533.92 1830.99 2535.87 1831.69 Z" fill="#000000" fill-rule="nonzero" fill-opacity="1" /><polyline clip-path="url(#clip402)" style="stroke:#000000; stroke-linecap:round; stroke-linejoin:round; stroke-width:2; stroke-opacity:0.1; fill:none" points="144.733,1751.15 2640.76,1751.15 "/>
<polyline clip-path="url(#clip402)" style="stroke:#000000; stroke-linecap:round; stroke-linejoin:round; stroke-width:2; stroke-opacity:0.1; fill:none" points="144.733,1347.67 2640.76,1347.67 "/>
<polyline clip-path="url(#clip402)" style="stroke:#000000; stroke-linecap:round; stroke-linejoin:round; stroke-width:2; stroke-opacity:0.1; fill:none" points="144.733,944.186 2640.76,944.186 "/>
<polyline clip-path="url(#clip402)" style="stroke:#000000; stroke-linecap:round; stroke-linejoin:round; stroke-width:2; stroke-opacity:0.1; fill:none" points="144.733,540.703 2640.76,540.703 "/>
<polyline clip-path="url(#clip402)" style="stroke:#000000; stroke-linecap:round; stroke-linejoin:round; stroke-width:2; stroke-opacity:0.1; fill:none" points="144.733,137.221 2640.76,137.221 "/>
<polyline clip-path="url(#clip400)" style="stroke:#000000; stroke-linecap:round; stroke-linejoin:round; stroke-width:4; stroke-opacity:1; fill:none" points="144.733,1800.78 144.733,47.2441 "/>
<polyline clip-path="url(#clip400)" style="stroke:#000000; stroke-linecap:round; stroke-linejoin:round; stroke-width:4; stroke-opacity:1; fill:none" points="144.733,1751.15 163.631,1751.15 "/>
<polyline clip-path="url(#clip400)" style="stroke:#000000; stroke-linecap:round; stroke-linejoin:round; stroke-width:4; stroke-opacity:1; fill:none" points="144.733,1347.67 163.631,1347.67 "/>
<polyline clip-path="url(#clip400)" style="stroke:#000000; stroke-linecap:round; stroke-linejoin:round; stroke-width:4; stroke-opacity:1; fill:none" points="144.733,944.186 163.631,944.186 "/>
<polyline clip-path="url(#clip400)" style="stroke:#000000; stroke-linecap:round; stroke-linejoin:round; stroke-width:4; stroke-opacity:1; fill:none" points="144.733,540.703 163.631,540.703 "/>
<polyline clip-path="url(#clip400)" style="stroke:#000000; stroke-linecap:round; stroke-linejoin:round; stroke-width:4; stroke-opacity:1; fill:none" points="144.733,137.221 163.631,137.221 "/>
<path clip-path="url(#clip400)" d="M92.4686 1736.95 Q88.8575 1736.95 87.0288 1740.51 Q85.2232 1744.06 85.2232 1751.19 Q85.2232 1758.29 87.0288 1761.86 Q88.8575 1765.4 92.4686 1765.4 Q96.1028 1765.4 97.9083 1761.86 Q99.737 1758.29 99.737 1751.19 Q99.737 1744.06 97.9083 1740.51 Q96.1028 1736.95 92.4686 1736.95 M92.4686 1733.25 Q98.2787 1733.25 101.334 1737.85 Q104.413 1742.44 104.413 1751.19 Q104.413 1759.91 101.334 1764.52 Q98.2787 1769.1 92.4686 1769.1 Q86.6584 1769.1 83.5797 1764.52 Q80.5242 1759.91 80.5242 1751.19 Q80.5242 1742.44 83.5797 1737.85 Q86.6584 1733.25 92.4686 1733.25 Z" fill="#000000" fill-rule="nonzero" fill-opacity="1" /><path clip-path="url(#clip400)" d="M53.1169 1361.01 L60.7558 1361.01 L60.7558 1334.65 L52.4456 1336.31 L52.4456 1332.06 L60.7095 1330.39 L65.3854 1330.39 L65.3854 1361.01 L73.0242 1361.01 L73.0242 1364.95 L53.1169 1364.95 L53.1169 1361.01 Z" fill="#000000" fill-rule="nonzero" fill-opacity="1" /><path clip-path="url(#clip400)" d="M92.4686 1333.47 Q88.8575 1333.47 87.0288 1337.03 Q85.2232 1340.57 85.2232 1347.7 Q85.2232 1354.81 87.0288 1358.37 Q88.8575 1361.92 92.4686 1361.92 Q96.1028 1361.92 97.9083 1358.37 Q99.737 1354.81 99.737 1347.7 Q99.737 1340.57 97.9083 1337.03 Q96.1028 1333.47 92.4686 1333.47 M92.4686 1329.76 Q98.2787 1329.76 101.334 1334.37 Q104.413 1338.95 104.413 1347.7 Q104.413 1356.43 101.334 1361.04 Q98.2787 1365.62 92.4686 1365.62 Q86.6584 1365.62 83.5797 1361.04 Q80.5242 1356.43 80.5242 1347.7 Q80.5242 1338.95 83.5797 1334.37 Q86.6584 1329.76 92.4686 1329.76 Z" fill="#000000" fill-rule="nonzero" fill-opacity="1" /><path clip-path="url(#clip400)" d="M56.3345 957.531 L72.6539 957.531 L72.6539 961.466 L50.7095 961.466 L50.7095 957.531 Q53.3715 954.776 57.9549 950.146 Q62.5613 945.494 63.7419 944.151 Q65.9872 941.628 66.8668 939.892 Q67.7696 938.133 67.7696 936.443 Q67.7696 933.688 65.8252 931.952 Q63.9039 930.216 60.8021 930.216 Q58.603 930.216 56.1493 930.98 Q53.7188 931.744 50.941 933.295 L50.941 928.572 Q53.7651 927.438 56.2188 926.86 Q58.6724 926.281 60.7095 926.281 Q66.0798 926.281 69.2742 928.966 Q72.4687 931.651 72.4687 936.142 Q72.4687 938.272 71.6585 940.193 Q70.8715 942.091 68.765 944.684 Q68.1863 945.355 65.0845 948.572 Q61.9826 951.767 56.3345 957.531 Z" fill="#000000" fill-rule="nonzero" fill-opacity="1" /><path clip-path="url(#clip400)" d="M92.4686 929.985 Q88.8575 929.985 87.0288 933.549 Q85.2232 937.091 85.2232 944.221 Q85.2232 951.327 87.0288 954.892 Q88.8575 958.433 92.4686 958.433 Q96.1028 958.433 97.9083 954.892 Q99.737 951.327 99.737 944.221 Q99.737 937.091 97.9083 933.549 Q96.1028 929.985 92.4686 929.985 M92.4686 926.281 Q98.2787 926.281 101.334 930.887 Q104.413 935.471 104.413 944.221 Q104.413 952.947 101.334 957.554 Q98.2787 962.137 92.4686 962.137 Q86.6584 962.137 83.5797 957.554 Q80.5242 952.947 80.5242 944.221 Q80.5242 935.471 83.5797 930.887 Q86.6584 926.281 92.4686 926.281 Z" fill="#000000" fill-rule="nonzero" fill-opacity="1" /><path clip-path="url(#clip400)" d="M66.4733 539.349 Q69.8298 540.067 71.7048 542.335 Q73.6029 544.604 73.6029 547.937 Q73.6029 553.053 70.0844 555.854 Q66.5659 558.655 60.0845 558.655 Q57.9086 558.655 55.5938 558.215 Q53.3021 557.798 50.8484 556.942 L50.8484 552.428 Q52.7928 553.562 55.1077 554.141 Q57.4225 554.719 59.9456 554.719 Q64.3437 554.719 66.6354 552.983 Q68.9502 551.247 68.9502 547.937 Q68.9502 544.881 66.7974 543.169 Q64.6678 541.432 60.8484 541.432 L56.8206 541.432 L56.8206 537.59 L61.0335 537.59 Q64.4826 537.59 66.3113 536.224 Q68.14 534.835 68.14 532.243 Q68.14 529.581 66.2419 528.169 Q64.3669 526.733 60.8484 526.733 Q58.9271 526.733 56.728 527.15 Q54.529 527.567 51.8901 528.446 L51.8901 524.28 Q54.5521 523.539 56.8669 523.169 Q59.2049 522.798 61.265 522.798 Q66.5891 522.798 69.6909 525.229 Q72.7927 527.636 72.7927 531.757 Q72.7927 534.627 71.1492 536.618 Q69.5057 538.585 66.4733 539.349 Z" fill="#000000" fill-rule="nonzero" fill-opacity="1" /><path clip-path="url(#clip400)" d="M92.4686 526.502 Q88.8575 526.502 87.0288 530.067 Q85.2232 533.608 85.2232 540.738 Q85.2232 547.844 87.0288 551.409 Q88.8575 554.951 92.4686 554.951 Q96.1028 554.951 97.9083 551.409 Q99.737 547.844 99.737 540.738 Q99.737 533.608 97.9083 530.067 Q96.1028 526.502 92.4686 526.502 M92.4686 522.798 Q98.2787 522.798 101.334 527.405 Q104.413 531.988 104.413 540.738 Q104.413 549.465 101.334 554.071 Q98.2787 558.655 92.4686 558.655 Q86.6584 558.655 83.5797 554.071 Q80.5242 549.465 80.5242 540.738 Q80.5242 531.988 83.5797 527.405 Q86.6584 522.798 92.4686 522.798 Z" fill="#000000" fill-rule="nonzero" fill-opacity="1" /><path clip-path="url(#clip400)" d="M65.1539 124.015 L53.3484 142.464 L65.1539 142.464 L65.1539 124.015 M63.927 119.941 L69.8066 119.941 L69.8066 142.464 L74.7372 142.464 L74.7372 146.353 L69.8066 146.353 L69.8066 154.501 L65.1539 154.501 L65.1539 146.353 L49.5521 146.353 L49.5521 141.839 L63.927 119.941 Z" fill="#000000" fill-rule="nonzero" fill-opacity="1" /><path clip-path="url(#clip400)" d="M92.4686 123.019 Q88.8575 123.019 87.0288 126.584 Q85.2232 130.126 85.2232 137.255 Q85.2232 144.362 87.0288 147.927 Q88.8575 151.468 92.4686 151.468 Q96.1028 151.468 97.9083 147.927 Q99.737 144.362 99.737 137.255 Q99.737 130.126 97.9083 126.584 Q96.1028 123.019 92.4686 123.019 M92.4686 119.316 Q98.2787 119.316 101.334 123.922 Q104.413 128.505 104.413 137.255 Q104.413 145.982 101.334 150.589 Q98.2787 155.172 92.4686 155.172 Q86.6584 155.172 83.5797 150.589 Q80.5242 145.982 80.5242 137.255 Q80.5242 128.505 83.5797 123.922 Q86.6584 119.316 92.4686 119.316 Z" fill="#000000" fill-rule="nonzero" fill-opacity="1" /><path clip-path="url(#clip402)" d="M282.019 500.355 L282.019 1751.15 L652.261 1751.15 L652.261 500.355 L282.019 500.355 L282.019 500.355  Z" fill="#009af9" fill-rule="evenodd" fill-opacity="1"/>
<polyline clip-path="url(#clip402)" style="stroke:#000000; stroke-linecap:round; stroke-linejoin:round; stroke-width:4; stroke-opacity:1; fill:none" points="282.019,500.355 282.019,1751.15 652.261,1751.15 652.261,500.355 282.019,500.355 "/>
<path clip-path="url(#clip402)" d="M652.261 96.8724 L652.261 1751.15 L1022.5 1751.15 L1022.5 96.8724 L652.261 96.8724 L652.261 96.8724  Z" fill="#009af9" fill-rule="evenodd" fill-opacity="1"/>
<polyline clip-path="url(#clip402)" style="stroke:#000000; stroke-linecap:round; stroke-linejoin:round; stroke-width:4; stroke-opacity:1; fill:none" points="652.261,96.8724 652.261,1751.15 1022.5,1751.15 1022.5,96.8724 652.261,96.8724 "/>
<path clip-path="url(#clip402)" d="M1022.5 1105.58 L1022.5 1751.15 L1392.74 1751.15 L1392.74 1105.58 L1022.5 1105.58 L1022.5 1105.58  Z" fill="#009af9" fill-rule="evenodd" fill-opacity="1"/>
<polyline clip-path="url(#clip402)" style="stroke:#000000; stroke-linecap:round; stroke-linejoin:round; stroke-width:4; stroke-opacity:1; fill:none" points="1022.5,1105.58 1022.5,1751.15 1392.74,1751.15 1392.74,1105.58 1022.5,1105.58 "/>
<path clip-path="url(#clip402)" d="M1392.74 1388.02 L1392.74 1751.15 L1762.99 1751.15 L1762.99 1388.02 L1392.74 1388.02 L1392.74 1388.02  Z" fill="#009af9" fill-rule="evenodd" fill-opacity="1"/>
<polyline clip-path="url(#clip402)" style="stroke:#000000; stroke-linecap:round; stroke-linejoin:round; stroke-width:4; stroke-opacity:1; fill:none" points="1392.74,1388.02 1392.74,1751.15 1762.99,1751.15 1762.99,1388.02 1392.74,1388.02 "/>
<path clip-path="url(#clip402)" d="M1762.99 1670.45 L1762.99 1751.15 L2133.23 1751.15 L2133.23 1670.45 L1762.99 1670.45 L1762.99 1670.45  Z" fill="#009af9" fill-rule="evenodd" fill-opacity="1"/>
<polyline clip-path="url(#clip402)" style="stroke:#000000; stroke-linecap:round; stroke-linejoin:round; stroke-width:4; stroke-opacity:1; fill:none" points="1762.99,1670.45 1762.99,1751.15 2133.23,1751.15 2133.23,1670.45 1762.99,1670.45 "/>
<path clip-path="url(#clip402)" d="M2133.23 1710.8 L2133.23 1751.15 L2503.47 1751.15 L2503.47 1710.8 L2133.23 1710.8 L2133.23 1710.8  Z" fill="#009af9" fill-rule="evenodd" fill-opacity="1"/>
<polyline clip-path="url(#clip402)" style="stroke:#000000; stroke-linecap:round; stroke-linejoin:round; stroke-width:4; stroke-opacity:1; fill:none" points="2133.23,1710.8 2133.23,1751.15 2503.47,1751.15 2503.47,1710.8 2133.23,1710.8 "/>
<circle clip-path="url(#clip402)" style="fill:#009af9; stroke:none; fill-opacity:0" cx="467.14" cy="500.355" r="2"/>
<circle clip-path="url(#clip402)" style="fill:#009af9; stroke:none; fill-opacity:0" cx="837.382" cy="96.8724" r="2"/>
<circle clip-path="url(#clip402)" style="fill:#009af9; stroke:none; fill-opacity:0" cx="1207.62" cy="1105.58" r="2"/>
<circle clip-path="url(#clip402)" style="fill:#009af9; stroke:none; fill-opacity:0" cx="1577.87" cy="1388.02" r="2"/>
<circle clip-path="url(#clip402)" style="fill:#009af9; stroke:none; fill-opacity:0" cx="1948.11" cy="1670.45" r="2"/>
<circle clip-path="url(#clip402)" style="fill:#009af9; stroke:none; fill-opacity:0" cx="2318.35" cy="1710.8" r="2"/>
<path clip-path="url(#clip400)" d="M2255.52 209.375 L2557.56 209.375 L2557.56 105.695 L2255.52 105.695  Z" fill="#ffffff" fill-rule="evenodd" fill-opacity="1"/>
<polyline clip-path="url(#clip400)" style="stroke:#000000; stroke-linecap:round; stroke-linejoin:round; stroke-width:4; stroke-opacity:1; fill:none" points="2255.52,209.375 2557.56,209.375 2557.56,105.695 2255.52,105.695 2255.52,209.375 "/>
<path clip-path="url(#clip400)" d="M2283.26 178.271 L2449.66 178.271 L2449.66 136.799 L2283.26 136.799 L2283.26 178.271  Z" fill="#009af9" fill-rule="evenodd" fill-opacity="1"/>
<polyline clip-path="url(#clip400)" style="stroke:#000000; stroke-linecap:round; stroke-linejoin:round; stroke-width:4; stroke-opacity:1; fill:none" points="2283.26,178.271 2449.66,178.271 2449.66,136.799 2283.26,136.799 2283.26,178.271 "/>
<path clip-path="url(#clip400)" d="M2491.23 177.223 Q2489.43 181.852 2487.72 183.264 Q2486 184.676 2483.13 184.676 L2479.73 184.676 L2479.73 181.112 L2482.23 181.112 Q2483.99 181.112 2484.96 180.278 Q2485.93 179.445 2487.11 176.343 L2487.88 174.399 L2477.39 148.889 L2481.91 148.889 L2490.01 169.167 L2498.11 148.889 L2502.62 148.889 L2491.23 177.223 Z" fill="#000000" fill-rule="nonzero" fill-opacity="1" /><path clip-path="url(#clip400)" d="M2509.91 170.88 L2517.55 170.88 L2517.55 144.515 L2509.24 146.181 L2509.24 141.922 L2517.51 140.255 L2522.18 140.255 L2522.18 170.88 L2529.82 170.88 L2529.82 174.815 L2509.91 174.815 L2509.91 170.88 Z" fill="#000000" fill-rule="nonzero" fill-opacity="1" /></svg>
