<?xml version="1.0" encoding="utf-8"?>
<svg xmlns="http://www.w3.org/2000/svg" xmlns:xlink="http://www.w3.org/1999/xlink" width="672" height="480" viewBox="0 0 2688 1920">
<defs>
  <clipPath id="clip110">
    <rect x="0" y="0" width="2688" height="1920"/>
  </clipPath>
</defs>
<path clip-path="url(#clip110)" d="
M0 1920 L2688 1920 L2688 0 L0 0  Z
  " fill="#ffffff" fill-rule="evenodd" fill-opacity="1"/>
<defs>
  <clipPath id="clip111">
    <rect x="537" y="0" width="1883" height="1883"/>
  </clipPath>
</defs>
<path clip-path="url(#clip110)" d="
M174.895 1800.78 L2640.76 1800.78 L2640.76 47.2441 L174.895 47.2441  Z
  " fill="#ffffff" fill-rule="evenodd" fill-opacity="1"/>
<defs>
  <clipPath id="clip112">
    <rect x="174" y="47" width="2467" height="1755"/>
  </clipPath>
</defs>
<polyline clip-path="url(#clip112)" style="stroke:#000000; stroke-linecap:round; stroke-linejoin:round; stroke-width:2; stroke-opacity:0.1; fill:none" points="
  644.484,1800.78 644.484,47.2441 
  "/>
<polyline clip-path="url(#clip112)" style="stroke:#000000; stroke-linecap:round; stroke-linejoin:round; stroke-width:2; stroke-opacity:0.1; fill:none" points="
  1121.57,1800.78 1121.57,47.2441 
  "/>
<polyline clip-path="url(#clip112)" style="stroke:#000000; stroke-linecap:round; stroke-linejoin:round; stroke-width:2; stroke-opacity:0.1; fill:none" points="
  1598.66,1800.78 1598.66,47.2441 
  "/>
<polyline clip-path="url(#clip112)" style="stroke:#000000; stroke-linecap:round; stroke-linejoin:round; stroke-width:2; stroke-opacity:0.1; fill:none" points="
  2075.75,1800.78 2075.75,47.2441 
  "/>
<polyline clip-path="url(#clip112)" style="stroke:#000000; stroke-linecap:round; stroke-linejoin:round; stroke-width:2; stroke-opacity:0.1; fill:none" points="
  2552.84,1800.78 2552.84,47.2441 
  "/>
<polyline clip-path="url(#clip110)" style="stroke:#000000; stroke-linecap:round; stroke-linejoin:round; stroke-width:4; stroke-opacity:1; fill:none" points="
  174.895,1800.78 2640.76,1800.78 
  "/>
<polyline clip-path="url(#clip110)" style="stroke:#000000; stroke-linecap:round; stroke-linejoin:round; stroke-width:4; stroke-opacity:1; fill:none" points="
  644.484,1800.78 644.484,1781.88 
  "/>
<polyline clip-path="url(#clip110)" style="stroke:#000000; stroke-linecap:round; stroke-linejoin:round; stroke-width:4; stroke-opacity:1; fill:none" points="
  1121.57,1800.78 1121.57,1781.88 
  "/>
<polyline clip-path="url(#clip110)" style="stroke:#000000; stroke-linecap:round; stroke-linejoin:round; stroke-width:4; stroke-opacity:1; fill:none" points="
  1598.66,1800.78 1598.66,1781.88 
  "/>
<polyline clip-path="url(#clip110)" style="stroke:#000000; stroke-linecap:round; stroke-linejoin:round; stroke-width:4; stroke-opacity:1; fill:none" points="
  2075.75,1800.78 2075.75,1781.88 
  "/>
<polyline clip-path="url(#clip110)" style="stroke:#000000; stroke-linecap:round; stroke-linejoin:round; stroke-width:4; stroke-opacity:1; fill:none" points="
  2552.84,1800.78 2552.84,1781.88 
  "/>
<path clip-path="url(#clip110)" d="M622.667 1834 Q619.055 1834 617.227 1837.57 Q615.421 1841.11 615.421 1848.24 Q615.421 1855.34 617.227 1858.91 Q619.055 1862.45 622.667 1862.45 Q626.301 1862.45 628.106 1858.91 Q629.935 1855.34 629.935 1848.24 Q629.935 1841.11 628.106 1837.57 Q626.301 1834 622.667 1834 M622.667 1830.3 Q628.477 1830.3 631.532 1834.9 Q634.611 1839.49 634.611 1848.24 Q634.611 1856.96 631.532 1861.57 Q628.477 1866.15 622.667 1866.15 Q616.856 1866.15 613.778 1861.57 Q610.722 1856.96 610.722 1848.24 Q610.722 1839.49 613.778 1834.9 Q616.856 1830.3 622.667 1830.3 Z" fill="#000000" fill-rule="evenodd" fill-opacity="1" /><path clip-path="url(#clip110)" d="M642.829 1859.6 L647.713 1859.6 L647.713 1865.48 L642.829 1865.48 L642.829 1859.6 Z" fill="#000000" fill-rule="evenodd" fill-opacity="1" /><path clip-path="url(#clip110)" d="M661.926 1861.55 L678.245 1861.55 L678.245 1865.48 L656.301 1865.48 L656.301 1861.55 Q658.963 1858.79 663.546 1854.16 Q668.152 1849.51 669.333 1848.17 Q671.578 1845.65 672.458 1843.91 Q673.361 1842.15 673.361 1840.46 Q673.361 1837.71 671.416 1835.97 Q669.495 1834.23 666.393 1834.23 Q664.194 1834.23 661.74 1835 Q659.31 1835.76 656.532 1837.31 L656.532 1832.59 Q659.356 1831.46 661.81 1830.88 Q664.264 1830.3 666.301 1830.3 Q671.671 1830.3 674.865 1832.98 Q678.06 1835.67 678.06 1840.16 Q678.06 1842.29 677.25 1844.21 Q676.463 1846.11 674.356 1848.7 Q673.777 1849.37 670.676 1852.59 Q667.574 1855.78 661.926 1861.55 Z" fill="#000000" fill-rule="evenodd" fill-opacity="1" /><path clip-path="url(#clip110)" d="M1098.71 1834 Q1095.1 1834 1093.27 1837.57 Q1091.47 1841.11 1091.47 1848.24 Q1091.47 1855.34 1093.27 1858.91 Q1095.1 1862.45 1098.71 1862.45 Q1102.35 1862.45 1104.15 1858.91 Q1105.98 1855.34 1105.98 1848.24 Q1105.98 1841.11 1104.15 1837.57 Q1102.35 1834 1098.71 1834 M1098.71 1830.3 Q1104.52 1830.3 1107.58 1834.9 Q1110.66 1839.49 1110.66 1848.24 Q1110.66 1856.96 1107.58 1861.57 Q1104.52 1866.15 1098.71 1866.15 Q1092.9 1866.15 1089.82 1861.57 Q1086.77 1856.96 1086.77 1848.24 Q1086.77 1839.49 1089.82 1834.9 Q1092.9 1830.3 1098.71 1830.3 Z" fill="#000000" fill-rule="evenodd" fill-opacity="1" /><path clip-path="url(#clip110)" d="M1118.88 1859.6 L1123.76 1859.6 L1123.76 1865.48 L1118.88 1865.48 L1118.88 1859.6 Z" fill="#000000" fill-rule="evenodd" fill-opacity="1" /><path clip-path="url(#clip110)" d="M1146.79 1835 L1134.99 1853.45 L1146.79 1853.45 L1146.79 1835 M1145.57 1830.92 L1151.44 1830.92 L1151.44 1853.45 L1156.38 1853.45 L1156.38 1857.34 L1151.44 1857.34 L1151.44 1865.48 L1146.79 1865.48 L1146.79 1857.34 L1131.19 1857.34 L1131.19 1852.82 L1145.57 1830.92 Z" fill="#000000" fill-rule="evenodd" fill-opacity="1" /><path clip-path="url(#clip110)" d="M1575.96 1834 Q1572.35 1834 1570.52 1837.57 Q1568.72 1841.11 1568.72 1848.24 Q1568.72 1855.34 1570.52 1858.91 Q1572.35 1862.45 1575.96 1862.45 Q1579.6 1862.45 1581.4 1858.91 Q1583.23 1855.34 1583.23 1848.24 Q1583.23 1841.11 1581.4 1837.57 Q1579.6 1834 1575.96 1834 M1575.96 1830.3 Q1581.77 1830.3 1584.83 1834.9 Q1587.91 1839.49 1587.91 1848.24 Q1587.91 1856.96 1584.83 1861.57 Q1581.77 1866.15 1575.96 1866.15 Q1570.15 1866.15 1567.08 1861.57 Q1564.02 1856.96 1564.02 1848.24 Q1564.02 1839.49 1567.08 1834.9 Q1570.15 1830.3 1575.96 1830.3 Z" fill="#000000" fill-rule="evenodd" fill-opacity="1" /><path clip-path="url(#clip110)" d="M1596.13 1859.6 L1601.01 1859.6 L1601.01 1865.48 L1596.13 1865.48 L1596.13 1859.6 Z" fill="#000000" fill-rule="evenodd" fill-opacity="1" /><path clip-path="url(#clip110)" d="M1621.77 1846.34 Q1618.63 1846.34 1616.77 1848.49 Q1614.95 1850.65 1614.95 1854.4 Q1614.95 1858.12 1616.77 1860.3 Q1618.63 1862.45 1621.77 1862.45 Q1624.92 1862.45 1626.75 1860.3 Q1628.6 1858.12 1628.6 1854.4 Q1628.6 1850.65 1626.75 1848.49 Q1624.92 1846.34 1621.77 1846.34 M1631.06 1831.69 L1631.06 1835.95 Q1629.3 1835.11 1627.49 1834.67 Q1625.71 1834.23 1623.95 1834.23 Q1619.32 1834.23 1616.87 1837.36 Q1614.44 1840.48 1614.09 1846.8 Q1615.45 1844.79 1617.51 1843.72 Q1619.58 1842.64 1622.05 1842.64 Q1627.26 1842.64 1630.27 1845.81 Q1633.3 1848.96 1633.3 1854.4 Q1633.3 1859.72 1630.15 1862.94 Q1627.01 1866.15 1621.77 1866.15 Q1615.78 1866.15 1612.61 1861.57 Q1609.44 1856.96 1609.44 1848.24 Q1609.44 1840.04 1613.33 1835.18 Q1617.21 1830.3 1623.76 1830.3 Q1625.52 1830.3 1627.31 1830.65 Q1629.11 1830.99 1631.06 1831.69 Z" fill="#000000" fill-rule="evenodd" fill-opacity="1" /><path clip-path="url(#clip110)" d="M2053.18 1834 Q2049.57 1834 2047.74 1837.57 Q2045.93 1841.11 2045.93 1848.24 Q2045.93 1855.34 2047.74 1858.91 Q2049.57 1862.45 2053.18 1862.45 Q2056.81 1862.45 2058.62 1858.91 Q2060.45 1855.34 2060.45 1848.24 Q2060.45 1841.11 2058.62 1837.57 Q2056.81 1834 2053.18 1834 M2053.18 1830.3 Q2058.99 1830.3 2062.05 1834.9 Q2065.12 1839.49 2065.12 1848.24 Q2065.12 1856.96 2062.05 1861.57 Q2058.99 1866.15 2053.18 1866.15 Q2047.37 1866.15 2044.29 1861.57 Q2041.24 1856.96 2041.24 1848.24 Q2041.24 1839.49 2044.29 1834.9 Q2047.37 1830.3 2053.18 1830.3 Z" fill="#000000" fill-rule="evenodd" fill-opacity="1" /><path clip-path="url(#clip110)" d="M2073.34 1859.6 L2078.23 1859.6 L2078.23 1865.48 L2073.34 1865.48 L2073.34 1859.6 Z" fill="#000000" fill-rule="evenodd" fill-opacity="1" /><path clip-path="url(#clip110)" d="M2098.41 1849.07 Q2095.08 1849.07 2093.16 1850.85 Q2091.26 1852.64 2091.26 1855.76 Q2091.26 1858.89 2093.16 1860.67 Q2095.08 1862.45 2098.41 1862.45 Q2101.74 1862.45 2103.67 1860.67 Q2105.59 1858.86 2105.59 1855.76 Q2105.59 1852.64 2103.67 1850.85 Q2101.77 1849.07 2098.41 1849.07 M2093.74 1847.08 Q2090.73 1846.34 2089.04 1844.28 Q2087.37 1842.22 2087.37 1839.26 Q2087.37 1835.11 2090.31 1832.71 Q2093.27 1830.3 2098.41 1830.3 Q2103.57 1830.3 2106.51 1832.71 Q2109.45 1835.11 2109.45 1839.26 Q2109.45 1842.22 2107.76 1844.28 Q2106.1 1846.34 2103.11 1847.08 Q2106.49 1847.87 2108.36 1850.16 Q2110.26 1852.45 2110.26 1855.76 Q2110.26 1860.78 2107.18 1863.47 Q2104.13 1866.15 2098.41 1866.15 Q2092.69 1866.15 2089.62 1863.47 Q2086.56 1860.78 2086.56 1855.76 Q2086.56 1852.45 2088.46 1850.16 Q2090.36 1847.87 2093.74 1847.08 M2092.02 1839.7 Q2092.02 1842.38 2093.69 1843.89 Q2095.38 1845.39 2098.41 1845.39 Q2101.42 1845.39 2103.11 1843.89 Q2104.82 1842.38 2104.82 1839.7 Q2104.82 1837.01 2103.11 1835.51 Q2101.42 1834 2098.41 1834 Q2095.38 1834 2093.69 1835.51 Q2092.02 1837.01 2092.02 1839.7 Z" fill="#000000" fill-rule="evenodd" fill-opacity="1" /><path clip-path="url(#clip110)" d="M2519.99 1861.55 L2527.63 1861.55 L2527.63 1835.18 L2519.32 1836.85 L2519.32 1832.59 L2527.58 1830.92 L2532.26 1830.92 L2532.26 1861.55 L2539.9 1861.55 L2539.9 1865.48 L2519.99 1865.48 L2519.99 1861.55 Z" fill="#000000" fill-rule="evenodd" fill-opacity="1" /><path clip-path="url(#clip110)" d="M2549.34 1859.6 L2554.23 1859.6 L2554.23 1865.48 L2549.34 1865.48 L2549.34 1859.6 Z" fill="#000000" fill-rule="evenodd" fill-opacity="1" /><path clip-path="url(#clip110)" d="M2574.41 1834 Q2570.8 1834 2568.97 1837.57 Q2567.17 1841.11 2567.17 1848.24 Q2567.17 1855.34 2568.97 1858.91 Q2570.8 1862.45 2574.41 1862.45 Q2578.05 1862.45 2579.85 1858.91 Q2581.68 1855.34 2581.68 1848.24 Q2581.68 1841.11 2579.85 1837.57 Q2578.05 1834 2574.41 1834 M2574.41 1830.3 Q2580.22 1830.3 2583.28 1834.9 Q2586.36 1839.49 2586.36 1848.24 Q2586.36 1856.96 2583.28 1861.57 Q2580.22 1866.15 2574.41 1866.15 Q2568.6 1866.15 2565.52 1861.57 Q2562.47 1856.96 2562.47 1848.24 Q2562.47 1839.49 2565.52 1834.9 Q2568.6 1830.3 2574.41 1830.3 Z" fill="#000000" fill-rule="evenodd" fill-opacity="1" /><polyline clip-path="url(#clip112)" style="stroke:#000000; stroke-linecap:round; stroke-linejoin:round; stroke-width:2; stroke-opacity:0.1; fill:none" points="
  174.895,1751.15 2640.76,1751.15 
  "/>
<polyline clip-path="url(#clip112)" style="stroke:#000000; stroke-linecap:round; stroke-linejoin:round; stroke-width:2; stroke-opacity:0.1; fill:none" points="
  174.895,1333.4 2640.76,1333.4 
  "/>
<polyline clip-path="url(#clip112)" style="stroke:#000000; stroke-linecap:round; stroke-linejoin:round; stroke-width:2; stroke-opacity:0.1; fill:none" points="
  174.895,915.657 2640.76,915.657 
  "/>
<polyline clip-path="url(#clip112)" style="stroke:#000000; stroke-linecap:round; stroke-linejoin:round; stroke-width:2; stroke-opacity:0.1; fill:none" points="
  174.895,497.91 2640.76,497.91 
  "/>
<polyline clip-path="url(#clip112)" style="stroke:#000000; stroke-linecap:round; stroke-linejoin:round; stroke-width:2; stroke-opacity:0.1; fill:none" points="
  174.895,80.1626 2640.76,80.1626 
  "/>
<polyline clip-path="url(#clip110)" style="stroke:#000000; stroke-linecap:round; stroke-linejoin:round; stroke-width:4; stroke-opacity:1; fill:none" points="
  174.895,1800.78 174.895,47.2441 
  "/>
<polyline clip-path="url(#clip110)" style="stroke:#000000; stroke-linecap:round; stroke-linejoin:round; stroke-width:4; stroke-opacity:1; fill:none" points="
  174.895,1751.15 193.792,1751.15 
  "/>
<polyline clip-path="url(#clip110)" style="stroke:#000000; stroke-linecap:round; stroke-linejoin:round; stroke-width:4; stroke-opacity:1; fill:none" points="
  174.895,1333.4 193.792,1333.4 
  "/>
<polyline clip-path="url(#clip110)" style="stroke:#000000; stroke-linecap:round; stroke-linejoin:round; stroke-width:4; stroke-opacity:1; fill:none" points="
  174.895,915.657 193.792,915.657 
  "/>
<polyline clip-path="url(#clip110)" style="stroke:#000000; stroke-linecap:round; stroke-linejoin:round; stroke-width:4; stroke-opacity:1; fill:none" points="
  174.895,497.91 193.792,497.91 
  "/>
<polyline clip-path="url(#clip110)" style="stroke:#000000; stroke-linecap:round; stroke-linejoin:round; stroke-width:4; stroke-opacity:1; fill:none" points="
  174.895,80.1626 193.792,80.1626 
  "/>
<path clip-path="url(#clip110)" d="M122.63 1736.95 Q119.019 1736.95 117.191 1740.51 Q115.385 1744.06 115.385 1751.19 Q115.385 1758.29 117.191 1761.86 Q119.019 1765.4 122.63 1765.4 Q126.265 1765.4 128.07 1761.86 Q129.899 1758.29 129.899 1751.19 Q129.899 1744.06 128.07 1740.51 Q126.265 1736.95 122.63 1736.95 M122.63 1733.25 Q128.441 1733.25 131.496 1737.85 Q134.575 1742.44 134.575 1751.19 Q134.575 1759.91 131.496 1764.52 Q128.441 1769.1 122.63 1769.1 Q116.82 1769.1 113.742 1764.52 Q110.686 1759.91 110.686 1751.19 Q110.686 1742.44 113.742 1737.85 Q116.82 1733.25 122.63 1733.25 Z" fill="#000000" fill-rule="evenodd" fill-opacity="1" /><path clip-path="url(#clip110)" d="M56.3345 1346.75 L72.6539 1346.75 L72.6539 1350.68 L50.7095 1350.68 L50.7095 1346.75 Q53.3715 1343.99 57.9549 1339.36 Q62.5613 1334.71 63.7419 1333.37 Q65.9872 1330.85 66.8668 1329.11 Q67.7696 1327.35 67.7696 1325.66 Q67.7696 1322.91 65.8252 1321.17 Q63.9039 1319.43 60.8021 1319.43 Q58.603 1319.43 56.1493 1320.2 Q53.7188 1320.96 50.941 1322.51 L50.941 1317.79 Q53.7651 1316.66 56.2188 1316.08 Q58.6724 1315.5 60.7095 1315.5 Q66.0798 1315.5 69.2742 1318.18 Q72.4687 1320.87 72.4687 1325.36 Q72.4687 1327.49 71.6585 1329.41 Q70.8715 1331.31 68.765 1333.9 Q68.1863 1334.57 65.0845 1337.79 Q61.9826 1340.98 56.3345 1346.75 Z" fill="#000000" fill-rule="evenodd" fill-opacity="1" /><path clip-path="url(#clip110)" d="M92.4686 1319.2 Q88.8575 1319.2 87.0288 1322.77 Q85.2232 1326.31 85.2232 1333.44 Q85.2232 1340.55 87.0288 1344.11 Q88.8575 1347.65 92.4686 1347.65 Q96.1028 1347.65 97.9083 1344.11 Q99.737 1340.55 99.737 1333.44 Q99.737 1326.31 97.9083 1322.77 Q96.1028 1319.2 92.4686 1319.2 M92.4686 1315.5 Q98.2787 1315.5 101.334 1320.11 Q104.413 1324.69 104.413 1333.44 Q104.413 1342.17 101.334 1346.77 Q98.2787 1351.36 92.4686 1351.36 Q86.6584 1351.36 83.5797 1346.77 Q80.5242 1342.17 80.5242 1333.44 Q80.5242 1324.69 83.5797 1320.11 Q86.6584 1315.5 92.4686 1315.5 Z" fill="#000000" fill-rule="evenodd" fill-opacity="1" /><path clip-path="url(#clip110)" d="M122.63 1319.2 Q119.019 1319.2 117.191 1322.77 Q115.385 1326.31 115.385 1333.44 Q115.385 1340.55 117.191 1344.11 Q119.019 1347.65 122.63 1347.65 Q126.265 1347.65 128.07 1344.11 Q129.899 1340.55 129.899 1333.44 Q129.899 1326.31 128.07 1322.77 Q126.265 1319.2 122.63 1319.2 M122.63 1315.5 Q128.441 1315.5 131.496 1320.11 Q134.575 1324.69 134.575 1333.44 Q134.575 1342.17 131.496 1346.77 Q128.441 1351.36 122.63 1351.36 Q116.82 1351.36 113.742 1346.77 Q110.686 1342.17 110.686 1333.44 Q110.686 1324.69 113.742 1320.11 Q116.82 1315.5 122.63 1315.5 Z" fill="#000000" fill-rule="evenodd" fill-opacity="1" /><path clip-path="url(#clip110)" d="M65.1539 902.451 L53.3484 920.9 L65.1539 920.9 L65.1539 902.451 M63.927 898.377 L69.8066 898.377 L69.8066 920.9 L74.7372 920.9 L74.7372 924.789 L69.8066 924.789 L69.8066 932.937 L65.1539 932.937 L65.1539 924.789 L49.5521 924.789 L49.5521 920.275 L63.927 898.377 Z" fill="#000000" fill-rule="evenodd" fill-opacity="1" /><path clip-path="url(#clip110)" d="M92.4686 901.455 Q88.8575 901.455 87.0288 905.02 Q85.2232 908.562 85.2232 915.691 Q85.2232 922.798 87.0288 926.363 Q88.8575 929.904 92.4686 929.904 Q96.1028 929.904 97.9083 926.363 Q99.737 922.798 99.737 915.691 Q99.737 908.562 97.9083 905.02 Q96.1028 901.455 92.4686 901.455 M92.4686 897.752 Q98.2787 897.752 101.334 902.358 Q104.413 906.942 104.413 915.691 Q104.413 924.418 101.334 929.025 Q98.2787 933.608 92.4686 933.608 Q86.6584 933.608 83.5797 929.025 Q80.5242 924.418 80.5242 915.691 Q80.5242 906.942 83.5797 902.358 Q86.6584 897.752 92.4686 897.752 Z" fill="#000000" fill-rule="evenodd" fill-opacity="1" /><path clip-path="url(#clip110)" d="M122.63 901.455 Q119.019 901.455 117.191 905.02 Q115.385 908.562 115.385 915.691 Q115.385 922.798 117.191 926.363 Q119.019 929.904 122.63 929.904 Q126.265 929.904 128.07 926.363 Q129.899 922.798 129.899 915.691 Q129.899 908.562 128.07 905.02 Q126.265 901.455 122.63 901.455 M122.63 897.752 Q128.441 897.752 131.496 902.358 Q134.575 906.942 134.575 915.691 Q134.575 924.418 131.496 929.025 Q128.441 933.608 122.63 933.608 Q116.82 933.608 113.742 929.025 Q110.686 924.418 110.686 915.691 Q110.686 906.942 113.742 902.358 Q116.82 897.752 122.63 897.752 Z" fill="#000000" fill-rule="evenodd" fill-opacity="1" /><path clip-path="url(#clip110)" d="M62.8854 496.046 Q59.7373 496.046 57.8854 498.199 Q56.0567 500.352 56.0567 504.102 Q56.0567 507.829 57.8854 510.005 Q59.7373 512.157 62.8854 512.157 Q66.0335 512.157 67.8622 510.005 Q69.7141 507.829 69.7141 504.102 Q69.7141 500.352 67.8622 498.199 Q66.0335 496.046 62.8854 496.046 M72.1677 481.394 L72.1677 485.653 Q70.4085 484.819 68.6029 484.38 Q66.8206 483.94 65.0613 483.94 Q60.4317 483.94 57.978 487.065 Q55.5475 490.19 55.2002 496.509 Q56.566 494.495 58.6262 493.431 Q60.6863 492.343 63.1632 492.343 Q68.3715 492.343 71.3807 495.514 Q74.4131 498.662 74.4131 504.102 Q74.4131 509.426 71.265 512.643 Q68.1168 515.861 62.8854 515.861 Q56.89 515.861 53.7188 511.278 Q50.5475 506.671 50.5475 497.944 Q50.5475 489.75 54.4364 484.889 Q58.3252 480.005 64.8761 480.005 Q66.6354 480.005 68.4178 480.352 Q70.2233 480.699 72.1677 481.394 Z" fill="#000000" fill-rule="evenodd" fill-opacity="1" /><path clip-path="url(#clip110)" d="M92.4686 483.708 Q88.8575 483.708 87.0288 487.273 Q85.2232 490.815 85.2232 497.944 Q85.2232 505.051 87.0288 508.616 Q88.8575 512.157 92.4686 512.157 Q96.1028 512.157 97.9083 508.616 Q99.737 505.051 99.737 497.944 Q99.737 490.815 97.9083 487.273 Q96.1028 483.708 92.4686 483.708 M92.4686 480.005 Q98.2787 480.005 101.334 484.611 Q104.413 489.194 104.413 497.944 Q104.413 506.671 101.334 511.278 Q98.2787 515.861 92.4686 515.861 Q86.6584 515.861 83.5797 511.278 Q80.5242 506.671 80.5242 497.944 Q80.5242 489.194 83.5797 484.611 Q86.6584 480.005 92.4686 480.005 Z" fill="#000000" fill-rule="evenodd" fill-opacity="1" /><path clip-path="url(#clip110)" d="M122.63 483.708 Q119.019 483.708 117.191 487.273 Q115.385 490.815 115.385 497.944 Q115.385 505.051 117.191 508.616 Q119.019 512.157 122.63 512.157 Q126.265 512.157 128.07 508.616 Q129.899 505.051 129.899 497.944 Q129.899 490.815 128.07 487.273 Q126.265 483.708 122.63 483.708 M122.63 480.005 Q128.441 480.005 131.496 484.611 Q134.575 489.194 134.575 497.944 Q134.575 506.671 131.496 511.278 Q128.441 515.861 122.63 515.861 Q116.82 515.861 113.742 511.278 Q110.686 506.671 110.686 497.944 Q110.686 489.194 113.742 484.611 Q116.82 480.005 122.63 480.005 Z" fill="#000000" fill-rule="evenodd" fill-opacity="1" /><path clip-path="url(#clip110)" d="M62.3067 81.0306 Q58.9734 81.0306 57.0521 82.813 Q55.1539 84.5954 55.1539 87.7204 Q55.1539 90.8454 57.0521 92.6278 Q58.9734 94.4102 62.3067 94.4102 Q65.64 94.4102 67.5613 92.6278 Q69.4826 90.8222 69.4826 87.7204 Q69.4826 84.5954 67.5613 82.813 Q65.6632 81.0306 62.3067 81.0306 M57.6308 79.0399 Q54.6215 78.2991 52.9317 76.239 Q51.2651 74.1788 51.2651 71.2159 Q51.2651 67.0724 54.2049 64.665 Q57.1678 62.2576 62.3067 62.2576 Q67.4687 62.2576 70.4085 64.665 Q73.3483 67.0724 73.3483 71.2159 Q73.3483 74.1788 71.6585 76.239 Q69.9918 78.2991 67.0057 79.0399 Q70.3853 79.8269 72.2603 82.1186 Q74.1585 84.4102 74.1585 87.7204 Q74.1585 92.7435 71.0798 95.4287 Q68.0242 98.1139 62.3067 98.1139 Q56.5891 98.1139 53.5104 95.4287 Q50.4549 92.7435 50.4549 87.7204 Q50.4549 84.4102 52.353 82.1186 Q54.2512 79.8269 57.6308 79.0399 M55.9178 71.6557 Q55.9178 74.3408 57.5845 75.8455 Q59.2743 77.3501 62.3067 77.3501 Q65.3159 77.3501 67.0057 75.8455 Q68.7187 74.3408 68.7187 71.6557 Q68.7187 68.9705 67.0057 67.4659 Q65.3159 65.9613 62.3067 65.9613 Q59.2743 65.9613 57.5845 67.4659 Q55.9178 68.9705 55.9178 71.6557 Z" fill="#000000" fill-rule="evenodd" fill-opacity="1" /><path clip-path="url(#clip110)" d="M92.4686 65.9613 Q88.8575 65.9613 87.0288 69.526 Q85.2232 73.0677 85.2232 80.1973 Q85.2232 87.3037 87.0288 90.8685 Q88.8575 94.4102 92.4686 94.4102 Q96.1028 94.4102 97.9083 90.8685 Q99.737 87.3037 99.737 80.1973 Q99.737 73.0677 97.9083 69.526 Q96.1028 65.9613 92.4686 65.9613 M92.4686 62.2576 Q98.2787 62.2576 101.334 66.864 Q104.413 71.4473 104.413 80.1973 Q104.413 88.9241 101.334 93.5305 Q98.2787 98.1139 92.4686 98.1139 Q86.6584 98.1139 83.5797 93.5305 Q80.5242 88.9241 80.5242 80.1973 Q80.5242 71.4473 83.5797 66.864 Q86.6584 62.2576 92.4686 62.2576 Z" fill="#000000" fill-rule="evenodd" fill-opacity="1" /><path clip-path="url(#clip110)" d="M122.63 65.9613 Q119.019 65.9613 117.191 69.526 Q115.385 73.0677 115.385 80.1973 Q115.385 87.3037 117.191 90.8685 Q119.019 94.4102 122.63 94.4102 Q126.265 94.4102 128.07 90.8685 Q129.899 87.3037 129.899 80.1973 Q129.899 73.0677 128.07 69.526 Q126.265 65.9613 122.63 65.9613 M122.63 62.2576 Q128.441 62.2576 131.496 66.864 Q134.575 71.4473 134.575 80.1973 Q134.575 88.9241 131.496 93.5305 Q128.441 98.1139 122.63 98.1139 Q116.82 98.1139 113.742 93.5305 Q110.686 88.9241 110.686 80.1973 Q110.686 71.4473 113.742 66.864 Q116.82 62.2576 122.63 62.2576 Z" fill="#000000" fill-rule="evenodd" fill-opacity="1" /><path clip-path="url(#clip112)" d="
M310.522 1749.06 L310.522 1751.15 L358.23 1751.15 L358.23 1749.06 L310.522 1749.06 L310.522 1749.06  Z
  " fill="#009af9" fill-rule="evenodd" fill-opacity="1"/>
<polyline clip-path="url(#clip112)" style="stroke:#000000; stroke-linecap:round; stroke-linejoin:round; stroke-width:4; stroke-opacity:1; fill:none" points="
  310.522,1749.06 310.522,1751.15 358.23,1751.15 358.23,1749.06 310.522,1749.06 
  "/>
<path clip-path="url(#clip112)" d="
M358.23 1751.15 L358.23 1751.15 L405.939 1751.15 L405.939 1751.15 L358.23 1751.15 L358.23 1751.15  Z
  " fill="#009af9" fill-rule="evenodd" fill-opacity="1"/>
<polyline clip-path="url(#clip112)" style="stroke:#000000; stroke-linecap:round; stroke-linejoin:round; stroke-width:4; stroke-opacity:1; fill:none" points="
  358.23,1751.15 358.23,1751.15 405.939,1751.15 358.23,1751.15 
  "/>
<path clip-path="url(#clip112)" d="
M405.939 1749.06 L405.939 1751.15 L453.648 1751.15 L453.648 1749.06 L405.939 1749.06 L405.939 1749.06  Z
  " fill="#009af9" fill-rule="evenodd" fill-opacity="1"/>
<polyline clip-path="url(#clip112)" style="stroke:#000000; stroke-linecap:round; stroke-linejoin:round; stroke-width:4; stroke-opacity:1; fill:none" points="
  405.939,1749.06 405.939,1751.15 453.648,1751.15 453.648,1749.06 405.939,1749.06 
  "/>
<path clip-path="url(#clip112)" d="
M453.648 1751.15 L453.648 1751.15 L501.357 1751.15 L501.357 1751.15 L453.648 1751.15 L453.648 1751.15  Z
  " fill="#009af9" fill-rule="evenodd" fill-opacity="1"/>
<polyline clip-path="url(#clip112)" style="stroke:#000000; stroke-linecap:round; stroke-linejoin:round; stroke-width:4; stroke-opacity:1; fill:none" points="
  453.648,1751.15 453.648,1751.15 501.357,1751.15 453.648,1751.15 
  "/>
<path clip-path="url(#clip112)" d="
M501.357 1751.15 L501.357 1751.15 L549.066 1751.15 L549.066 1751.15 L501.357 1751.15 L501.357 1751.15  Z
  " fill="#009af9" fill-rule="evenodd" fill-opacity="1"/>
<polyline clip-path="url(#clip112)" style="stroke:#000000; stroke-linecap:round; stroke-linejoin:round; stroke-width:4; stroke-opacity:1; fill:none" points="
  501.357,1751.15 501.357,1751.15 549.066,1751.15 501.357,1751.15 
  "/>
<path clip-path="url(#clip112)" d="
M549.066 1740.71 L549.066 1751.15 L596.775 1751.15 L596.775 1740.71 L549.066 1740.71 L549.066 1740.71  Z
  " fill="#009af9" fill-rule="evenodd" fill-opacity="1"/>
<polyline clip-path="url(#clip112)" style="stroke:#000000; stroke-linecap:round; stroke-linejoin:round; stroke-width:4; stroke-opacity:1; fill:none" points="
  549.066,1740.71 549.066,1751.15 596.775,1751.15 596.775,1740.71 549.066,1740.71 
  "/>
<path clip-path="url(#clip112)" d="
M596.775 1738.62 L596.775 1751.15 L644.484 1751.15 L644.484 1738.62 L596.775 1738.62 L596.775 1738.62  Z
  " fill="#009af9" fill-rule="evenodd" fill-opacity="1"/>
<polyline clip-path="url(#clip112)" style="stroke:#000000; stroke-linecap:round; stroke-linejoin:round; stroke-width:4; stroke-opacity:1; fill:none" points="
  596.775,1738.62 596.775,1751.15 644.484,1751.15 644.484,1738.62 596.775,1738.62 
  "/>
<path clip-path="url(#clip112)" d="
M644.484 1728.17 L644.484 1751.15 L692.192 1751.15 L692.192 1728.17 L644.484 1728.17 L644.484 1728.17  Z
  " fill="#009af9" fill-rule="evenodd" fill-opacity="1"/>
<polyline clip-path="url(#clip112)" style="stroke:#000000; stroke-linecap:round; stroke-linejoin:round; stroke-width:4; stroke-opacity:1; fill:none" points="
  644.484,1728.17 644.484,1751.15 692.192,1751.15 692.192,1728.17 644.484,1728.17 
  "/>
<path clip-path="url(#clip112)" d="
M692.192 1707.29 L692.192 1751.15 L739.901 1751.15 L739.901 1707.29 L692.192 1707.29 L692.192 1707.29  Z
  " fill="#009af9" fill-rule="evenodd" fill-opacity="1"/>
<polyline clip-path="url(#clip112)" style="stroke:#000000; stroke-linecap:round; stroke-linejoin:round; stroke-width:4; stroke-opacity:1; fill:none" points="
  692.192,1707.29 692.192,1751.15 739.901,1751.15 739.901,1707.29 692.192,1707.29 
  "/>
<path clip-path="url(#clip112)" d="
M739.901 1673.87 L739.901 1751.15 L787.61 1751.15 L787.61 1673.87 L739.901 1673.87 L739.901 1673.87  Z
  " fill="#009af9" fill-rule="evenodd" fill-opacity="1"/>
<polyline clip-path="url(#clip112)" style="stroke:#000000; stroke-linecap:round; stroke-linejoin:round; stroke-width:4; stroke-opacity:1; fill:none" points="
  739.901,1673.87 739.901,1751.15 787.61,1751.15 787.61,1673.87 739.901,1673.87 
  "/>
<path clip-path="url(#clip112)" d="
M787.61 1627.92 L787.61 1751.15 L835.319 1751.15 L835.319 1627.92 L787.61 1627.92 L787.61 1627.92  Z
  " fill="#009af9" fill-rule="evenodd" fill-opacity="1"/>
<polyline clip-path="url(#clip112)" style="stroke:#000000; stroke-linecap:round; stroke-linejoin:round; stroke-width:4; stroke-opacity:1; fill:none" points="
  787.61,1627.92 787.61,1751.15 835.319,1751.15 835.319,1627.92 787.61,1627.92 
  "/>
<path clip-path="url(#clip112)" d="
M835.319 1561.08 L835.319 1751.15 L883.028 1751.15 L883.028 1561.08 L835.319 1561.08 L835.319 1561.08  Z
  " fill="#009af9" fill-rule="evenodd" fill-opacity="1"/>
<polyline clip-path="url(#clip112)" style="stroke:#000000; stroke-linecap:round; stroke-linejoin:round; stroke-width:4; stroke-opacity:1; fill:none" points="
  835.319,1561.08 835.319,1751.15 883.028,1751.15 883.028,1561.08 835.319,1561.08 
  "/>
<path clip-path="url(#clip112)" d="
M883.028 1460.82 L883.028 1751.15 L930.737 1751.15 L930.737 1460.82 L883.028 1460.82 L883.028 1460.82  Z
  " fill="#009af9" fill-rule="evenodd" fill-opacity="1"/>
<polyline clip-path="url(#clip112)" style="stroke:#000000; stroke-linecap:round; stroke-linejoin:round; stroke-width:4; stroke-opacity:1; fill:none" points="
  883.028,1460.82 883.028,1751.15 930.737,1751.15 930.737,1460.82 883.028,1460.82 
  "/>
<path clip-path="url(#clip112)" d="
M930.737 1408.6 L930.737 1751.15 L978.446 1751.15 L978.446 1408.6 L930.737 1408.6 L930.737 1408.6  Z
  " fill="#009af9" fill-rule="evenodd" fill-opacity="1"/>
<polyline clip-path="url(#clip112)" style="stroke:#000000; stroke-linecap:round; stroke-linejoin:round; stroke-width:4; stroke-opacity:1; fill:none" points="
  930.737,1408.6 930.737,1751.15 978.446,1751.15 978.446,1408.6 930.737,1408.6 
  "/>
<path clip-path="url(#clip112)" d="
M978.446 1187.19 L978.446 1751.15 L1026.15 1751.15 L1026.15 1187.19 L978.446 1187.19 L978.446 1187.19  Z
  " fill="#009af9" fill-rule="evenodd" fill-opacity="1"/>
<polyline clip-path="url(#clip112)" style="stroke:#000000; stroke-linecap:round; stroke-linejoin:round; stroke-width:4; stroke-opacity:1; fill:none" points="
  978.446,1187.19 978.446,1751.15 1026.15,1751.15 1026.15,1187.19 978.446,1187.19 
  "/>
<path clip-path="url(#clip112)" d="
M1026.15 976.23 L1026.15 1751.15 L1073.86 1751.15 L1073.86 976.23 L1026.15 976.23 L1026.15 976.23  Z
  " fill="#009af9" fill-rule="evenodd" fill-opacity="1"/>
<polyline clip-path="url(#clip112)" style="stroke:#000000; stroke-linecap:round; stroke-linejoin:round; stroke-width:4; stroke-opacity:1; fill:none" points="
  1026.15,976.23 1026.15,1751.15 1073.86,1751.15 1073.86,976.23 1026.15,976.23 
  "/>
<path clip-path="url(#clip112)" d="
M1073.86 873.882 L1073.86 1751.15 L1121.57 1751.15 L1121.57 873.882 L1073.86 873.882 L1073.86 873.882  Z
  " fill="#009af9" fill-rule="evenodd" fill-opacity="1"/>
<polyline clip-path="url(#clip112)" style="stroke:#000000; stroke-linecap:round; stroke-linejoin:round; stroke-width:4; stroke-opacity:1; fill:none" points="
  1073.86,873.882 1073.86,1751.15 1121.57,1751.15 1121.57,873.882 1073.86,873.882 
  "/>
<path clip-path="url(#clip112)" d="
M1121.57 642.032 L1121.57 1751.15 L1169.28 1751.15 L1169.28 642.032 L1121.57 642.032 L1121.57 642.032  Z
  " fill="#009af9" fill-rule="evenodd" fill-opacity="1"/>
<polyline clip-path="url(#clip112)" style="stroke:#000000; stroke-linecap:round; stroke-linejoin:round; stroke-width:4; stroke-opacity:1; fill:none" points="
  1121.57,642.032 1121.57,1751.15 1169.28,1751.15 1169.28,642.032 1121.57,642.032 
  "/>
<path clip-path="url(#clip112)" d="
M1169.28 414.36 L1169.28 1751.15 L1216.99 1751.15 L1216.99 414.36 L1169.28 414.36 L1169.28 414.36  Z
  " fill="#009af9" fill-rule="evenodd" fill-opacity="1"/>
<polyline clip-path="url(#clip112)" style="stroke:#000000; stroke-linecap:round; stroke-linejoin:round; stroke-width:4; stroke-opacity:1; fill:none" points="
  1169.28,414.36 1169.28,1751.15 1216.99,1751.15 1216.99,414.36 1169.28,414.36 
  "/>
<path clip-path="url(#clip112)" d="
M1216.99 218.019 L1216.99 1751.15 L1264.7 1751.15 L1264.7 218.019 L1216.99 218.019 L1216.99 218.019  Z
  " fill="#009af9" fill-rule="evenodd" fill-opacity="1"/>
<polyline clip-path="url(#clip112)" style="stroke:#000000; stroke-linecap:round; stroke-linejoin:round; stroke-width:4; stroke-opacity:1; fill:none" points="
  1216.99,218.019 1216.99,1751.15 1264.7,1751.15 1264.7,218.019 1216.99,218.019 
  "/>
<path clip-path="url(#clip112)" d="
M1264.7 142.825 L1264.7 1751.15 L1312.41 1751.15 L1312.41 142.825 L1264.7 142.825 L1264.7 142.825  Z
  " fill="#009af9" fill-rule="evenodd" fill-opacity="1"/>
<polyline clip-path="url(#clip112)" style="stroke:#000000; stroke-linecap:round; stroke-linejoin:round; stroke-width:4; stroke-opacity:1; fill:none" points="
  1264.7,142.825 1264.7,1751.15 1312.41,1751.15 1312.41,142.825 1264.7,142.825 
  "/>
<path clip-path="url(#clip112)" d="
M1312.41 96.8724 L1312.41 1751.15 L1360.12 1751.15 L1360.12 96.8724 L1312.41 96.8724 L1312.41 96.8724  Z
  " fill="#009af9" fill-rule="evenodd" fill-opacity="1"/>
<polyline clip-path="url(#clip112)" style="stroke:#000000; stroke-linecap:round; stroke-linejoin:round; stroke-width:4; stroke-opacity:1; fill:none" points="
  1312.41,96.8724 1312.41,1751.15 1360.12,1751.15 1360.12,96.8724 1312.41,96.8724 
  "/>
<path clip-path="url(#clip112)" d="
M1360.12 98.9612 L1360.12 1751.15 L1407.83 1751.15 L1407.83 98.9612 L1360.12 98.9612 L1360.12 98.9612  Z
  " fill="#009af9" fill-rule="evenodd" fill-opacity="1"/>
<polyline clip-path="url(#clip112)" style="stroke:#000000; stroke-linecap:round; stroke-linejoin:round; stroke-width:4; stroke-opacity:1; fill:none" points="
  1360.12,98.9612 1360.12,1751.15 1407.83,1751.15 1407.83,98.9612 1360.12,98.9612 
  "/>
<path clip-path="url(#clip112)" d="
M1407.83 282.77 L1407.83 1751.15 L1455.53 1751.15 L1455.53 282.77 L1407.83 282.77 L1407.83 282.77  Z
  " fill="#009af9" fill-rule="evenodd" fill-opacity="1"/>
<polyline clip-path="url(#clip112)" style="stroke:#000000; stroke-linecap:round; stroke-linejoin:round; stroke-width:4; stroke-opacity:1; fill:none" points="
  1407.83,282.77 1407.83,1751.15 1455.53,1751.15 1455.53,282.77 1407.83,282.77 
  "/>
<path clip-path="url(#clip112)" d="
M1455.53 314.101 L1455.53 1751.15 L1503.24 1751.15 L1503.24 314.101 L1455.53 314.101 L1455.53 314.101  Z
  " fill="#009af9" fill-rule="evenodd" fill-opacity="1"/>
<polyline clip-path="url(#clip112)" style="stroke:#000000; stroke-linecap:round; stroke-linejoin:round; stroke-width:4; stroke-opacity:1; fill:none" points="
  1455.53,314.101 1455.53,1751.15 1503.24,1751.15 1503.24,314.101 1455.53,314.101 
  "/>
<path clip-path="url(#clip112)" d="
M1503.24 437.336 L1503.24 1751.15 L1550.95 1751.15 L1550.95 437.336 L1503.24 437.336 L1503.24 437.336  Z
  " fill="#009af9" fill-rule="evenodd" fill-opacity="1"/>
<polyline clip-path="url(#clip112)" style="stroke:#000000; stroke-linecap:round; stroke-linejoin:round; stroke-width:4; stroke-opacity:1; fill:none" points="
  1503.24,437.336 1503.24,1751.15 1550.95,1751.15 1550.95,437.336 1503.24,437.336 
  "/>
<path clip-path="url(#clip112)" d="
M1550.95 625.323 L1550.95 1751.15 L1598.66 1751.15 L1598.66 625.323 L1550.95 625.323 L1550.95 625.323  Z
  " fill="#009af9" fill-rule="evenodd" fill-opacity="1"/>
<polyline clip-path="url(#clip112)" style="stroke:#000000; stroke-linecap:round; stroke-linejoin:round; stroke-width:4; stroke-opacity:1; fill:none" points="
  1550.95,625.323 1550.95,1751.15 1598.66,1751.15 1598.66,625.323 1550.95,625.323 
  "/>
<path clip-path="url(#clip112)" d="
M1598.66 786.155 L1598.66 1751.15 L1646.37 1751.15 L1646.37 786.155 L1598.66 786.155 L1598.66 786.155  Z
  " fill="#009af9" fill-rule="evenodd" fill-opacity="1"/>
<polyline clip-path="url(#clip112)" style="stroke:#000000; stroke-linecap:round; stroke-linejoin:round; stroke-width:4; stroke-opacity:1; fill:none" points="
  1598.66,786.155 1598.66,1751.15 1646.37,1751.15 1646.37,786.155 1598.66,786.155 
  "/>
<path clip-path="url(#clip112)" d="
M1646.37 1040.98 L1646.37 1751.15 L1694.08 1751.15 L1694.08 1040.98 L1646.37 1040.98 L1646.37 1040.98  Z
  " fill="#009af9" fill-rule="evenodd" fill-opacity="1"/>
<polyline clip-path="url(#clip112)" style="stroke:#000000; stroke-linecap:round; stroke-linejoin:round; stroke-width:4; stroke-opacity:1; fill:none" points="
  1646.37,1040.98 1646.37,1751.15 1694.08,1751.15 1694.08,1040.98 1646.37,1040.98 
  "/>
<path clip-path="url(#clip112)" d="
M1694.08 1249.85 L1694.08 1751.15 L1741.79 1751.15 L1741.79 1249.85 L1694.08 1249.85 L1694.08 1249.85  Z
  " fill="#009af9" fill-rule="evenodd" fill-opacity="1"/>
<polyline clip-path="url(#clip112)" style="stroke:#000000; stroke-linecap:round; stroke-linejoin:round; stroke-width:4; stroke-opacity:1; fill:none" points="
  1694.08,1249.85 1694.08,1751.15 1741.79,1751.15 1741.79,1249.85 1694.08,1249.85 
  "/>
<path clip-path="url(#clip112)" d="
M1741.79 1371 L1741.79 1751.15 L1789.5 1751.15 L1789.5 1371 L1741.79 1371 L1741.79 1371  Z
  " fill="#009af9" fill-rule="evenodd" fill-opacity="1"/>
<polyline clip-path="url(#clip112)" style="stroke:#000000; stroke-linecap:round; stroke-linejoin:round; stroke-width:4; stroke-opacity:1; fill:none" points="
  1741.79,1371 1741.79,1751.15 1789.5,1751.15 1789.5,1371 1741.79,1371 
  "/>
<path clip-path="url(#clip112)" d="
M1789.5 1419.04 L1789.5 1751.15 L1837.21 1751.15 L1837.21 1419.04 L1789.5 1419.04 L1789.5 1419.04  Z
  " fill="#009af9" fill-rule="evenodd" fill-opacity="1"/>
<polyline clip-path="url(#clip112)" style="stroke:#000000; stroke-linecap:round; stroke-linejoin:round; stroke-width:4; stroke-opacity:1; fill:none" points="
  1789.5,1419.04 1789.5,1751.15 1837.21,1751.15 1837.21,1419.04 1789.5,1419.04 
  "/>
<path clip-path="url(#clip112)" d="
M1837.21 1594.5 L1837.21 1751.15 L1884.91 1751.15 L1884.91 1594.5 L1837.21 1594.5 L1837.21 1594.5  Z
  " fill="#009af9" fill-rule="evenodd" fill-opacity="1"/>
<polyline clip-path="url(#clip112)" style="stroke:#000000; stroke-linecap:round; stroke-linejoin:round; stroke-width:4; stroke-opacity:1; fill:none" points="
  1837.21,1594.5 1837.21,1751.15 1884.91,1751.15 1884.91,1594.5 1837.21,1594.5 
  "/>
<path clip-path="url(#clip112)" d="
M1884.91 1634.18 L1884.91 1751.15 L1932.62 1751.15 L1932.62 1634.18 L1884.91 1634.18 L1884.91 1634.18  Z
  " fill="#009af9" fill-rule="evenodd" fill-opacity="1"/>
<polyline clip-path="url(#clip112)" style="stroke:#000000; stroke-linecap:round; stroke-linejoin:round; stroke-width:4; stroke-opacity:1; fill:none" points="
  1884.91,1634.18 1884.91,1751.15 1932.62,1751.15 1932.62,1634.18 1884.91,1634.18 
  "/>
<path clip-path="url(#clip112)" d="
M1932.62 1705.2 L1932.62 1751.15 L1980.33 1751.15 L1980.33 1705.2 L1932.62 1705.2 L1932.62 1705.2  Z
  " fill="#009af9" fill-rule="evenodd" fill-opacity="1"/>
<polyline clip-path="url(#clip112)" style="stroke:#000000; stroke-linecap:round; stroke-linejoin:round; stroke-width:4; stroke-opacity:1; fill:none" points="
  1932.62,1705.2 1932.62,1751.15 1980.33,1751.15 1980.33,1705.2 1932.62,1705.2 
  "/>
<path clip-path="url(#clip112)" d="
M1980.33 1701.02 L1980.33 1751.15 L2028.04 1751.15 L2028.04 1701.02 L1980.33 1701.02 L1980.33 1701.02  Z
  " fill="#009af9" fill-rule="evenodd" fill-opacity="1"/>
<polyline clip-path="url(#clip112)" style="stroke:#000000; stroke-linecap:round; stroke-linejoin:round; stroke-width:4; stroke-opacity:1; fill:none" points="
  1980.33,1701.02 1980.33,1751.15 2028.04,1751.15 2028.04,1701.02 1980.33,1701.02 
  "/>
<path clip-path="url(#clip112)" d="
M2028.04 1715.64 L2028.04 1751.15 L2075.75 1751.15 L2075.75 1715.64 L2028.04 1715.64 L2028.04 1715.64  Z
  " fill="#009af9" fill-rule="evenodd" fill-opacity="1"/>
<polyline clip-path="url(#clip112)" style="stroke:#000000; stroke-linecap:round; stroke-linejoin:round; stroke-width:4; stroke-opacity:1; fill:none" points="
  2028.04,1715.64 2028.04,1751.15 2075.75,1751.15 2075.75,1715.64 2028.04,1715.64 
  "/>
<path clip-path="url(#clip112)" d="
M2075.75 1742.8 L2075.75 1751.15 L2123.46 1751.15 L2123.46 1742.8 L2075.75 1742.8 L2075.75 1742.8  Z
  " fill="#009af9" fill-rule="evenodd" fill-opacity="1"/>
<polyline clip-path="url(#clip112)" style="stroke:#000000; stroke-linecap:round; stroke-linejoin:round; stroke-width:4; stroke-opacity:1; fill:none" points="
  2075.75,1742.8 2075.75,1751.15 2123.46,1751.15 2123.46,1742.8 2075.75,1742.8 
  "/>
<path clip-path="url(#clip112)" d="
M2123.46 1744.88 L2123.46 1751.15 L2171.17 1751.15 L2171.17 1744.88 L2123.46 1744.88 L2123.46 1744.88  Z
  " fill="#009af9" fill-rule="evenodd" fill-opacity="1"/>
<polyline clip-path="url(#clip112)" style="stroke:#000000; stroke-linecap:round; stroke-linejoin:round; stroke-width:4; stroke-opacity:1; fill:none" points="
  2123.46,1744.88 2123.46,1751.15 2171.17,1751.15 2171.17,1744.88 2123.46,1744.88 
  "/>
<path clip-path="url(#clip112)" d="
M2171.17 1751.15 L2171.17 1751.15 L2218.88 1751.15 L2218.88 1751.15 L2171.17 1751.15 L2171.17 1751.15  Z
  " fill="#009af9" fill-rule="evenodd" fill-opacity="1"/>
<polyline clip-path="url(#clip112)" style="stroke:#000000; stroke-linecap:round; stroke-linejoin:round; stroke-width:4; stroke-opacity:1; fill:none" points="
  2171.17,1751.15 2171.17,1751.15 2218.88,1751.15 2171.17,1751.15 
  "/>
<path clip-path="url(#clip112)" d="
M2218.88 1749.06 L2218.88 1751.15 L2266.58 1751.15 L2266.58 1749.06 L2218.88 1749.06 L2218.88 1749.06  Z
  " fill="#009af9" fill-rule="evenodd" fill-opacity="1"/>
<polyline clip-path="url(#clip112)" style="stroke:#000000; stroke-linecap:round; stroke-linejoin:round; stroke-width:4; stroke-opacity:1; fill:none" points="
  2218.88,1749.06 2218.88,1751.15 2266.58,1751.15 2266.58,1749.06 2218.88,1749.06 
  "/>
<path clip-path="url(#clip112)" d="
M2266.58 1749.06 L2266.58 1751.15 L2314.29 1751.15 L2314.29 1749.06 L2266.58 1749.06 L2266.58 1749.06  Z
  " fill="#009af9" fill-rule="evenodd" fill-opacity="1"/>
<polyline clip-path="url(#clip112)" style="stroke:#000000; stroke-linecap:round; stroke-linejoin:round; stroke-width:4; stroke-opacity:1; fill:none" points="
  2266.58,1749.06 2266.58,1751.15 2314.29,1751.15 2314.29,1749.06 2266.58,1749.06 
  "/>
<path clip-path="url(#clip112)" d="
M2314.29 1751.15 L2314.29 1751.15 L2362 1751.15 L2362 1751.15 L2314.29 1751.15 L2314.29 1751.15  Z
  " fill="#009af9" fill-rule="evenodd" fill-opacity="1"/>
<polyline clip-path="url(#clip112)" style="stroke:#000000; stroke-linecap:round; stroke-linejoin:round; stroke-width:4; stroke-opacity:1; fill:none" points="
  2314.29,1751.15 2314.29,1751.15 2362,1751.15 2314.29,1751.15 
  "/>
<path clip-path="url(#clip112)" d="
M2362 1751.15 L2362 1751.15 L2409.71 1751.15 L2409.71 1751.15 L2362 1751.15 L2362 1751.15  Z
  " fill="#009af9" fill-rule="evenodd" fill-opacity="1"/>
<polyline clip-path="url(#clip112)" style="stroke:#000000; stroke-linecap:round; stroke-linejoin:round; stroke-width:4; stroke-opacity:1; fill:none" points="
  2362,1751.15 2362,1751.15 2409.71,1751.15 2362,1751.15 
  "/>
<path clip-path="url(#clip112)" d="
M2409.71 1751.15 L2409.71 1751.15 L2457.42 1751.15 L2457.42 1751.15 L2409.71 1751.15 L2409.71 1751.15  Z
  " fill="#009af9" fill-rule="evenodd" fill-opacity="1"/>
<polyline clip-path="url(#clip112)" style="stroke:#000000; stroke-linecap:round; stroke-linejoin:round; stroke-width:4; stroke-opacity:1; fill:none" points="
  2409.71,1751.15 2409.71,1751.15 2457.42,1751.15 2409.71,1751.15 
  "/>
<path clip-path="url(#clip112)" d="
M2457.42 1749.06 L2457.42 1751.15 L2505.13 1751.15 L2505.13 1749.06 L2457.42 1749.06 L2457.42 1749.06  Z
  " fill="#009af9" fill-rule="evenodd" fill-opacity="1"/>
<polyline clip-path="url(#clip112)" style="stroke:#000000; stroke-linecap:round; stroke-linejoin:round; stroke-width:4; stroke-opacity:1; fill:none" points="
  2457.42,1749.06 2457.42,1751.15 2505.13,1751.15 2505.13,1749.06 2457.42,1749.06 
  "/>
<circle clip-path="url(#clip112)" style="fill:#009af9; stroke:none; fill-opacity:0" cx="334.376" cy="1749.06" r="2"/>
<circle clip-path="url(#clip112)" style="fill:#009af9; stroke:none; fill-opacity:0" cx="382.085" cy="1751.15" r="2"/>
<circle clip-path="url(#clip112)" style="fill:#009af9; stroke:none; fill-opacity:0" cx="429.794" cy="1749.06" r="2"/>
<circle clip-path="url(#clip112)" style="fill:#009af9; stroke:none; fill-opacity:0" cx="477.503" cy="1751.15" r="2"/>
<circle clip-path="url(#clip112)" style="fill:#009af9; stroke:none; fill-opacity:0" cx="525.211" cy="1751.15" r="2"/>
<circle clip-path="url(#clip112)" style="fill:#009af9; stroke:none; fill-opacity:0" cx="572.92" cy="1740.71" r="2"/>
<circle clip-path="url(#clip112)" style="fill:#009af9; stroke:none; fill-opacity:0" cx="620.629" cy="1738.62" r="2"/>
<circle clip-path="url(#clip112)" style="fill:#009af9; stroke:none; fill-opacity:0" cx="668.338" cy="1728.17" r="2"/>
<circle clip-path="url(#clip112)" style="fill:#009af9; stroke:none; fill-opacity:0" cx="716.047" cy="1707.29" r="2"/>
<circle clip-path="url(#clip112)" style="fill:#009af9; stroke:none; fill-opacity:0" cx="763.756" cy="1673.87" r="2"/>
<circle clip-path="url(#clip112)" style="fill:#009af9; stroke:none; fill-opacity:0" cx="811.465" cy="1627.92" r="2"/>
<circle clip-path="url(#clip112)" style="fill:#009af9; stroke:none; fill-opacity:0" cx="859.173" cy="1561.08" r="2"/>
<circle clip-path="url(#clip112)" style="fill:#009af9; stroke:none; fill-opacity:0" cx="906.882" cy="1460.82" r="2"/>
<circle clip-path="url(#clip112)" style="fill:#009af9; stroke:none; fill-opacity:0" cx="954.591" cy="1408.6" r="2"/>
<circle clip-path="url(#clip112)" style="fill:#009af9; stroke:none; fill-opacity:0" cx="1002.3" cy="1187.19" r="2"/>
<circle clip-path="url(#clip112)" style="fill:#009af9; stroke:none; fill-opacity:0" cx="1050.01" cy="976.23" r="2"/>
<circle clip-path="url(#clip112)" style="fill:#009af9; stroke:none; fill-opacity:0" cx="1097.72" cy="873.882" r="2"/>
<circle clip-path="url(#clip112)" style="fill:#009af9; stroke:none; fill-opacity:0" cx="1145.43" cy="642.032" r="2"/>
<circle clip-path="url(#clip112)" style="fill:#009af9; stroke:none; fill-opacity:0" cx="1193.14" cy="414.36" r="2"/>
<circle clip-path="url(#clip112)" style="fill:#009af9; stroke:none; fill-opacity:0" cx="1240.84" cy="218.019" r="2"/>
<circle clip-path="url(#clip112)" style="fill:#009af9; stroke:none; fill-opacity:0" cx="1288.55" cy="142.825" r="2"/>
<circle clip-path="url(#clip112)" style="fill:#009af9; stroke:none; fill-opacity:0" cx="1336.26" cy="96.8724" r="2"/>
<circle clip-path="url(#clip112)" style="fill:#009af9; stroke:none; fill-opacity:0" cx="1383.97" cy="98.9612" r="2"/>
<circle clip-path="url(#clip112)" style="fill:#009af9; stroke:none; fill-opacity:0" cx="1431.68" cy="282.77" r="2"/>
<circle clip-path="url(#clip112)" style="fill:#009af9; stroke:none; fill-opacity:0" cx="1479.39" cy="314.101" r="2"/>
<circle clip-path="url(#clip112)" style="fill:#009af9; stroke:none; fill-opacity:0" cx="1527.1" cy="437.336" r="2"/>
<circle clip-path="url(#clip112)" style="fill:#009af9; stroke:none; fill-opacity:0" cx="1574.81" cy="625.323" r="2"/>
<circle clip-path="url(#clip112)" style="fill:#009af9; stroke:none; fill-opacity:0" cx="1622.52" cy="786.155" r="2"/>
<circle clip-path="url(#clip112)" style="fill:#009af9; stroke:none; fill-opacity:0" cx="1670.22" cy="1040.98" r="2"/>
<circle clip-path="url(#clip112)" style="fill:#009af9; stroke:none; fill-opacity:0" cx="1717.93" cy="1249.85" r="2"/>
<circle clip-path="url(#clip112)" style="fill:#009af9; stroke:none; fill-opacity:0" cx="1765.64" cy="1371" r="2"/>
<circle clip-path="url(#clip112)" style="fill:#009af9; stroke:none; fill-opacity:0" cx="1813.35" cy="1419.04" r="2"/>
<circle clip-path="url(#clip112)" style="fill:#009af9; stroke:none; fill-opacity:0" cx="1861.06" cy="1594.5" r="2"/>
<circle clip-path="url(#clip112)" style="fill:#009af9; stroke:none; fill-opacity:0" cx="1908.77" cy="1634.18" r="2"/>
<circle clip-path="url(#clip112)" style="fill:#009af9; stroke:none; fill-opacity:0" cx="1956.48" cy="1705.2" r="2"/>
<circle clip-path="url(#clip112)" style="fill:#009af9; stroke:none; fill-opacity:0" cx="2004.19" cy="1701.02" r="2"/>
<circle clip-path="url(#clip112)" style="fill:#009af9; stroke:none; fill-opacity:0" cx="2051.89" cy="1715.64" r="2"/>
<circle clip-path="url(#clip112)" style="fill:#009af9; stroke:none; fill-opacity:0" cx="2099.6" cy="1742.8" r="2"/>
<circle clip-path="url(#clip112)" style="fill:#009af9; stroke:none; fill-opacity:0" cx="2147.31" cy="1744.88" r="2"/>
<circle clip-path="url(#clip112)" style="fill:#009af9; stroke:none; fill-opacity:0" cx="2195.02" cy="1751.15" r="2"/>
<circle clip-path="url(#clip112)" style="fill:#009af9; stroke:none; fill-opacity:0" cx="2242.73" cy="1749.06" r="2"/>
<circle clip-path="url(#clip112)" style="fill:#009af9; stroke:none; fill-opacity:0" cx="2290.44" cy="1749.06" r="2"/>
<circle clip-path="url(#clip112)" style="fill:#009af9; stroke:none; fill-opacity:0" cx="2338.15" cy="1751.15" r="2"/>
<circle clip-path="url(#clip112)" style="fill:#009af9; stroke:none; fill-opacity:0" cx="2385.86" cy="1751.15" r="2"/>
<circle clip-path="url(#clip112)" style="fill:#009af9; stroke:none; fill-opacity:0" cx="2433.57" cy="1751.15" r="2"/>
<circle clip-path="url(#clip112)" style="fill:#009af9; stroke:none; fill-opacity:0" cx="2481.27" cy="1749.06" r="2"/>
<path clip-path="url(#clip110)" d="
M2259.54 209.375 L2558.56 209.375 L2558.56 105.695 L2259.54 105.695  Z
  " fill="#ffffff" fill-rule="evenodd" fill-opacity="1"/>
<polyline clip-path="url(#clip110)" style="stroke:#000000; stroke-linecap:round; stroke-linejoin:round; stroke-width:4; stroke-opacity:1; fill:none" points="
  2259.54,209.375 2558.56,209.375 2558.56,105.695 2259.54,105.695 2259.54,209.375 
  "/>
<path clip-path="url(#clip110)" d="
M2286.94 178.271 L2451.33 178.271 L2451.33 136.799 L2286.94 136.799 L2286.94 178.271  Z
  " fill="#009af9" fill-rule="evenodd" fill-opacity="1"/>
<polyline clip-path="url(#clip110)" style="stroke:#000000; stroke-linecap:round; stroke-linejoin:round; stroke-width:4; stroke-opacity:1; fill:none" points="
  2286.94,178.271 2451.33,178.271 2451.33,136.799 2286.94,136.799 2286.94,178.271 
  "/>
<path clip-path="url(#clip110)" d="M2492.57 177.223 Q2490.77 181.852 2489.06 183.264 Q2487.34 184.676 2484.47 184.676 L2481.07 184.676 L2481.07 181.112 L2483.57 181.112 Q2485.33 181.112 2486.3 180.278 Q2487.27 179.445 2488.45 176.343 L2489.22 174.399 L2478.73 148.889 L2483.25 148.889 L2491.35 169.167 L2499.45 148.889 L2503.96 148.889 L2492.57 177.223 Z" fill="#000000" fill-rule="evenodd" fill-opacity="1" /><path clip-path="url(#clip110)" d="M2511.25 170.88 L2518.89 170.88 L2518.89 144.515 L2510.58 146.181 L2510.58 141.922 L2518.85 140.255 L2523.52 140.255 L2523.52 170.88 L2531.16 170.88 L2531.16 174.815 L2511.25 174.815 L2511.25 170.88 Z" fill="#000000" fill-rule="evenodd" fill-opacity="1" /></svg>
