<?xml version="1.0" encoding="utf-8"?>
<svg xmlns="http://www.w3.org/2000/svg" xmlns:xlink="http://www.w3.org/1999/xlink" width="672" height="480" viewBox="0 0 2688 1920">
<defs>
  <clipPath id="clip710">
    <rect x="0" y="0" width="2688" height="1920"/>
  </clipPath>
</defs>
<path clip-path="url(#clip710)" d="M0 1920 L2688 1920 L2688 0 L0 0  Z" fill="#ffffff" fill-rule="evenodd" fill-opacity="1"/>
<defs>
  <clipPath id="clip711">
    <rect x="537" y="0" width="1883" height="1883"/>
  </clipPath>
</defs>
<path clip-path="url(#clip710)" d="M174.895 1800.78 L2640.76 1800.78 L2640.76 47.2441 L174.895 47.2441  Z" fill="#ffffff" fill-rule="evenodd" fill-opacity="1"/>
<defs>
  <clipPath id="clip712">
    <rect x="174" y="47" width="2467" height="1755"/>
  </clipPath>
</defs>
<polyline clip-path="url(#clip712)" style="stroke:#000000; stroke-linecap:round; stroke-linejoin:round; stroke-width:2; stroke-opacity:0.1; fill:none" points="535.61,1800.78 535.61,47.2441 "/>
<polyline clip-path="url(#clip712)" style="stroke:#000000; stroke-linecap:round; stroke-linejoin:round; stroke-width:2; stroke-opacity:0.1; fill:none" points="1098.33,1800.78 1098.33,47.2441 "/>
<polyline clip-path="url(#clip712)" style="stroke:#000000; stroke-linecap:round; stroke-linejoin:round; stroke-width:2; stroke-opacity:0.1; fill:none" points="1661.05,1800.78 1661.05,47.2441 "/>
<polyline clip-path="url(#clip712)" style="stroke:#000000; stroke-linecap:round; stroke-linejoin:round; stroke-width:2; stroke-opacity:0.1; fill:none" points="2223.77,1800.78 2223.77,47.2441 "/>
<polyline clip-path="url(#clip710)" style="stroke:#000000; stroke-linecap:round; stroke-linejoin:round; stroke-width:4; stroke-opacity:1; fill:none" points="174.895,1800.78 2640.76,1800.78 "/>
<polyline clip-path="url(#clip710)" style="stroke:#000000; stroke-linecap:round; stroke-linejoin:round; stroke-width:4; stroke-opacity:1; fill:none" points="535.61,1800.78 535.61,1781.88 "/>
<polyline clip-path="url(#clip710)" style="stroke:#000000; stroke-linecap:round; stroke-linejoin:round; stroke-width:4; stroke-opacity:1; fill:none" points="1098.33,1800.78 1098.33,1781.88 "/>
<polyline clip-path="url(#clip710)" style="stroke:#000000; stroke-linecap:round; stroke-linejoin:round; stroke-width:4; stroke-opacity:1; fill:none" points="1661.05,1800.78 1661.05,1781.88 "/>
<polyline clip-path="url(#clip710)" style="stroke:#000000; stroke-linecap:round; stroke-linejoin:round; stroke-width:4; stroke-opacity:1; fill:none" points="2223.77,1800.78 2223.77,1781.88 "/>
<path clip-path="url(#clip710)" d="M513.793 1834 Q510.181 1834 508.353 1837.57 Q506.547 1841.11 506.547 1848.24 Q506.547 1855.34 508.353 1858.91 Q510.181 1862.45 513.793 1862.45 Q517.427 1862.45 519.232 1858.91 Q521.061 1855.34 521.061 1848.24 Q521.061 1841.11 519.232 1837.57 Q517.427 1834 513.793 1834 M513.793 1830.3 Q519.603 1830.3 522.658 1834.9 Q525.737 1839.49 525.737 1848.24 Q525.737 1856.96 522.658 1861.57 Q519.603 1866.15 513.793 1866.15 Q507.982 1866.15 504.904 1861.57 Q501.848 1856.96 501.848 1848.24 Q501.848 1839.49 504.904 1834.9 Q507.982 1830.3 513.793 1830.3 Z" fill="#000000" fill-rule="evenodd" fill-opacity="1" /><path clip-path="url(#clip710)" d="M533.954 1859.6 L538.839 1859.6 L538.839 1865.48 L533.954 1865.48 L533.954 1859.6 Z" fill="#000000" fill-rule="evenodd" fill-opacity="1" /><path clip-path="url(#clip710)" d="M553.052 1861.55 L569.371 1861.55 L569.371 1865.48 L547.427 1865.48 L547.427 1861.55 Q550.089 1858.79 554.672 1854.16 Q559.278 1849.51 560.459 1848.17 Q562.704 1845.65 563.584 1843.91 Q564.487 1842.15 564.487 1840.46 Q564.487 1837.71 562.542 1835.97 Q560.621 1834.23 557.519 1834.23 Q555.32 1834.23 552.866 1835 Q550.436 1835.76 547.658 1837.31 L547.658 1832.59 Q550.482 1831.46 552.936 1830.88 Q555.39 1830.3 557.427 1830.3 Q562.797 1830.3 565.991 1832.98 Q569.186 1835.67 569.186 1840.16 Q569.186 1842.29 568.376 1844.21 Q567.589 1846.11 565.482 1848.7 Q564.903 1849.37 561.802 1852.59 Q558.7 1855.78 553.052 1861.55 Z" fill="#000000" fill-rule="evenodd" fill-opacity="1" /><path clip-path="url(#clip710)" d="M1075.47 1834 Q1071.86 1834 1070.03 1837.57 Q1068.23 1841.11 1068.23 1848.24 Q1068.23 1855.34 1070.03 1858.91 Q1071.86 1862.45 1075.47 1862.45 Q1079.1 1862.45 1080.91 1858.91 Q1082.74 1855.34 1082.74 1848.24 Q1082.74 1841.11 1080.91 1837.57 Q1079.1 1834 1075.47 1834 M1075.47 1830.3 Q1081.28 1830.3 1084.34 1834.9 Q1087.42 1839.49 1087.42 1848.24 Q1087.42 1856.96 1084.34 1861.57 Q1081.28 1866.15 1075.47 1866.15 Q1069.66 1866.15 1066.58 1861.57 Q1063.53 1856.96 1063.53 1848.24 Q1063.53 1839.49 1066.58 1834.9 Q1069.66 1830.3 1075.47 1830.3 Z" fill="#000000" fill-rule="evenodd" fill-opacity="1" /><path clip-path="url(#clip710)" d="M1095.63 1859.6 L1100.52 1859.6 L1100.52 1865.48 L1095.63 1865.48 L1095.63 1859.6 Z" fill="#000000" fill-rule="evenodd" fill-opacity="1" /><path clip-path="url(#clip710)" d="M1123.55 1835 L1111.74 1853.45 L1123.55 1853.45 L1123.55 1835 M1122.32 1830.92 L1128.2 1830.92 L1128.2 1853.45 L1133.13 1853.45 L1133.13 1857.34 L1128.2 1857.34 L1128.2 1865.48 L1123.55 1865.48 L1123.55 1857.34 L1107.95 1857.34 L1107.95 1852.82 L1122.32 1830.92 Z" fill="#000000" fill-rule="evenodd" fill-opacity="1" /><path clip-path="url(#clip710)" d="M1638.35 1834 Q1634.74 1834 1632.91 1837.57 Q1631.11 1841.11 1631.11 1848.24 Q1631.11 1855.34 1632.91 1858.91 Q1634.74 1862.45 1638.35 1862.45 Q1641.99 1862.45 1643.79 1858.91 Q1645.62 1855.34 1645.62 1848.24 Q1645.62 1841.11 1643.79 1837.57 Q1641.99 1834 1638.35 1834 M1638.35 1830.3 Q1644.16 1830.3 1647.22 1834.9 Q1650.3 1839.49 1650.3 1848.24 Q1650.3 1856.96 1647.22 1861.57 Q1644.16 1866.15 1638.35 1866.15 Q1632.54 1866.15 1629.46 1861.57 Q1626.41 1856.96 1626.41 1848.24 Q1626.41 1839.49 1629.46 1834.9 Q1632.54 1830.3 1638.35 1830.3 Z" fill="#000000" fill-rule="evenodd" fill-opacity="1" /><path clip-path="url(#clip710)" d="M1658.51 1859.6 L1663.4 1859.6 L1663.4 1865.48 L1658.51 1865.48 L1658.51 1859.6 Z" fill="#000000" fill-rule="evenodd" fill-opacity="1" /><path clip-path="url(#clip710)" d="M1684.16 1846.34 Q1681.01 1846.34 1679.16 1848.49 Q1677.33 1850.65 1677.33 1854.4 Q1677.33 1858.12 1679.16 1860.3 Q1681.01 1862.45 1684.16 1862.45 Q1687.31 1862.45 1689.14 1860.3 Q1690.99 1858.12 1690.99 1854.4 Q1690.99 1850.65 1689.14 1848.49 Q1687.31 1846.34 1684.16 1846.34 M1693.44 1831.69 L1693.44 1835.95 Q1691.69 1835.11 1689.88 1834.67 Q1688.1 1834.23 1686.34 1834.23 Q1681.71 1834.23 1679.26 1837.36 Q1676.82 1840.48 1676.48 1846.8 Q1677.84 1844.79 1679.9 1843.72 Q1681.96 1842.64 1684.44 1842.64 Q1689.65 1842.64 1692.66 1845.81 Q1695.69 1848.96 1695.69 1854.4 Q1695.69 1859.72 1692.54 1862.94 Q1689.39 1866.15 1684.16 1866.15 Q1678.17 1866.15 1675 1861.57 Q1671.82 1856.96 1671.82 1848.24 Q1671.82 1840.04 1675.71 1835.18 Q1679.6 1830.3 1686.15 1830.3 Q1687.91 1830.3 1689.69 1830.65 Q1691.5 1830.99 1693.44 1831.69 Z" fill="#000000" fill-rule="evenodd" fill-opacity="1" /><path clip-path="url(#clip710)" d="M2201.2 1834 Q2197.59 1834 2195.76 1837.57 Q2193.95 1841.11 2193.95 1848.24 Q2193.95 1855.34 2195.76 1858.91 Q2197.59 1862.45 2201.2 1862.45 Q2204.83 1862.45 2206.64 1858.91 Q2208.47 1855.34 2208.47 1848.24 Q2208.47 1841.11 2206.64 1837.57 Q2204.83 1834 2201.2 1834 M2201.2 1830.3 Q2207.01 1830.3 2210.07 1834.9 Q2213.14 1839.49 2213.14 1848.24 Q2213.14 1856.96 2210.07 1861.57 Q2207.01 1866.15 2201.2 1866.15 Q2195.39 1866.15 2192.31 1861.57 Q2189.26 1856.96 2189.26 1848.24 Q2189.26 1839.49 2192.31 1834.9 Q2195.39 1830.3 2201.2 1830.3 Z" fill="#000000" fill-rule="evenodd" fill-opacity="1" /><path clip-path="url(#clip710)" d="M2221.36 1859.6 L2226.25 1859.6 L2226.25 1865.48 L2221.36 1865.48 L2221.36 1859.6 Z" fill="#000000" fill-rule="evenodd" fill-opacity="1" /><path clip-path="url(#clip710)" d="M2246.43 1849.07 Q2243.1 1849.07 2241.18 1850.85 Q2239.28 1852.64 2239.28 1855.76 Q2239.28 1858.89 2241.18 1860.67 Q2243.1 1862.45 2246.43 1862.45 Q2249.76 1862.45 2251.69 1860.67 Q2253.61 1858.86 2253.61 1855.76 Q2253.61 1852.64 2251.69 1850.85 Q2249.79 1849.07 2246.43 1849.07 M2241.76 1847.08 Q2238.75 1846.34 2237.06 1844.28 Q2235.39 1842.22 2235.39 1839.26 Q2235.39 1835.11 2238.33 1832.71 Q2241.29 1830.3 2246.43 1830.3 Q2251.59 1830.3 2254.53 1832.71 Q2257.47 1835.11 2257.47 1839.26 Q2257.47 1842.22 2255.78 1844.28 Q2254.12 1846.34 2251.13 1847.08 Q2254.51 1847.87 2256.38 1850.16 Q2258.28 1852.45 2258.28 1855.76 Q2258.28 1860.78 2255.2 1863.47 Q2252.15 1866.15 2246.43 1866.15 Q2240.71 1866.15 2237.63 1863.47 Q2234.58 1860.78 2234.58 1855.76 Q2234.58 1852.45 2236.48 1850.16 Q2238.38 1847.87 2241.76 1847.08 M2240.04 1839.7 Q2240.04 1842.38 2241.71 1843.89 Q2243.4 1845.39 2246.43 1845.39 Q2249.44 1845.39 2251.13 1843.89 Q2252.84 1842.38 2252.84 1839.7 Q2252.84 1837.01 2251.13 1835.51 Q2249.44 1834 2246.43 1834 Q2243.4 1834 2241.71 1835.51 Q2240.04 1837.01 2240.04 1839.7 Z" fill="#000000" fill-rule="evenodd" fill-opacity="1" /><polyline clip-path="url(#clip712)" style="stroke:#000000; stroke-linecap:round; stroke-linejoin:round; stroke-width:2; stroke-opacity:0.1; fill:none" points="174.895,1751.15 2640.76,1751.15 "/>
<polyline clip-path="url(#clip712)" style="stroke:#000000; stroke-linecap:round; stroke-linejoin:round; stroke-width:2; stroke-opacity:0.1; fill:none" points="174.895,1330.75 2640.76,1330.75 "/>
<polyline clip-path="url(#clip712)" style="stroke:#000000; stroke-linecap:round; stroke-linejoin:round; stroke-width:2; stroke-opacity:0.1; fill:none" points="174.895,910.349 2640.76,910.349 "/>
<polyline clip-path="url(#clip712)" style="stroke:#000000; stroke-linecap:round; stroke-linejoin:round; stroke-width:2; stroke-opacity:0.1; fill:none" points="174.895,489.948 2640.76,489.948 "/>
<polyline clip-path="url(#clip712)" style="stroke:#000000; stroke-linecap:round; stroke-linejoin:round; stroke-width:2; stroke-opacity:0.1; fill:none" points="174.895,69.5464 2640.76,69.5464 "/>
<polyline clip-path="url(#clip710)" style="stroke:#000000; stroke-linecap:round; stroke-linejoin:round; stroke-width:4; stroke-opacity:1; fill:none" points="174.895,1800.78 174.895,47.2441 "/>
<polyline clip-path="url(#clip710)" style="stroke:#000000; stroke-linecap:round; stroke-linejoin:round; stroke-width:4; stroke-opacity:1; fill:none" points="174.895,1751.15 193.792,1751.15 "/>
<polyline clip-path="url(#clip710)" style="stroke:#000000; stroke-linecap:round; stroke-linejoin:round; stroke-width:4; stroke-opacity:1; fill:none" points="174.895,1330.75 193.792,1330.75 "/>
<polyline clip-path="url(#clip710)" style="stroke:#000000; stroke-linecap:round; stroke-linejoin:round; stroke-width:4; stroke-opacity:1; fill:none" points="174.895,910.349 193.792,910.349 "/>
<polyline clip-path="url(#clip710)" style="stroke:#000000; stroke-linecap:round; stroke-linejoin:round; stroke-width:4; stroke-opacity:1; fill:none" points="174.895,489.948 193.792,489.948 "/>
<polyline clip-path="url(#clip710)" style="stroke:#000000; stroke-linecap:round; stroke-linejoin:round; stroke-width:4; stroke-opacity:1; fill:none" points="174.895,69.5464 193.792,69.5464 "/>
<path clip-path="url(#clip710)" d="M122.63 1736.95 Q119.019 1736.95 117.191 1740.51 Q115.385 1744.06 115.385 1751.19 Q115.385 1758.29 117.191 1761.86 Q119.019 1765.4 122.63 1765.4 Q126.265 1765.4 128.07 1761.86 Q129.899 1758.29 129.899 1751.19 Q129.899 1744.06 128.07 1740.51 Q126.265 1736.95 122.63 1736.95 M122.63 1733.25 Q128.441 1733.25 131.496 1737.85 Q134.575 1742.44 134.575 1751.19 Q134.575 1759.91 131.496 1764.52 Q128.441 1769.1 122.63 1769.1 Q116.82 1769.1 113.742 1764.52 Q110.686 1759.91 110.686 1751.19 Q110.686 1742.44 113.742 1737.85 Q116.82 1733.25 122.63 1733.25 Z" fill="#000000" fill-rule="evenodd" fill-opacity="1" /><path clip-path="url(#clip710)" d="M56.3345 1344.09 L72.6539 1344.09 L72.6539 1348.03 L50.7095 1348.03 L50.7095 1344.09 Q53.3715 1341.34 57.9549 1336.71 Q62.5613 1332.06 63.7419 1330.72 Q65.9872 1328.19 66.8668 1326.46 Q67.7696 1324.7 67.7696 1323.01 Q67.7696 1320.25 65.8252 1318.52 Q63.9039 1316.78 60.8021 1316.78 Q58.603 1316.78 56.1493 1317.54 Q53.7188 1318.31 50.941 1319.86 L50.941 1315.14 Q53.7651 1314 56.2188 1313.42 Q58.6724 1312.84 60.7095 1312.84 Q66.0798 1312.84 69.2742 1315.53 Q72.4687 1318.22 72.4687 1322.71 Q72.4687 1324.84 71.6585 1326.76 Q70.8715 1328.65 68.765 1331.25 Q68.1863 1331.92 65.0845 1335.14 Q61.9826 1338.33 56.3345 1344.09 Z" fill="#000000" fill-rule="evenodd" fill-opacity="1" /><path clip-path="url(#clip710)" d="M92.4686 1316.55 Q88.8575 1316.55 87.0288 1320.11 Q85.2232 1323.65 85.2232 1330.78 Q85.2232 1337.89 87.0288 1341.46 Q88.8575 1345 92.4686 1345 Q96.1028 1345 97.9083 1341.46 Q99.737 1337.89 99.737 1330.78 Q99.737 1323.65 97.9083 1320.11 Q96.1028 1316.55 92.4686 1316.55 M92.4686 1312.84 Q98.2787 1312.84 101.334 1317.45 Q104.413 1322.03 104.413 1330.78 Q104.413 1339.51 101.334 1344.12 Q98.2787 1348.7 92.4686 1348.7 Q86.6584 1348.7 83.5797 1344.12 Q80.5242 1339.51 80.5242 1330.78 Q80.5242 1322.03 83.5797 1317.45 Q86.6584 1312.84 92.4686 1312.84 Z" fill="#000000" fill-rule="evenodd" fill-opacity="1" /><path clip-path="url(#clip710)" d="M122.63 1316.55 Q119.019 1316.55 117.191 1320.11 Q115.385 1323.65 115.385 1330.78 Q115.385 1337.89 117.191 1341.46 Q119.019 1345 122.63 1345 Q126.265 1345 128.07 1341.46 Q129.899 1337.89 129.899 1330.78 Q129.899 1323.65 128.07 1320.11 Q126.265 1316.55 122.63 1316.55 M122.63 1312.84 Q128.441 1312.84 131.496 1317.45 Q134.575 1322.03 134.575 1330.78 Q134.575 1339.51 131.496 1344.12 Q128.441 1348.7 122.63 1348.7 Q116.82 1348.7 113.742 1344.12 Q110.686 1339.51 110.686 1330.78 Q110.686 1322.03 113.742 1317.45 Q116.82 1312.84 122.63 1312.84 Z" fill="#000000" fill-rule="evenodd" fill-opacity="1" /><path clip-path="url(#clip710)" d="M65.1539 897.143 L53.3484 915.592 L65.1539 915.592 L65.1539 897.143 M63.927 893.069 L69.8066 893.069 L69.8066 915.592 L74.7372 915.592 L74.7372 919.481 L69.8066 919.481 L69.8066 927.629 L65.1539 927.629 L65.1539 919.481 L49.5521 919.481 L49.5521 914.967 L63.927 893.069 Z" fill="#000000" fill-rule="evenodd" fill-opacity="1" /><path clip-path="url(#clip710)" d="M92.4686 896.147 Q88.8575 896.147 87.0288 899.712 Q85.2232 903.254 85.2232 910.383 Q85.2232 917.49 87.0288 921.055 Q88.8575 924.596 92.4686 924.596 Q96.1028 924.596 97.9083 921.055 Q99.737 917.49 99.737 910.383 Q99.737 903.254 97.9083 899.712 Q96.1028 896.147 92.4686 896.147 M92.4686 892.444 Q98.2787 892.444 101.334 897.05 Q104.413 901.633 104.413 910.383 Q104.413 919.11 101.334 923.717 Q98.2787 928.3 92.4686 928.3 Q86.6584 928.3 83.5797 923.717 Q80.5242 919.11 80.5242 910.383 Q80.5242 901.633 83.5797 897.05 Q86.6584 892.444 92.4686 892.444 Z" fill="#000000" fill-rule="evenodd" fill-opacity="1" /><path clip-path="url(#clip710)" d="M122.63 896.147 Q119.019 896.147 117.191 899.712 Q115.385 903.254 115.385 910.383 Q115.385 917.49 117.191 921.055 Q119.019 924.596 122.63 924.596 Q126.265 924.596 128.07 921.055 Q129.899 917.49 129.899 910.383 Q129.899 903.254 128.07 899.712 Q126.265 896.147 122.63 896.147 M122.63 892.444 Q128.441 892.444 131.496 897.05 Q134.575 901.633 134.575 910.383 Q134.575 919.11 131.496 923.717 Q128.441 928.3 122.63 928.3 Q116.82 928.3 113.742 923.717 Q110.686 919.11 110.686 910.383 Q110.686 901.633 113.742 897.05 Q116.82 892.444 122.63 892.444 Z" fill="#000000" fill-rule="evenodd" fill-opacity="1" /><path clip-path="url(#clip710)" d="M62.8854 488.084 Q59.7373 488.084 57.8854 490.237 Q56.0567 492.39 56.0567 496.14 Q56.0567 499.866 57.8854 502.042 Q59.7373 504.195 62.8854 504.195 Q66.0335 504.195 67.8622 502.042 Q69.7141 499.866 69.7141 496.14 Q69.7141 492.39 67.8622 490.237 Q66.0335 488.084 62.8854 488.084 M72.1677 473.431 L72.1677 477.691 Q70.4085 476.857 68.6029 476.417 Q66.8206 475.978 65.0613 475.978 Q60.4317 475.978 57.978 479.103 Q55.5475 482.228 55.2002 488.547 Q56.566 486.533 58.6262 485.468 Q60.6863 484.38 63.1632 484.38 Q68.3715 484.38 71.3807 487.552 Q74.4131 490.7 74.4131 496.14 Q74.4131 501.464 71.265 504.681 Q68.1168 507.899 62.8854 507.899 Q56.89 507.899 53.7188 503.316 Q50.5475 498.709 50.5475 489.982 Q50.5475 481.788 54.4364 476.927 Q58.3252 472.043 64.8761 472.043 Q66.6354 472.043 68.4178 472.39 Q70.2233 472.737 72.1677 473.431 Z" fill="#000000" fill-rule="evenodd" fill-opacity="1" /><path clip-path="url(#clip710)" d="M92.4686 475.746 Q88.8575 475.746 87.0288 479.311 Q85.2232 482.853 85.2232 489.982 Q85.2232 497.089 87.0288 500.653 Q88.8575 504.195 92.4686 504.195 Q96.1028 504.195 97.9083 500.653 Q99.737 497.089 99.737 489.982 Q99.737 482.853 97.9083 479.311 Q96.1028 475.746 92.4686 475.746 M92.4686 472.043 Q98.2787 472.043 101.334 476.649 Q104.413 481.232 104.413 489.982 Q104.413 498.709 101.334 503.316 Q98.2787 507.899 92.4686 507.899 Q86.6584 507.899 83.5797 503.316 Q80.5242 498.709 80.5242 489.982 Q80.5242 481.232 83.5797 476.649 Q86.6584 472.043 92.4686 472.043 Z" fill="#000000" fill-rule="evenodd" fill-opacity="1" /><path clip-path="url(#clip710)" d="M122.63 475.746 Q119.019 475.746 117.191 479.311 Q115.385 482.853 115.385 489.982 Q115.385 497.089 117.191 500.653 Q119.019 504.195 122.63 504.195 Q126.265 504.195 128.07 500.653 Q129.899 497.089 129.899 489.982 Q129.899 482.853 128.07 479.311 Q126.265 475.746 122.63 475.746 M122.63 472.043 Q128.441 472.043 131.496 476.649 Q134.575 481.232 134.575 489.982 Q134.575 498.709 131.496 503.316 Q128.441 507.899 122.63 507.899 Q116.82 507.899 113.742 503.316 Q110.686 498.709 110.686 489.982 Q110.686 481.232 113.742 476.649 Q116.82 472.043 122.63 472.043 Z" fill="#000000" fill-rule="evenodd" fill-opacity="1" /><path clip-path="url(#clip710)" d="M62.3067 70.4144 Q58.9734 70.4144 57.0521 72.1968 Q55.1539 73.9792 55.1539 77.1042 Q55.1539 80.2292 57.0521 82.0116 Q58.9734 83.794 62.3067 83.794 Q65.64 83.794 67.5613 82.0116 Q69.4826 80.206 69.4826 77.1042 Q69.4826 73.9792 67.5613 72.1968 Q65.6632 70.4144 62.3067 70.4144 M57.6308 68.4237 Q54.6215 67.683 52.9317 65.6228 Q51.2651 63.5626 51.2651 60.5997 Q51.2651 56.4562 54.2049 54.0488 Q57.1678 51.6414 62.3067 51.6414 Q67.4687 51.6414 70.4085 54.0488 Q73.3483 56.4562 73.3483 60.5997 Q73.3483 63.5626 71.6585 65.6228 Q69.9918 67.683 67.0057 68.4237 Q70.3853 69.2107 72.2603 71.5024 Q74.1585 73.794 74.1585 77.1042 Q74.1585 82.1273 71.0798 84.8125 Q68.0242 87.4977 62.3067 87.4977 Q56.5891 87.4977 53.5104 84.8125 Q50.4549 82.1273 50.4549 77.1042 Q50.4549 73.794 52.353 71.5024 Q54.2512 69.2107 57.6308 68.4237 M55.9178 61.0395 Q55.9178 63.7246 57.5845 65.2293 Q59.2743 66.7339 62.3067 66.7339 Q65.3159 66.7339 67.0057 65.2293 Q68.7187 63.7246 68.7187 61.0395 Q68.7187 58.3543 67.0057 56.8497 Q65.3159 55.3451 62.3067 55.3451 Q59.2743 55.3451 57.5845 56.8497 Q55.9178 58.3543 55.9178 61.0395 Z" fill="#000000" fill-rule="evenodd" fill-opacity="1" /><path clip-path="url(#clip710)" d="M92.4686 55.3451 Q88.8575 55.3451 87.0288 58.9099 Q85.2232 62.4515 85.2232 69.5811 Q85.2232 76.6875 87.0288 80.2523 Q88.8575 83.794 92.4686 83.794 Q96.1028 83.794 97.9083 80.2523 Q99.737 76.6875 99.737 69.5811 Q99.737 62.4515 97.9083 58.9099 Q96.1028 55.3451 92.4686 55.3451 M92.4686 51.6414 Q98.2787 51.6414 101.334 56.2478 Q104.413 60.8311 104.413 69.5811 Q104.413 78.3079 101.334 82.9144 Q98.2787 87.4977 92.4686 87.4977 Q86.6584 87.4977 83.5797 82.9144 Q80.5242 78.3079 80.5242 69.5811 Q80.5242 60.8311 83.5797 56.2478 Q86.6584 51.6414 92.4686 51.6414 Z" fill="#000000" fill-rule="evenodd" fill-opacity="1" /><path clip-path="url(#clip710)" d="M122.63 55.3451 Q119.019 55.3451 117.191 58.9099 Q115.385 62.4515 115.385 69.5811 Q115.385 76.6875 117.191 80.2523 Q119.019 83.794 122.63 83.794 Q126.265 83.794 128.07 80.2523 Q129.899 76.6875 129.899 69.5811 Q129.899 62.4515 128.07 58.9099 Q126.265 55.3451 122.63 55.3451 M122.63 51.6414 Q128.441 51.6414 131.496 56.2478 Q134.575 60.8311 134.575 69.5811 Q134.575 78.3079 131.496 82.9144 Q128.441 87.4977 122.63 87.4977 Q116.82 87.4977 113.742 82.9144 Q110.686 78.3079 110.686 69.5811 Q110.686 60.8311 113.742 56.2478 Q116.82 51.6414 122.63 51.6414 Z" fill="#000000" fill-rule="evenodd" fill-opacity="1" /><path clip-path="url(#clip712)" d="M310.522 1749.05 L310.522 1751.15 L366.794 1751.15 L366.794 1749.05 L310.522 1749.05 L310.522 1749.05  Z" fill="#009af9" fill-rule="evenodd" fill-opacity="1"/>
<polyline clip-path="url(#clip712)" style="stroke:#000000; stroke-linecap:round; stroke-linejoin:round; stroke-width:4; stroke-opacity:1; fill:none" points="310.522,1749.05 310.522,1751.15 366.794,1751.15 366.794,1749.05 310.522,1749.05 "/>
<path clip-path="url(#clip712)" d="M366.794 1746.95 L366.794 1751.15 L423.066 1751.15 L423.066 1746.95 L366.794 1746.95 L366.794 1746.95  Z" fill="#009af9" fill-rule="evenodd" fill-opacity="1"/>
<polyline clip-path="url(#clip712)" style="stroke:#000000; stroke-linecap:round; stroke-linejoin:round; stroke-width:4; stroke-opacity:1; fill:none" points="366.794,1746.95 366.794,1751.15 423.066,1751.15 423.066,1746.95 366.794,1746.95 "/>
<path clip-path="url(#clip712)" d="M423.066 1742.74 L423.066 1751.15 L479.338 1751.15 L479.338 1742.74 L423.066 1742.74 L423.066 1742.74  Z" fill="#009af9" fill-rule="evenodd" fill-opacity="1"/>
<polyline clip-path="url(#clip712)" style="stroke:#000000; stroke-linecap:round; stroke-linejoin:round; stroke-width:4; stroke-opacity:1; fill:none" points="423.066,1742.74 423.066,1751.15 479.338,1751.15 479.338,1742.74 423.066,1742.74 "/>
<path clip-path="url(#clip712)" d="M479.338 1721.72 L479.338 1751.15 L535.61 1751.15 L535.61 1721.72 L479.338 1721.72 L479.338 1721.72  Z" fill="#009af9" fill-rule="evenodd" fill-opacity="1"/>
<polyline clip-path="url(#clip712)" style="stroke:#000000; stroke-linecap:round; stroke-linejoin:round; stroke-width:4; stroke-opacity:1; fill:none" points="479.338,1721.72 479.338,1751.15 535.61,1751.15 535.61,1721.72 479.338,1721.72 "/>
<path clip-path="url(#clip712)" d="M535.61 1730.13 L535.61 1751.15 L591.882 1751.15 L591.882 1730.13 L535.61 1730.13 L535.61 1730.13  Z" fill="#009af9" fill-rule="evenodd" fill-opacity="1"/>
<polyline clip-path="url(#clip712)" style="stroke:#000000; stroke-linecap:round; stroke-linejoin:round; stroke-width:4; stroke-opacity:1; fill:none" points="535.61,1730.13 535.61,1751.15 591.882,1751.15 591.882,1730.13 535.61,1730.13 "/>
<path clip-path="url(#clip712)" d="M591.882 1715.42 L591.882 1751.15 L648.154 1751.15 L648.154 1715.42 L591.882 1715.42 L591.882 1715.42  Z" fill="#009af9" fill-rule="evenodd" fill-opacity="1"/>
<polyline clip-path="url(#clip712)" style="stroke:#000000; stroke-linecap:round; stroke-linejoin:round; stroke-width:4; stroke-opacity:1; fill:none" points="591.882,1715.42 591.882,1751.15 648.154,1751.15 648.154,1715.42 591.882,1715.42 "/>
<path clip-path="url(#clip712)" d="M648.154 1673.38 L648.154 1751.15 L704.425 1751.15 L704.425 1673.38 L648.154 1673.38 L648.154 1673.38  Z" fill="#009af9" fill-rule="evenodd" fill-opacity="1"/>
<polyline clip-path="url(#clip712)" style="stroke:#000000; stroke-linecap:round; stroke-linejoin:round; stroke-width:4; stroke-opacity:1; fill:none" points="648.154,1673.38 648.154,1751.15 704.425,1751.15 704.425,1673.38 648.154,1673.38 "/>
<path clip-path="url(#clip712)" d="M704.425 1625.03 L704.425 1751.15 L760.697 1751.15 L760.697 1625.03 L704.425 1625.03 L704.425 1625.03  Z" fill="#009af9" fill-rule="evenodd" fill-opacity="1"/>
<polyline clip-path="url(#clip712)" style="stroke:#000000; stroke-linecap:round; stroke-linejoin:round; stroke-width:4; stroke-opacity:1; fill:none" points="704.425,1625.03 704.425,1751.15 760.697,1751.15 760.697,1625.03 704.425,1625.03 "/>
<path clip-path="url(#clip712)" d="M760.697 1587.19 L760.697 1751.15 L816.969 1751.15 L816.969 1587.19 L760.697 1587.19 L760.697 1587.19  Z" fill="#009af9" fill-rule="evenodd" fill-opacity="1"/>
<polyline clip-path="url(#clip712)" style="stroke:#000000; stroke-linecap:round; stroke-linejoin:round; stroke-width:4; stroke-opacity:1; fill:none" points="760.697,1587.19 760.697,1751.15 816.969,1751.15 816.969,1587.19 760.697,1587.19 "/>
<path clip-path="url(#clip712)" d="M816.969 1511.52 L816.969 1751.15 L873.241 1751.15 L873.241 1511.52 L816.969 1511.52 L816.969 1511.52  Z" fill="#009af9" fill-rule="evenodd" fill-opacity="1"/>
<polyline clip-path="url(#clip712)" style="stroke:#000000; stroke-linecap:round; stroke-linejoin:round; stroke-width:4; stroke-opacity:1; fill:none" points="816.969,1511.52 816.969,1751.15 873.241,1751.15 873.241,1511.52 816.969,1511.52 "/>
<path clip-path="url(#clip712)" d="M873.241 1318.14 L873.241 1751.15 L929.513 1751.15 L929.513 1318.14 L873.241 1318.14 L873.241 1318.14  Z" fill="#009af9" fill-rule="evenodd" fill-opacity="1"/>
<polyline clip-path="url(#clip712)" style="stroke:#000000; stroke-linecap:round; stroke-linejoin:round; stroke-width:4; stroke-opacity:1; fill:none" points="873.241,1318.14 873.241,1751.15 929.513,1751.15 929.513,1318.14 873.241,1318.14 "/>
<path clip-path="url(#clip712)" d="M929.513 1292.91 L929.513 1751.15 L985.785 1751.15 L985.785 1292.91 L929.513 1292.91 L929.513 1292.91  Z" fill="#009af9" fill-rule="evenodd" fill-opacity="1"/>
<polyline clip-path="url(#clip712)" style="stroke:#000000; stroke-linecap:round; stroke-linejoin:round; stroke-width:4; stroke-opacity:1; fill:none" points="929.513,1292.91 929.513,1751.15 985.785,1751.15 985.785,1292.91 929.513,1292.91 "/>
<path clip-path="url(#clip712)" d="M985.785 958.695 L985.785 1751.15 L1042.06 1751.15 L1042.06 958.695 L985.785 958.695 L985.785 958.695  Z" fill="#009af9" fill-rule="evenodd" fill-opacity="1"/>
<polyline clip-path="url(#clip712)" style="stroke:#000000; stroke-linecap:round; stroke-linejoin:round; stroke-width:4; stroke-opacity:1; fill:none" points="985.785,958.695 985.785,1751.15 1042.06,1751.15 1042.06,958.695 985.785,958.695 "/>
<path clip-path="url(#clip712)" d="M1042.06 819.962 L1042.06 1751.15 L1098.33 1751.15 L1098.33 819.962 L1042.06 819.962 L1042.06 819.962  Z" fill="#009af9" fill-rule="evenodd" fill-opacity="1"/>
<polyline clip-path="url(#clip712)" style="stroke:#000000; stroke-linecap:round; stroke-linejoin:round; stroke-width:4; stroke-opacity:1; fill:none" points="1042.06,819.962 1042.06,1751.15 1098.33,1751.15 1098.33,819.962 1042.06,819.962 "/>
<path clip-path="url(#clip712)" d="M1098.33 649.7 L1098.33 1751.15 L1154.6 1751.15 L1154.6 649.7 L1098.33 649.7 L1098.33 649.7  Z" fill="#009af9" fill-rule="evenodd" fill-opacity="1"/>
<polyline clip-path="url(#clip712)" style="stroke:#000000; stroke-linecap:round; stroke-linejoin:round; stroke-width:4; stroke-opacity:1; fill:none" points="1098.33,649.7 1098.33,1751.15 1154.6,1751.15 1154.6,649.7 1098.33,649.7 "/>
<path clip-path="url(#clip712)" d="M1154.6 468.927 L1154.6 1751.15 L1210.87 1751.15 L1210.87 468.927 L1154.6 468.927 L1154.6 468.927  Z" fill="#009af9" fill-rule="evenodd" fill-opacity="1"/>
<polyline clip-path="url(#clip712)" style="stroke:#000000; stroke-linecap:round; stroke-linejoin:round; stroke-width:4; stroke-opacity:1; fill:none" points="1154.6,468.927 1154.6,1751.15 1210.87,1751.15 1210.87,468.927 1154.6,468.927 "/>
<path clip-path="url(#clip712)" d="M1210.87 237.707 L1210.87 1751.15 L1267.15 1751.15 L1267.15 237.707 L1210.87 237.707 L1210.87 237.707  Z" fill="#009af9" fill-rule="evenodd" fill-opacity="1"/>
<polyline clip-path="url(#clip712)" style="stroke:#000000; stroke-linecap:round; stroke-linejoin:round; stroke-width:4; stroke-opacity:1; fill:none" points="1210.87,237.707 1210.87,1751.15 1267.15,1751.15 1267.15,237.707 1210.87,237.707 "/>
<path clip-path="url(#clip712)" d="M1267.15 183.055 L1267.15 1751.15 L1323.42 1751.15 L1323.42 183.055 L1267.15 183.055 L1267.15 183.055  Z" fill="#009af9" fill-rule="evenodd" fill-opacity="1"/>
<polyline clip-path="url(#clip712)" style="stroke:#000000; stroke-linecap:round; stroke-linejoin:round; stroke-width:4; stroke-opacity:1; fill:none" points="1267.15,183.055 1267.15,1751.15 1323.42,1751.15 1323.42,183.055 1267.15,183.055 "/>
<path clip-path="url(#clip712)" d="M1323.42 105.28 L1323.42 1751.15 L1379.69 1751.15 L1379.69 105.28 L1323.42 105.28 L1323.42 105.28  Z" fill="#009af9" fill-rule="evenodd" fill-opacity="1"/>
<polyline clip-path="url(#clip712)" style="stroke:#000000; stroke-linecap:round; stroke-linejoin:round; stroke-width:4; stroke-opacity:1; fill:none" points="1323.42,105.28 1323.42,1751.15 1379.69,1751.15 1379.69,105.28 1323.42,105.28 "/>
<path clip-path="url(#clip712)" d="M1379.69 96.8724 L1379.69 1751.15 L1435.96 1751.15 L1435.96 96.8724 L1379.69 96.8724 L1379.69 96.8724  Z" fill="#009af9" fill-rule="evenodd" fill-opacity="1"/>
<polyline clip-path="url(#clip712)" style="stroke:#000000; stroke-linecap:round; stroke-linejoin:round; stroke-width:4; stroke-opacity:1; fill:none" points="1379.69,96.8724 1379.69,1751.15 1435.96,1751.15 1435.96,96.8724 1379.69,96.8724 "/>
<path clip-path="url(#clip712)" d="M1435.96 157.831 L1435.96 1751.15 L1492.23 1751.15 L1492.23 157.831 L1435.96 157.831 L1435.96 157.831  Z" fill="#009af9" fill-rule="evenodd" fill-opacity="1"/>
<polyline clip-path="url(#clip712)" style="stroke:#000000; stroke-linecap:round; stroke-linejoin:round; stroke-width:4; stroke-opacity:1; fill:none" points="1435.96,157.831 1435.96,1751.15 1492.23,1751.15 1492.23,157.831 1435.96,157.831 "/>
<path clip-path="url(#clip712)" d="M1492.23 225.095 L1492.23 1751.15 L1548.51 1751.15 L1548.51 225.095 L1492.23 225.095 L1492.23 225.095  Z" fill="#009af9" fill-rule="evenodd" fill-opacity="1"/>
<polyline clip-path="url(#clip712)" style="stroke:#000000; stroke-linecap:round; stroke-linejoin:round; stroke-width:4; stroke-opacity:1; fill:none" points="1492.23,225.095 1492.23,1751.15 1548.51,1751.15 1548.51,225.095 1492.23,225.095 "/>
<path clip-path="url(#clip712)" d="M1548.51 477.335 L1548.51 1751.15 L1604.78 1751.15 L1604.78 477.335 L1548.51 477.335 L1548.51 477.335  Z" fill="#009af9" fill-rule="evenodd" fill-opacity="1"/>
<polyline clip-path="url(#clip712)" style="stroke:#000000; stroke-linecap:round; stroke-linejoin:round; stroke-width:4; stroke-opacity:1; fill:none" points="1548.51,477.335 1548.51,1751.15 1604.78,1751.15 1604.78,477.335 1548.51,477.335 "/>
<path clip-path="url(#clip712)" d="M1604.78 651.802 L1604.78 1751.15 L1661.05 1751.15 L1661.05 651.802 L1604.78 651.802 L1604.78 651.802  Z" fill="#009af9" fill-rule="evenodd" fill-opacity="1"/>
<polyline clip-path="url(#clip712)" style="stroke:#000000; stroke-linecap:round; stroke-linejoin:round; stroke-width:4; stroke-opacity:1; fill:none" points="1604.78,651.802 1604.78,1751.15 1661.05,1751.15 1661.05,651.802 1604.78,651.802 "/>
<path clip-path="url(#clip712)" d="M1661.05 851.493 L1661.05 1751.15 L1717.32 1751.15 L1717.32 851.493 L1661.05 851.493 L1661.05 851.493  Z" fill="#009af9" fill-rule="evenodd" fill-opacity="1"/>
<polyline clip-path="url(#clip712)" style="stroke:#000000; stroke-linecap:round; stroke-linejoin:round; stroke-width:4; stroke-opacity:1; fill:none" points="1661.05,851.493 1661.05,1751.15 1717.32,1751.15 1717.32,851.493 1661.05,851.493 "/>
<path clip-path="url(#clip712)" d="M1717.32 1009.14 L1717.32 1751.15 L1773.59 1751.15 L1773.59 1009.14 L1717.32 1009.14 L1717.32 1009.14  Z" fill="#009af9" fill-rule="evenodd" fill-opacity="1"/>
<polyline clip-path="url(#clip712)" style="stroke:#000000; stroke-linecap:round; stroke-linejoin:round; stroke-width:4; stroke-opacity:1; fill:none" points="1717.32,1009.14 1717.32,1751.15 1773.59,1751.15 1773.59,1009.14 1717.32,1009.14 "/>
<path clip-path="url(#clip712)" d="M1773.59 1135.26 L1773.59 1751.15 L1829.87 1751.15 L1829.87 1135.26 L1773.59 1135.26 L1773.59 1135.26  Z" fill="#009af9" fill-rule="evenodd" fill-opacity="1"/>
<polyline clip-path="url(#clip712)" style="stroke:#000000; stroke-linecap:round; stroke-linejoin:round; stroke-width:4; stroke-opacity:1; fill:none" points="1773.59,1135.26 1773.59,1751.15 1829.87,1751.15 1829.87,1135.26 1773.59,1135.26 "/>
<path clip-path="url(#clip712)" d="M1829.87 1341.26 L1829.87 1751.15 L1886.14 1751.15 L1886.14 1341.26 L1829.87 1341.26 L1829.87 1341.26  Z" fill="#009af9" fill-rule="evenodd" fill-opacity="1"/>
<polyline clip-path="url(#clip712)" style="stroke:#000000; stroke-linecap:round; stroke-linejoin:round; stroke-width:4; stroke-opacity:1; fill:none" points="1829.87,1341.26 1829.87,1751.15 1886.14,1751.15 1886.14,1341.26 1829.87,1341.26 "/>
<path clip-path="url(#clip712)" d="M1886.14 1467.38 L1886.14 1751.15 L1942.41 1751.15 L1942.41 1467.38 L1886.14 1467.38 L1886.14 1467.38  Z" fill="#009af9" fill-rule="evenodd" fill-opacity="1"/>
<polyline clip-path="url(#clip712)" style="stroke:#000000; stroke-linecap:round; stroke-linejoin:round; stroke-width:4; stroke-opacity:1; fill:none" points="1886.14,1467.38 1886.14,1751.15 1942.41,1751.15 1942.41,1467.38 1886.14,1467.38 "/>
<path clip-path="url(#clip712)" d="M1942.41 1540.95 L1942.41 1751.15 L1998.68 1751.15 L1998.68 1540.95 L1942.41 1540.95 L1942.41 1540.95  Z" fill="#009af9" fill-rule="evenodd" fill-opacity="1"/>
<polyline clip-path="url(#clip712)" style="stroke:#000000; stroke-linecap:round; stroke-linejoin:round; stroke-width:4; stroke-opacity:1; fill:none" points="1942.41,1540.95 1942.41,1751.15 1998.68,1751.15 1998.68,1540.95 1942.41,1540.95 "/>
<path clip-path="url(#clip712)" d="M1998.68 1654.46 L1998.68 1751.15 L2054.95 1751.15 L2054.95 1654.46 L1998.68 1654.46 L1998.68 1654.46  Z" fill="#009af9" fill-rule="evenodd" fill-opacity="1"/>
<polyline clip-path="url(#clip712)" style="stroke:#000000; stroke-linecap:round; stroke-linejoin:round; stroke-width:4; stroke-opacity:1; fill:none" points="1998.68,1654.46 1998.68,1751.15 2054.95,1751.15 2054.95,1654.46 1998.68,1654.46 "/>
<path clip-path="url(#clip712)" d="M2054.95 1675.48 L2054.95 1751.15 L2111.23 1751.15 L2111.23 1675.48 L2054.95 1675.48 L2054.95 1675.48  Z" fill="#009af9" fill-rule="evenodd" fill-opacity="1"/>
<polyline clip-path="url(#clip712)" style="stroke:#000000; stroke-linecap:round; stroke-linejoin:round; stroke-width:4; stroke-opacity:1; fill:none" points="2054.95,1675.48 2054.95,1751.15 2111.23,1751.15 2111.23,1675.48 2054.95,1675.48 "/>
<path clip-path="url(#clip712)" d="M2111.23 1700.7 L2111.23 1751.15 L2167.5 1751.15 L2167.5 1700.7 L2111.23 1700.7 L2111.23 1700.7  Z" fill="#009af9" fill-rule="evenodd" fill-opacity="1"/>
<polyline clip-path="url(#clip712)" style="stroke:#000000; stroke-linecap:round; stroke-linejoin:round; stroke-width:4; stroke-opacity:1; fill:none" points="2111.23,1700.7 2111.23,1751.15 2167.5,1751.15 2167.5,1700.7 2111.23,1700.7 "/>
<path clip-path="url(#clip712)" d="M2167.5 1732.23 L2167.5 1751.15 L2223.77 1751.15 L2223.77 1732.23 L2167.5 1732.23 L2167.5 1732.23  Z" fill="#009af9" fill-rule="evenodd" fill-opacity="1"/>
<polyline clip-path="url(#clip712)" style="stroke:#000000; stroke-linecap:round; stroke-linejoin:round; stroke-width:4; stroke-opacity:1; fill:none" points="2167.5,1732.23 2167.5,1751.15 2223.77,1751.15 2223.77,1732.23 2167.5,1732.23 "/>
<path clip-path="url(#clip712)" d="M2223.77 1740.64 L2223.77 1751.15 L2280.04 1751.15 L2280.04 1740.64 L2223.77 1740.64 L2223.77 1740.64  Z" fill="#009af9" fill-rule="evenodd" fill-opacity="1"/>
<polyline clip-path="url(#clip712)" style="stroke:#000000; stroke-linecap:round; stroke-linejoin:round; stroke-width:4; stroke-opacity:1; fill:none" points="2223.77,1740.64 2223.77,1751.15 2280.04,1751.15 2280.04,1740.64 2223.77,1740.64 "/>
<path clip-path="url(#clip712)" d="M2280.04 1746.95 L2280.04 1751.15 L2336.31 1751.15 L2336.31 1746.95 L2280.04 1746.95 L2280.04 1746.95  Z" fill="#009af9" fill-rule="evenodd" fill-opacity="1"/>
<polyline clip-path="url(#clip712)" style="stroke:#000000; stroke-linecap:round; stroke-linejoin:round; stroke-width:4; stroke-opacity:1; fill:none" points="2280.04,1746.95 2280.04,1751.15 2336.31,1751.15 2336.31,1746.95 2280.04,1746.95 "/>
<path clip-path="url(#clip712)" d="M2336.31 1740.64 L2336.31 1751.15 L2392.59 1751.15 L2392.59 1740.64 L2336.31 1740.64 L2336.31 1740.64  Z" fill="#009af9" fill-rule="evenodd" fill-opacity="1"/>
<polyline clip-path="url(#clip712)" style="stroke:#000000; stroke-linecap:round; stroke-linejoin:round; stroke-width:4; stroke-opacity:1; fill:none" points="2336.31,1740.64 2336.31,1751.15 2392.59,1751.15 2392.59,1740.64 2336.31,1740.64 "/>
<path clip-path="url(#clip712)" d="M2392.59 1744.84 L2392.59 1751.15 L2448.86 1751.15 L2448.86 1744.84 L2392.59 1744.84 L2392.59 1744.84  Z" fill="#009af9" fill-rule="evenodd" fill-opacity="1"/>
<polyline clip-path="url(#clip712)" style="stroke:#000000; stroke-linecap:round; stroke-linejoin:round; stroke-width:4; stroke-opacity:1; fill:none" points="2392.59,1744.84 2392.59,1751.15 2448.86,1751.15 2448.86,1744.84 2392.59,1744.84 "/>
<path clip-path="url(#clip712)" d="M2448.86 1746.95 L2448.86 1751.15 L2505.13 1751.15 L2505.13 1746.95 L2448.86 1746.95 L2448.86 1746.95  Z" fill="#009af9" fill-rule="evenodd" fill-opacity="1"/>
<polyline clip-path="url(#clip712)" style="stroke:#000000; stroke-linecap:round; stroke-linejoin:round; stroke-width:4; stroke-opacity:1; fill:none" points="2448.86,1746.95 2448.86,1751.15 2505.13,1751.15 2505.13,1746.95 2448.86,1746.95 "/>
<circle clip-path="url(#clip712)" style="fill:#009af9; stroke:none; fill-opacity:0" cx="338.658" cy="1749.05" r="2"/>
<circle clip-path="url(#clip712)" style="fill:#009af9; stroke:none; fill-opacity:0" cx="394.93" cy="1746.95" r="2"/>
<circle clip-path="url(#clip712)" style="fill:#009af9; stroke:none; fill-opacity:0" cx="451.202" cy="1742.74" r="2"/>
<circle clip-path="url(#clip712)" style="fill:#009af9; stroke:none; fill-opacity:0" cx="507.474" cy="1721.72" r="2"/>
<circle clip-path="url(#clip712)" style="fill:#009af9; stroke:none; fill-opacity:0" cx="563.746" cy="1730.13" r="2"/>
<circle clip-path="url(#clip712)" style="fill:#009af9; stroke:none; fill-opacity:0" cx="620.018" cy="1715.42" r="2"/>
<circle clip-path="url(#clip712)" style="fill:#009af9; stroke:none; fill-opacity:0" cx="676.289" cy="1673.38" r="2"/>
<circle clip-path="url(#clip712)" style="fill:#009af9; stroke:none; fill-opacity:0" cx="732.561" cy="1625.03" r="2"/>
<circle clip-path="url(#clip712)" style="fill:#009af9; stroke:none; fill-opacity:0" cx="788.833" cy="1587.19" r="2"/>
<circle clip-path="url(#clip712)" style="fill:#009af9; stroke:none; fill-opacity:0" cx="845.105" cy="1511.52" r="2"/>
<circle clip-path="url(#clip712)" style="fill:#009af9; stroke:none; fill-opacity:0" cx="901.377" cy="1318.14" r="2"/>
<circle clip-path="url(#clip712)" style="fill:#009af9; stroke:none; fill-opacity:0" cx="957.649" cy="1292.91" r="2"/>
<circle clip-path="url(#clip712)" style="fill:#009af9; stroke:none; fill-opacity:0" cx="1013.92" cy="958.695" r="2"/>
<circle clip-path="url(#clip712)" style="fill:#009af9; stroke:none; fill-opacity:0" cx="1070.19" cy="819.962" r="2"/>
<circle clip-path="url(#clip712)" style="fill:#009af9; stroke:none; fill-opacity:0" cx="1126.47" cy="649.7" r="2"/>
<circle clip-path="url(#clip712)" style="fill:#009af9; stroke:none; fill-opacity:0" cx="1182.74" cy="468.927" r="2"/>
<circle clip-path="url(#clip712)" style="fill:#009af9; stroke:none; fill-opacity:0" cx="1239.01" cy="237.707" r="2"/>
<circle clip-path="url(#clip712)" style="fill:#009af9; stroke:none; fill-opacity:0" cx="1295.28" cy="183.055" r="2"/>
<circle clip-path="url(#clip712)" style="fill:#009af9; stroke:none; fill-opacity:0" cx="1351.55" cy="105.28" r="2"/>
<circle clip-path="url(#clip712)" style="fill:#009af9; stroke:none; fill-opacity:0" cx="1407.83" cy="96.8724" r="2"/>
<circle clip-path="url(#clip712)" style="fill:#009af9; stroke:none; fill-opacity:0" cx="1464.1" cy="157.831" r="2"/>
<circle clip-path="url(#clip712)" style="fill:#009af9; stroke:none; fill-opacity:0" cx="1520.37" cy="225.095" r="2"/>
<circle clip-path="url(#clip712)" style="fill:#009af9; stroke:none; fill-opacity:0" cx="1576.64" cy="477.335" r="2"/>
<circle clip-path="url(#clip712)" style="fill:#009af9; stroke:none; fill-opacity:0" cx="1632.91" cy="651.802" r="2"/>
<circle clip-path="url(#clip712)" style="fill:#009af9; stroke:none; fill-opacity:0" cx="1689.19" cy="851.493" r="2"/>
<circle clip-path="url(#clip712)" style="fill:#009af9; stroke:none; fill-opacity:0" cx="1745.46" cy="1009.14" r="2"/>
<circle clip-path="url(#clip712)" style="fill:#009af9; stroke:none; fill-opacity:0" cx="1801.73" cy="1135.26" r="2"/>
<circle clip-path="url(#clip712)" style="fill:#009af9; stroke:none; fill-opacity:0" cx="1858" cy="1341.26" r="2"/>
<circle clip-path="url(#clip712)" style="fill:#009af9; stroke:none; fill-opacity:0" cx="1914.27" cy="1467.38" r="2"/>
<circle clip-path="url(#clip712)" style="fill:#009af9; stroke:none; fill-opacity:0" cx="1970.55" cy="1540.95" r="2"/>
<circle clip-path="url(#clip712)" style="fill:#009af9; stroke:none; fill-opacity:0" cx="2026.82" cy="1654.46" r="2"/>
<circle clip-path="url(#clip712)" style="fill:#009af9; stroke:none; fill-opacity:0" cx="2083.09" cy="1675.48" r="2"/>
<circle clip-path="url(#clip712)" style="fill:#009af9; stroke:none; fill-opacity:0" cx="2139.36" cy="1700.7" r="2"/>
<circle clip-path="url(#clip712)" style="fill:#009af9; stroke:none; fill-opacity:0" cx="2195.63" cy="1732.23" r="2"/>
<circle clip-path="url(#clip712)" style="fill:#009af9; stroke:none; fill-opacity:0" cx="2251.91" cy="1740.64" r="2"/>
<circle clip-path="url(#clip712)" style="fill:#009af9; stroke:none; fill-opacity:0" cx="2308.18" cy="1746.95" r="2"/>
<circle clip-path="url(#clip712)" style="fill:#009af9; stroke:none; fill-opacity:0" cx="2364.45" cy="1740.64" r="2"/>
<circle clip-path="url(#clip712)" style="fill:#009af9; stroke:none; fill-opacity:0" cx="2420.72" cy="1744.84" r="2"/>
<circle clip-path="url(#clip712)" style="fill:#009af9; stroke:none; fill-opacity:0" cx="2476.99" cy="1746.95" r="2"/>
<path clip-path="url(#clip710)" d="M2259.54 209.375 L2558.56 209.375 L2558.56 105.695 L2259.54 105.695  Z" fill="#ffffff" fill-rule="evenodd" fill-opacity="1"/>
<polyline clip-path="url(#clip710)" style="stroke:#000000; stroke-linecap:round; stroke-linejoin:round; stroke-width:4; stroke-opacity:1; fill:none" points="2259.54,209.375 2558.56,209.375 2558.56,105.695 2259.54,105.695 2259.54,209.375 "/>
<path clip-path="url(#clip710)" d="M2286.94 178.271 L2451.33 178.271 L2451.33 136.799 L2286.94 136.799 L2286.94 178.271  Z" fill="#009af9" fill-rule="evenodd" fill-opacity="1"/>
<polyline clip-path="url(#clip710)" style="stroke:#000000; stroke-linecap:round; stroke-linejoin:round; stroke-width:4; stroke-opacity:1; fill:none" points="2286.94,178.271 2451.33,178.271 2451.33,136.799 2286.94,136.799 2286.94,178.271 "/>
<path clip-path="url(#clip710)" d="M2492.57 177.223 Q2490.77 181.852 2489.06 183.264 Q2487.34 184.676 2484.47 184.676 L2481.07 184.676 L2481.07 181.112 L2483.57 181.112 Q2485.33 181.112 2486.3 180.278 Q2487.27 179.445 2488.45 176.343 L2489.22 174.399 L2478.73 148.889 L2483.25 148.889 L2491.35 169.167 L2499.45 148.889 L2503.96 148.889 L2492.57 177.223 Z" fill="#000000" fill-rule="evenodd" fill-opacity="1" /><path clip-path="url(#clip710)" d="M2511.25 170.88 L2518.89 170.88 L2518.89 144.515 L2510.58 146.181 L2510.58 141.922 L2518.85 140.255 L2523.52 140.255 L2523.52 170.88 L2531.16 170.88 L2531.16 174.815 L2511.25 174.815 L2511.25 170.88 Z" fill="#000000" fill-rule="evenodd" fill-opacity="1" /></svg>
