<?xml version="1.0" encoding="utf-8"?>
<svg xmlns="http://www.w3.org/2000/svg" xmlns:xlink="http://www.w3.org/1999/xlink" width="672" height="480" viewBox="0 0 2688 1920">
<defs>
  <clipPath id="clip880">
    <rect x="0" y="0" width="2688" height="1920"/>
  </clipPath>
</defs>
<path clip-path="url(#clip880)" d="
M0 1920 L2688 1920 L2688 0 L0 0  Z
  " fill="#ffffff" fill-rule="evenodd" fill-opacity="1"/>
<defs>
  <clipPath id="clip881">
    <rect x="537" y="0" width="1883" height="1883"/>
  </clipPath>
</defs>
<path clip-path="url(#clip880)" d="
M174.895 1800.78 L2640.76 1800.78 L2640.76 47.2441 L174.895 47.2441  Z
  " fill="#ffffff" fill-rule="evenodd" fill-opacity="1"/>
<defs>
  <clipPath id="clip882">
    <rect x="174" y="47" width="2467" height="1755"/>
  </clipPath>
</defs>
<polyline clip-path="url(#clip882)" style="stroke:#000000; stroke-linecap:round; stroke-linejoin:round; stroke-width:2; stroke-opacity:0.1; fill:none" points="
  483.78,1800.78 483.78,47.2441 
  "/>
<polyline clip-path="url(#clip882)" style="stroke:#000000; stroke-linecap:round; stroke-linejoin:round; stroke-width:2; stroke-opacity:0.1; fill:none" points="
  1061.31,1800.78 1061.31,47.2441 
  "/>
<polyline clip-path="url(#clip882)" style="stroke:#000000; stroke-linecap:round; stroke-linejoin:round; stroke-width:2; stroke-opacity:0.1; fill:none" points="
  1638.84,1800.78 1638.84,47.2441 
  "/>
<polyline clip-path="url(#clip882)" style="stroke:#000000; stroke-linecap:round; stroke-linejoin:round; stroke-width:2; stroke-opacity:0.1; fill:none" points="
  2216.37,1800.78 2216.37,47.2441 
  "/>
<polyline clip-path="url(#clip880)" style="stroke:#000000; stroke-linecap:round; stroke-linejoin:round; stroke-width:4; stroke-opacity:1; fill:none" points="
  174.895,1800.78 2640.76,1800.78 
  "/>
<polyline clip-path="url(#clip880)" style="stroke:#000000; stroke-linecap:round; stroke-linejoin:round; stroke-width:4; stroke-opacity:1; fill:none" points="
  483.78,1800.78 483.78,1781.88 
  "/>
<polyline clip-path="url(#clip880)" style="stroke:#000000; stroke-linecap:round; stroke-linejoin:round; stroke-width:4; stroke-opacity:1; fill:none" points="
  1061.31,1800.78 1061.31,1781.88 
  "/>
<polyline clip-path="url(#clip880)" style="stroke:#000000; stroke-linecap:round; stroke-linejoin:round; stroke-width:4; stroke-opacity:1; fill:none" points="
  1638.84,1800.78 1638.84,1781.88 
  "/>
<polyline clip-path="url(#clip880)" style="stroke:#000000; stroke-linecap:round; stroke-linejoin:round; stroke-width:4; stroke-opacity:1; fill:none" points="
  2216.37,1800.78 2216.37,1781.88 
  "/>
<path clip-path="url(#clip880)" d="M461.963 1834 Q458.352 1834 456.523 1837.57 Q454.718 1841.11 454.718 1848.24 Q454.718 1855.34 456.523 1858.91 Q458.352 1862.45 461.963 1862.45 Q465.597 1862.45 467.403 1858.91 Q469.232 1855.34 469.232 1848.24 Q469.232 1841.11 467.403 1837.57 Q465.597 1834 461.963 1834 M461.963 1830.3 Q467.773 1830.3 470.829 1834.9 Q473.907 1839.49 473.907 1848.24 Q473.907 1856.96 470.829 1861.57 Q467.773 1866.15 461.963 1866.15 Q456.153 1866.15 453.074 1861.57 Q450.019 1856.96 450.019 1848.24 Q450.019 1839.49 453.074 1834.9 Q456.153 1830.3 461.963 1830.3 Z" fill="#000000" fill-rule="evenodd" fill-opacity="1" /><path clip-path="url(#clip880)" d="M482.125 1859.6 L487.009 1859.6 L487.009 1865.48 L482.125 1865.48 L482.125 1859.6 Z" fill="#000000" fill-rule="evenodd" fill-opacity="1" /><path clip-path="url(#clip880)" d="M501.222 1861.55 L517.541 1861.55 L517.541 1865.48 L495.597 1865.48 L495.597 1861.55 Q498.259 1858.79 502.842 1854.16 Q507.449 1849.51 508.629 1848.17 Q510.875 1845.65 511.754 1843.91 Q512.657 1842.15 512.657 1840.46 Q512.657 1837.71 510.713 1835.97 Q508.792 1834.23 505.69 1834.23 Q503.491 1834.23 501.037 1835 Q498.606 1835.76 495.829 1837.31 L495.829 1832.59 Q498.653 1831.46 501.106 1830.88 Q503.56 1830.3 505.597 1830.3 Q510.967 1830.3 514.162 1832.98 Q517.356 1835.67 517.356 1840.16 Q517.356 1842.29 516.546 1844.21 Q515.759 1846.11 513.653 1848.7 Q513.074 1849.37 509.972 1852.59 Q506.87 1855.78 501.222 1861.55 Z" fill="#000000" fill-rule="evenodd" fill-opacity="1" /><path clip-path="url(#clip880)" d="M1038.45 1834 Q1034.84 1834 1033.01 1837.57 Q1031.2 1841.11 1031.2 1848.24 Q1031.2 1855.34 1033.01 1858.91 Q1034.84 1862.45 1038.45 1862.45 Q1042.08 1862.45 1043.89 1858.91 Q1045.72 1855.34 1045.72 1848.24 Q1045.72 1841.11 1043.89 1837.57 Q1042.08 1834 1038.45 1834 M1038.45 1830.3 Q1044.26 1830.3 1047.32 1834.9 Q1050.39 1839.49 1050.39 1848.24 Q1050.39 1856.96 1047.32 1861.57 Q1044.26 1866.15 1038.45 1866.15 Q1032.64 1866.15 1029.56 1861.57 Q1026.51 1856.96 1026.51 1848.24 Q1026.51 1839.49 1029.56 1834.9 Q1032.64 1830.3 1038.45 1830.3 Z" fill="#000000" fill-rule="evenodd" fill-opacity="1" /><path clip-path="url(#clip880)" d="M1058.61 1859.6 L1063.5 1859.6 L1063.5 1865.48 L1058.61 1865.48 L1058.61 1859.6 Z" fill="#000000" fill-rule="evenodd" fill-opacity="1" /><path clip-path="url(#clip880)" d="M1086.53 1835 L1074.72 1853.45 L1086.53 1853.45 L1086.53 1835 M1085.3 1830.92 L1091.18 1830.92 L1091.18 1853.45 L1096.11 1853.45 L1096.11 1857.34 L1091.18 1857.34 L1091.18 1865.48 L1086.53 1865.48 L1086.53 1857.34 L1070.93 1857.34 L1070.93 1852.82 L1085.3 1830.92 Z" fill="#000000" fill-rule="evenodd" fill-opacity="1" /><path clip-path="url(#clip880)" d="M1616.14 1834 Q1612.53 1834 1610.7 1837.57 Q1608.89 1841.11 1608.89 1848.24 Q1608.89 1855.34 1610.7 1858.91 Q1612.53 1862.45 1616.14 1862.45 Q1619.77 1862.45 1621.58 1858.91 Q1623.41 1855.34 1623.41 1848.24 Q1623.41 1841.11 1621.58 1837.57 Q1619.77 1834 1616.14 1834 M1616.14 1830.3 Q1621.95 1830.3 1625.01 1834.9 Q1628.08 1839.49 1628.08 1848.24 Q1628.08 1856.96 1625.01 1861.57 Q1621.95 1866.15 1616.14 1866.15 Q1610.33 1866.15 1607.25 1861.57 Q1604.2 1856.96 1604.2 1848.24 Q1604.2 1839.49 1607.25 1834.9 Q1610.33 1830.3 1616.14 1830.3 Z" fill="#000000" fill-rule="evenodd" fill-opacity="1" /><path clip-path="url(#clip880)" d="M1636.3 1859.6 L1641.19 1859.6 L1641.19 1865.48 L1636.3 1865.48 L1636.3 1859.6 Z" fill="#000000" fill-rule="evenodd" fill-opacity="1" /><path clip-path="url(#clip880)" d="M1661.95 1846.34 Q1658.8 1846.34 1656.95 1848.49 Q1655.12 1850.65 1655.12 1854.4 Q1655.12 1858.12 1656.95 1860.3 Q1658.8 1862.45 1661.95 1862.45 Q1665.1 1862.45 1666.93 1860.3 Q1668.78 1858.12 1668.78 1854.4 Q1668.78 1850.65 1666.93 1848.49 Q1665.1 1846.34 1661.95 1846.34 M1671.23 1831.69 L1671.23 1835.95 Q1669.47 1835.11 1667.67 1834.67 Q1665.89 1834.23 1664.13 1834.23 Q1659.5 1834.23 1657.04 1837.36 Q1654.61 1840.48 1654.26 1846.8 Q1655.63 1844.79 1657.69 1843.72 Q1659.75 1842.64 1662.23 1842.64 Q1667.44 1842.64 1670.45 1845.81 Q1673.48 1848.96 1673.48 1854.4 Q1673.48 1859.72 1670.33 1862.94 Q1667.18 1866.15 1661.95 1866.15 Q1655.95 1866.15 1652.78 1861.57 Q1649.61 1856.96 1649.61 1848.24 Q1649.61 1840.04 1653.5 1835.18 Q1657.39 1830.3 1663.94 1830.3 Q1665.7 1830.3 1667.48 1830.65 Q1669.29 1830.99 1671.23 1831.69 Z" fill="#000000" fill-rule="evenodd" fill-opacity="1" /><path clip-path="url(#clip880)" d="M2193.8 1834 Q2190.18 1834 2188.36 1837.57 Q2186.55 1841.11 2186.55 1848.24 Q2186.55 1855.34 2188.36 1858.91 Q2190.18 1862.45 2193.8 1862.45 Q2197.43 1862.45 2199.24 1858.91 Q2201.06 1855.34 2201.06 1848.24 Q2201.06 1841.11 2199.24 1837.57 Q2197.43 1834 2193.8 1834 M2193.8 1830.3 Q2199.61 1830.3 2202.66 1834.9 Q2205.74 1839.49 2205.74 1848.24 Q2205.74 1856.96 2202.66 1861.57 Q2199.61 1866.15 2193.8 1866.15 Q2187.99 1866.15 2184.91 1861.57 Q2181.85 1856.96 2181.85 1848.24 Q2181.85 1839.49 2184.91 1834.9 Q2187.99 1830.3 2193.8 1830.3 Z" fill="#000000" fill-rule="evenodd" fill-opacity="1" /><path clip-path="url(#clip880)" d="M2213.96 1859.6 L2218.84 1859.6 L2218.84 1865.48 L2213.96 1865.48 L2213.96 1859.6 Z" fill="#000000" fill-rule="evenodd" fill-opacity="1" /><path clip-path="url(#clip880)" d="M2239.03 1849.07 Q2235.69 1849.07 2233.77 1850.85 Q2231.87 1852.64 2231.87 1855.76 Q2231.87 1858.89 2233.77 1860.67 Q2235.69 1862.45 2239.03 1862.45 Q2242.36 1862.45 2244.28 1860.67 Q2246.2 1858.86 2246.2 1855.76 Q2246.2 1852.64 2244.28 1850.85 Q2242.38 1849.07 2239.03 1849.07 M2234.35 1847.08 Q2231.34 1846.34 2229.65 1844.28 Q2227.99 1842.22 2227.99 1839.26 Q2227.99 1835.11 2230.93 1832.71 Q2233.89 1830.3 2239.03 1830.3 Q2244.19 1830.3 2247.13 1832.71 Q2250.07 1835.11 2250.07 1839.26 Q2250.07 1842.22 2248.38 1844.28 Q2246.71 1846.34 2243.73 1847.08 Q2247.11 1847.87 2248.98 1850.16 Q2250.88 1852.45 2250.88 1855.76 Q2250.88 1860.78 2247.8 1863.47 Q2244.74 1866.15 2239.03 1866.15 Q2233.31 1866.15 2230.23 1863.47 Q2227.18 1860.78 2227.18 1855.76 Q2227.18 1852.45 2229.07 1850.16 Q2230.97 1847.87 2234.35 1847.08 M2232.64 1839.7 Q2232.64 1842.38 2234.3 1843.89 Q2235.99 1845.39 2239.03 1845.39 Q2242.04 1845.39 2243.73 1843.89 Q2245.44 1842.38 2245.44 1839.7 Q2245.44 1837.01 2243.73 1835.51 Q2242.04 1834 2239.03 1834 Q2235.99 1834 2234.3 1835.51 Q2232.64 1837.01 2232.64 1839.7 Z" fill="#000000" fill-rule="evenodd" fill-opacity="1" /><polyline clip-path="url(#clip882)" style="stroke:#000000; stroke-linecap:round; stroke-linejoin:round; stroke-width:2; stroke-opacity:0.1; fill:none" points="
  174.895,1751.15 2640.76,1751.15 
  "/>
<polyline clip-path="url(#clip882)" style="stroke:#000000; stroke-linecap:round; stroke-linejoin:round; stroke-width:2; stroke-opacity:0.1; fill:none" points="
  174.895,1340.66 2640.76,1340.66 
  "/>
<polyline clip-path="url(#clip882)" style="stroke:#000000; stroke-linecap:round; stroke-linejoin:round; stroke-width:2; stroke-opacity:0.1; fill:none" points="
  174.895,930.169 2640.76,930.169 
  "/>
<polyline clip-path="url(#clip882)" style="stroke:#000000; stroke-linecap:round; stroke-linejoin:round; stroke-width:2; stroke-opacity:0.1; fill:none" points="
  174.895,519.678 2640.76,519.678 
  "/>
<polyline clip-path="url(#clip882)" style="stroke:#000000; stroke-linecap:round; stroke-linejoin:round; stroke-width:2; stroke-opacity:0.1; fill:none" points="
  174.895,109.187 2640.76,109.187 
  "/>
<polyline clip-path="url(#clip880)" style="stroke:#000000; stroke-linecap:round; stroke-linejoin:round; stroke-width:4; stroke-opacity:1; fill:none" points="
  174.895,1800.78 174.895,47.2441 
  "/>
<polyline clip-path="url(#clip880)" style="stroke:#000000; stroke-linecap:round; stroke-linejoin:round; stroke-width:4; stroke-opacity:1; fill:none" points="
  174.895,1751.15 193.792,1751.15 
  "/>
<polyline clip-path="url(#clip880)" style="stroke:#000000; stroke-linecap:round; stroke-linejoin:round; stroke-width:4; stroke-opacity:1; fill:none" points="
  174.895,1340.66 193.792,1340.66 
  "/>
<polyline clip-path="url(#clip880)" style="stroke:#000000; stroke-linecap:round; stroke-linejoin:round; stroke-width:4; stroke-opacity:1; fill:none" points="
  174.895,930.169 193.792,930.169 
  "/>
<polyline clip-path="url(#clip880)" style="stroke:#000000; stroke-linecap:round; stroke-linejoin:round; stroke-width:4; stroke-opacity:1; fill:none" points="
  174.895,519.678 193.792,519.678 
  "/>
<polyline clip-path="url(#clip880)" style="stroke:#000000; stroke-linecap:round; stroke-linejoin:round; stroke-width:4; stroke-opacity:1; fill:none" points="
  174.895,109.187 193.792,109.187 
  "/>
<path clip-path="url(#clip880)" d="M122.63 1736.95 Q119.019 1736.95 117.191 1740.51 Q115.385 1744.06 115.385 1751.19 Q115.385 1758.29 117.191 1761.86 Q119.019 1765.4 122.63 1765.4 Q126.265 1765.4 128.07 1761.86 Q129.899 1758.29 129.899 1751.19 Q129.899 1744.06 128.07 1740.51 Q126.265 1736.95 122.63 1736.95 M122.63 1733.25 Q128.441 1733.25 131.496 1737.85 Q134.575 1742.44 134.575 1751.19 Q134.575 1759.91 131.496 1764.52 Q128.441 1769.1 122.63 1769.1 Q116.82 1769.1 113.742 1764.52 Q110.686 1759.91 110.686 1751.19 Q110.686 1742.44 113.742 1737.85 Q116.82 1733.25 122.63 1733.25 Z" fill="#000000" fill-rule="evenodd" fill-opacity="1" /><path clip-path="url(#clip880)" d="M56.3345 1354 L72.6539 1354 L72.6539 1357.94 L50.7095 1357.94 L50.7095 1354 Q53.3715 1351.25 57.9549 1346.62 Q62.5613 1341.97 63.7419 1340.63 Q65.9872 1338.1 66.8668 1336.37 Q67.7696 1334.61 67.7696 1332.92 Q67.7696 1330.16 65.8252 1328.43 Q63.9039 1326.69 60.8021 1326.69 Q58.603 1326.69 56.1493 1327.45 Q53.7188 1328.22 50.941 1329.77 L50.941 1325.05 Q53.7651 1323.91 56.2188 1323.33 Q58.6724 1322.76 60.7095 1322.76 Q66.0798 1322.76 69.2742 1325.44 Q72.4687 1328.13 72.4687 1332.62 Q72.4687 1334.75 71.6585 1336.67 Q70.8715 1338.57 68.765 1341.16 Q68.1863 1341.83 65.0845 1345.05 Q61.9826 1348.24 56.3345 1354 Z" fill="#000000" fill-rule="evenodd" fill-opacity="1" /><path clip-path="url(#clip880)" d="M92.4686 1326.46 Q88.8575 1326.46 87.0288 1330.02 Q85.2232 1333.57 85.2232 1340.69 Q85.2232 1347.8 87.0288 1351.37 Q88.8575 1354.91 92.4686 1354.91 Q96.1028 1354.91 97.9083 1351.37 Q99.737 1347.8 99.737 1340.69 Q99.737 1333.57 97.9083 1330.02 Q96.1028 1326.46 92.4686 1326.46 M92.4686 1322.76 Q98.2787 1322.76 101.334 1327.36 Q104.413 1331.94 104.413 1340.69 Q104.413 1349.42 101.334 1354.03 Q98.2787 1358.61 92.4686 1358.61 Q86.6584 1358.61 83.5797 1354.03 Q80.5242 1349.42 80.5242 1340.69 Q80.5242 1331.94 83.5797 1327.36 Q86.6584 1322.76 92.4686 1322.76 Z" fill="#000000" fill-rule="evenodd" fill-opacity="1" /><path clip-path="url(#clip880)" d="M122.63 1326.46 Q119.019 1326.46 117.191 1330.02 Q115.385 1333.57 115.385 1340.69 Q115.385 1347.8 117.191 1351.37 Q119.019 1354.91 122.63 1354.91 Q126.265 1354.91 128.07 1351.37 Q129.899 1347.8 129.899 1340.69 Q129.899 1333.57 128.07 1330.02 Q126.265 1326.46 122.63 1326.46 M122.63 1322.76 Q128.441 1322.76 131.496 1327.36 Q134.575 1331.94 134.575 1340.69 Q134.575 1349.42 131.496 1354.03 Q128.441 1358.61 122.63 1358.61 Q116.82 1358.61 113.742 1354.03 Q110.686 1349.42 110.686 1340.69 Q110.686 1331.94 113.742 1327.36 Q116.82 1322.76 122.63 1322.76 Z" fill="#000000" fill-rule="evenodd" fill-opacity="1" /><path clip-path="url(#clip880)" d="M65.1539 916.963 L53.3484 935.412 L65.1539 935.412 L65.1539 916.963 M63.927 912.889 L69.8066 912.889 L69.8066 935.412 L74.7372 935.412 L74.7372 939.301 L69.8066 939.301 L69.8066 947.449 L65.1539 947.449 L65.1539 939.301 L49.5521 939.301 L49.5521 934.787 L63.927 912.889 Z" fill="#000000" fill-rule="evenodd" fill-opacity="1" /><path clip-path="url(#clip880)" d="M92.4686 915.968 Q88.8575 915.968 87.0288 919.533 Q85.2232 923.074 85.2232 930.204 Q85.2232 937.31 87.0288 940.875 Q88.8575 944.417 92.4686 944.417 Q96.1028 944.417 97.9083 940.875 Q99.737 937.31 99.737 930.204 Q99.737 923.074 97.9083 919.533 Q96.1028 915.968 92.4686 915.968 M92.4686 912.264 Q98.2787 912.264 101.334 916.871 Q104.413 921.454 104.413 930.204 Q104.413 938.931 101.334 943.537 Q98.2787 948.12 92.4686 948.12 Q86.6584 948.12 83.5797 943.537 Q80.5242 938.931 80.5242 930.204 Q80.5242 921.454 83.5797 916.871 Q86.6584 912.264 92.4686 912.264 Z" fill="#000000" fill-rule="evenodd" fill-opacity="1" /><path clip-path="url(#clip880)" d="M122.63 915.968 Q119.019 915.968 117.191 919.533 Q115.385 923.074 115.385 930.204 Q115.385 937.31 117.191 940.875 Q119.019 944.417 122.63 944.417 Q126.265 944.417 128.07 940.875 Q129.899 937.31 129.899 930.204 Q129.899 923.074 128.07 919.533 Q126.265 915.968 122.63 915.968 M122.63 912.264 Q128.441 912.264 131.496 916.871 Q134.575 921.454 134.575 930.204 Q134.575 938.931 131.496 943.537 Q128.441 948.12 122.63 948.12 Q116.82 948.12 113.742 943.537 Q110.686 938.931 110.686 930.204 Q110.686 921.454 113.742 916.871 Q116.82 912.264 122.63 912.264 Z" fill="#000000" fill-rule="evenodd" fill-opacity="1" /><path clip-path="url(#clip880)" d="M62.8854 517.815 Q59.7373 517.815 57.8854 519.967 Q56.0567 522.12 56.0567 525.87 Q56.0567 529.597 57.8854 531.773 Q59.7373 533.926 62.8854 533.926 Q66.0335 533.926 67.8622 531.773 Q69.7141 529.597 69.7141 525.87 Q69.7141 522.12 67.8622 519.967 Q66.0335 517.815 62.8854 517.815 M72.1677 503.162 L72.1677 507.421 Q70.4085 506.588 68.6029 506.148 Q66.8206 505.708 65.0613 505.708 Q60.4317 505.708 57.978 508.833 Q55.5475 511.958 55.2002 518.278 Q56.566 516.264 58.6262 515.199 Q60.6863 514.111 63.1632 514.111 Q68.3715 514.111 71.3807 517.282 Q74.4131 520.43 74.4131 525.87 Q74.4131 531.194 71.265 534.412 Q68.1168 537.629 62.8854 537.629 Q56.89 537.629 53.7188 533.046 Q50.5475 528.44 50.5475 519.713 Q50.5475 511.518 54.4364 506.657 Q58.3252 501.773 64.8761 501.773 Q66.6354 501.773 68.4178 502.12 Q70.2233 502.468 72.1677 503.162 Z" fill="#000000" fill-rule="evenodd" fill-opacity="1" /><path clip-path="url(#clip880)" d="M92.4686 505.477 Q88.8575 505.477 87.0288 509.042 Q85.2232 512.583 85.2232 519.713 Q85.2232 526.819 87.0288 530.384 Q88.8575 533.926 92.4686 533.926 Q96.1028 533.926 97.9083 530.384 Q99.737 526.819 99.737 519.713 Q99.737 512.583 97.9083 509.042 Q96.1028 505.477 92.4686 505.477 M92.4686 501.773 Q98.2787 501.773 101.334 506.38 Q104.413 510.963 104.413 519.713 Q104.413 528.44 101.334 533.046 Q98.2787 537.629 92.4686 537.629 Q86.6584 537.629 83.5797 533.046 Q80.5242 528.44 80.5242 519.713 Q80.5242 510.963 83.5797 506.38 Q86.6584 501.773 92.4686 501.773 Z" fill="#000000" fill-rule="evenodd" fill-opacity="1" /><path clip-path="url(#clip880)" d="M122.63 505.477 Q119.019 505.477 117.191 509.042 Q115.385 512.583 115.385 519.713 Q115.385 526.819 117.191 530.384 Q119.019 533.926 122.63 533.926 Q126.265 533.926 128.07 530.384 Q129.899 526.819 129.899 519.713 Q129.899 512.583 128.07 509.042 Q126.265 505.477 122.63 505.477 M122.63 501.773 Q128.441 501.773 131.496 506.38 Q134.575 510.963 134.575 519.713 Q134.575 528.44 131.496 533.046 Q128.441 537.629 122.63 537.629 Q116.82 537.629 113.742 533.046 Q110.686 528.44 110.686 519.713 Q110.686 510.963 113.742 506.38 Q116.82 501.773 122.63 501.773 Z" fill="#000000" fill-rule="evenodd" fill-opacity="1" /><path clip-path="url(#clip880)" d="M62.3067 110.055 Q58.9734 110.055 57.0521 111.838 Q55.1539 113.62 55.1539 116.745 Q55.1539 119.87 57.0521 121.652 Q58.9734 123.435 62.3067 123.435 Q65.64 123.435 67.5613 121.652 Q69.4826 119.847 69.4826 116.745 Q69.4826 113.62 67.5613 111.838 Q65.6632 110.055 62.3067 110.055 M57.6308 108.064 Q54.6215 107.324 52.9317 105.264 Q51.2651 103.203 51.2651 100.24 Q51.2651 96.097 54.2049 93.6896 Q57.1678 91.2822 62.3067 91.2822 Q67.4687 91.2822 70.4085 93.6896 Q73.3483 96.097 73.3483 100.24 Q73.3483 103.203 71.6585 105.264 Q69.9918 107.324 67.0057 108.064 Q70.3853 108.852 72.2603 111.143 Q74.1585 113.435 74.1585 116.745 Q74.1585 121.768 71.0798 124.453 Q68.0242 127.138 62.3067 127.138 Q56.5891 127.138 53.5104 124.453 Q50.4549 121.768 50.4549 116.745 Q50.4549 113.435 52.353 111.143 Q54.2512 108.852 57.6308 108.064 M55.9178 100.68 Q55.9178 103.365 57.5845 104.87 Q59.2743 106.375 62.3067 106.375 Q65.3159 106.375 67.0057 104.87 Q68.7187 103.365 68.7187 100.68 Q68.7187 97.9951 67.0057 96.4905 Q65.3159 94.9859 62.3067 94.9859 Q59.2743 94.9859 57.5845 96.4905 Q55.9178 97.9951 55.9178 100.68 Z" fill="#000000" fill-rule="evenodd" fill-opacity="1" /><path clip-path="url(#clip880)" d="M92.4686 94.9859 Q88.8575 94.9859 87.0288 98.5507 Q85.2232 102.092 85.2232 109.222 Q85.2232 116.328 87.0288 119.893 Q88.8575 123.435 92.4686 123.435 Q96.1028 123.435 97.9083 119.893 Q99.737 116.328 99.737 109.222 Q99.737 102.092 97.9083 98.5507 Q96.1028 94.9859 92.4686 94.9859 M92.4686 91.2822 Q98.2787 91.2822 101.334 95.8886 Q104.413 100.472 104.413 109.222 Q104.413 117.949 101.334 122.555 Q98.2787 127.138 92.4686 127.138 Q86.6584 127.138 83.5797 122.555 Q80.5242 117.949 80.5242 109.222 Q80.5242 100.472 83.5797 95.8886 Q86.6584 91.2822 92.4686 91.2822 Z" fill="#000000" fill-rule="evenodd" fill-opacity="1" /><path clip-path="url(#clip880)" d="M122.63 94.9859 Q119.019 94.9859 117.191 98.5507 Q115.385 102.092 115.385 109.222 Q115.385 116.328 117.191 119.893 Q119.019 123.435 122.63 123.435 Q126.265 123.435 128.07 119.893 Q129.899 116.328 129.899 109.222 Q129.899 102.092 128.07 98.5507 Q126.265 94.9859 122.63 94.9859 M122.63 91.2822 Q128.441 91.2822 131.496 95.8886 Q134.575 100.472 134.575 109.222 Q134.575 117.949 131.496 122.555 Q128.441 127.138 122.63 127.138 Q116.82 127.138 113.742 122.555 Q110.686 117.949 110.686 109.222 Q110.686 100.472 113.742 95.8886 Q116.82 91.2822 122.63 91.2822 Z" fill="#000000" fill-rule="evenodd" fill-opacity="1" /><path clip-path="url(#clip882)" d="
M310.522 1747.05 L310.522 1751.15 L368.274 1751.15 L368.274 1747.05 L310.522 1747.05 L310.522 1747.05  Z
  " fill="#009af9" fill-rule="evenodd" fill-opacity="1"/>
<polyline clip-path="url(#clip882)" style="stroke:#000000; stroke-linecap:round; stroke-linejoin:round; stroke-width:4; stroke-opacity:1; fill:none" points="
  310.522,1747.05 310.522,1751.15 368.274,1751.15 368.274,1747.05 310.522,1747.05 
  "/>
<path clip-path="url(#clip882)" d="
M368.274 1747.05 L368.274 1751.15 L426.027 1751.15 L426.027 1747.05 L368.274 1747.05 L368.274 1747.05  Z
  " fill="#009af9" fill-rule="evenodd" fill-opacity="1"/>
<polyline clip-path="url(#clip882)" style="stroke:#000000; stroke-linecap:round; stroke-linejoin:round; stroke-width:4; stroke-opacity:1; fill:none" points="
  368.274,1747.05 368.274,1751.15 426.027,1751.15 426.027,1747.05 368.274,1747.05 
  "/>
<path clip-path="url(#clip882)" d="
M426.027 1736.78 L426.027 1751.15 L483.78 1751.15 L483.78 1736.78 L426.027 1736.78 L426.027 1736.78  Z
  " fill="#009af9" fill-rule="evenodd" fill-opacity="1"/>
<polyline clip-path="url(#clip882)" style="stroke:#000000; stroke-linecap:round; stroke-linejoin:round; stroke-width:4; stroke-opacity:1; fill:none" points="
  426.027,1736.78 426.027,1751.15 483.78,1751.15 483.78,1736.78 426.027,1736.78 
  "/>
<path clip-path="url(#clip882)" d="
M483.78 1732.68 L483.78 1751.15 L541.533 1751.15 L541.533 1732.68 L483.78 1732.68 L483.78 1732.68  Z
  " fill="#009af9" fill-rule="evenodd" fill-opacity="1"/>
<polyline clip-path="url(#clip882)" style="stroke:#000000; stroke-linecap:round; stroke-linejoin:round; stroke-width:4; stroke-opacity:1; fill:none" points="
  483.78,1732.68 483.78,1751.15 541.533,1751.15 541.533,1732.68 483.78,1732.68 
  "/>
<path clip-path="url(#clip882)" d="
M541.533 1714.21 L541.533 1751.15 L599.286 1751.15 L599.286 1714.21 L541.533 1714.21 L541.533 1714.21  Z
  " fill="#009af9" fill-rule="evenodd" fill-opacity="1"/>
<polyline clip-path="url(#clip882)" style="stroke:#000000; stroke-linecap:round; stroke-linejoin:round; stroke-width:4; stroke-opacity:1; fill:none" points="
  541.533,1714.21 541.533,1751.15 599.286,1751.15 599.286,1714.21 541.533,1714.21 
  "/>
<path clip-path="url(#clip882)" d="
M599.286 1675.21 L599.286 1751.15 L657.039 1751.15 L657.039 1675.21 L599.286 1675.21 L599.286 1675.21  Z
  " fill="#009af9" fill-rule="evenodd" fill-opacity="1"/>
<polyline clip-path="url(#clip882)" style="stroke:#000000; stroke-linecap:round; stroke-linejoin:round; stroke-width:4; stroke-opacity:1; fill:none" points="
  599.286,1675.21 599.286,1751.15 657.039,1751.15 657.039,1675.21 599.286,1675.21 
  "/>
<path clip-path="url(#clip882)" d="
M657.039 1642.37 L657.039 1751.15 L714.791 1751.15 L714.791 1642.37 L657.039 1642.37 L657.039 1642.37  Z
  " fill="#009af9" fill-rule="evenodd" fill-opacity="1"/>
<polyline clip-path="url(#clip882)" style="stroke:#000000; stroke-linecap:round; stroke-linejoin:round; stroke-width:4; stroke-opacity:1; fill:none" points="
  657.039,1642.37 657.039,1751.15 714.791,1751.15 714.791,1642.37 657.039,1642.37 
  "/>
<path clip-path="url(#clip882)" d="
M714.791 1570.53 L714.791 1751.15 L772.544 1751.15 L772.544 1570.53 L714.791 1570.53 L714.791 1570.53  Z
  " fill="#009af9" fill-rule="evenodd" fill-opacity="1"/>
<polyline clip-path="url(#clip882)" style="stroke:#000000; stroke-linecap:round; stroke-linejoin:round; stroke-width:4; stroke-opacity:1; fill:none" points="
  714.791,1570.53 714.791,1751.15 772.544,1751.15 772.544,1570.53 714.791,1570.53 
  "/>
<path clip-path="url(#clip882)" d="
M772.544 1467.91 L772.544 1751.15 L830.297 1751.15 L830.297 1467.91 L772.544 1467.91 L772.544 1467.91  Z
  " fill="#009af9" fill-rule="evenodd" fill-opacity="1"/>
<polyline clip-path="url(#clip882)" style="stroke:#000000; stroke-linecap:round; stroke-linejoin:round; stroke-width:4; stroke-opacity:1; fill:none" points="
  772.544,1467.91 772.544,1751.15 830.297,1751.15 830.297,1467.91 772.544,1467.91 
  "/>
<path clip-path="url(#clip882)" d="
M830.297 1287.3 L830.297 1751.15 L888.05 1751.15 L888.05 1287.3 L830.297 1287.3 L830.297 1287.3  Z
  " fill="#009af9" fill-rule="evenodd" fill-opacity="1"/>
<polyline clip-path="url(#clip882)" style="stroke:#000000; stroke-linecap:round; stroke-linejoin:round; stroke-width:4; stroke-opacity:1; fill:none" points="
  830.297,1287.3 830.297,1751.15 888.05,1751.15 888.05,1287.3 830.297,1287.3 
  "/>
<path clip-path="url(#clip882)" d="
M888.05 1279.09 L888.05 1751.15 L945.803 1751.15 L945.803 1279.09 L888.05 1279.09 L888.05 1279.09  Z
  " fill="#009af9" fill-rule="evenodd" fill-opacity="1"/>
<polyline clip-path="url(#clip882)" style="stroke:#000000; stroke-linecap:round; stroke-linejoin:round; stroke-width:4; stroke-opacity:1; fill:none" points="
  888.05,1279.09 888.05,1751.15 945.803,1751.15 945.803,1279.09 888.05,1279.09 
  "/>
<path clip-path="url(#clip882)" d="
M945.803 1047.16 L945.803 1751.15 L1003.56 1751.15 L1003.56 1047.16 L945.803 1047.16 L945.803 1047.16  Z
  " fill="#009af9" fill-rule="evenodd" fill-opacity="1"/>
<polyline clip-path="url(#clip882)" style="stroke:#000000; stroke-linecap:round; stroke-linejoin:round; stroke-width:4; stroke-opacity:1; fill:none" points="
  945.803,1047.16 945.803,1751.15 1003.56,1751.15 1003.56,1047.16 945.803,1047.16 
  "/>
<path clip-path="url(#clip882)" d="
M1003.56 782.392 L1003.56 1751.15 L1061.31 1751.15 L1061.31 782.392 L1003.56 782.392 L1003.56 782.392  Z
  " fill="#009af9" fill-rule="evenodd" fill-opacity="1"/>
<polyline clip-path="url(#clip882)" style="stroke:#000000; stroke-linecap:round; stroke-linejoin:round; stroke-width:4; stroke-opacity:1; fill:none" points="
  1003.56,782.392 1003.56,1751.15 1061.31,1751.15 1061.31,782.392 1003.56,782.392 
  "/>
<path clip-path="url(#clip882)" d="
M1061.31 696.189 L1061.31 1751.15 L1119.06 1751.15 L1119.06 696.189 L1061.31 696.189 L1061.31 696.189  Z
  " fill="#009af9" fill-rule="evenodd" fill-opacity="1"/>
<polyline clip-path="url(#clip882)" style="stroke:#000000; stroke-linecap:round; stroke-linejoin:round; stroke-width:4; stroke-opacity:1; fill:none" points="
  1061.31,696.189 1061.31,1751.15 1119.06,1751.15 1119.06,696.189 1061.31,696.189 
  "/>
<path clip-path="url(#clip882)" d="
M1119.06 388.321 L1119.06 1751.15 L1176.81 1751.15 L1176.81 388.321 L1119.06 388.321 L1119.06 388.321  Z
  " fill="#009af9" fill-rule="evenodd" fill-opacity="1"/>
<polyline clip-path="url(#clip882)" style="stroke:#000000; stroke-linecap:round; stroke-linejoin:round; stroke-width:4; stroke-opacity:1; fill:none" points="
  1119.06,388.321 1119.06,1751.15 1176.81,1751.15 1176.81,388.321 1119.06,388.321 
  "/>
<path clip-path="url(#clip882)" d="
M1176.81 310.328 L1176.81 1751.15 L1234.57 1751.15 L1234.57 310.328 L1176.81 310.328 L1176.81 310.328  Z
  " fill="#009af9" fill-rule="evenodd" fill-opacity="1"/>
<polyline clip-path="url(#clip882)" style="stroke:#000000; stroke-linecap:round; stroke-linejoin:round; stroke-width:4; stroke-opacity:1; fill:none" points="
  1176.81,310.328 1176.81,1751.15 1234.57,1751.15 1234.57,310.328 1176.81,310.328 
  "/>
<path clip-path="url(#clip882)" d="
M1234.57 248.754 L1234.57 1751.15 L1292.32 1751.15 L1292.32 248.754 L1234.57 248.754 L1234.57 248.754  Z
  " fill="#009af9" fill-rule="evenodd" fill-opacity="1"/>
<polyline clip-path="url(#clip882)" style="stroke:#000000; stroke-linecap:round; stroke-linejoin:round; stroke-width:4; stroke-opacity:1; fill:none" points="
  1234.57,248.754 1234.57,1751.15 1292.32,1751.15 1292.32,248.754 1234.57,248.754 
  "/>
<path clip-path="url(#clip882)" d="
M1292.32 133.817 L1292.32 1751.15 L1350.07 1751.15 L1350.07 133.817 L1292.32 133.817 L1292.32 133.817  Z
  " fill="#009af9" fill-rule="evenodd" fill-opacity="1"/>
<polyline clip-path="url(#clip882)" style="stroke:#000000; stroke-linecap:round; stroke-linejoin:round; stroke-width:4; stroke-opacity:1; fill:none" points="
  1292.32,133.817 1292.32,1751.15 1350.07,1751.15 1350.07,133.817 1292.32,133.817 
  "/>
<path clip-path="url(#clip882)" d="
M1350.07 96.8724 L1350.07 1751.15 L1407.83 1751.15 L1407.83 96.8724 L1350.07 96.8724 L1350.07 96.8724  Z
  " fill="#009af9" fill-rule="evenodd" fill-opacity="1"/>
<polyline clip-path="url(#clip882)" style="stroke:#000000; stroke-linecap:round; stroke-linejoin:round; stroke-width:4; stroke-opacity:1; fill:none" points="
  1350.07,96.8724 1350.07,1751.15 1407.83,1751.15 1407.83,96.8724 1350.07,96.8724 
  "/>
<path clip-path="url(#clip882)" d="
M1407.83 220.02 L1407.83 1751.15 L1465.58 1751.15 L1465.58 220.02 L1407.83 220.02 L1407.83 220.02  Z
  " fill="#009af9" fill-rule="evenodd" fill-opacity="1"/>
<polyline clip-path="url(#clip882)" style="stroke:#000000; stroke-linecap:round; stroke-linejoin:round; stroke-width:4; stroke-opacity:1; fill:none" points="
  1407.83,220.02 1407.83,1751.15 1465.58,1751.15 1465.58,220.02 1407.83,220.02 
  "/>
<path clip-path="url(#clip882)" d="
M1465.58 384.216 L1465.58 1751.15 L1523.33 1751.15 L1523.33 384.216 L1465.58 384.216 L1465.58 384.216  Z
  " fill="#009af9" fill-rule="evenodd" fill-opacity="1"/>
<polyline clip-path="url(#clip882)" style="stroke:#000000; stroke-linecap:round; stroke-linejoin:round; stroke-width:4; stroke-opacity:1; fill:none" points="
  1465.58,384.216 1465.58,1751.15 1523.33,1751.15 1523.33,384.216 1465.58,384.216 
  "/>
<path clip-path="url(#clip882)" d="
M1523.33 441.685 L1523.33 1751.15 L1581.08 1751.15 L1581.08 441.685 L1523.33 441.685 L1523.33 441.685  Z
  " fill="#009af9" fill-rule="evenodd" fill-opacity="1"/>
<polyline clip-path="url(#clip882)" style="stroke:#000000; stroke-linecap:round; stroke-linejoin:round; stroke-width:4; stroke-opacity:1; fill:none" points="
  1523.33,441.685 1523.33,1751.15 1581.08,1751.15 1581.08,441.685 1523.33,441.685 
  "/>
<path clip-path="url(#clip882)" d="
M1581.08 648.983 L1581.08 1751.15 L1638.84 1751.15 L1638.84 648.983 L1581.08 648.983 L1581.08 648.983  Z
  " fill="#009af9" fill-rule="evenodd" fill-opacity="1"/>
<polyline clip-path="url(#clip882)" style="stroke:#000000; stroke-linecap:round; stroke-linejoin:round; stroke-width:4; stroke-opacity:1; fill:none" points="
  1581.08,648.983 1581.08,1751.15 1638.84,1751.15 1638.84,648.983 1581.08,648.983 
  "/>
<path clip-path="url(#clip882)" d="
M1638.84 827.546 L1638.84 1751.15 L1696.59 1751.15 L1696.59 827.546 L1638.84 827.546 L1638.84 827.546  Z
  " fill="#009af9" fill-rule="evenodd" fill-opacity="1"/>
<polyline clip-path="url(#clip882)" style="stroke:#000000; stroke-linecap:round; stroke-linejoin:round; stroke-width:4; stroke-opacity:1; fill:none" points="
  1638.84,827.546 1638.84,1751.15 1696.59,1751.15 1696.59,827.546 1638.84,827.546 
  "/>
<path clip-path="url(#clip882)" d="
M1696.59 1045.11 L1696.59 1751.15 L1754.34 1751.15 L1754.34 1045.11 L1696.59 1045.11 L1696.59 1045.11  Z
  " fill="#009af9" fill-rule="evenodd" fill-opacity="1"/>
<polyline clip-path="url(#clip882)" style="stroke:#000000; stroke-linecap:round; stroke-linejoin:round; stroke-width:4; stroke-opacity:1; fill:none" points="
  1696.59,1045.11 1696.59,1751.15 1754.34,1751.15 1754.34,1045.11 1696.59,1045.11 
  "/>
<path clip-path="url(#clip882)" d="
M1754.34 1221.62 L1754.34 1751.15 L1812.1 1751.15 L1812.1 1221.62 L1754.34 1221.62 L1754.34 1221.62  Z
  " fill="#009af9" fill-rule="evenodd" fill-opacity="1"/>
<polyline clip-path="url(#clip882)" style="stroke:#000000; stroke-linecap:round; stroke-linejoin:round; stroke-width:4; stroke-opacity:1; fill:none" points="
  1754.34,1221.62 1754.34,1751.15 1812.1,1751.15 1812.1,1221.62 1754.34,1221.62 
  "/>
<path clip-path="url(#clip882)" d="
M1812.1 1369.39 L1812.1 1751.15 L1869.85 1751.15 L1869.85 1369.39 L1812.1 1369.39 L1812.1 1369.39  Z
  " fill="#009af9" fill-rule="evenodd" fill-opacity="1"/>
<polyline clip-path="url(#clip882)" style="stroke:#000000; stroke-linecap:round; stroke-linejoin:round; stroke-width:4; stroke-opacity:1; fill:none" points="
  1812.1,1369.39 1812.1,1751.15 1869.85,1751.15 1869.85,1369.39 1812.1,1369.39 
  "/>
<path clip-path="url(#clip882)" d="
M1869.85 1484.33 L1869.85 1751.15 L1927.6 1751.15 L1927.6 1484.33 L1869.85 1484.33 L1869.85 1484.33  Z
  " fill="#009af9" fill-rule="evenodd" fill-opacity="1"/>
<polyline clip-path="url(#clip882)" style="stroke:#000000; stroke-linecap:round; stroke-linejoin:round; stroke-width:4; stroke-opacity:1; fill:none" points="
  1869.85,1484.33 1869.85,1751.15 1927.6,1751.15 1927.6,1484.33 1869.85,1484.33 
  "/>
<path clip-path="url(#clip882)" d="
M1927.6 1566.43 L1927.6 1751.15 L1985.35 1751.15 L1985.35 1566.43 L1927.6 1566.43 L1927.6 1566.43  Z
  " fill="#009af9" fill-rule="evenodd" fill-opacity="1"/>
<polyline clip-path="url(#clip882)" style="stroke:#000000; stroke-linecap:round; stroke-linejoin:round; stroke-width:4; stroke-opacity:1; fill:none" points="
  1927.6,1566.43 1927.6,1751.15 1985.35,1751.15 1985.35,1566.43 1927.6,1566.43 
  "/>
<path clip-path="url(#clip882)" d="
M1985.35 1650.58 L1985.35 1751.15 L2043.11 1751.15 L2043.11 1650.58 L1985.35 1650.58 L1985.35 1650.58  Z
  " fill="#009af9" fill-rule="evenodd" fill-opacity="1"/>
<polyline clip-path="url(#clip882)" style="stroke:#000000; stroke-linecap:round; stroke-linejoin:round; stroke-width:4; stroke-opacity:1; fill:none" points="
  1985.35,1650.58 1985.35,1751.15 2043.11,1751.15 2043.11,1650.58 1985.35,1650.58 
  "/>
<path clip-path="url(#clip882)" d="
M2043.11 1679.32 L2043.11 1751.15 L2100.86 1751.15 L2100.86 1679.32 L2043.11 1679.32 L2043.11 1679.32  Z
  " fill="#009af9" fill-rule="evenodd" fill-opacity="1"/>
<polyline clip-path="url(#clip882)" style="stroke:#000000; stroke-linecap:round; stroke-linejoin:round; stroke-width:4; stroke-opacity:1; fill:none" points="
  2043.11,1679.32 2043.11,1751.15 2100.86,1751.15 2100.86,1679.32 2043.11,1679.32 
  "/>
<path clip-path="url(#clip882)" d="
M2100.86 1710.1 L2100.86 1751.15 L2158.61 1751.15 L2158.61 1710.1 L2100.86 1710.1 L2100.86 1710.1  Z
  " fill="#009af9" fill-rule="evenodd" fill-opacity="1"/>
<polyline clip-path="url(#clip882)" style="stroke:#000000; stroke-linecap:round; stroke-linejoin:round; stroke-width:4; stroke-opacity:1; fill:none" points="
  2100.86,1710.1 2100.86,1751.15 2158.61,1751.15 2158.61,1710.1 2100.86,1710.1 
  "/>
<path clip-path="url(#clip882)" d="
M2158.61 1724.47 L2158.61 1751.15 L2216.37 1751.15 L2216.37 1724.47 L2158.61 1724.47 L2158.61 1724.47  Z
  " fill="#009af9" fill-rule="evenodd" fill-opacity="1"/>
<polyline clip-path="url(#clip882)" style="stroke:#000000; stroke-linecap:round; stroke-linejoin:round; stroke-width:4; stroke-opacity:1; fill:none" points="
  2158.61,1724.47 2158.61,1751.15 2216.37,1751.15 2216.37,1724.47 2158.61,1724.47 
  "/>
<path clip-path="url(#clip882)" d="
M2216.37 1744.99 L2216.37 1751.15 L2274.12 1751.15 L2274.12 1744.99 L2216.37 1744.99 L2216.37 1744.99  Z
  " fill="#009af9" fill-rule="evenodd" fill-opacity="1"/>
<polyline clip-path="url(#clip882)" style="stroke:#000000; stroke-linecap:round; stroke-linejoin:round; stroke-width:4; stroke-opacity:1; fill:none" points="
  2216.37,1744.99 2216.37,1751.15 2274.12,1751.15 2274.12,1744.99 2216.37,1744.99 
  "/>
<path clip-path="url(#clip882)" d="
M2274.12 1747.05 L2274.12 1751.15 L2331.87 1751.15 L2331.87 1747.05 L2274.12 1747.05 L2274.12 1747.05  Z
  " fill="#009af9" fill-rule="evenodd" fill-opacity="1"/>
<polyline clip-path="url(#clip882)" style="stroke:#000000; stroke-linecap:round; stroke-linejoin:round; stroke-width:4; stroke-opacity:1; fill:none" points="
  2274.12,1747.05 2274.12,1751.15 2331.87,1751.15 2331.87,1747.05 2274.12,1747.05 
  "/>
<path clip-path="url(#clip882)" d="
M2331.87 1749.1 L2331.87 1751.15 L2389.62 1751.15 L2389.62 1749.1 L2331.87 1749.1 L2331.87 1749.1  Z
  " fill="#009af9" fill-rule="evenodd" fill-opacity="1"/>
<polyline clip-path="url(#clip882)" style="stroke:#000000; stroke-linecap:round; stroke-linejoin:round; stroke-width:4; stroke-opacity:1; fill:none" points="
  2331.87,1749.1 2331.87,1751.15 2389.62,1751.15 2389.62,1749.1 2331.87,1749.1 
  "/>
<path clip-path="url(#clip882)" d="
M2389.62 1751.15 L2389.62 1751.15 L2447.38 1751.15 L2447.38 1751.15 L2389.62 1751.15 L2389.62 1751.15  Z
  " fill="#009af9" fill-rule="evenodd" fill-opacity="1"/>
<polyline clip-path="url(#clip882)" style="stroke:#000000; stroke-linecap:round; stroke-linejoin:round; stroke-width:4; stroke-opacity:1; fill:none" points="
  2389.62,1751.15 2389.62,1751.15 2447.38,1751.15 2389.62,1751.15 
  "/>
<path clip-path="url(#clip882)" d="
M2447.38 1749.1 L2447.38 1751.15 L2505.13 1751.15 L2505.13 1749.1 L2447.38 1749.1 L2447.38 1749.1  Z
  " fill="#009af9" fill-rule="evenodd" fill-opacity="1"/>
<polyline clip-path="url(#clip882)" style="stroke:#000000; stroke-linecap:round; stroke-linejoin:round; stroke-width:4; stroke-opacity:1; fill:none" points="
  2447.38,1749.1 2447.38,1751.15 2505.13,1751.15 2505.13,1749.1 2447.38,1749.1 
  "/>
<circle clip-path="url(#clip882)" style="fill:#009af9; stroke:none; fill-opacity:0" cx="339.398" cy="1747.05" r="2"/>
<circle clip-path="url(#clip882)" style="fill:#009af9; stroke:none; fill-opacity:0" cx="397.151" cy="1747.05" r="2"/>
<circle clip-path="url(#clip882)" style="fill:#009af9; stroke:none; fill-opacity:0" cx="454.904" cy="1736.78" r="2"/>
<circle clip-path="url(#clip882)" style="fill:#009af9; stroke:none; fill-opacity:0" cx="512.656" cy="1732.68" r="2"/>
<circle clip-path="url(#clip882)" style="fill:#009af9; stroke:none; fill-opacity:0" cx="570.409" cy="1714.21" r="2"/>
<circle clip-path="url(#clip882)" style="fill:#009af9; stroke:none; fill-opacity:0" cx="628.162" cy="1675.21" r="2"/>
<circle clip-path="url(#clip882)" style="fill:#009af9; stroke:none; fill-opacity:0" cx="685.915" cy="1642.37" r="2"/>
<circle clip-path="url(#clip882)" style="fill:#009af9; stroke:none; fill-opacity:0" cx="743.668" cy="1570.53" r="2"/>
<circle clip-path="url(#clip882)" style="fill:#009af9; stroke:none; fill-opacity:0" cx="801.421" cy="1467.91" r="2"/>
<circle clip-path="url(#clip882)" style="fill:#009af9; stroke:none; fill-opacity:0" cx="859.173" cy="1287.3" r="2"/>
<circle clip-path="url(#clip882)" style="fill:#009af9; stroke:none; fill-opacity:0" cx="916.926" cy="1279.09" r="2"/>
<circle clip-path="url(#clip882)" style="fill:#009af9; stroke:none; fill-opacity:0" cx="974.679" cy="1047.16" r="2"/>
<circle clip-path="url(#clip882)" style="fill:#009af9; stroke:none; fill-opacity:0" cx="1032.43" cy="782.392" r="2"/>
<circle clip-path="url(#clip882)" style="fill:#009af9; stroke:none; fill-opacity:0" cx="1090.18" cy="696.189" r="2"/>
<circle clip-path="url(#clip882)" style="fill:#009af9; stroke:none; fill-opacity:0" cx="1147.94" cy="388.321" r="2"/>
<circle clip-path="url(#clip882)" style="fill:#009af9; stroke:none; fill-opacity:0" cx="1205.69" cy="310.328" r="2"/>
<circle clip-path="url(#clip882)" style="fill:#009af9; stroke:none; fill-opacity:0" cx="1263.44" cy="248.754" r="2"/>
<circle clip-path="url(#clip882)" style="fill:#009af9; stroke:none; fill-opacity:0" cx="1321.2" cy="133.817" r="2"/>
<circle clip-path="url(#clip882)" style="fill:#009af9; stroke:none; fill-opacity:0" cx="1378.95" cy="96.8724" r="2"/>
<circle clip-path="url(#clip882)" style="fill:#009af9; stroke:none; fill-opacity:0" cx="1436.7" cy="220.02" r="2"/>
<circle clip-path="url(#clip882)" style="fill:#009af9; stroke:none; fill-opacity:0" cx="1494.45" cy="384.216" r="2"/>
<circle clip-path="url(#clip882)" style="fill:#009af9; stroke:none; fill-opacity:0" cx="1552.21" cy="441.685" r="2"/>
<circle clip-path="url(#clip882)" style="fill:#009af9; stroke:none; fill-opacity:0" cx="1609.96" cy="648.983" r="2"/>
<circle clip-path="url(#clip882)" style="fill:#009af9; stroke:none; fill-opacity:0" cx="1667.71" cy="827.546" r="2"/>
<circle clip-path="url(#clip882)" style="fill:#009af9; stroke:none; fill-opacity:0" cx="1725.47" cy="1045.11" r="2"/>
<circle clip-path="url(#clip882)" style="fill:#009af9; stroke:none; fill-opacity:0" cx="1783.22" cy="1221.62" r="2"/>
<circle clip-path="url(#clip882)" style="fill:#009af9; stroke:none; fill-opacity:0" cx="1840.97" cy="1369.39" r="2"/>
<circle clip-path="url(#clip882)" style="fill:#009af9; stroke:none; fill-opacity:0" cx="1898.72" cy="1484.33" r="2"/>
<circle clip-path="url(#clip882)" style="fill:#009af9; stroke:none; fill-opacity:0" cx="1956.48" cy="1566.43" r="2"/>
<circle clip-path="url(#clip882)" style="fill:#009af9; stroke:none; fill-opacity:0" cx="2014.23" cy="1650.58" r="2"/>
<circle clip-path="url(#clip882)" style="fill:#009af9; stroke:none; fill-opacity:0" cx="2071.98" cy="1679.32" r="2"/>
<circle clip-path="url(#clip882)" style="fill:#009af9; stroke:none; fill-opacity:0" cx="2129.74" cy="1710.1" r="2"/>
<circle clip-path="url(#clip882)" style="fill:#009af9; stroke:none; fill-opacity:0" cx="2187.49" cy="1724.47" r="2"/>
<circle clip-path="url(#clip882)" style="fill:#009af9; stroke:none; fill-opacity:0" cx="2245.24" cy="1744.99" r="2"/>
<circle clip-path="url(#clip882)" style="fill:#009af9; stroke:none; fill-opacity:0" cx="2302.99" cy="1747.05" r="2"/>
<circle clip-path="url(#clip882)" style="fill:#009af9; stroke:none; fill-opacity:0" cx="2360.75" cy="1749.1" r="2"/>
<circle clip-path="url(#clip882)" style="fill:#009af9; stroke:none; fill-opacity:0" cx="2418.5" cy="1751.15" r="2"/>
<circle clip-path="url(#clip882)" style="fill:#009af9; stroke:none; fill-opacity:0" cx="2476.25" cy="1749.1" r="2"/>
<path clip-path="url(#clip880)" d="
M2259.54 209.375 L2558.56 209.375 L2558.56 105.695 L2259.54 105.695  Z
  " fill="#ffffff" fill-rule="evenodd" fill-opacity="1"/>
<polyline clip-path="url(#clip880)" style="stroke:#000000; stroke-linecap:round; stroke-linejoin:round; stroke-width:4; stroke-opacity:1; fill:none" points="
  2259.54,209.375 2558.56,209.375 2558.56,105.695 2259.54,105.695 2259.54,209.375 
  "/>
<path clip-path="url(#clip880)" d="
M2286.94 178.271 L2451.33 178.271 L2451.33 136.799 L2286.94 136.799 L2286.94 178.271  Z
  " fill="#009af9" fill-rule="evenodd" fill-opacity="1"/>
<polyline clip-path="url(#clip880)" style="stroke:#000000; stroke-linecap:round; stroke-linejoin:round; stroke-width:4; stroke-opacity:1; fill:none" points="
  2286.94,178.271 2451.33,178.271 2451.33,136.799 2286.94,136.799 2286.94,178.271 
  "/>
<path clip-path="url(#clip880)" d="M2492.57 177.223 Q2490.77 181.852 2489.06 183.264 Q2487.34 184.676 2484.47 184.676 L2481.07 184.676 L2481.07 181.112 L2483.57 181.112 Q2485.33 181.112 2486.3 180.278 Q2487.27 179.445 2488.45 176.343 L2489.22 174.399 L2478.73 148.889 L2483.25 148.889 L2491.35 169.167 L2499.45 148.889 L2503.96 148.889 L2492.57 177.223 Z" fill="#000000" fill-rule="evenodd" fill-opacity="1" /><path clip-path="url(#clip880)" d="M2511.25 170.88 L2518.89 170.88 L2518.89 144.515 L2510.58 146.181 L2510.58 141.922 L2518.85 140.255 L2523.52 140.255 L2523.52 170.88 L2531.16 170.88 L2531.16 174.815 L2511.25 174.815 L2511.25 170.88 Z" fill="#000000" fill-rule="evenodd" fill-opacity="1" /></svg>
