<?xml version="1.0" encoding="utf-8"?>
<svg xmlns="http://www.w3.org/2000/svg" xmlns:xlink="http://www.w3.org/1999/xlink" width="672" height="480" viewBox="0 0 2688 1920">
<defs>
  <clipPath id="clip080">
    <rect x="0" y="0" width="2688" height="1920"/>
  </clipPath>
</defs>
<path clip-path="url(#clip080)" d="M0 1920 L2688 1920 L2688 0 L0 0  Z" fill="#ffffff" fill-rule="evenodd" fill-opacity="1"/>
<defs>
  <clipPath id="clip081">
    <rect x="537" y="0" width="1883" height="1883"/>
  </clipPath>
</defs>
<path clip-path="url(#clip080)" d="M143.576 1800.78 L2640.76 1800.78 L2640.76 47.2441 L143.576 47.2441  Z" fill="#ffffff" fill-rule="evenodd" fill-opacity="1"/>
<defs>
  <clipPath id="clip082">
    <rect x="143" y="47" width="2498" height="1755"/>
  </clipPath>
</defs>
<polyline clip-path="url(#clip082)" style="stroke:#000000; stroke-linecap:round; stroke-linejoin:round; stroke-width:2; stroke-opacity:0.1; fill:none" points="280.925,1800.78 280.925,47.2441 "/>
<polyline clip-path="url(#clip082)" style="stroke:#000000; stroke-linecap:round; stroke-linejoin:round; stroke-width:2; stroke-opacity:0.1; fill:none" points="836.545,1800.78 836.545,47.2441 "/>
<polyline clip-path="url(#clip082)" style="stroke:#000000; stroke-linecap:round; stroke-linejoin:round; stroke-width:2; stroke-opacity:0.1; fill:none" points="1392.17,1800.78 1392.17,47.2441 "/>
<polyline clip-path="url(#clip082)" style="stroke:#000000; stroke-linecap:round; stroke-linejoin:round; stroke-width:2; stroke-opacity:0.1; fill:none" points="1947.79,1800.78 1947.79,47.2441 "/>
<polyline clip-path="url(#clip082)" style="stroke:#000000; stroke-linecap:round; stroke-linejoin:round; stroke-width:2; stroke-opacity:0.1; fill:none" points="2503.41,1800.78 2503.41,47.2441 "/>
<polyline clip-path="url(#clip080)" style="stroke:#000000; stroke-linecap:round; stroke-linejoin:round; stroke-width:4; stroke-opacity:1; fill:none" points="143.576,1800.78 2640.76,1800.78 "/>
<polyline clip-path="url(#clip080)" style="stroke:#000000; stroke-linecap:round; stroke-linejoin:round; stroke-width:4; stroke-opacity:1; fill:none" points="280.925,1800.78 280.925,1781.88 "/>
<polyline clip-path="url(#clip080)" style="stroke:#000000; stroke-linecap:round; stroke-linejoin:round; stroke-width:4; stroke-opacity:1; fill:none" points="836.545,1800.78 836.545,1781.88 "/>
<polyline clip-path="url(#clip080)" style="stroke:#000000; stroke-linecap:round; stroke-linejoin:round; stroke-width:4; stroke-opacity:1; fill:none" points="1392.17,1800.78 1392.17,1781.88 "/>
<polyline clip-path="url(#clip080)" style="stroke:#000000; stroke-linecap:round; stroke-linejoin:round; stroke-width:4; stroke-opacity:1; fill:none" points="1947.79,1800.78 1947.79,1781.88 "/>
<polyline clip-path="url(#clip080)" style="stroke:#000000; stroke-linecap:round; stroke-linejoin:round; stroke-width:4; stroke-opacity:1; fill:none" points="2503.41,1800.78 2503.41,1781.88 "/>
<path clip-path="url(#clip080)" d="M280.925 1834 Q277.314 1834 275.485 1837.57 Q273.68 1841.11 273.68 1848.24 Q273.68 1855.34 275.485 1858.91 Q277.314 1862.45 280.925 1862.45 Q284.559 1862.45 286.365 1858.91 Q288.193 1855.34 288.193 1848.24 Q288.193 1841.11 286.365 1837.57 Q284.559 1834 280.925 1834 M280.925 1830.3 Q286.735 1830.3 289.791 1834.9 Q292.869 1839.49 292.869 1848.24 Q292.869 1856.96 289.791 1861.57 Q286.735 1866.15 280.925 1866.15 Q275.115 1866.15 272.036 1861.57 Q268.981 1856.96 268.981 1848.24 Q268.981 1839.49 272.036 1834.9 Q275.115 1830.3 280.925 1830.3 Z" fill="#000000" fill-rule="nonzero" fill-opacity="1" /><path clip-path="url(#clip080)" d="M796.152 1861.55 L803.791 1861.55 L803.791 1835.18 L795.481 1836.85 L795.481 1832.59 L803.745 1830.92 L808.42 1830.92 L808.42 1861.55 L816.059 1861.55 L816.059 1865.48 L796.152 1865.48 L796.152 1861.55 Z" fill="#000000" fill-rule="nonzero" fill-opacity="1" /><path clip-path="url(#clip080)" d="M835.504 1834 Q831.893 1834 830.064 1837.57 Q828.258 1841.11 828.258 1848.24 Q828.258 1855.34 830.064 1858.91 Q831.893 1862.45 835.504 1862.45 Q839.138 1862.45 840.943 1858.91 Q842.772 1855.34 842.772 1848.24 Q842.772 1841.11 840.943 1837.57 Q839.138 1834 835.504 1834 M835.504 1830.3 Q841.314 1830.3 844.369 1834.9 Q847.448 1839.49 847.448 1848.24 Q847.448 1856.96 844.369 1861.57 Q841.314 1866.15 835.504 1866.15 Q829.694 1866.15 826.615 1861.57 Q823.559 1856.96 823.559 1848.24 Q823.559 1839.49 826.615 1834.9 Q829.694 1830.3 835.504 1830.3 Z" fill="#000000" fill-rule="nonzero" fill-opacity="1" /><path clip-path="url(#clip080)" d="M865.666 1834 Q862.054 1834 860.226 1837.57 Q858.42 1841.11 858.42 1848.24 Q858.42 1855.34 860.226 1858.91 Q862.054 1862.45 865.666 1862.45 Q869.3 1862.45 871.105 1858.91 Q872.934 1855.34 872.934 1848.24 Q872.934 1841.11 871.105 1837.57 Q869.3 1834 865.666 1834 M865.666 1830.3 Q871.476 1830.3 874.531 1834.9 Q877.61 1839.49 877.61 1848.24 Q877.61 1856.96 874.531 1861.57 Q871.476 1866.15 865.666 1866.15 Q859.855 1866.15 856.777 1861.57 Q853.721 1856.96 853.721 1848.24 Q853.721 1839.49 856.777 1834.9 Q859.855 1830.3 865.666 1830.3 Z" fill="#000000" fill-rule="nonzero" fill-opacity="1" /><path clip-path="url(#clip080)" d="M1355.86 1861.55 L1372.18 1861.55 L1372.18 1865.48 L1350.23 1865.48 L1350.23 1861.55 Q1352.9 1858.79 1357.48 1854.16 Q1362.08 1849.51 1363.27 1848.17 Q1365.51 1845.65 1366.39 1843.91 Q1367.29 1842.15 1367.29 1840.46 Q1367.29 1837.71 1365.35 1835.97 Q1363.43 1834.23 1360.33 1834.23 Q1358.13 1834.23 1355.67 1835 Q1353.24 1835.76 1350.46 1837.31 L1350.46 1832.59 Q1353.29 1831.46 1355.74 1830.88 Q1358.2 1830.3 1360.23 1830.3 Q1365.6 1830.3 1368.8 1832.98 Q1371.99 1835.67 1371.99 1840.16 Q1371.99 1842.29 1371.18 1844.21 Q1370.4 1846.11 1368.29 1848.7 Q1367.71 1849.37 1364.61 1852.59 Q1361.51 1855.78 1355.86 1861.55 Z" fill="#000000" fill-rule="nonzero" fill-opacity="1" /><path clip-path="url(#clip080)" d="M1391.99 1834 Q1388.38 1834 1386.55 1837.57 Q1384.75 1841.11 1384.75 1848.24 Q1384.75 1855.34 1386.55 1858.91 Q1388.38 1862.45 1391.99 1862.45 Q1395.63 1862.45 1397.43 1858.91 Q1399.26 1855.34 1399.26 1848.24 Q1399.26 1841.11 1397.43 1837.57 Q1395.63 1834 1391.99 1834 M1391.99 1830.3 Q1397.8 1830.3 1400.86 1834.9 Q1403.94 1839.49 1403.94 1848.24 Q1403.94 1856.96 1400.86 1861.57 Q1397.8 1866.15 1391.99 1866.15 Q1386.18 1866.15 1383.1 1861.57 Q1380.05 1856.96 1380.05 1848.24 Q1380.05 1839.49 1383.1 1834.9 Q1386.18 1830.3 1391.99 1830.3 Z" fill="#000000" fill-rule="nonzero" fill-opacity="1" /><path clip-path="url(#clip080)" d="M1422.15 1834 Q1418.54 1834 1416.71 1837.57 Q1414.91 1841.11 1414.91 1848.24 Q1414.91 1855.34 1416.71 1858.91 Q1418.54 1862.45 1422.15 1862.45 Q1425.79 1862.45 1427.59 1858.91 Q1429.42 1855.34 1429.42 1848.24 Q1429.42 1841.11 1427.59 1837.57 Q1425.79 1834 1422.15 1834 M1422.15 1830.3 Q1427.96 1830.3 1431.02 1834.9 Q1434.1 1839.49 1434.1 1848.24 Q1434.1 1856.96 1431.02 1861.57 Q1427.96 1866.15 1422.15 1866.15 Q1416.34 1866.15 1413.27 1861.57 Q1410.21 1856.96 1410.21 1848.24 Q1410.21 1839.49 1413.27 1834.9 Q1416.34 1830.3 1422.15 1830.3 Z" fill="#000000" fill-rule="nonzero" fill-opacity="1" /><path clip-path="url(#clip080)" d="M1921.55 1846.85 Q1924.9 1847.57 1926.78 1849.84 Q1928.68 1852.1 1928.68 1855.44 Q1928.68 1860.55 1925.16 1863.35 Q1921.64 1866.15 1915.16 1866.15 Q1912.98 1866.15 1910.67 1865.71 Q1908.38 1865.3 1905.92 1864.44 L1905.92 1859.93 Q1907.87 1861.06 1910.18 1861.64 Q1912.5 1862.22 1915.02 1862.22 Q1919.42 1862.22 1921.71 1860.48 Q1924.02 1858.75 1924.02 1855.44 Q1924.02 1852.38 1921.87 1850.67 Q1919.74 1848.93 1915.92 1848.93 L1911.9 1848.93 L1911.9 1845.09 L1916.11 1845.09 Q1919.56 1845.09 1921.39 1843.72 Q1923.21 1842.34 1923.21 1839.74 Q1923.21 1837.08 1921.32 1835.67 Q1919.44 1834.23 1915.92 1834.23 Q1914 1834.23 1911.8 1834.65 Q1909.6 1835.07 1906.96 1835.95 L1906.96 1831.78 Q1909.63 1831.04 1911.94 1830.67 Q1914.28 1830.3 1916.34 1830.3 Q1921.66 1830.3 1924.77 1832.73 Q1927.87 1835.14 1927.87 1839.26 Q1927.87 1842.13 1926.22 1844.12 Q1924.58 1846.09 1921.55 1846.85 Z" fill="#000000" fill-rule="nonzero" fill-opacity="1" /><path clip-path="url(#clip080)" d="M1947.54 1834 Q1943.93 1834 1942.1 1837.57 Q1940.3 1841.11 1940.3 1848.24 Q1940.3 1855.34 1942.1 1858.91 Q1943.93 1862.45 1947.54 1862.45 Q1951.18 1862.45 1952.98 1858.91 Q1954.81 1855.34 1954.81 1848.24 Q1954.81 1841.11 1952.98 1837.57 Q1951.18 1834 1947.54 1834 M1947.54 1830.3 Q1953.35 1830.3 1956.41 1834.9 Q1959.49 1839.49 1959.49 1848.24 Q1959.49 1856.96 1956.41 1861.57 Q1953.35 1866.15 1947.54 1866.15 Q1941.73 1866.15 1938.65 1861.57 Q1935.6 1856.96 1935.6 1848.24 Q1935.6 1839.49 1938.65 1834.9 Q1941.73 1830.3 1947.54 1830.3 Z" fill="#000000" fill-rule="nonzero" fill-opacity="1" /><path clip-path="url(#clip080)" d="M1977.7 1834 Q1974.09 1834 1972.27 1837.57 Q1970.46 1841.11 1970.46 1848.24 Q1970.46 1855.34 1972.27 1858.91 Q1974.09 1862.45 1977.7 1862.45 Q1981.34 1862.45 1983.14 1858.91 Q1984.97 1855.34 1984.97 1848.24 Q1984.97 1841.11 1983.14 1837.57 Q1981.34 1834 1977.7 1834 M1977.7 1830.3 Q1983.52 1830.3 1986.57 1834.9 Q1989.65 1839.49 1989.65 1848.24 Q1989.65 1856.96 1986.57 1861.57 Q1983.52 1866.15 1977.7 1866.15 Q1971.89 1866.15 1968.82 1861.57 Q1965.76 1856.96 1965.76 1848.24 Q1965.76 1839.49 1968.82 1834.9 Q1971.89 1830.3 1977.7 1830.3 Z" fill="#000000" fill-rule="nonzero" fill-opacity="1" /><path clip-path="url(#clip080)" d="M2476.5 1835 L2464.69 1853.45 L2476.5 1853.45 L2476.5 1835 M2475.27 1830.92 L2481.15 1830.92 L2481.15 1853.45 L2486.08 1853.45 L2486.08 1857.34 L2481.15 1857.34 L2481.15 1865.48 L2476.5 1865.48 L2476.5 1857.34 L2460.9 1857.34 L2460.9 1852.82 L2475.27 1830.92 Z" fill="#000000" fill-rule="nonzero" fill-opacity="1" /><path clip-path="url(#clip080)" d="M2503.81 1834 Q2500.2 1834 2498.37 1837.57 Q2496.57 1841.11 2496.57 1848.24 Q2496.57 1855.34 2498.37 1858.91 Q2500.2 1862.45 2503.81 1862.45 Q2507.45 1862.45 2509.25 1858.91 Q2511.08 1855.34 2511.08 1848.24 Q2511.08 1841.11 2509.25 1837.57 Q2507.45 1834 2503.81 1834 M2503.81 1830.3 Q2509.62 1830.3 2512.68 1834.9 Q2515.76 1839.49 2515.76 1848.24 Q2515.76 1856.96 2512.68 1861.57 Q2509.62 1866.15 2503.81 1866.15 Q2498 1866.15 2494.92 1861.57 Q2491.87 1856.96 2491.87 1848.24 Q2491.87 1839.49 2494.92 1834.9 Q2498 1830.3 2503.81 1830.3 Z" fill="#000000" fill-rule="nonzero" fill-opacity="1" /><path clip-path="url(#clip080)" d="M2533.97 1834 Q2530.36 1834 2528.53 1837.57 Q2526.73 1841.11 2526.73 1848.24 Q2526.73 1855.34 2528.53 1858.91 Q2530.36 1862.45 2533.97 1862.45 Q2537.61 1862.45 2539.41 1858.91 Q2541.24 1855.34 2541.24 1848.24 Q2541.24 1841.11 2539.41 1837.57 Q2537.61 1834 2533.97 1834 M2533.97 1830.3 Q2539.78 1830.3 2542.84 1834.9 Q2545.92 1839.49 2545.92 1848.24 Q2545.92 1856.96 2542.84 1861.57 Q2539.78 1866.15 2533.97 1866.15 Q2528.16 1866.15 2525.08 1861.57 Q2522.03 1856.96 2522.03 1848.24 Q2522.03 1839.49 2525.08 1834.9 Q2528.16 1830.3 2533.97 1830.3 Z" fill="#000000" fill-rule="nonzero" fill-opacity="1" /><polyline clip-path="url(#clip082)" style="stroke:#000000; stroke-linecap:round; stroke-linejoin:round; stroke-width:2; stroke-opacity:0.1; fill:none" points="143.576,1751.15 2640.76,1751.15 "/>
<polyline clip-path="url(#clip082)" style="stroke:#000000; stroke-linecap:round; stroke-linejoin:round; stroke-width:2; stroke-opacity:0.1; fill:none" points="143.576,1304.05 2640.76,1304.05 "/>
<polyline clip-path="url(#clip082)" style="stroke:#000000; stroke-linecap:round; stroke-linejoin:round; stroke-width:2; stroke-opacity:0.1; fill:none" points="143.576,856.946 2640.76,856.946 "/>
<polyline clip-path="url(#clip082)" style="stroke:#000000; stroke-linecap:round; stroke-linejoin:round; stroke-width:2; stroke-opacity:0.1; fill:none" points="143.576,409.844 2640.76,409.844 "/>
<polyline clip-path="url(#clip080)" style="stroke:#000000; stroke-linecap:round; stroke-linejoin:round; stroke-width:4; stroke-opacity:1; fill:none" points="143.576,1800.78 143.576,47.2441 "/>
<polyline clip-path="url(#clip080)" style="stroke:#000000; stroke-linecap:round; stroke-linejoin:round; stroke-width:4; stroke-opacity:1; fill:none" points="143.576,1751.15 162.473,1751.15 "/>
<polyline clip-path="url(#clip080)" style="stroke:#000000; stroke-linecap:round; stroke-linejoin:round; stroke-width:4; stroke-opacity:1; fill:none" points="143.576,1304.05 162.473,1304.05 "/>
<polyline clip-path="url(#clip080)" style="stroke:#000000; stroke-linecap:round; stroke-linejoin:round; stroke-width:4; stroke-opacity:1; fill:none" points="143.576,856.946 162.473,856.946 "/>
<polyline clip-path="url(#clip080)" style="stroke:#000000; stroke-linecap:round; stroke-linejoin:round; stroke-width:4; stroke-opacity:1; fill:none" points="143.576,409.844 162.473,409.844 "/>
<path clip-path="url(#clip080)" d="M91.3112 1736.95 Q87.7001 1736.95 85.8714 1740.51 Q84.0658 1744.06 84.0658 1751.19 Q84.0658 1758.29 85.8714 1761.86 Q87.7001 1765.4 91.3112 1765.4 Q94.9454 1765.4 96.7509 1761.86 Q98.5796 1758.29 98.5796 1751.19 Q98.5796 1744.06 96.7509 1740.51 Q94.9454 1736.95 91.3112 1736.95 M91.3112 1733.25 Q97.1213 1733.25 100.177 1737.85 Q103.256 1742.44 103.256 1751.19 Q103.256 1759.91 100.177 1764.52 Q97.1213 1769.1 91.3112 1769.1 Q85.501 1769.1 82.4223 1764.52 Q79.3668 1759.91 79.3668 1751.19 Q79.3668 1742.44 82.4223 1737.85 Q85.501 1733.25 91.3112 1733.25 Z" fill="#000000" fill-rule="nonzero" fill-opacity="1" /><path clip-path="url(#clip080)" d="M51.9595 1317.39 L59.5984 1317.39 L59.5984 1291.03 L51.2882 1292.69 L51.2882 1288.44 L59.5521 1286.77 L64.228 1286.77 L64.228 1317.39 L71.8668 1317.39 L71.8668 1321.33 L51.9595 1321.33 L51.9595 1317.39 Z" fill="#000000" fill-rule="nonzero" fill-opacity="1" /><path clip-path="url(#clip080)" d="M91.3112 1289.85 Q87.7001 1289.85 85.8714 1293.41 Q84.0658 1296.95 84.0658 1304.08 Q84.0658 1311.19 85.8714 1314.75 Q87.7001 1318.3 91.3112 1318.3 Q94.9454 1318.3 96.7509 1314.75 Q98.5796 1311.19 98.5796 1304.08 Q98.5796 1296.95 96.7509 1293.41 Q94.9454 1289.85 91.3112 1289.85 M91.3112 1286.14 Q97.1213 1286.14 100.177 1290.75 Q103.256 1295.33 103.256 1304.08 Q103.256 1312.81 100.177 1317.42 Q97.1213 1322 91.3112 1322 Q85.501 1322 82.4223 1317.42 Q79.3668 1312.81 79.3668 1304.08 Q79.3668 1295.33 82.4223 1290.75 Q85.501 1286.14 91.3112 1286.14 Z" fill="#000000" fill-rule="nonzero" fill-opacity="1" /><path clip-path="url(#clip080)" d="M55.1771 870.291 L71.4965 870.291 L71.4965 874.226 L49.5521 874.226 L49.5521 870.291 Q52.2141 867.537 56.7975 862.907 Q61.4039 858.254 62.5845 856.912 Q64.8298 854.388 65.7094 852.652 Q66.6122 850.893 66.6122 849.203 Q66.6122 846.449 64.6678 844.713 Q62.7465 842.977 59.6447 842.977 Q57.4456 842.977 54.9919 843.74 Q52.5614 844.504 49.7836 846.055 L49.7836 841.333 Q52.6077 840.199 55.0614 839.62 Q57.515 839.041 59.5521 839.041 Q64.9224 839.041 68.1168 841.727 Q71.3113 844.412 71.3113 848.902 Q71.3113 851.032 70.5011 852.953 Q69.7141 854.851 67.6076 857.444 Q67.0289 858.115 63.927 861.333 Q60.8252 864.527 55.1771 870.291 Z" fill="#000000" fill-rule="nonzero" fill-opacity="1" /><path clip-path="url(#clip080)" d="M91.3112 842.745 Q87.7001 842.745 85.8714 846.31 Q84.0658 849.851 84.0658 856.981 Q84.0658 864.088 85.8714 867.652 Q87.7001 871.194 91.3112 871.194 Q94.9454 871.194 96.7509 867.652 Q98.5796 864.088 98.5796 856.981 Q98.5796 849.851 96.7509 846.31 Q94.9454 842.745 91.3112 842.745 M91.3112 839.041 Q97.1213 839.041 100.177 843.648 Q103.256 848.231 103.256 856.981 Q103.256 865.708 100.177 870.314 Q97.1213 874.898 91.3112 874.898 Q85.501 874.898 82.4223 870.314 Q79.3668 865.708 79.3668 856.981 Q79.3668 848.231 82.4223 843.648 Q85.501 839.041 91.3112 839.041 Z" fill="#000000" fill-rule="nonzero" fill-opacity="1" /><path clip-path="url(#clip080)" d="M65.3159 408.49 Q68.6724 409.207 70.5474 411.476 Q72.4455 413.744 72.4455 417.078 Q72.4455 422.194 68.927 424.994 Q65.4085 427.795 58.9271 427.795 Q56.7512 427.795 54.4364 427.356 Q52.1447 426.939 49.691 426.082 L49.691 421.569 Q51.6354 422.703 53.9503 423.281 Q56.2651 423.86 58.7882 423.86 Q63.1863 423.86 65.478 422.124 Q67.7928 420.388 67.7928 417.078 Q67.7928 414.022 65.64 412.309 Q63.5104 410.573 59.691 410.573 L55.6632 410.573 L55.6632 406.731 L59.8761 406.731 Q63.3252 406.731 65.1539 405.365 Q66.9826 403.976 66.9826 401.383 Q66.9826 398.721 65.0845 397.309 Q63.2095 395.874 59.691 395.874 Q57.7697 395.874 55.5706 396.291 Q53.3715 396.708 50.7327 397.587 L50.7327 393.421 Q53.3947 392.68 55.7095 392.309 Q58.0475 391.939 60.1076 391.939 Q65.4317 391.939 68.5335 394.37 Q71.6353 396.777 71.6353 400.897 Q71.6353 403.768 69.9918 405.758 Q68.3483 407.726 65.3159 408.49 Z" fill="#000000" fill-rule="nonzero" fill-opacity="1" /><path clip-path="url(#clip080)" d="M91.3112 395.643 Q87.7001 395.643 85.8714 399.208 Q84.0658 402.749 84.0658 409.879 Q84.0658 416.985 85.8714 420.55 Q87.7001 424.092 91.3112 424.092 Q94.9454 424.092 96.7509 420.55 Q98.5796 416.985 98.5796 409.879 Q98.5796 402.749 96.7509 399.208 Q94.9454 395.643 91.3112 395.643 M91.3112 391.939 Q97.1213 391.939 100.177 396.546 Q103.256 401.129 103.256 409.879 Q103.256 418.606 100.177 423.212 Q97.1213 427.795 91.3112 427.795 Q85.501 427.795 82.4223 423.212 Q79.3668 418.606 79.3668 409.879 Q79.3668 401.129 82.4223 396.546 Q85.501 391.939 91.3112 391.939 Z" fill="#000000" fill-rule="nonzero" fill-opacity="1" /><path clip-path="url(#clip082)" d="M280.925 812.236 L280.925 1751.15 L836.545 1751.15 L836.545 812.236 L280.925 812.236 L280.925 812.236  Z" fill="#009af9" fill-rule="evenodd" fill-opacity="1"/>
<polyline clip-path="url(#clip082)" style="stroke:#000000; stroke-linecap:round; stroke-linejoin:round; stroke-width:4; stroke-opacity:1; fill:none" points="280.925,812.236 280.925,1751.15 836.545,1751.15 836.545,812.236 280.925,812.236 "/>
<path clip-path="url(#clip082)" d="M836.545 96.8724 L836.545 1751.15 L1392.17 1751.15 L1392.17 96.8724 L836.545 96.8724 L836.545 96.8724  Z" fill="#009af9" fill-rule="evenodd" fill-opacity="1"/>
<polyline clip-path="url(#clip082)" style="stroke:#000000; stroke-linecap:round; stroke-linejoin:round; stroke-width:4; stroke-opacity:1; fill:none" points="836.545,96.8724 836.545,1751.15 1392.17,1751.15 1392.17,96.8724 836.545,96.8724 "/>
<path clip-path="url(#clip082)" d="M1392.17 499.265 L1392.17 1751.15 L1947.79 1751.15 L1947.79 499.265 L1392.17 499.265 L1392.17 499.265  Z" fill="#009af9" fill-rule="evenodd" fill-opacity="1"/>
<polyline clip-path="url(#clip082)" style="stroke:#000000; stroke-linecap:round; stroke-linejoin:round; stroke-width:4; stroke-opacity:1; fill:none" points="1392.17,499.265 1392.17,1751.15 1947.79,1751.15 1947.79,499.265 1392.17,499.265 "/>
<path clip-path="url(#clip082)" d="M1947.79 1125.21 L1947.79 1751.15 L2503.41 1751.15 L2503.41 1125.21 L1947.79 1125.21 L1947.79 1125.21  Z" fill="#009af9" fill-rule="evenodd" fill-opacity="1"/>
<polyline clip-path="url(#clip082)" style="stroke:#000000; stroke-linecap:round; stroke-linejoin:round; stroke-width:4; stroke-opacity:1; fill:none" points="1947.79,1125.21 1947.79,1751.15 2503.41,1751.15 2503.41,1125.21 1947.79,1125.21 "/>
<circle clip-path="url(#clip082)" style="fill:#009af9; stroke:none; fill-opacity:0" cx="558.735" cy="812.236" r="2"/>
<circle clip-path="url(#clip082)" style="fill:#009af9; stroke:none; fill-opacity:0" cx="1114.36" cy="96.8724" r="2"/>
<circle clip-path="url(#clip082)" style="fill:#009af9; stroke:none; fill-opacity:0" cx="1669.98" cy="499.265" r="2"/>
<circle clip-path="url(#clip082)" style="fill:#009af9; stroke:none; fill-opacity:0" cx="2225.6" cy="1125.21" r="2"/>
<path clip-path="url(#clip080)" d="M2255.37 209.375 L2557.52 209.375 L2557.52 105.695 L2255.37 105.695  Z" fill="#ffffff" fill-rule="evenodd" fill-opacity="1"/>
<polyline clip-path="url(#clip080)" style="stroke:#000000; stroke-linecap:round; stroke-linejoin:round; stroke-width:4; stroke-opacity:1; fill:none" points="2255.37,209.375 2557.52,209.375 2557.52,105.695 2255.37,105.695 2255.37,209.375 "/>
<path clip-path="url(#clip080)" d="M2283.11 178.271 L2449.59 178.271 L2449.59 136.799 L2283.11 136.799 L2283.11 178.271  Z" fill="#009af9" fill-rule="evenodd" fill-opacity="1"/>
<polyline clip-path="url(#clip080)" style="stroke:#000000; stroke-linecap:round; stroke-linejoin:round; stroke-width:4; stroke-opacity:1; fill:none" points="2283.11,178.271 2449.59,178.271 2449.59,136.799 2283.11,136.799 2283.11,178.271 "/>
<path clip-path="url(#clip080)" d="M2491.18 177.223 Q2489.38 181.852 2487.66 183.264 Q2485.95 184.676 2483.08 184.676 L2479.68 184.676 L2479.68 181.112 L2482.18 181.112 Q2483.94 181.112 2484.91 180.278 Q2485.88 179.445 2487.06 176.343 L2487.83 174.399 L2477.34 148.889 L2481.85 148.889 L2489.96 169.167 L2498.06 148.889 L2502.57 148.889 L2491.18 177.223 Z" fill="#000000" fill-rule="nonzero" fill-opacity="1" /><path clip-path="url(#clip080)" d="M2509.86 170.88 L2517.5 170.88 L2517.5 144.515 L2509.19 146.181 L2509.19 141.922 L2517.46 140.255 L2522.13 140.255 L2522.13 170.88 L2529.77 170.88 L2529.77 174.815 L2509.86 174.815 L2509.86 170.88 Z" fill="#000000" fill-rule="nonzero" fill-opacity="1" /></svg>
