<?xml version="1.0" encoding="utf-8"?>
<svg xmlns="http://www.w3.org/2000/svg" xmlns:xlink="http://www.w3.org/1999/xlink" width="672" height="480" viewBox="0 0 2688 1920">
<defs>
  <clipPath id="clip000">
    <rect x="0" y="0" width="2688" height="1920"/>
  </clipPath>
</defs>
<path clip-path="url(#clip000)" d="M0 1920 L2688 1920 L2688 0 L0 0  Z" fill="#ffffff" fill-rule="evenodd" fill-opacity="1"/>
<defs>
  <clipPath id="clip001">
    <rect x="537" y="0" width="1883" height="1883"/>
  </clipPath>
</defs>
<path clip-path="url(#clip000)" d="M255.816 1734.12 L2640.76 1734.12 L2640.76 47.2441 L255.816 47.2441  Z" fill="#ffffff" fill-rule="evenodd" fill-opacity="1"/>
<defs>
  <clipPath id="clip002">
    <rect x="255" y="47" width="2386" height="1688"/>
  </clipPath>
</defs>
<polyline clip-path="url(#clip002)" style="stroke:#000000; stroke-linecap:round; stroke-linejoin:round; stroke-width:2; stroke-opacity:0.1; fill:none" points="323.315,1734.12 323.315,47.2441 "/>
<polyline clip-path="url(#clip002)" style="stroke:#000000; stroke-linecap:round; stroke-linejoin:round; stroke-width:2; stroke-opacity:0.1; fill:none" points="773.303,1734.12 773.303,47.2441 "/>
<polyline clip-path="url(#clip002)" style="stroke:#000000; stroke-linecap:round; stroke-linejoin:round; stroke-width:2; stroke-opacity:0.1; fill:none" points="1223.29,1734.12 1223.29,47.2441 "/>
<polyline clip-path="url(#clip002)" style="stroke:#000000; stroke-linecap:round; stroke-linejoin:round; stroke-width:2; stroke-opacity:0.1; fill:none" points="1673.28,1734.12 1673.28,47.2441 "/>
<polyline clip-path="url(#clip002)" style="stroke:#000000; stroke-linecap:round; stroke-linejoin:round; stroke-width:2; stroke-opacity:0.1; fill:none" points="2123.27,1734.12 2123.27,47.2441 "/>
<polyline clip-path="url(#clip002)" style="stroke:#000000; stroke-linecap:round; stroke-linejoin:round; stroke-width:2; stroke-opacity:0.1; fill:none" points="2573.26,1734.12 2573.26,47.2441 "/>
<polyline clip-path="url(#clip000)" style="stroke:#000000; stroke-linecap:round; stroke-linejoin:round; stroke-width:4; stroke-opacity:1; fill:none" points="255.816,1734.12 2640.76,1734.12 "/>
<polyline clip-path="url(#clip000)" style="stroke:#000000; stroke-linecap:round; stroke-linejoin:round; stroke-width:4; stroke-opacity:1; fill:none" points="323.315,1734.12 323.315,1715.22 "/>
<polyline clip-path="url(#clip000)" style="stroke:#000000; stroke-linecap:round; stroke-linejoin:round; stroke-width:4; stroke-opacity:1; fill:none" points="773.303,1734.12 773.303,1715.22 "/>
<polyline clip-path="url(#clip000)" style="stroke:#000000; stroke-linecap:round; stroke-linejoin:round; stroke-width:4; stroke-opacity:1; fill:none" points="1223.29,1734.12 1223.29,1715.22 "/>
<polyline clip-path="url(#clip000)" style="stroke:#000000; stroke-linecap:round; stroke-linejoin:round; stroke-width:4; stroke-opacity:1; fill:none" points="1673.28,1734.12 1673.28,1715.22 "/>
<polyline clip-path="url(#clip000)" style="stroke:#000000; stroke-linecap:round; stroke-linejoin:round; stroke-width:4; stroke-opacity:1; fill:none" points="2123.27,1734.12 2123.27,1715.22 "/>
<polyline clip-path="url(#clip000)" style="stroke:#000000; stroke-linecap:round; stroke-linejoin:round; stroke-width:4; stroke-opacity:1; fill:none" points="2573.26,1734.12 2573.26,1715.22 "/>
<path clip-path="url(#clip000)" d="M323.315 1767.34 Q319.704 1767.34 317.875 1770.9 Q316.069 1774.45 316.069 1781.58 Q316.069 1788.68 317.875 1792.25 Q319.704 1795.79 323.315 1795.79 Q326.949 1795.79 328.754 1792.25 Q330.583 1788.68 330.583 1781.58 Q330.583 1774.45 328.754 1770.9 Q326.949 1767.34 323.315 1767.34 M323.315 1763.64 Q329.125 1763.64 332.18 1768.24 Q335.259 1772.83 335.259 1781.58 Q335.259 1790.3 332.18 1794.91 Q329.125 1799.49 323.315 1799.49 Q317.504 1799.49 314.426 1794.91 Q311.37 1790.3 311.37 1781.58 Q311.37 1772.83 314.426 1768.24 Q317.504 1763.64 323.315 1763.64 Z" fill="#000000" fill-rule="nonzero" fill-opacity="1" /><path clip-path="url(#clip000)" d="M747.991 1794.89 L755.63 1794.89 L755.63 1768.52 L747.32 1770.19 L747.32 1765.93 L755.583 1764.26 L760.259 1764.26 L760.259 1794.89 L767.898 1794.89 L767.898 1798.82 L747.991 1798.82 L747.991 1794.89 Z" fill="#000000" fill-rule="nonzero" fill-opacity="1" /><path clip-path="url(#clip000)" d="M787.342 1767.34 Q783.731 1767.34 781.903 1770.9 Q780.097 1774.45 780.097 1781.58 Q780.097 1788.68 781.903 1792.25 Q783.731 1795.79 787.342 1795.79 Q790.977 1795.79 792.782 1792.25 Q794.611 1788.68 794.611 1781.58 Q794.611 1774.45 792.782 1770.9 Q790.977 1767.34 787.342 1767.34 M787.342 1763.64 Q793.153 1763.64 796.208 1768.24 Q799.287 1772.83 799.287 1781.58 Q799.287 1790.3 796.208 1794.91 Q793.153 1799.49 787.342 1799.49 Q781.532 1799.49 778.454 1794.91 Q775.398 1790.3 775.398 1781.58 Q775.398 1772.83 778.454 1768.24 Q781.532 1763.64 787.342 1763.64 Z" fill="#000000" fill-rule="nonzero" fill-opacity="1" /><path clip-path="url(#clip000)" d="M1202.07 1794.89 L1218.38 1794.89 L1218.38 1798.82 L1196.44 1798.82 L1196.44 1794.89 Q1199.1 1792.13 1203.69 1787.5 Q1208.29 1782.85 1209.47 1781.51 Q1211.72 1778.98 1212.6 1777.25 Q1213.5 1775.49 1213.5 1773.8 Q1213.5 1771.04 1211.56 1769.31 Q1209.63 1767.57 1206.53 1767.57 Q1204.33 1767.57 1201.88 1768.34 Q1199.45 1769.1 1196.67 1770.65 L1196.67 1765.93 Q1199.5 1764.79 1201.95 1764.21 Q1204.4 1763.64 1206.44 1763.64 Q1211.81 1763.64 1215 1766.32 Q1218.2 1769.01 1218.2 1773.5 Q1218.2 1775.63 1217.39 1777.55 Q1216.6 1779.45 1214.5 1782.04 Q1213.92 1782.71 1210.82 1785.93 Q1207.71 1789.12 1202.07 1794.89 Z" fill="#000000" fill-rule="nonzero" fill-opacity="1" /><path clip-path="url(#clip000)" d="M1238.2 1767.34 Q1234.59 1767.34 1232.76 1770.9 Q1230.95 1774.45 1230.95 1781.58 Q1230.95 1788.68 1232.76 1792.25 Q1234.59 1795.79 1238.2 1795.79 Q1241.83 1795.79 1243.64 1792.25 Q1245.47 1788.68 1245.47 1781.58 Q1245.47 1774.45 1243.64 1770.9 Q1241.83 1767.34 1238.2 1767.34 M1238.2 1763.64 Q1244.01 1763.64 1247.06 1768.24 Q1250.14 1772.83 1250.14 1781.58 Q1250.14 1790.3 1247.06 1794.91 Q1244.01 1799.49 1238.2 1799.49 Q1232.39 1799.49 1229.31 1794.91 Q1226.25 1790.3 1226.25 1781.58 Q1226.25 1772.83 1229.31 1768.24 Q1232.39 1763.64 1238.2 1763.64 Z" fill="#000000" fill-rule="nonzero" fill-opacity="1" /><path clip-path="url(#clip000)" d="M1662.12 1780.19 Q1665.48 1780.9 1667.35 1783.17 Q1669.25 1785.44 1669.25 1788.77 Q1669.25 1793.89 1665.73 1796.69 Q1662.22 1799.49 1655.73 1799.49 Q1653.56 1799.49 1651.24 1799.05 Q1648.95 1798.64 1646.5 1797.78 L1646.5 1793.27 Q1648.44 1794.4 1650.76 1794.98 Q1653.07 1795.56 1655.6 1795.56 Q1659.99 1795.56 1662.29 1793.82 Q1664.6 1792.08 1664.6 1788.77 Q1664.6 1785.72 1662.45 1784.01 Q1660.32 1782.27 1656.5 1782.27 L1652.47 1782.27 L1652.47 1778.43 L1656.68 1778.43 Q1660.13 1778.43 1661.96 1777.06 Q1663.79 1775.67 1663.79 1773.08 Q1663.79 1770.42 1661.89 1769.01 Q1660.02 1767.57 1656.5 1767.57 Q1654.58 1767.57 1652.38 1767.99 Q1650.18 1768.4 1647.54 1769.28 L1647.54 1765.12 Q1650.2 1764.38 1652.52 1764.01 Q1654.85 1763.64 1656.91 1763.64 Q1662.24 1763.64 1665.34 1766.07 Q1668.44 1768.47 1668.44 1772.59 Q1668.44 1775.46 1666.8 1777.46 Q1665.16 1779.42 1662.12 1780.19 Z" fill="#000000" fill-rule="nonzero" fill-opacity="1" /><path clip-path="url(#clip000)" d="M1688.12 1767.34 Q1684.51 1767.34 1682.68 1770.9 Q1680.87 1774.45 1680.87 1781.58 Q1680.87 1788.68 1682.68 1792.25 Q1684.51 1795.79 1688.12 1795.79 Q1691.75 1795.79 1693.56 1792.25 Q1695.39 1788.68 1695.39 1781.58 Q1695.39 1774.45 1693.56 1770.9 Q1691.75 1767.34 1688.12 1767.34 M1688.12 1763.64 Q1693.93 1763.64 1696.98 1768.24 Q1700.06 1772.83 1700.06 1781.58 Q1700.06 1790.3 1696.98 1794.91 Q1693.93 1799.49 1688.12 1799.49 Q1682.31 1799.49 1679.23 1794.91 Q1676.17 1790.3 1676.17 1781.58 Q1676.17 1772.83 1679.23 1768.24 Q1682.31 1763.64 1688.12 1763.64 Z" fill="#000000" fill-rule="nonzero" fill-opacity="1" /><path clip-path="url(#clip000)" d="M2111.44 1768.34 L2099.63 1786.78 L2111.44 1786.78 L2111.44 1768.34 M2110.21 1764.26 L2116.09 1764.26 L2116.09 1786.78 L2121.02 1786.78 L2121.02 1790.67 L2116.09 1790.67 L2116.09 1798.82 L2111.44 1798.82 L2111.44 1790.67 L2095.84 1790.67 L2095.84 1786.16 L2110.21 1764.26 Z" fill="#000000" fill-rule="nonzero" fill-opacity="1" /><path clip-path="url(#clip000)" d="M2138.76 1767.34 Q2135.14 1767.34 2133.32 1770.9 Q2131.51 1774.45 2131.51 1781.58 Q2131.51 1788.68 2133.32 1792.25 Q2135.14 1795.79 2138.76 1795.79 Q2142.39 1795.79 2144.19 1792.25 Q2146.02 1788.68 2146.02 1781.58 Q2146.02 1774.45 2144.19 1770.9 Q2142.39 1767.34 2138.76 1767.34 M2138.76 1763.64 Q2144.57 1763.64 2147.62 1768.24 Q2150.7 1772.83 2150.7 1781.58 Q2150.7 1790.3 2147.62 1794.91 Q2144.57 1799.49 2138.76 1799.49 Q2132.94 1799.49 2129.87 1794.91 Q2126.81 1790.3 2126.81 1781.58 Q2126.81 1772.83 2129.87 1768.24 Q2132.94 1763.64 2138.76 1763.64 Z" fill="#000000" fill-rule="nonzero" fill-opacity="1" /><path clip-path="url(#clip000)" d="M2547.96 1764.26 L2566.31 1764.26 L2566.31 1768.2 L2552.24 1768.2 L2552.24 1776.67 Q2553.26 1776.32 2554.28 1776.16 Q2555.29 1775.97 2556.31 1775.97 Q2562.1 1775.97 2565.48 1779.15 Q2568.86 1782.32 2568.86 1787.73 Q2568.86 1793.31 2565.39 1796.41 Q2561.92 1799.49 2555.6 1799.49 Q2553.42 1799.49 2551.15 1799.12 Q2548.91 1798.75 2546.5 1798.01 L2546.5 1793.31 Q2548.58 1794.45 2550.8 1795 Q2553.03 1795.56 2555.5 1795.56 Q2559.51 1795.56 2561.85 1793.45 Q2564.18 1791.34 2564.18 1787.73 Q2564.18 1784.12 2561.85 1782.02 Q2559.51 1779.91 2555.5 1779.91 Q2553.63 1779.91 2551.75 1780.33 Q2549.9 1780.74 2547.96 1781.62 L2547.96 1764.26 Z" fill="#000000" fill-rule="nonzero" fill-opacity="1" /><path clip-path="url(#clip000)" d="M2588.07 1767.34 Q2584.46 1767.34 2582.63 1770.9 Q2580.83 1774.45 2580.83 1781.58 Q2580.83 1788.68 2582.63 1792.25 Q2584.46 1795.79 2588.07 1795.79 Q2591.71 1795.79 2593.51 1792.25 Q2595.34 1788.68 2595.34 1781.58 Q2595.34 1774.45 2593.51 1770.9 Q2591.71 1767.34 2588.07 1767.34 M2588.07 1763.64 Q2593.88 1763.64 2596.94 1768.24 Q2600.02 1772.83 2600.02 1781.58 Q2600.02 1790.3 2596.94 1794.91 Q2593.88 1799.49 2588.07 1799.49 Q2582.26 1799.49 2579.18 1794.91 Q2576.13 1790.3 2576.13 1781.58 Q2576.13 1772.83 2579.18 1768.24 Q2582.26 1763.64 2588.07 1763.64 Z" fill="#000000" fill-rule="nonzero" fill-opacity="1" /><path clip-path="url(#clip000)" d="M1409.01 1842.11 L1400.29 1865.76 L1417.76 1865.76 L1409.01 1842.11 M1405.38 1835.78 L1412.67 1835.78 L1430.78 1883.3 L1424.1 1883.3 L1419.77 1871.11 L1398.35 1871.11 L1394.02 1883.3 L1387.24 1883.3 L1405.38 1835.78 Z" fill="#000000" fill-rule="nonzero" fill-opacity="1" /><path clip-path="url(#clip000)" d="M1460.92 1865.06 Q1460.92 1858.7 1458.28 1855.2 Q1455.67 1851.7 1450.93 1851.7 Q1446.22 1851.7 1443.58 1855.2 Q1440.97 1858.7 1440.97 1865.06 Q1440.97 1871.4 1443.58 1874.9 Q1446.22 1878.4 1450.93 1878.4 Q1455.67 1878.4 1458.28 1874.9 Q1460.92 1871.4 1460.92 1865.06 M1466.78 1878.88 Q1466.78 1887.98 1462.74 1892.4 Q1458.69 1896.86 1450.35 1896.86 Q1447.27 1896.86 1444.53 1896.38 Q1441.79 1895.94 1439.21 1894.98 L1439.21 1889.28 Q1441.79 1890.69 1444.31 1891.35 Q1446.82 1892.02 1449.43 1892.02 Q1455.19 1892.02 1458.06 1889 Q1460.92 1886.01 1460.92 1879.93 L1460.92 1877.03 Q1459.11 1880.18 1456.28 1881.74 Q1453.44 1883.3 1449.5 1883.3 Q1442.94 1883.3 1438.93 1878.3 Q1434.92 1873.31 1434.92 1865.06 Q1434.92 1856.79 1438.93 1851.79 Q1442.94 1846.79 1449.5 1846.79 Q1453.44 1846.79 1456.28 1848.35 Q1459.11 1849.91 1460.92 1853.06 L1460.92 1847.65 L1466.78 1847.65 L1466.78 1878.88 Z" fill="#000000" fill-rule="nonzero" fill-opacity="1" /><path clip-path="url(#clip000)" d="M1509.33 1864.01 L1509.33 1866.88 L1482.41 1866.88 Q1482.79 1872.92 1486.03 1876.11 Q1489.31 1879.26 1495.14 1879.26 Q1498.51 1879.26 1501.66 1878.43 Q1504.85 1877.6 1507.96 1875.95 L1507.96 1881.49 Q1504.81 1882.82 1501.5 1883.52 Q1498.19 1884.22 1494.79 1884.22 Q1486.26 1884.22 1481.26 1879.26 Q1476.3 1874.29 1476.3 1865.83 Q1476.3 1857.07 1481.01 1851.95 Q1485.75 1846.79 1493.77 1846.79 Q1500.96 1846.79 1505.13 1851.44 Q1509.33 1856.06 1509.33 1864.01 M1503.48 1862.29 Q1503.41 1857.49 1500.77 1854.62 Q1498.16 1851.76 1493.83 1851.76 Q1488.93 1851.76 1485.97 1854.53 Q1483.04 1857.3 1482.6 1862.33 L1503.48 1862.29 Z" fill="#000000" fill-rule="nonzero" fill-opacity="1" /><polyline clip-path="url(#clip002)" style="stroke:#000000; stroke-linecap:round; stroke-linejoin:round; stroke-width:2; stroke-opacity:0.1; fill:none" points="255.816,1686.38 2640.76,1686.38 "/>
<polyline clip-path="url(#clip002)" style="stroke:#000000; stroke-linecap:round; stroke-linejoin:round; stroke-width:2; stroke-opacity:0.1; fill:none" points="255.816,1288.53 2640.76,1288.53 "/>
<polyline clip-path="url(#clip002)" style="stroke:#000000; stroke-linecap:round; stroke-linejoin:round; stroke-width:2; stroke-opacity:0.1; fill:none" points="255.816,890.681 2640.76,890.681 "/>
<polyline clip-path="url(#clip002)" style="stroke:#000000; stroke-linecap:round; stroke-linejoin:round; stroke-width:2; stroke-opacity:0.1; fill:none" points="255.816,492.833 2640.76,492.833 "/>
<polyline clip-path="url(#clip002)" style="stroke:#000000; stroke-linecap:round; stroke-linejoin:round; stroke-width:2; stroke-opacity:0.1; fill:none" points="255.816,94.9858 2640.76,94.9858 "/>
<polyline clip-path="url(#clip000)" style="stroke:#000000; stroke-linecap:round; stroke-linejoin:round; stroke-width:4; stroke-opacity:1; fill:none" points="255.816,1734.12 255.816,47.2441 "/>
<polyline clip-path="url(#clip000)" style="stroke:#000000; stroke-linecap:round; stroke-linejoin:round; stroke-width:4; stroke-opacity:1; fill:none" points="255.816,1686.38 274.714,1686.38 "/>
<polyline clip-path="url(#clip000)" style="stroke:#000000; stroke-linecap:round; stroke-linejoin:round; stroke-width:4; stroke-opacity:1; fill:none" points="255.816,1288.53 274.714,1288.53 "/>
<polyline clip-path="url(#clip000)" style="stroke:#000000; stroke-linecap:round; stroke-linejoin:round; stroke-width:4; stroke-opacity:1; fill:none" points="255.816,890.681 274.714,890.681 "/>
<polyline clip-path="url(#clip000)" style="stroke:#000000; stroke-linecap:round; stroke-linejoin:round; stroke-width:4; stroke-opacity:1; fill:none" points="255.816,492.833 274.714,492.833 "/>
<polyline clip-path="url(#clip000)" style="stroke:#000000; stroke-linecap:round; stroke-linejoin:round; stroke-width:4; stroke-opacity:1; fill:none" points="255.816,94.9858 274.714,94.9858 "/>
<path clip-path="url(#clip000)" d="M128.159 1672.17 Q124.548 1672.17 122.719 1675.74 Q120.913 1679.28 120.913 1686.41 Q120.913 1693.52 122.719 1697.08 Q124.548 1700.62 128.159 1700.62 Q131.793 1700.62 133.599 1697.08 Q135.427 1693.52 135.427 1686.41 Q135.427 1679.28 133.599 1675.74 Q131.793 1672.17 128.159 1672.17 M128.159 1668.47 Q133.969 1668.47 137.025 1673.08 Q140.103 1677.66 140.103 1686.41 Q140.103 1695.14 137.025 1699.74 Q133.969 1704.33 128.159 1704.33 Q122.349 1704.33 119.27 1699.74 Q116.214 1695.14 116.214 1686.41 Q116.214 1677.66 119.27 1673.08 Q122.349 1668.47 128.159 1668.47 Z" fill="#000000" fill-rule="nonzero" fill-opacity="1" /><path clip-path="url(#clip000)" d="M148.321 1697.78 L153.205 1697.78 L153.205 1703.66 L148.321 1703.66 L148.321 1697.78 Z" fill="#000000" fill-rule="nonzero" fill-opacity="1" /><path clip-path="url(#clip000)" d="M173.39 1672.17 Q169.779 1672.17 167.95 1675.74 Q166.145 1679.28 166.145 1686.41 Q166.145 1693.52 167.95 1697.08 Q169.779 1700.62 173.39 1700.62 Q177.024 1700.62 178.83 1697.08 Q180.659 1693.52 180.659 1686.41 Q180.659 1679.28 178.83 1675.74 Q177.024 1672.17 173.39 1672.17 M173.39 1668.47 Q179.2 1668.47 182.256 1673.08 Q185.334 1677.66 185.334 1686.41 Q185.334 1695.14 182.256 1699.74 Q179.2 1704.33 173.39 1704.33 Q167.58 1704.33 164.501 1699.74 Q161.446 1695.14 161.446 1686.41 Q161.446 1677.66 164.501 1673.08 Q167.58 1668.47 173.39 1668.47 Z" fill="#000000" fill-rule="nonzero" fill-opacity="1" /><path clip-path="url(#clip000)" d="M203.552 1672.17 Q199.941 1672.17 198.112 1675.74 Q196.307 1679.28 196.307 1686.41 Q196.307 1693.52 198.112 1697.08 Q199.941 1700.62 203.552 1700.62 Q207.186 1700.62 208.992 1697.08 Q210.82 1693.52 210.82 1686.41 Q210.82 1679.28 208.992 1675.74 Q207.186 1672.17 203.552 1672.17 M203.552 1668.47 Q209.362 1668.47 212.418 1673.08 Q215.496 1677.66 215.496 1686.41 Q215.496 1695.14 212.418 1699.74 Q209.362 1704.33 203.552 1704.33 Q197.742 1704.33 194.663 1699.74 Q191.608 1695.14 191.608 1686.41 Q191.608 1677.66 194.663 1673.08 Q197.742 1668.47 203.552 1668.47 Z" fill="#000000" fill-rule="nonzero" fill-opacity="1" /><path clip-path="url(#clip000)" d="M129.154 1274.33 Q125.543 1274.33 123.714 1277.89 Q121.909 1281.43 121.909 1288.56 Q121.909 1295.67 123.714 1299.23 Q125.543 1302.78 129.154 1302.78 Q132.788 1302.78 134.594 1299.23 Q136.423 1295.67 136.423 1288.56 Q136.423 1281.43 134.594 1277.89 Q132.788 1274.33 129.154 1274.33 M129.154 1270.62 Q134.964 1270.62 138.02 1275.23 Q141.099 1279.81 141.099 1288.56 Q141.099 1297.29 138.02 1301.9 Q134.964 1306.48 129.154 1306.48 Q123.344 1306.48 120.265 1301.9 Q117.21 1297.29 117.21 1288.56 Q117.21 1279.81 120.265 1275.23 Q123.344 1270.62 129.154 1270.62 Z" fill="#000000" fill-rule="nonzero" fill-opacity="1" /><path clip-path="url(#clip000)" d="M149.316 1299.93 L154.2 1299.93 L154.2 1305.81 L149.316 1305.81 L149.316 1299.93 Z" fill="#000000" fill-rule="nonzero" fill-opacity="1" /><path clip-path="url(#clip000)" d="M174.385 1274.33 Q170.774 1274.33 168.946 1277.89 Q167.14 1281.43 167.14 1288.56 Q167.14 1295.67 168.946 1299.23 Q170.774 1302.78 174.385 1302.78 Q178.02 1302.78 179.825 1299.23 Q181.654 1295.67 181.654 1288.56 Q181.654 1281.43 179.825 1277.89 Q178.02 1274.33 174.385 1274.33 M174.385 1270.62 Q180.196 1270.62 183.251 1275.23 Q186.33 1279.81 186.33 1288.56 Q186.33 1297.29 183.251 1301.9 Q180.196 1306.48 174.385 1306.48 Q168.575 1306.48 165.497 1301.9 Q162.441 1297.29 162.441 1288.56 Q162.441 1279.81 165.497 1275.23 Q168.575 1270.62 174.385 1270.62 Z" fill="#000000" fill-rule="nonzero" fill-opacity="1" /><path clip-path="url(#clip000)" d="M194.594 1271.25 L212.95 1271.25 L212.95 1275.18 L198.876 1275.18 L198.876 1283.66 Q199.895 1283.31 200.913 1283.15 Q201.932 1282.96 202.95 1282.96 Q208.737 1282.96 212.117 1286.13 Q215.496 1289.3 215.496 1294.72 Q215.496 1300.3 212.024 1303.4 Q208.552 1306.48 202.233 1306.48 Q200.057 1306.48 197.788 1306.11 Q195.543 1305.74 193.135 1305 L193.135 1300.3 Q195.219 1301.43 197.441 1301.99 Q199.663 1302.54 202.14 1302.54 Q206.145 1302.54 208.482 1300.44 Q210.82 1298.33 210.82 1294.72 Q210.82 1291.11 208.482 1289 Q206.145 1286.9 202.14 1286.9 Q200.265 1286.9 198.39 1287.31 Q196.538 1287.73 194.594 1288.61 L194.594 1271.25 Z" fill="#000000" fill-rule="nonzero" fill-opacity="1" /><path clip-path="url(#clip000)" d="M128.159 876.479 Q124.548 876.479 122.719 880.044 Q120.913 883.586 120.913 890.715 Q120.913 897.822 122.719 901.387 Q124.548 904.928 128.159 904.928 Q131.793 904.928 133.599 901.387 Q135.427 897.822 135.427 890.715 Q135.427 883.586 133.599 880.044 Q131.793 876.479 128.159 876.479 M128.159 872.776 Q133.969 872.776 137.025 877.382 Q140.103 881.965 140.103 890.715 Q140.103 899.442 137.025 904.049 Q133.969 908.632 128.159 908.632 Q122.349 908.632 119.27 904.049 Q116.214 899.442 116.214 890.715 Q116.214 881.965 119.27 877.382 Q122.349 872.776 128.159 872.776 Z" fill="#000000" fill-rule="nonzero" fill-opacity="1" /><path clip-path="url(#clip000)" d="M148.321 902.081 L153.205 902.081 L153.205 907.961 L148.321 907.961 L148.321 902.081 Z" fill="#000000" fill-rule="nonzero" fill-opacity="1" /><path clip-path="url(#clip000)" d="M164.2 904.025 L171.839 904.025 L171.839 877.66 L163.529 879.326 L163.529 875.067 L171.793 873.401 L176.469 873.401 L176.469 904.025 L184.108 904.025 L184.108 907.961 L164.2 907.961 L164.2 904.025 Z" fill="#000000" fill-rule="nonzero" fill-opacity="1" /><path clip-path="url(#clip000)" d="M203.552 876.479 Q199.941 876.479 198.112 880.044 Q196.307 883.586 196.307 890.715 Q196.307 897.822 198.112 901.387 Q199.941 904.928 203.552 904.928 Q207.186 904.928 208.992 901.387 Q210.82 897.822 210.82 890.715 Q210.82 883.586 208.992 880.044 Q207.186 876.479 203.552 876.479 M203.552 872.776 Q209.362 872.776 212.418 877.382 Q215.496 881.965 215.496 890.715 Q215.496 899.442 212.418 904.049 Q209.362 908.632 203.552 908.632 Q197.742 908.632 194.663 904.049 Q191.608 899.442 191.608 890.715 Q191.608 881.965 194.663 877.382 Q197.742 872.776 203.552 872.776 Z" fill="#000000" fill-rule="nonzero" fill-opacity="1" /><path clip-path="url(#clip000)" d="M129.154 478.632 Q125.543 478.632 123.714 482.197 Q121.909 485.738 121.909 492.868 Q121.909 499.974 123.714 503.539 Q125.543 507.081 129.154 507.081 Q132.788 507.081 134.594 503.539 Q136.423 499.974 136.423 492.868 Q136.423 485.738 134.594 482.197 Q132.788 478.632 129.154 478.632 M129.154 474.928 Q134.964 474.928 138.02 479.535 Q141.099 484.118 141.099 492.868 Q141.099 501.595 138.02 506.201 Q134.964 510.784 129.154 510.784 Q123.344 510.784 120.265 506.201 Q117.21 501.595 117.21 492.868 Q117.21 484.118 120.265 479.535 Q123.344 474.928 129.154 474.928 Z" fill="#000000" fill-rule="nonzero" fill-opacity="1" /><path clip-path="url(#clip000)" d="M149.316 504.234 L154.2 504.234 L154.2 510.113 L149.316 510.113 L149.316 504.234 Z" fill="#000000" fill-rule="nonzero" fill-opacity="1" /><path clip-path="url(#clip000)" d="M165.196 506.178 L172.835 506.178 L172.835 479.812 L164.524 481.479 L164.524 477.22 L172.788 475.553 L177.464 475.553 L177.464 506.178 L185.103 506.178 L185.103 510.113 L165.196 510.113 L165.196 506.178 Z" fill="#000000" fill-rule="nonzero" fill-opacity="1" /><path clip-path="url(#clip000)" d="M194.594 475.553 L212.95 475.553 L212.95 479.488 L198.876 479.488 L198.876 487.961 Q199.895 487.613 200.913 487.451 Q201.932 487.266 202.95 487.266 Q208.737 487.266 212.117 490.437 Q215.496 493.609 215.496 499.025 Q215.496 504.604 212.024 507.706 Q208.552 510.784 202.233 510.784 Q200.057 510.784 197.788 510.414 Q195.543 510.044 193.135 509.303 L193.135 504.604 Q195.219 505.738 197.441 506.294 Q199.663 506.849 202.14 506.849 Q206.145 506.849 208.482 504.743 Q210.82 502.636 210.82 499.025 Q210.82 495.414 208.482 493.308 Q206.145 491.201 202.14 491.201 Q200.265 491.201 198.39 491.618 Q196.538 492.035 194.594 492.914 L194.594 475.553 Z" fill="#000000" fill-rule="nonzero" fill-opacity="1" /><path clip-path="url(#clip000)" d="M128.159 80.7845 Q124.548 80.7845 122.719 84.3493 Q120.913 87.8909 120.913 95.0205 Q120.913 102.127 122.719 105.692 Q124.548 109.233 128.159 109.233 Q131.793 109.233 133.599 105.692 Q135.427 102.127 135.427 95.0205 Q135.427 87.8909 133.599 84.3493 Q131.793 80.7845 128.159 80.7845 M128.159 77.0808 Q133.969 77.0808 137.025 81.6872 Q140.103 86.2705 140.103 95.0205 Q140.103 103.747 137.025 108.354 Q133.969 112.937 128.159 112.937 Q122.349 112.937 119.27 108.354 Q116.214 103.747 116.214 95.0205 Q116.214 86.2705 119.27 81.6872 Q122.349 77.0808 128.159 77.0808 Z" fill="#000000" fill-rule="nonzero" fill-opacity="1" /><path clip-path="url(#clip000)" d="M148.321 106.386 L153.205 106.386 L153.205 112.266 L148.321 112.266 L148.321 106.386 Z" fill="#000000" fill-rule="nonzero" fill-opacity="1" /><path clip-path="url(#clip000)" d="M167.418 108.331 L183.737 108.331 L183.737 112.266 L161.793 112.266 L161.793 108.331 Q164.455 105.576 169.038 100.946 Q173.645 96.2936 174.825 94.9511 Q177.071 92.4279 177.95 90.6918 Q178.853 88.9326 178.853 87.2428 Q178.853 84.4882 176.909 82.752 Q174.987 81.0159 171.885 81.0159 Q169.686 81.0159 167.233 81.7798 Q164.802 82.5437 162.024 84.0946 L162.024 79.3724 Q164.848 78.2382 167.302 77.6595 Q169.756 77.0808 171.793 77.0808 Q177.163 77.0808 180.358 79.766 Q183.552 82.4511 183.552 86.9418 Q183.552 89.0715 182.742 90.9927 Q181.955 92.8909 179.848 95.4835 Q179.27 96.1548 176.168 99.3723 Q173.066 102.567 167.418 108.331 Z" fill="#000000" fill-rule="nonzero" fill-opacity="1" /><path clip-path="url(#clip000)" d="M203.552 80.7845 Q199.941 80.7845 198.112 84.3493 Q196.307 87.8909 196.307 95.0205 Q196.307 102.127 198.112 105.692 Q199.941 109.233 203.552 109.233 Q207.186 109.233 208.992 105.692 Q210.82 102.127 210.82 95.0205 Q210.82 87.8909 208.992 84.3493 Q207.186 80.7845 203.552 80.7845 M203.552 77.0808 Q209.362 77.0808 212.418 81.6872 Q215.496 86.2705 215.496 95.0205 Q215.496 103.747 212.418 108.354 Q209.362 112.937 203.552 112.937 Q197.742 112.937 194.663 108.354 Q191.608 103.747 191.608 95.0205 Q191.608 86.2705 194.663 81.6872 Q197.742 77.0808 203.552 77.0808 Z" fill="#000000" fill-rule="nonzero" fill-opacity="1" /><path clip-path="url(#clip000)" d="M15.678 1072.09 L21.9483 1072.09 Q20.1977 1075.75 19.3383 1078.99 Q18.479 1082.24 18.479 1085.26 Q18.479 1090.52 20.516 1093.38 Q22.553 1096.21 26.3088 1096.21 Q29.4598 1096.21 31.0831 1094.34 Q32.6745 1092.43 33.6612 1087.14 L34.4569 1083.26 Q35.8255 1076.07 39.2948 1072.66 Q42.7323 1069.22 48.5251 1069.22 Q55.4319 1069.22 58.9967 1073.87 Q62.5615 1078.48 62.5615 1087.43 Q62.5615 1090.8 61.7976 1094.62 Q61.0337 1098.41 59.5378 1102.48 L52.9174 1102.48 Q55.1136 1098.57 56.2276 1094.81 Q57.3416 1091.06 57.3416 1087.43 Q57.3416 1081.92 55.1773 1078.93 Q53.0129 1075.94 49.0025 1075.94 Q45.5014 1075.94 43.528 1078.1 Q41.5546 1080.24 40.568 1085.14 L39.8041 1089.05 Q38.3718 1096.25 35.3162 1099.46 Q32.2607 1102.67 26.818 1102.67 Q20.516 1102.67 16.8875 1098.25 Q13.2591 1093.79 13.2591 1086 Q13.2591 1082.65 13.8638 1079.19 Q14.4686 1075.72 15.678 1072.09 Z" fill="#000000" fill-rule="nonzero" fill-opacity="1" /><path clip-path="url(#clip000)" d="M25.9905 1059.45 L25.9905 1053.59 L61.6384 1053.59 L61.6384 1059.45 L25.9905 1059.45 M12.1132 1059.45 L12.1132 1053.59 L19.5293 1053.59 L19.5293 1059.45 L12.1132 1059.45 Z" fill="#000000" fill-rule="nonzero" fill-opacity="1" /><path clip-path="url(#clip000)" d="M40.1224 1011.71 L61.6384 1011.71 L61.6384 1017.56 L40.3133 1017.56 Q35.2526 1017.56 32.7381 1019.54 Q30.2237 1021.51 30.2237 1025.46 Q30.2237 1030.2 33.2474 1032.94 Q36.2711 1035.68 41.491 1035.68 L61.6384 1035.68 L61.6384 1041.56 L25.9905 1041.56 L25.9905 1035.68 L31.5287 1035.68 Q28.314 1033.57 26.7225 1030.74 Q25.1311 1027.88 25.1311 1024.15 Q25.1311 1018.01 28.9505 1014.86 Q32.7381 1011.71 40.1224 1011.71 Z" fill="#000000" fill-rule="nonzero" fill-opacity="1" /><path clip-path="url(#clip000)" d="M12.1132 1000.25 L12.1132 994.362 L41.3637 994.362 L25.9905 976.888 L25.9905 969.408 L42.6686 988.315 L61.6384 968.613 L61.6384 976.252 L44.2282 994.362 L61.6384 994.362 L61.6384 1000.25 L12.1132 1000.25 Z" fill="#000000" fill-rule="nonzero" fill-opacity="1" /><path clip-path="url(#clip000)" d="M27.0408 918.833 L32.579 918.833 Q31.3059 921.316 30.6693 923.989 Q30.0327 926.663 30.0327 929.527 Q30.0327 933.888 31.3695 936.084 Q32.7063 938.248 35.3799 938.248 Q37.4169 938.248 38.5946 936.689 Q39.7404 935.129 40.7908 930.418 L41.2364 928.413 Q42.5732 922.175 45.0239 919.565 Q47.4429 916.923 51.8034 916.923 Q56.7687 916.923 59.6651 920.87 Q62.5615 924.785 62.5615 931.66 Q62.5615 934.524 61.9886 937.644 Q61.4475 940.731 60.3335 944.168 L54.2861 944.168 Q55.973 940.922 56.8323 937.771 Q57.6599 934.62 57.6599 931.532 Q57.6599 927.395 56.2594 925.167 Q54.8271 922.939 52.249 922.939 Q49.8619 922.939 48.5887 924.562 Q47.3156 926.153 46.1379 931.596 L45.6605 933.633 Q44.5147 939.076 42.1594 941.495 Q39.7722 943.914 35.6345 943.914 Q30.6056 943.914 27.8684 940.349 Q25.1311 936.784 25.1311 930.227 Q25.1311 926.981 25.6085 924.116 Q26.086 921.252 27.0408 918.833 Z" fill="#000000" fill-rule="nonzero" fill-opacity="1" /><path clip-path="url(#clip000)" d="M15.869 901.805 L25.9905 901.805 L25.9905 889.742 L30.542 889.742 L30.542 901.805 L49.8937 901.805 Q54.2542 901.805 55.4955 900.627 Q56.7368 899.417 56.7368 895.757 L56.7368 889.742 L61.6384 889.742 L61.6384 895.757 Q61.6384 902.537 59.124 905.115 Q56.5777 907.693 49.8937 907.693 L30.542 907.693 L30.542 911.99 L25.9905 911.99 L25.9905 907.693 L15.869 907.693 L15.869 901.805 Z" fill="#000000" fill-rule="nonzero" fill-opacity="1" /><path clip-path="url(#clip000)" d="M31.465 861.382 Q30.8921 862.369 30.6375 863.547 Q30.351 864.693 30.351 866.093 Q30.351 871.058 33.5975 873.732 Q36.8122 876.374 42.8596 876.374 L61.6384 876.374 L61.6384 882.262 L25.9905 882.262 L25.9905 876.374 L31.5287 876.374 Q28.2821 874.528 26.7225 871.568 Q25.1311 868.607 25.1311 864.374 Q25.1311 863.77 25.2266 863.037 Q25.2903 862.305 25.4494 861.414 L31.465 861.382 Z" fill="#000000" fill-rule="nonzero" fill-opacity="1" /><path clip-path="url(#clip000)" d="M42.3504 826.18 L45.2149 826.18 L45.2149 853.107 Q51.2623 852.725 54.4452 849.479 Q57.5962 846.2 57.5962 840.376 Q57.5962 837.002 56.7687 833.851 Q55.9411 830.668 54.2861 827.549 L59.8242 827.549 Q61.161 830.7 61.8612 834.01 Q62.5615 837.32 62.5615 840.726 Q62.5615 849.256 57.5962 854.253 Q52.631 859.218 44.1646 859.218 Q35.4117 859.218 30.2873 854.507 Q25.1311 849.765 25.1311 841.744 Q25.1311 834.551 29.7781 830.381 Q34.3932 826.18 42.3504 826.18 M40.6316 832.036 Q35.8255 832.1 32.9609 834.742 Q30.0964 837.352 30.0964 841.681 Q30.0964 846.582 32.8654 849.542 Q35.6345 852.47 40.6634 852.916 L40.6316 832.036 Z" fill="#000000" fill-rule="nonzero" fill-opacity="1" /><path clip-path="url(#clip000)" d="M40.1224 786.935 L61.6384 786.935 L61.6384 792.792 L40.3133 792.792 Q35.2526 792.792 32.7381 794.765 Q30.2237 796.739 30.2237 800.685 Q30.2237 805.428 33.2474 808.165 Q36.2711 810.902 41.491 810.902 L61.6384 810.902 L61.6384 816.791 L25.9905 816.791 L25.9905 810.902 L31.5287 810.902 Q28.314 808.802 26.7225 805.969 Q25.1311 803.104 25.1311 799.38 Q25.1311 793.237 28.9505 790.086 Q32.7381 786.935 40.1224 786.935 Z" fill="#000000" fill-rule="nonzero" fill-opacity="1" /><path clip-path="url(#clip000)" d="M43.4007 751.797 Q37.035 751.797 33.5338 754.439 Q30.0327 757.048 30.0327 761.791 Q30.0327 766.502 33.5338 769.143 Q37.035 771.753 43.4007 771.753 Q49.7346 771.753 53.2357 769.143 Q56.7368 766.502 56.7368 761.791 Q56.7368 757.048 53.2357 754.439 Q49.7346 751.797 43.4007 751.797 M57.2143 745.94 Q66.3172 745.94 70.7414 749.983 Q75.1974 754.025 75.1974 762.364 Q75.1974 765.451 74.72 768.188 Q74.2744 770.926 73.3195 773.504 L67.6222 773.504 Q69.0227 770.926 69.6911 768.411 Q70.3595 765.897 70.3595 763.287 Q70.3595 757.526 67.3358 754.661 Q64.3439 751.797 58.2646 751.797 L55.3682 751.797 Q58.5192 753.611 60.0788 756.444 Q61.6384 759.276 61.6384 763.223 Q61.6384 769.78 56.6414 773.79 Q51.6443 777.801 43.4007 777.801 Q35.1253 777.801 30.1282 773.79 Q25.1311 769.78 25.1311 763.223 Q25.1311 759.276 26.6907 756.444 Q28.2503 753.611 31.4013 751.797 L25.9905 751.797 L25.9905 745.94 L57.2143 745.94 Z" fill="#000000" fill-rule="nonzero" fill-opacity="1" /><path clip-path="url(#clip000)" d="M15.869 728.084 L25.9905 728.084 L25.9905 716.021 L30.542 716.021 L30.542 728.084 L49.8937 728.084 Q54.2542 728.084 55.4955 726.907 Q56.7368 725.697 56.7368 722.037 L56.7368 716.021 L61.6384 716.021 L61.6384 722.037 Q61.6384 728.817 59.124 731.395 Q56.5777 733.973 49.8937 733.973 L30.542 733.973 L30.542 738.27 L25.9905 738.27 L25.9905 733.973 L15.869 733.973 L15.869 728.084 Z" fill="#000000" fill-rule="nonzero" fill-opacity="1" /><path clip-path="url(#clip000)" d="M40.1224 678.687 L61.6384 678.687 L61.6384 684.543 L40.3133 684.543 Q35.2526 684.543 32.7381 686.516 Q30.2237 688.49 30.2237 692.437 Q30.2237 697.179 33.2474 699.916 Q36.2711 702.653 41.491 702.653 L61.6384 702.653 L61.6384 708.542 L12.1132 708.542 L12.1132 702.653 L31.5287 702.653 Q28.314 700.553 26.7225 697.72 Q25.1311 694.855 25.1311 691.132 Q25.1311 684.989 28.9505 681.838 Q32.7381 678.687 40.1224 678.687 Z" fill="#000000" fill-rule="nonzero" fill-opacity="1" /><polyline clip-path="url(#clip002)" style="stroke:#009af9; stroke-linecap:round; stroke-linejoin:round; stroke-width:4; stroke-opacity:1; fill:none" points="323.315,1686.38 368.313,1565.62 413.312,1506.81 458.311,1490.83 503.31,1502.28 548.309,1529.2 593.308,1562.63 638.307,1596.25 683.305,1626 728.304,1649.71 773.303,1666.73 818.302,1677.52 863.301,1683.32 908.3,1685.72 953.299,1686.33 998.298,1686.38 1043.3,1686.38 1088.3,1686.38 1133.29,1686.38 1178.29,1686.38 1223.29,1686.38 1268.29,1686.38 1313.29,1686.38 1358.29,1686.38 1403.29,1686.38 1448.29,1686.38 1493.28,1686.38 1538.28,1686.38 1583.28,1686.38 1628.28,1686.38 1673.28,1686.38 1718.28,1686.38 1763.28,1686.38 1808.28,1686.38 1853.28,1686.38 1898.27,1686.38 1943.27,1686.38 1988.27,1686.38 2033.27,1686.38 2078.27,1686.38 2123.27,1686.38 2168.27,1686.38 2213.27,1686.38 2258.27,1686.38 2303.26,1686.38 2348.26,1686.38 2393.26,1686.38 2438.26,1686.38 2483.26,1686.38 2528.26,1686.38 2573.26,1686.38 "/>
<polyline clip-path="url(#clip002)" style="stroke:#e26f46; stroke-linecap:round; stroke-linejoin:round; stroke-width:4; stroke-opacity:1; fill:none" points="323.315,94.9858 368.313,383.456 413.312,619.635 458.311,813.002 503.31,971.318 548.309,1100.94 593.308,1207.06 638.307,1293.94 683.305,1365.08 728.304,1423.32 773.303,1471 818.302,1510.04 863.301,1542.01 908.3,1568.18 953.299,1589.6 998.298,1607.14 1043.3,1621.51 1088.3,1633.27 1133.29,1642.89 1178.29,1650.77 1223.29,1657.23 1268.29,1662.51 1313.29,1666.84 1358.29,1670.38 1403.29,1673.28 1448.29,1675.65 1493.28,1677.6 1538.28,1679.19 1583.28,1680.49 1628.28,1681.56 1673.28,1682.43 1718.28,1683.15 1763.28,1683.73 1808.28,1684.21 1853.28,1684.6 1898.27,1684.92 1943.27,1685.19 1988.27,1685.4 2033.27,1685.58 2078.27,1685.72 2123.27,1685.84 2168.27,1685.94 2213.27,1686.02 2258.27,1686.08 2303.26,1686.14 2348.26,1686.18 2393.26,1686.21 2438.26,1686.24 2483.26,1686.27 2528.26,1686.29 2573.26,1686.3 "/>
<path clip-path="url(#clip000)" d="M2101.19 258.993 L2561.26 258.993 L2561.26 103.473 L2101.19 103.473  Z" fill="#ffffff" fill-rule="evenodd" fill-opacity="1"/>
<polyline clip-path="url(#clip000)" style="stroke:#000000; stroke-linecap:round; stroke-linejoin:round; stroke-width:4; stroke-opacity:1; fill:none" points="2101.19,258.993 2561.26,258.993 2561.26,103.473 2101.19,103.473 2101.19,258.993 "/>
<polyline clip-path="url(#clip000)" style="stroke:#009af9; stroke-linecap:round; stroke-linejoin:round; stroke-width:4; stroke-opacity:1; fill:none" points="2127.69,155.313 2286.69,155.313 "/>
<path clip-path="url(#clip000)" d="M2313.19 138.033 L2317.86 138.033 L2317.86 168.658 L2334.69 168.658 L2334.69 172.593 L2313.19 172.593 L2313.19 138.033 Z" fill="#000000" fill-rule="nonzero" fill-opacity="1" /><path clip-path="url(#clip000)" d="M2360.75 158.565 L2360.75 160.649 L2341.17 160.649 Q2341.45 165.047 2343.81 167.362 Q2346.19 169.653 2350.43 169.653 Q2352.88 169.653 2355.18 169.052 Q2357.49 168.45 2359.76 167.246 L2359.76 171.274 Q2357.47 172.246 2355.06 172.755 Q2352.65 173.264 2350.18 173.264 Q2343.97 173.264 2340.34 169.653 Q2336.73 166.042 2336.73 159.885 Q2336.73 153.519 2340.15 149.792 Q2343.6 146.042 2349.44 146.042 Q2354.67 146.042 2357.7 149.422 Q2360.75 152.778 2360.75 158.565 M2356.5 157.315 Q2356.45 153.82 2354.53 151.737 Q2352.63 149.653 2349.48 149.653 Q2345.92 149.653 2343.76 151.667 Q2341.63 153.681 2341.31 157.339 L2356.5 157.315 Z" fill="#000000" fill-rule="nonzero" fill-opacity="1" /><path clip-path="url(#clip000)" d="M2379.53 159.561 Q2374.37 159.561 2372.38 160.741 Q2370.38 161.922 2370.38 164.769 Q2370.38 167.038 2371.87 168.38 Q2373.37 169.7 2375.94 169.7 Q2379.48 169.7 2381.61 167.2 Q2383.76 164.677 2383.76 160.51 L2383.76 159.561 L2379.53 159.561 M2388.02 157.802 L2388.02 172.593 L2383.76 172.593 L2383.76 168.658 Q2382.31 171.019 2380.13 172.153 Q2377.95 173.264 2374.81 173.264 Q2370.82 173.264 2368.46 171.042 Q2366.13 168.797 2366.13 165.047 Q2366.13 160.672 2369.04 158.45 Q2371.98 156.228 2377.79 156.228 L2383.76 156.228 L2383.76 155.811 Q2383.76 152.871 2381.82 151.274 Q2379.9 149.653 2376.4 149.653 Q2374.18 149.653 2372.07 150.186 Q2369.97 150.718 2368.02 151.783 L2368.02 147.848 Q2370.36 146.945 2372.56 146.505 Q2374.76 146.042 2376.84 146.042 Q2382.47 146.042 2385.25 148.959 Q2388.02 151.876 2388.02 157.802 Z" fill="#000000" fill-rule="nonzero" fill-opacity="1" /><path clip-path="url(#clip000)" d="M2409.92 136.575 L2409.92 140.117 L2405.85 140.117 Q2403.56 140.117 2402.65 141.042 Q2401.77 141.968 2401.77 144.376 L2401.77 146.667 L2408.79 146.667 L2408.79 149.978 L2401.77 149.978 L2401.77 172.593 L2397.49 172.593 L2397.49 149.978 L2393.42 149.978 L2393.42 146.667 L2397.49 146.667 L2397.49 144.862 Q2397.49 140.533 2399.5 138.566 Q2401.52 136.575 2405.89 136.575 L2409.92 136.575 Z" fill="#000000" fill-rule="nonzero" fill-opacity="1" /><polyline clip-path="url(#clip000)" style="stroke:#e26f46; stroke-linecap:round; stroke-linejoin:round; stroke-width:4; stroke-opacity:1; fill:none" points="2127.69,207.153 2286.69,207.153 "/>
<path clip-path="url(#clip000)" d="M2313.19 189.873 L2317.86 189.873 L2317.86 224.433 L2313.19 224.433 L2313.19 189.873 Z" fill="#000000" fill-rule="nonzero" fill-opacity="1" /><path clip-path="url(#clip000)" d="M2348.53 208.785 L2348.53 224.433 L2344.27 224.433 L2344.27 208.924 Q2344.27 205.243 2342.84 203.415 Q2341.4 201.586 2338.53 201.586 Q2335.08 201.586 2333.09 203.785 Q2331.1 205.984 2331.1 209.78 L2331.1 224.433 L2326.82 224.433 L2326.82 198.507 L2331.1 198.507 L2331.1 202.535 Q2332.63 200.197 2334.69 199.04 Q2336.77 197.882 2339.48 197.882 Q2343.95 197.882 2346.24 200.66 Q2348.53 203.415 2348.53 208.785 Z" fill="#000000" fill-rule="nonzero" fill-opacity="1" /><path clip-path="url(#clip000)" d="M2361.24 191.146 L2361.24 198.507 L2370.01 198.507 L2370.01 201.818 L2361.24 201.818 L2361.24 215.892 Q2361.24 219.063 2362.1 219.966 Q2362.98 220.868 2365.64 220.868 L2370.01 220.868 L2370.01 224.433 L2365.64 224.433 Q2360.71 224.433 2358.83 222.604 Q2356.96 220.753 2356.96 215.892 L2356.96 201.818 L2353.83 201.818 L2353.83 198.507 L2356.96 198.507 L2356.96 191.146 L2361.24 191.146 Z" fill="#000000" fill-rule="nonzero" fill-opacity="1" /><path clip-path="url(#clip000)" d="M2397.79 210.405 L2397.79 212.489 L2378.21 212.489 Q2378.49 216.887 2380.85 219.202 Q2383.23 221.493 2387.47 221.493 Q2389.92 221.493 2392.21 220.892 Q2394.53 220.29 2396.8 219.086 L2396.8 223.114 Q2394.5 224.086 2392.1 224.595 Q2389.69 225.104 2387.21 225.104 Q2381.01 225.104 2377.38 221.493 Q2373.76 217.882 2373.76 211.725 Q2373.76 205.359 2377.19 201.632 Q2380.64 197.882 2386.47 197.882 Q2391.7 197.882 2394.74 201.262 Q2397.79 204.618 2397.79 210.405 M2393.53 209.155 Q2393.49 205.66 2391.56 203.577 Q2389.67 201.493 2386.52 201.493 Q2382.95 201.493 2380.8 203.507 Q2378.67 205.521 2378.35 209.179 L2393.53 209.155 Z" fill="#000000" fill-rule="nonzero" fill-opacity="1" /><path clip-path="url(#clip000)" d="M2419.81 202.489 Q2419.09 202.072 2418.23 201.887 Q2417.4 201.679 2416.38 201.679 Q2412.77 201.679 2410.82 204.04 Q2408.9 206.378 2408.9 210.776 L2408.9 224.433 L2404.62 224.433 L2404.62 198.507 L2408.9 198.507 L2408.9 202.535 Q2410.25 200.174 2412.4 199.04 Q2414.55 197.882 2417.63 197.882 Q2418.07 197.882 2418.6 197.952 Q2419.13 197.998 2419.78 198.114 L2419.81 202.489 Z" fill="#000000" fill-rule="nonzero" fill-opacity="1" /><path clip-path="url(#clip000)" d="M2444.99 208.785 L2444.99 224.433 L2440.73 224.433 L2440.73 208.924 Q2440.73 205.243 2439.3 203.415 Q2437.86 201.586 2434.99 201.586 Q2431.54 201.586 2429.55 203.785 Q2427.56 205.984 2427.56 209.78 L2427.56 224.433 L2423.28 224.433 L2423.28 198.507 L2427.56 198.507 L2427.56 202.535 Q2429.09 200.197 2431.15 199.04 Q2433.23 197.882 2435.94 197.882 Q2440.41 197.882 2442.7 200.66 Q2444.99 203.415 2444.99 208.785 Z" fill="#000000" fill-rule="nonzero" fill-opacity="1" /><path clip-path="url(#clip000)" d="M2463.53 201.493 Q2460.11 201.493 2458.12 204.179 Q2456.12 206.841 2456.12 211.493 Q2456.12 216.146 2458.09 218.831 Q2460.08 221.493 2463.53 221.493 Q2466.93 221.493 2468.93 218.808 Q2470.92 216.123 2470.92 211.493 Q2470.92 206.887 2468.93 204.202 Q2466.93 201.493 2463.53 201.493 M2463.53 197.882 Q2469.09 197.882 2472.26 201.493 Q2475.43 205.105 2475.43 211.493 Q2475.43 217.859 2472.26 221.493 Q2469.09 225.104 2463.53 225.104 Q2457.95 225.104 2454.78 221.493 Q2451.63 217.859 2451.63 211.493 Q2451.63 205.105 2454.78 201.493 Q2457.95 197.882 2463.53 197.882 Z" fill="#000000" fill-rule="nonzero" fill-opacity="1" /><path clip-path="url(#clip000)" d="M2499.55 202.443 L2499.55 188.415 L2503.81 188.415 L2503.81 224.433 L2499.55 224.433 L2499.55 220.544 Q2498.21 222.859 2496.15 223.993 Q2494.11 225.104 2491.24 225.104 Q2486.54 225.104 2483.58 221.355 Q2480.64 217.605 2480.64 211.493 Q2480.64 205.382 2483.58 201.632 Q2486.54 197.882 2491.24 197.882 Q2494.11 197.882 2496.15 199.017 Q2498.21 200.128 2499.55 202.443 M2485.04 211.493 Q2485.04 216.192 2486.96 218.878 Q2488.9 221.54 2492.28 221.54 Q2495.66 221.54 2497.61 218.878 Q2499.55 216.192 2499.55 211.493 Q2499.55 206.794 2497.61 204.132 Q2495.66 201.447 2492.28 201.447 Q2488.9 201.447 2486.96 204.132 Q2485.04 206.794 2485.04 211.493 Z" fill="#000000" fill-rule="nonzero" fill-opacity="1" /><path clip-path="url(#clip000)" d="M2534.76 210.405 L2534.76 212.489 L2515.18 212.489 Q2515.45 216.887 2517.81 219.202 Q2520.2 221.493 2524.43 221.493 Q2526.89 221.493 2529.18 220.892 Q2531.49 220.29 2533.76 219.086 L2533.76 223.114 Q2531.47 224.086 2529.06 224.595 Q2526.66 225.104 2524.18 225.104 Q2517.98 225.104 2514.34 221.493 Q2510.73 217.882 2510.73 211.725 Q2510.73 205.359 2514.16 201.632 Q2517.61 197.882 2523.44 197.882 Q2528.67 197.882 2531.7 201.262 Q2534.76 204.618 2534.76 210.405 M2530.5 209.155 Q2530.45 205.66 2528.53 203.577 Q2526.63 201.493 2523.49 201.493 Q2519.92 201.493 2517.77 203.507 Q2515.64 205.521 2515.31 209.179 L2530.5 209.155 Z" fill="#000000" fill-rule="nonzero" fill-opacity="1" /></svg>
