<?xml version="1.0" encoding="utf-8"?>
<svg xmlns="http://www.w3.org/2000/svg" xmlns:xlink="http://www.w3.org/1999/xlink" width="672" height="480" viewBox="0 0 2688 1920">
<defs>
  <clipPath id="clip410">
    <rect x="0" y="0" width="2688" height="1920"/>
  </clipPath>
</defs>
<path clip-path="url(#clip410)" d="M0 1920 L2688 1920 L2688 0 L0 0  Z" fill="#ffffff" fill-rule="evenodd" fill-opacity="1"/>
<defs>
  <clipPath id="clip411">
    <rect x="537" y="0" width="1883" height="1883"/>
  </clipPath>
</defs>
<path clip-path="url(#clip410)" d="M144.733 1800.78 L2640.76 1800.78 L2640.76 47.2441 L144.733 47.2441  Z" fill="#ffffff" fill-rule="evenodd" fill-opacity="1"/>
<defs>
  <clipPath id="clip412">
    <rect x="144" y="47" width="2497" height="1755"/>
  </clipPath>
</defs>
<polyline clip-path="url(#clip412)" style="stroke:#000000; stroke-linecap:round; stroke-linejoin:round; stroke-width:2; stroke-opacity:0.1; fill:none" points="282.019,1800.78 282.019,47.2441 "/>
<polyline clip-path="url(#clip412)" style="stroke:#000000; stroke-linecap:round; stroke-linejoin:round; stroke-width:2; stroke-opacity:0.1; fill:none" points="726.309,1800.78 726.309,47.2441 "/>
<polyline clip-path="url(#clip412)" style="stroke:#000000; stroke-linecap:round; stroke-linejoin:round; stroke-width:2; stroke-opacity:0.1; fill:none" points="1170.6,1800.78 1170.6,47.2441 "/>
<polyline clip-path="url(#clip412)" style="stroke:#000000; stroke-linecap:round; stroke-linejoin:round; stroke-width:2; stroke-opacity:0.1; fill:none" points="1614.89,1800.78 1614.89,47.2441 "/>
<polyline clip-path="url(#clip412)" style="stroke:#000000; stroke-linecap:round; stroke-linejoin:round; stroke-width:2; stroke-opacity:0.1; fill:none" points="2059.18,1800.78 2059.18,47.2441 "/>
<polyline clip-path="url(#clip412)" style="stroke:#000000; stroke-linecap:round; stroke-linejoin:round; stroke-width:2; stroke-opacity:0.1; fill:none" points="2503.47,1800.78 2503.47,47.2441 "/>
<polyline clip-path="url(#clip410)" style="stroke:#000000; stroke-linecap:round; stroke-linejoin:round; stroke-width:4; stroke-opacity:1; fill:none" points="144.733,1800.78 2640.76,1800.78 "/>
<polyline clip-path="url(#clip410)" style="stroke:#000000; stroke-linecap:round; stroke-linejoin:round; stroke-width:4; stroke-opacity:1; fill:none" points="282.019,1800.78 282.019,1781.88 "/>
<polyline clip-path="url(#clip410)" style="stroke:#000000; stroke-linecap:round; stroke-linejoin:round; stroke-width:4; stroke-opacity:1; fill:none" points="726.309,1800.78 726.309,1781.88 "/>
<polyline clip-path="url(#clip410)" style="stroke:#000000; stroke-linecap:round; stroke-linejoin:round; stroke-width:4; stroke-opacity:1; fill:none" points="1170.6,1800.78 1170.6,1781.88 "/>
<polyline clip-path="url(#clip410)" style="stroke:#000000; stroke-linecap:round; stroke-linejoin:round; stroke-width:4; stroke-opacity:1; fill:none" points="1614.89,1800.78 1614.89,1781.88 "/>
<polyline clip-path="url(#clip410)" style="stroke:#000000; stroke-linecap:round; stroke-linejoin:round; stroke-width:4; stroke-opacity:1; fill:none" points="2059.18,1800.78 2059.18,1781.88 "/>
<polyline clip-path="url(#clip410)" style="stroke:#000000; stroke-linecap:round; stroke-linejoin:round; stroke-width:4; stroke-opacity:1; fill:none" points="2503.47,1800.78 2503.47,1781.88 "/>
<path clip-path="url(#clip410)" d="M244.82 1834 Q241.209 1834 239.38 1837.57 Q237.574 1841.11 237.574 1848.24 Q237.574 1855.34 239.38 1858.91 Q241.209 1862.45 244.82 1862.45 Q248.454 1862.45 250.26 1858.91 Q252.088 1855.34 252.088 1848.24 Q252.088 1841.11 250.26 1837.57 Q248.454 1834 244.82 1834 M244.82 1830.3 Q250.63 1830.3 253.685 1834.9 Q256.764 1839.49 256.764 1848.24 Q256.764 1856.96 253.685 1861.57 Q250.63 1866.15 244.82 1866.15 Q239.01 1866.15 235.931 1861.57 Q232.875 1856.96 232.875 1848.24 Q232.875 1839.49 235.931 1834.9 Q239.01 1830.3 244.82 1830.3 Z" fill="#000000" fill-rule="nonzero" fill-opacity="1" /><path clip-path="url(#clip410)" d="M264.982 1859.6 L269.866 1859.6 L269.866 1865.48 L264.982 1865.48 L264.982 1859.6 Z" fill="#000000" fill-rule="nonzero" fill-opacity="1" /><path clip-path="url(#clip410)" d="M290.051 1834 Q286.44 1834 284.611 1837.57 Q282.806 1841.11 282.806 1848.24 Q282.806 1855.34 284.611 1858.91 Q286.44 1862.45 290.051 1862.45 Q293.685 1862.45 295.491 1858.91 Q297.319 1855.34 297.319 1848.24 Q297.319 1841.11 295.491 1837.57 Q293.685 1834 290.051 1834 M290.051 1830.3 Q295.861 1830.3 298.917 1834.9 Q301.995 1839.49 301.995 1848.24 Q301.995 1856.96 298.917 1861.57 Q295.861 1866.15 290.051 1866.15 Q284.241 1866.15 281.162 1861.57 Q278.107 1856.96 278.107 1848.24 Q278.107 1839.49 281.162 1834.9 Q284.241 1830.3 290.051 1830.3 Z" fill="#000000" fill-rule="nonzero" fill-opacity="1" /><path clip-path="url(#clip410)" d="M310.259 1830.92 L328.616 1830.92 L328.616 1834.86 L314.542 1834.86 L314.542 1843.33 Q315.56 1842.98 316.579 1842.82 Q317.597 1842.64 318.616 1842.64 Q324.403 1842.64 327.782 1845.81 Q331.162 1848.98 331.162 1854.4 Q331.162 1859.97 327.69 1863.08 Q324.217 1866.15 317.898 1866.15 Q315.722 1866.15 313.454 1865.78 Q311.208 1865.41 308.801 1864.67 L308.801 1859.97 Q310.884 1861.11 313.106 1861.66 Q315.329 1862.22 317.805 1862.22 Q321.81 1862.22 324.148 1860.11 Q326.486 1858.01 326.486 1854.4 Q326.486 1850.78 324.148 1848.68 Q321.81 1846.57 317.805 1846.57 Q315.931 1846.57 314.056 1846.99 Q312.204 1847.4 310.259 1848.28 L310.259 1830.92 Z" fill="#000000" fill-rule="nonzero" fill-opacity="1" /><path clip-path="url(#clip410)" d="M688.612 1834 Q685.001 1834 683.173 1837.57 Q681.367 1841.11 681.367 1848.24 Q681.367 1855.34 683.173 1858.91 Q685.001 1862.45 688.612 1862.45 Q692.247 1862.45 694.052 1858.91 Q695.881 1855.34 695.881 1848.24 Q695.881 1841.11 694.052 1837.57 Q692.247 1834 688.612 1834 M688.612 1830.3 Q694.423 1830.3 697.478 1834.9 Q700.557 1839.49 700.557 1848.24 Q700.557 1856.96 697.478 1861.57 Q694.423 1866.15 688.612 1866.15 Q682.802 1866.15 679.724 1861.57 Q676.668 1856.96 676.668 1848.24 Q676.668 1839.49 679.724 1834.9 Q682.802 1830.3 688.612 1830.3 Z" fill="#000000" fill-rule="nonzero" fill-opacity="1" /><path clip-path="url(#clip410)" d="M708.774 1859.6 L713.659 1859.6 L713.659 1865.48 L708.774 1865.48 L708.774 1859.6 Z" fill="#000000" fill-rule="nonzero" fill-opacity="1" /><path clip-path="url(#clip410)" d="M724.654 1861.55 L732.293 1861.55 L732.293 1835.18 L723.983 1836.85 L723.983 1832.59 L732.246 1830.92 L736.922 1830.92 L736.922 1861.55 L744.561 1861.55 L744.561 1865.48 L724.654 1865.48 L724.654 1861.55 Z" fill="#000000" fill-rule="nonzero" fill-opacity="1" /><path clip-path="url(#clip410)" d="M764.006 1834 Q760.394 1834 758.566 1837.57 Q756.76 1841.11 756.76 1848.24 Q756.76 1855.34 758.566 1858.91 Q760.394 1862.45 764.006 1862.45 Q767.64 1862.45 769.445 1858.91 Q771.274 1855.34 771.274 1848.24 Q771.274 1841.11 769.445 1837.57 Q767.64 1834 764.006 1834 M764.006 1830.3 Q769.816 1830.3 772.871 1834.9 Q775.95 1839.49 775.95 1848.24 Q775.95 1856.96 772.871 1861.57 Q769.816 1866.15 764.006 1866.15 Q758.195 1866.15 755.117 1861.57 Q752.061 1856.96 752.061 1848.24 Q752.061 1839.49 755.117 1834.9 Q758.195 1830.3 764.006 1830.3 Z" fill="#000000" fill-rule="nonzero" fill-opacity="1" /><path clip-path="url(#clip410)" d="M1133.4 1834 Q1129.79 1834 1127.96 1837.57 Q1126.16 1841.11 1126.16 1848.24 Q1126.16 1855.34 1127.96 1858.91 Q1129.79 1862.45 1133.4 1862.45 Q1137.03 1862.45 1138.84 1858.91 Q1140.67 1855.34 1140.67 1848.24 Q1140.67 1841.11 1138.84 1837.57 Q1137.03 1834 1133.4 1834 M1133.4 1830.3 Q1139.21 1830.3 1142.27 1834.9 Q1145.34 1839.49 1145.34 1848.24 Q1145.34 1856.96 1142.27 1861.57 Q1139.21 1866.15 1133.4 1866.15 Q1127.59 1866.15 1124.51 1861.57 Q1121.46 1856.96 1121.46 1848.24 Q1121.46 1839.49 1124.51 1834.9 Q1127.59 1830.3 1133.4 1830.3 Z" fill="#000000" fill-rule="nonzero" fill-opacity="1" /><path clip-path="url(#clip410)" d="M1153.56 1859.6 L1158.45 1859.6 L1158.45 1865.48 L1153.56 1865.48 L1153.56 1859.6 Z" fill="#000000" fill-rule="nonzero" fill-opacity="1" /><path clip-path="url(#clip410)" d="M1169.44 1861.55 L1177.08 1861.55 L1177.08 1835.18 L1168.77 1836.85 L1168.77 1832.59 L1177.03 1830.92 L1181.71 1830.92 L1181.71 1861.55 L1189.35 1861.55 L1189.35 1865.48 L1169.44 1865.48 L1169.44 1861.55 Z" fill="#000000" fill-rule="nonzero" fill-opacity="1" /><path clip-path="url(#clip410)" d="M1198.84 1830.92 L1217.2 1830.92 L1217.2 1834.86 L1203.12 1834.86 L1203.12 1843.33 Q1204.14 1842.98 1205.16 1842.82 Q1206.18 1842.64 1207.2 1842.64 Q1212.98 1842.64 1216.36 1845.81 Q1219.74 1848.98 1219.74 1854.4 Q1219.74 1859.97 1216.27 1863.08 Q1212.8 1866.15 1206.48 1866.15 Q1204.3 1866.15 1202.03 1865.78 Q1199.79 1865.41 1197.38 1864.67 L1197.38 1859.97 Q1199.46 1861.11 1201.69 1861.66 Q1203.91 1862.22 1206.39 1862.22 Q1210.39 1862.22 1212.73 1860.11 Q1215.07 1858.01 1215.07 1854.4 Q1215.07 1850.78 1212.73 1848.68 Q1210.39 1846.57 1206.39 1846.57 Q1204.51 1846.57 1202.64 1846.99 Q1200.78 1847.4 1198.84 1848.28 L1198.84 1830.92 Z" fill="#000000" fill-rule="nonzero" fill-opacity="1" /><path clip-path="url(#clip410)" d="M1577.19 1834 Q1573.58 1834 1571.75 1837.57 Q1569.95 1841.11 1569.95 1848.24 Q1569.95 1855.34 1571.75 1858.91 Q1573.58 1862.45 1577.19 1862.45 Q1580.83 1862.45 1582.63 1858.91 Q1584.46 1855.34 1584.46 1848.24 Q1584.46 1841.11 1582.63 1837.57 Q1580.83 1834 1577.19 1834 M1577.19 1830.3 Q1583 1830.3 1586.06 1834.9 Q1589.14 1839.49 1589.14 1848.24 Q1589.14 1856.96 1586.06 1861.57 Q1583 1866.15 1577.19 1866.15 Q1571.38 1866.15 1568.3 1861.57 Q1565.25 1856.96 1565.25 1848.24 Q1565.25 1839.49 1568.3 1834.9 Q1571.38 1830.3 1577.19 1830.3 Z" fill="#000000" fill-rule="nonzero" fill-opacity="1" /><path clip-path="url(#clip410)" d="M1597.35 1859.6 L1602.24 1859.6 L1602.24 1865.48 L1597.35 1865.48 L1597.35 1859.6 Z" fill="#000000" fill-rule="nonzero" fill-opacity="1" /><path clip-path="url(#clip410)" d="M1616.45 1861.55 L1632.77 1861.55 L1632.77 1865.48 L1610.83 1865.48 L1610.83 1861.55 Q1613.49 1858.79 1618.07 1854.16 Q1622.68 1849.51 1623.86 1848.17 Q1626.1 1845.65 1626.98 1843.91 Q1627.89 1842.15 1627.89 1840.46 Q1627.89 1837.71 1625.94 1835.97 Q1624.02 1834.23 1620.92 1834.23 Q1618.72 1834.23 1616.27 1835 Q1613.84 1835.76 1611.06 1837.31 L1611.06 1832.59 Q1613.88 1831.46 1616.34 1830.88 Q1618.79 1830.3 1620.83 1830.3 Q1626.2 1830.3 1629.39 1832.98 Q1632.59 1835.67 1632.59 1840.16 Q1632.59 1842.29 1631.78 1844.21 Q1630.99 1846.11 1628.88 1848.7 Q1628.3 1849.37 1625.2 1852.59 Q1622.1 1855.78 1616.45 1861.55 Z" fill="#000000" fill-rule="nonzero" fill-opacity="1" /><path clip-path="url(#clip410)" d="M1652.59 1834 Q1648.98 1834 1647.15 1837.57 Q1645.34 1841.11 1645.34 1848.24 Q1645.34 1855.34 1647.15 1858.91 Q1648.98 1862.45 1652.59 1862.45 Q1656.22 1862.45 1658.03 1858.91 Q1659.85 1855.34 1659.85 1848.24 Q1659.85 1841.11 1658.03 1837.57 Q1656.22 1834 1652.59 1834 M1652.59 1830.3 Q1658.4 1830.3 1661.45 1834.9 Q1664.53 1839.49 1664.53 1848.24 Q1664.53 1856.96 1661.45 1861.57 Q1658.4 1866.15 1652.59 1866.15 Q1646.78 1866.15 1643.7 1861.57 Q1640.64 1856.96 1640.64 1848.24 Q1640.64 1839.49 1643.7 1834.9 Q1646.78 1830.3 1652.59 1830.3 Z" fill="#000000" fill-rule="nonzero" fill-opacity="1" /><path clip-path="url(#clip410)" d="M2021.98 1834 Q2018.37 1834 2016.54 1837.57 Q2014.74 1841.11 2014.74 1848.24 Q2014.74 1855.34 2016.54 1858.91 Q2018.37 1862.45 2021.98 1862.45 Q2025.62 1862.45 2027.42 1858.91 Q2029.25 1855.34 2029.25 1848.24 Q2029.25 1841.11 2027.42 1837.57 Q2025.62 1834 2021.98 1834 M2021.98 1830.3 Q2027.79 1830.3 2030.85 1834.9 Q2033.93 1839.49 2033.93 1848.24 Q2033.93 1856.96 2030.85 1861.57 Q2027.79 1866.15 2021.98 1866.15 Q2016.17 1866.15 2013.09 1861.57 Q2010.04 1856.96 2010.04 1848.24 Q2010.04 1839.49 2013.09 1834.9 Q2016.17 1830.3 2021.98 1830.3 Z" fill="#000000" fill-rule="nonzero" fill-opacity="1" /><path clip-path="url(#clip410)" d="M2042.14 1859.6 L2047.03 1859.6 L2047.03 1865.48 L2042.14 1865.48 L2042.14 1859.6 Z" fill="#000000" fill-rule="nonzero" fill-opacity="1" /><path clip-path="url(#clip410)" d="M2061.24 1861.55 L2077.56 1861.55 L2077.56 1865.48 L2055.62 1865.48 L2055.62 1861.55 Q2058.28 1858.79 2062.86 1854.16 Q2067.47 1849.51 2068.65 1848.17 Q2070.89 1845.65 2071.77 1843.91 Q2072.68 1842.15 2072.68 1840.46 Q2072.68 1837.71 2070.73 1835.97 Q2068.81 1834.23 2065.71 1834.23 Q2063.51 1834.23 2061.05 1835 Q2058.62 1835.76 2055.85 1837.31 L2055.85 1832.59 Q2058.67 1831.46 2061.12 1830.88 Q2063.58 1830.3 2065.62 1830.3 Q2070.99 1830.3 2074.18 1832.98 Q2077.37 1835.67 2077.37 1840.16 Q2077.37 1842.29 2076.56 1844.21 Q2075.78 1846.11 2073.67 1848.7 Q2073.09 1849.37 2069.99 1852.59 Q2066.89 1855.78 2061.24 1861.55 Z" fill="#000000" fill-rule="nonzero" fill-opacity="1" /><path clip-path="url(#clip410)" d="M2087.42 1830.92 L2105.78 1830.92 L2105.78 1834.86 L2091.7 1834.86 L2091.7 1843.33 Q2092.72 1842.98 2093.74 1842.82 Q2094.76 1842.64 2095.78 1842.64 Q2101.56 1842.64 2104.94 1845.81 Q2108.32 1848.98 2108.32 1854.4 Q2108.32 1859.97 2104.85 1863.08 Q2101.38 1866.15 2095.06 1866.15 Q2092.88 1866.15 2090.61 1865.78 Q2088.37 1865.41 2085.96 1864.67 L2085.96 1859.97 Q2088.05 1861.11 2090.27 1861.66 Q2092.49 1862.22 2094.97 1862.22 Q2098.97 1862.22 2101.31 1860.11 Q2103.65 1858.01 2103.65 1854.4 Q2103.65 1850.78 2101.31 1848.68 Q2098.97 1846.57 2094.97 1846.57 Q2093.09 1846.57 2091.22 1846.99 Q2089.36 1847.4 2087.42 1848.28 L2087.42 1830.92 Z" fill="#000000" fill-rule="nonzero" fill-opacity="1" /><path clip-path="url(#clip410)" d="M2465.77 1834 Q2462.16 1834 2460.33 1837.57 Q2458.53 1841.11 2458.53 1848.24 Q2458.53 1855.34 2460.33 1858.91 Q2462.16 1862.45 2465.77 1862.45 Q2469.41 1862.45 2471.21 1858.91 Q2473.04 1855.34 2473.04 1848.24 Q2473.04 1841.11 2471.21 1837.57 Q2469.41 1834 2465.77 1834 M2465.77 1830.3 Q2471.58 1830.3 2474.64 1834.9 Q2477.72 1839.49 2477.72 1848.24 Q2477.72 1856.96 2474.64 1861.57 Q2471.58 1866.15 2465.77 1866.15 Q2459.96 1866.15 2456.88 1861.57 Q2453.83 1856.96 2453.83 1848.24 Q2453.83 1839.49 2456.88 1834.9 Q2459.96 1830.3 2465.77 1830.3 Z" fill="#000000" fill-rule="nonzero" fill-opacity="1" /><path clip-path="url(#clip410)" d="M2485.94 1859.6 L2490.82 1859.6 L2490.82 1865.48 L2485.94 1865.48 L2485.94 1859.6 Z" fill="#000000" fill-rule="nonzero" fill-opacity="1" /><path clip-path="url(#clip410)" d="M2515.17 1846.85 Q2518.53 1847.57 2520.4 1849.84 Q2522.3 1852.1 2522.3 1855.44 Q2522.3 1860.55 2518.78 1863.35 Q2515.26 1866.15 2508.78 1866.15 Q2506.61 1866.15 2504.29 1865.71 Q2502 1865.3 2499.55 1864.44 L2499.55 1859.93 Q2501.49 1861.06 2503.81 1861.64 Q2506.12 1862.22 2508.64 1862.22 Q2513.04 1862.22 2515.33 1860.48 Q2517.65 1858.75 2517.65 1855.44 Q2517.65 1852.38 2515.5 1850.67 Q2513.37 1848.93 2509.55 1848.93 L2505.52 1848.93 L2505.52 1845.09 L2509.73 1845.09 Q2513.18 1845.09 2515.01 1843.72 Q2516.84 1842.34 2516.84 1839.74 Q2516.84 1837.08 2514.94 1835.67 Q2513.07 1834.23 2509.55 1834.23 Q2507.63 1834.23 2505.43 1834.65 Q2503.23 1835.07 2500.59 1835.95 L2500.59 1831.78 Q2503.25 1831.04 2505.57 1830.67 Q2507.9 1830.3 2509.96 1830.3 Q2515.29 1830.3 2518.39 1832.73 Q2521.49 1835.14 2521.49 1839.26 Q2521.49 1842.13 2519.85 1844.12 Q2518.2 1846.09 2515.17 1846.85 Z" fill="#000000" fill-rule="nonzero" fill-opacity="1" /><path clip-path="url(#clip410)" d="M2541.17 1834 Q2537.56 1834 2535.73 1837.57 Q2533.92 1841.11 2533.92 1848.24 Q2533.92 1855.34 2535.73 1858.91 Q2537.56 1862.45 2541.17 1862.45 Q2544.8 1862.45 2546.61 1858.91 Q2548.44 1855.34 2548.44 1848.24 Q2548.44 1841.11 2546.61 1837.57 Q2544.8 1834 2541.17 1834 M2541.17 1830.3 Q2546.98 1830.3 2550.03 1834.9 Q2553.11 1839.49 2553.11 1848.24 Q2553.11 1856.96 2550.03 1861.57 Q2546.98 1866.15 2541.17 1866.15 Q2535.36 1866.15 2532.28 1861.57 Q2529.22 1856.96 2529.22 1848.24 Q2529.22 1839.49 2532.28 1834.9 Q2535.36 1830.3 2541.17 1830.3 Z" fill="#000000" fill-rule="nonzero" fill-opacity="1" /><polyline clip-path="url(#clip412)" style="stroke:#000000; stroke-linecap:round; stroke-linejoin:round; stroke-width:2; stroke-opacity:0.1; fill:none" points="144.733,1751.15 2640.76,1751.15 "/>
<polyline clip-path="url(#clip412)" style="stroke:#000000; stroke-linecap:round; stroke-linejoin:round; stroke-width:2; stroke-opacity:0.1; fill:none" points="144.733,1406.51 2640.76,1406.51 "/>
<polyline clip-path="url(#clip412)" style="stroke:#000000; stroke-linecap:round; stroke-linejoin:round; stroke-width:2; stroke-opacity:0.1; fill:none" points="144.733,1061.87 2640.76,1061.87 "/>
<polyline clip-path="url(#clip412)" style="stroke:#000000; stroke-linecap:round; stroke-linejoin:round; stroke-width:2; stroke-opacity:0.1; fill:none" points="144.733,717.227 2640.76,717.227 "/>
<polyline clip-path="url(#clip412)" style="stroke:#000000; stroke-linecap:round; stroke-linejoin:round; stroke-width:2; stroke-opacity:0.1; fill:none" points="144.733,372.586 2640.76,372.586 "/>
<polyline clip-path="url(#clip410)" style="stroke:#000000; stroke-linecap:round; stroke-linejoin:round; stroke-width:4; stroke-opacity:1; fill:none" points="144.733,1800.78 144.733,47.2441 "/>
<polyline clip-path="url(#clip410)" style="stroke:#000000; stroke-linecap:round; stroke-linejoin:round; stroke-width:4; stroke-opacity:1; fill:none" points="144.733,1751.15 163.631,1751.15 "/>
<polyline clip-path="url(#clip410)" style="stroke:#000000; stroke-linecap:round; stroke-linejoin:round; stroke-width:4; stroke-opacity:1; fill:none" points="144.733,1406.51 163.631,1406.51 "/>
<polyline clip-path="url(#clip410)" style="stroke:#000000; stroke-linecap:round; stroke-linejoin:round; stroke-width:4; stroke-opacity:1; fill:none" points="144.733,1061.87 163.631,1061.87 "/>
<polyline clip-path="url(#clip410)" style="stroke:#000000; stroke-linecap:round; stroke-linejoin:round; stroke-width:4; stroke-opacity:1; fill:none" points="144.733,717.227 163.631,717.227 "/>
<polyline clip-path="url(#clip410)" style="stroke:#000000; stroke-linecap:round; stroke-linejoin:round; stroke-width:4; stroke-opacity:1; fill:none" points="144.733,372.586 163.631,372.586 "/>
<path clip-path="url(#clip410)" d="M92.4686 1736.95 Q88.8575 1736.95 87.0288 1740.51 Q85.2232 1744.06 85.2232 1751.19 Q85.2232 1758.29 87.0288 1761.86 Q88.8575 1765.4 92.4686 1765.4 Q96.1028 1765.4 97.9083 1761.86 Q99.737 1758.29 99.737 1751.19 Q99.737 1744.06 97.9083 1740.51 Q96.1028 1736.95 92.4686 1736.95 M92.4686 1733.25 Q98.2787 1733.25 101.334 1737.85 Q104.413 1742.44 104.413 1751.19 Q104.413 1759.91 101.334 1764.52 Q98.2787 1769.1 92.4686 1769.1 Q86.6584 1769.1 83.5797 1764.52 Q80.5242 1759.91 80.5242 1751.19 Q80.5242 1742.44 83.5797 1737.85 Q86.6584 1733.25 92.4686 1733.25 Z" fill="#000000" fill-rule="nonzero" fill-opacity="1" /><path clip-path="url(#clip410)" d="M53.1169 1419.85 L60.7558 1419.85 L60.7558 1393.49 L52.4456 1395.16 L52.4456 1390.9 L60.7095 1389.23 L65.3854 1389.23 L65.3854 1419.85 L73.0242 1419.85 L73.0242 1423.79 L53.1169 1423.79 L53.1169 1419.85 Z" fill="#000000" fill-rule="nonzero" fill-opacity="1" /><path clip-path="url(#clip410)" d="M92.4686 1392.31 Q88.8575 1392.31 87.0288 1395.87 Q85.2232 1399.41 85.2232 1406.54 Q85.2232 1413.65 87.0288 1417.22 Q88.8575 1420.76 92.4686 1420.76 Q96.1028 1420.76 97.9083 1417.22 Q99.737 1413.65 99.737 1406.54 Q99.737 1399.41 97.9083 1395.87 Q96.1028 1392.31 92.4686 1392.31 M92.4686 1388.6 Q98.2787 1388.6 101.334 1393.21 Q104.413 1397.79 104.413 1406.54 Q104.413 1415.27 101.334 1419.88 Q98.2787 1424.46 92.4686 1424.46 Q86.6584 1424.46 83.5797 1419.88 Q80.5242 1415.27 80.5242 1406.54 Q80.5242 1397.79 83.5797 1393.21 Q86.6584 1388.6 92.4686 1388.6 Z" fill="#000000" fill-rule="nonzero" fill-opacity="1" /><path clip-path="url(#clip410)" d="M56.3345 1075.21 L72.6539 1075.21 L72.6539 1079.15 L50.7095 1079.15 L50.7095 1075.21 Q53.3715 1072.46 57.9549 1067.83 Q62.5613 1063.18 63.7419 1061.83 Q65.9872 1059.31 66.8668 1057.57 Q67.7696 1055.82 67.7696 1054.13 Q67.7696 1051.37 65.8252 1049.63 Q63.9039 1047.9 60.8021 1047.9 Q58.603 1047.9 56.1493 1048.66 Q53.7188 1049.43 50.941 1050.98 L50.941 1046.25 Q53.7651 1045.12 56.2188 1044.54 Q58.6724 1043.96 60.7095 1043.96 Q66.0798 1043.96 69.2742 1046.65 Q72.4687 1049.33 72.4687 1053.82 Q72.4687 1055.95 71.6585 1057.88 Q70.8715 1059.77 68.765 1062.37 Q68.1863 1063.04 65.0845 1066.25 Q61.9826 1069.45 56.3345 1075.21 Z" fill="#000000" fill-rule="nonzero" fill-opacity="1" /><path clip-path="url(#clip410)" d="M92.4686 1047.67 Q88.8575 1047.67 87.0288 1051.23 Q85.2232 1054.77 85.2232 1061.9 Q85.2232 1069.01 87.0288 1072.57 Q88.8575 1076.12 92.4686 1076.12 Q96.1028 1076.12 97.9083 1072.57 Q99.737 1069.01 99.737 1061.9 Q99.737 1054.77 97.9083 1051.23 Q96.1028 1047.67 92.4686 1047.67 M92.4686 1043.96 Q98.2787 1043.96 101.334 1048.57 Q104.413 1053.15 104.413 1061.9 Q104.413 1070.63 101.334 1075.24 Q98.2787 1079.82 92.4686 1079.82 Q86.6584 1079.82 83.5797 1075.24 Q80.5242 1070.63 80.5242 1061.9 Q80.5242 1053.15 83.5797 1048.57 Q86.6584 1043.96 92.4686 1043.96 Z" fill="#000000" fill-rule="nonzero" fill-opacity="1" /><path clip-path="url(#clip410)" d="M66.4733 715.873 Q69.8298 716.59 71.7048 718.859 Q73.6029 721.127 73.6029 724.461 Q73.6029 729.576 70.0844 732.377 Q66.5659 735.178 60.0845 735.178 Q57.9086 735.178 55.5938 734.738 Q53.3021 734.322 50.8484 733.465 L50.8484 728.951 Q52.7928 730.086 55.1077 730.664 Q57.4225 731.243 59.9456 731.243 Q64.3437 731.243 66.6354 729.507 Q68.9502 727.771 68.9502 724.461 Q68.9502 721.405 66.7974 719.692 Q64.6678 717.956 60.8484 717.956 L56.8206 717.956 L56.8206 714.113 L61.0335 714.113 Q64.4826 714.113 66.3113 712.748 Q68.14 711.359 68.14 708.766 Q68.14 706.104 66.2419 704.692 Q64.3669 703.257 60.8484 703.257 Q58.9271 703.257 56.728 703.674 Q54.529 704.09 51.8901 704.97 L51.8901 700.803 Q54.5521 700.063 56.8669 699.692 Q59.2049 699.322 61.265 699.322 Q66.5891 699.322 69.6909 701.752 Q72.7927 704.16 72.7927 708.28 Q72.7927 711.151 71.1492 713.141 Q69.5057 715.109 66.4733 715.873 Z" fill="#000000" fill-rule="nonzero" fill-opacity="1" /><path clip-path="url(#clip410)" d="M92.4686 703.026 Q88.8575 703.026 87.0288 706.59 Q85.2232 710.132 85.2232 717.262 Q85.2232 724.368 87.0288 727.933 Q88.8575 731.474 92.4686 731.474 Q96.1028 731.474 97.9083 727.933 Q99.737 724.368 99.737 717.262 Q99.737 710.132 97.9083 706.59 Q96.1028 703.026 92.4686 703.026 M92.4686 699.322 Q98.2787 699.322 101.334 703.928 Q104.413 708.512 104.413 717.262 Q104.413 725.988 101.334 730.595 Q98.2787 735.178 92.4686 735.178 Q86.6584 735.178 83.5797 730.595 Q80.5242 725.988 80.5242 717.262 Q80.5242 708.512 83.5797 703.928 Q86.6584 699.322 92.4686 699.322 Z" fill="#000000" fill-rule="nonzero" fill-opacity="1" /><path clip-path="url(#clip410)" d="M65.1539 359.38 L53.3484 377.829 L65.1539 377.829 L65.1539 359.38 M63.927 355.306 L69.8066 355.306 L69.8066 377.829 L74.7372 377.829 L74.7372 381.717 L69.8066 381.717 L69.8066 389.866 L65.1539 389.866 L65.1539 381.717 L49.5521 381.717 L49.5521 377.204 L63.927 355.306 Z" fill="#000000" fill-rule="nonzero" fill-opacity="1" /><path clip-path="url(#clip410)" d="M92.4686 358.384 Q88.8575 358.384 87.0288 361.949 Q85.2232 365.491 85.2232 372.62 Q85.2232 379.727 87.0288 383.291 Q88.8575 386.833 92.4686 386.833 Q96.1028 386.833 97.9083 383.291 Q99.737 379.727 99.737 372.62 Q99.737 365.491 97.9083 361.949 Q96.1028 358.384 92.4686 358.384 M92.4686 354.681 Q98.2787 354.681 101.334 359.287 Q104.413 363.87 104.413 372.62 Q104.413 381.347 101.334 385.954 Q98.2787 390.537 92.4686 390.537 Q86.6584 390.537 83.5797 385.954 Q80.5242 381.347 80.5242 372.62 Q80.5242 363.87 83.5797 359.287 Q86.6584 354.681 92.4686 354.681 Z" fill="#000000" fill-rule="nonzero" fill-opacity="1" /><path clip-path="url(#clip412)" d="M282.019 1199.72 L282.019 1751.15 L726.309 1751.15 L726.309 1199.72 L282.019 1199.72 L282.019 1199.72  Z" fill="#009af9" fill-rule="evenodd" fill-opacity="1"/>
<polyline clip-path="url(#clip412)" style="stroke:#000000; stroke-linecap:round; stroke-linejoin:round; stroke-width:4; stroke-opacity:1; fill:none" points="282.019,1199.72 282.019,1751.15 726.309,1751.15 726.309,1199.72 282.019,1199.72 "/>
<path clip-path="url(#clip412)" d="M726.309 96.8724 L726.309 1751.15 L1170.6 1751.15 L1170.6 96.8724 L726.309 96.8724 L726.309 96.8724  Z" fill="#009af9" fill-rule="evenodd" fill-opacity="1"/>
<polyline clip-path="url(#clip412)" style="stroke:#000000; stroke-linecap:round; stroke-linejoin:round; stroke-width:4; stroke-opacity:1; fill:none" points="726.309,96.8724 726.309,1751.15 1170.6,1751.15 1170.6,96.8724 726.309,96.8724 "/>
<path clip-path="url(#clip412)" d="M1170.6 682.763 L1170.6 1751.15 L1614.89 1751.15 L1614.89 682.763 L1170.6 682.763 L1170.6 682.763  Z" fill="#009af9" fill-rule="evenodd" fill-opacity="1"/>
<polyline clip-path="url(#clip412)" style="stroke:#000000; stroke-linecap:round; stroke-linejoin:round; stroke-width:4; stroke-opacity:1; fill:none" points="1170.6,682.763 1170.6,1751.15 1614.89,1751.15 1614.89,682.763 1170.6,682.763 "/>
<path clip-path="url(#clip412)" d="M1614.89 1613.29 L1614.89 1751.15 L2059.18 1751.15 L2059.18 1613.29 L1614.89 1613.29 L1614.89 1613.29  Z" fill="#009af9" fill-rule="evenodd" fill-opacity="1"/>
<polyline clip-path="url(#clip412)" style="stroke:#000000; stroke-linecap:round; stroke-linejoin:round; stroke-width:4; stroke-opacity:1; fill:none" points="1614.89,1613.29 1614.89,1751.15 2059.18,1751.15 2059.18,1613.29 1614.89,1613.29 "/>
<path clip-path="url(#clip412)" d="M2059.18 1716.69 L2059.18 1751.15 L2503.47 1751.15 L2503.47 1716.69 L2059.18 1716.69 L2059.18 1716.69  Z" fill="#009af9" fill-rule="evenodd" fill-opacity="1"/>
<polyline clip-path="url(#clip412)" style="stroke:#000000; stroke-linecap:round; stroke-linejoin:round; stroke-width:4; stroke-opacity:1; fill:none" points="2059.18,1716.69 2059.18,1751.15 2503.47,1751.15 2503.47,1716.69 2059.18,1716.69 "/>
<circle clip-path="url(#clip412)" style="fill:#009af9; stroke:none; fill-opacity:0" cx="504.164" cy="1199.72" r="2"/>
<circle clip-path="url(#clip412)" style="fill:#009af9; stroke:none; fill-opacity:0" cx="948.454" cy="96.8724" r="2"/>
<circle clip-path="url(#clip412)" style="fill:#009af9; stroke:none; fill-opacity:0" cx="1392.74" cy="682.763" r="2"/>
<circle clip-path="url(#clip412)" style="fill:#009af9; stroke:none; fill-opacity:0" cx="1837.03" cy="1613.29" r="2"/>
<circle clip-path="url(#clip412)" style="fill:#009af9; stroke:none; fill-opacity:0" cx="2281.33" cy="1716.69" r="2"/>
<path clip-path="url(#clip410)" d="M2255.52 209.375 L2557.56 209.375 L2557.56 105.695 L2255.52 105.695  Z" fill="#ffffff" fill-rule="evenodd" fill-opacity="1"/>
<polyline clip-path="url(#clip410)" style="stroke:#000000; stroke-linecap:round; stroke-linejoin:round; stroke-width:4; stroke-opacity:1; fill:none" points="2255.52,209.375 2557.56,209.375 2557.56,105.695 2255.52,105.695 2255.52,209.375 "/>
<path clip-path="url(#clip410)" d="M2283.26 178.271 L2449.66 178.271 L2449.66 136.799 L2283.26 136.799 L2283.26 178.271  Z" fill="#009af9" fill-rule="evenodd" fill-opacity="1"/>
<polyline clip-path="url(#clip410)" style="stroke:#000000; stroke-linecap:round; stroke-linejoin:round; stroke-width:4; stroke-opacity:1; fill:none" points="2283.26,178.271 2449.66,178.271 2449.66,136.799 2283.26,136.799 2283.26,178.271 "/>
<path clip-path="url(#clip410)" d="M2491.23 177.223 Q2489.43 181.852 2487.72 183.264 Q2486 184.676 2483.13 184.676 L2479.73 184.676 L2479.73 181.112 L2482.23 181.112 Q2483.99 181.112 2484.96 180.278 Q2485.93 179.445 2487.11 176.343 L2487.88 174.399 L2477.39 148.889 L2481.91 148.889 L2490.01 169.167 L2498.11 148.889 L2502.62 148.889 L2491.23 177.223 Z" fill="#000000" fill-rule="nonzero" fill-opacity="1" /><path clip-path="url(#clip410)" d="M2509.91 170.88 L2517.55 170.88 L2517.55 144.515 L2509.24 146.181 L2509.24 141.922 L2517.51 140.255 L2522.18 140.255 L2522.18 170.88 L2529.82 170.88 L2529.82 174.815 L2509.91 174.815 L2509.91 170.88 Z" fill="#000000" fill-rule="nonzero" fill-opacity="1" /></svg>
