<?xml version="1.0" encoding="utf-8"?>
<svg xmlns="http://www.w3.org/2000/svg" xmlns:xlink="http://www.w3.org/1999/xlink" width="672" height="480" viewBox="0 0 2688 1920">
<defs>
  <clipPath id="clip220">
    <rect x="0" y="0" width="2688" height="1920"/>
  </clipPath>
</defs>
<path clip-path="url(#clip220)" d="M0 1920 L2688 1920 L2688 0 L0 0  Z" fill="#ffffff" fill-rule="evenodd" fill-opacity="1"/>
<defs>
  <clipPath id="clip221">
    <rect x="537" y="0" width="1883" height="1883"/>
  </clipPath>
</defs>
<path clip-path="url(#clip220)" d="M174.895 1800.78 L2640.76 1800.78 L2640.76 47.2441 L174.895 47.2441  Z" fill="#ffffff" fill-rule="evenodd" fill-opacity="1"/>
<defs>
  <clipPath id="clip222">
    <rect x="174" y="47" width="2467" height="1755"/>
  </clipPath>
</defs>
<polyline clip-path="url(#clip222)" style="stroke:#000000; stroke-linecap:round; stroke-linejoin:round; stroke-width:2; stroke-opacity:0.1; fill:none" points="599.286,1800.78 599.286,47.2441 "/>
<polyline clip-path="url(#clip222)" style="stroke:#000000; stroke-linecap:round; stroke-linejoin:round; stroke-width:2; stroke-opacity:0.1; fill:none" points="1176.81,1800.78 1176.81,47.2441 "/>
<polyline clip-path="url(#clip222)" style="stroke:#000000; stroke-linecap:round; stroke-linejoin:round; stroke-width:2; stroke-opacity:0.1; fill:none" points="1754.34,1800.78 1754.34,47.2441 "/>
<polyline clip-path="url(#clip222)" style="stroke:#000000; stroke-linecap:round; stroke-linejoin:round; stroke-width:2; stroke-opacity:0.1; fill:none" points="2331.87,1800.78 2331.87,47.2441 "/>
<polyline clip-path="url(#clip220)" style="stroke:#000000; stroke-linecap:round; stroke-linejoin:round; stroke-width:4; stroke-opacity:1; fill:none" points="174.895,1800.78 2640.76,1800.78 "/>
<polyline clip-path="url(#clip220)" style="stroke:#000000; stroke-linecap:round; stroke-linejoin:round; stroke-width:4; stroke-opacity:1; fill:none" points="599.286,1800.78 599.286,1781.88 "/>
<polyline clip-path="url(#clip220)" style="stroke:#000000; stroke-linecap:round; stroke-linejoin:round; stroke-width:4; stroke-opacity:1; fill:none" points="1176.81,1800.78 1176.81,1781.88 "/>
<polyline clip-path="url(#clip220)" style="stroke:#000000; stroke-linecap:round; stroke-linejoin:round; stroke-width:4; stroke-opacity:1; fill:none" points="1754.34,1800.78 1754.34,1781.88 "/>
<polyline clip-path="url(#clip220)" style="stroke:#000000; stroke-linecap:round; stroke-linejoin:round; stroke-width:4; stroke-opacity:1; fill:none" points="2331.87,1800.78 2331.87,1781.88 "/>
<path clip-path="url(#clip220)" d="M577.469 1834 Q573.858 1834 572.029 1837.57 Q570.223 1841.11 570.223 1848.24 Q570.223 1855.34 572.029 1858.91 Q573.858 1862.45 577.469 1862.45 Q581.103 1862.45 582.908 1858.91 Q584.737 1855.34 584.737 1848.24 Q584.737 1841.11 582.908 1837.57 Q581.103 1834 577.469 1834 M577.469 1830.3 Q583.279 1830.3 586.334 1834.9 Q589.413 1839.49 589.413 1848.24 Q589.413 1856.96 586.334 1861.57 Q583.279 1866.15 577.469 1866.15 Q571.659 1866.15 568.58 1861.57 Q565.524 1856.96 565.524 1848.24 Q565.524 1839.49 568.58 1834.9 Q571.659 1830.3 577.469 1830.3 Z" fill="#000000" fill-rule="evenodd" fill-opacity="1" /><path clip-path="url(#clip220)" d="M597.631 1859.6 L602.515 1859.6 L602.515 1865.48 L597.631 1865.48 L597.631 1859.6 Z" fill="#000000" fill-rule="evenodd" fill-opacity="1" /><path clip-path="url(#clip220)" d="M616.728 1861.55 L633.047 1861.55 L633.047 1865.48 L611.103 1865.48 L611.103 1861.55 Q613.765 1858.79 618.348 1854.16 Q622.955 1849.51 624.135 1848.17 Q626.38 1845.65 627.26 1843.91 Q628.163 1842.15 628.163 1840.46 Q628.163 1837.71 626.218 1835.97 Q624.297 1834.23 621.195 1834.23 Q618.996 1834.23 616.543 1835 Q614.112 1835.76 611.334 1837.31 L611.334 1832.59 Q614.158 1831.46 616.612 1830.88 Q619.066 1830.3 621.103 1830.3 Q626.473 1830.3 629.668 1832.98 Q632.862 1835.67 632.862 1840.16 Q632.862 1842.29 632.052 1844.21 Q631.265 1846.11 629.158 1848.7 Q628.58 1849.37 625.478 1852.59 Q622.376 1855.78 616.728 1861.55 Z" fill="#000000" fill-rule="evenodd" fill-opacity="1" /><path clip-path="url(#clip220)" d="M1153.96 1834 Q1150.34 1834 1148.52 1837.57 Q1146.71 1841.11 1146.71 1848.24 Q1146.71 1855.34 1148.52 1858.91 Q1150.34 1862.45 1153.96 1862.45 Q1157.59 1862.45 1159.4 1858.91 Q1161.22 1855.34 1161.22 1848.24 Q1161.22 1841.11 1159.4 1837.57 Q1157.59 1834 1153.96 1834 M1153.96 1830.3 Q1159.77 1830.3 1162.82 1834.9 Q1165.9 1839.49 1165.9 1848.24 Q1165.9 1856.96 1162.82 1861.57 Q1159.77 1866.15 1153.96 1866.15 Q1148.15 1866.15 1145.07 1861.57 Q1142.01 1856.96 1142.01 1848.24 Q1142.01 1839.49 1145.07 1834.9 Q1148.15 1830.3 1153.96 1830.3 Z" fill="#000000" fill-rule="evenodd" fill-opacity="1" /><path clip-path="url(#clip220)" d="M1174.12 1859.6 L1179 1859.6 L1179 1865.48 L1174.12 1865.48 L1174.12 1859.6 Z" fill="#000000" fill-rule="evenodd" fill-opacity="1" /><path clip-path="url(#clip220)" d="M1202.03 1835 L1190.23 1853.45 L1202.03 1853.45 L1202.03 1835 M1200.81 1830.92 L1206.69 1830.92 L1206.69 1853.45 L1211.62 1853.45 L1211.62 1857.34 L1206.69 1857.34 L1206.69 1865.48 L1202.03 1865.48 L1202.03 1857.34 L1186.43 1857.34 L1186.43 1852.82 L1200.81 1830.92 Z" fill="#000000" fill-rule="evenodd" fill-opacity="1" /><path clip-path="url(#clip220)" d="M1731.65 1834 Q1728.03 1834 1726.21 1837.57 Q1724.4 1841.11 1724.4 1848.24 Q1724.4 1855.34 1726.21 1858.91 Q1728.03 1862.45 1731.65 1862.45 Q1735.28 1862.45 1737.09 1858.91 Q1738.91 1855.34 1738.91 1848.24 Q1738.91 1841.11 1737.09 1837.57 Q1735.28 1834 1731.65 1834 M1731.65 1830.3 Q1737.46 1830.3 1740.51 1834.9 Q1743.59 1839.49 1743.59 1848.24 Q1743.59 1856.96 1740.51 1861.57 Q1737.46 1866.15 1731.65 1866.15 Q1725.84 1866.15 1722.76 1861.57 Q1719.7 1856.96 1719.7 1848.24 Q1719.7 1839.49 1722.76 1834.9 Q1725.84 1830.3 1731.65 1830.3 Z" fill="#000000" fill-rule="evenodd" fill-opacity="1" /><path clip-path="url(#clip220)" d="M1751.81 1859.6 L1756.69 1859.6 L1756.69 1865.48 L1751.81 1865.48 L1751.81 1859.6 Z" fill="#000000" fill-rule="evenodd" fill-opacity="1" /><path clip-path="url(#clip220)" d="M1777.46 1846.34 Q1774.31 1846.34 1772.46 1848.49 Q1770.63 1850.65 1770.63 1854.4 Q1770.63 1858.12 1772.46 1860.3 Q1774.31 1862.45 1777.46 1862.45 Q1780.6 1862.45 1782.43 1860.3 Q1784.28 1858.12 1784.28 1854.4 Q1784.28 1850.65 1782.43 1848.49 Q1780.6 1846.34 1777.46 1846.34 M1786.74 1831.69 L1786.74 1835.95 Q1784.98 1835.11 1783.17 1834.67 Q1781.39 1834.23 1779.63 1834.23 Q1775 1834.23 1772.55 1837.36 Q1770.12 1840.48 1769.77 1846.8 Q1771.14 1844.79 1773.2 1843.72 Q1775.26 1842.64 1777.73 1842.64 Q1782.94 1842.64 1785.95 1845.81 Q1788.98 1848.96 1788.98 1854.4 Q1788.98 1859.72 1785.84 1862.94 Q1782.69 1866.15 1777.46 1866.15 Q1771.46 1866.15 1768.29 1861.57 Q1765.12 1856.96 1765.12 1848.24 Q1765.12 1840.04 1769.01 1835.18 Q1772.9 1830.3 1779.45 1830.3 Q1781.21 1830.3 1782.99 1830.65 Q1784.79 1830.99 1786.74 1831.69 Z" fill="#000000" fill-rule="evenodd" fill-opacity="1" /><path clip-path="url(#clip220)" d="M2309.3 1834 Q2305.69 1834 2303.86 1837.57 Q2302.06 1841.11 2302.06 1848.24 Q2302.06 1855.34 2303.86 1858.91 Q2305.69 1862.45 2309.3 1862.45 Q2312.94 1862.45 2314.74 1858.91 Q2316.57 1855.34 2316.57 1848.24 Q2316.57 1841.11 2314.74 1837.57 Q2312.94 1834 2309.3 1834 M2309.3 1830.3 Q2315.11 1830.3 2318.17 1834.9 Q2321.25 1839.49 2321.25 1848.24 Q2321.25 1856.96 2318.17 1861.57 Q2315.11 1866.15 2309.3 1866.15 Q2303.49 1866.15 2300.41 1861.57 Q2297.36 1856.96 2297.36 1848.24 Q2297.36 1839.49 2300.41 1834.9 Q2303.49 1830.3 2309.3 1830.3 Z" fill="#000000" fill-rule="evenodd" fill-opacity="1" /><path clip-path="url(#clip220)" d="M2329.46 1859.6 L2334.35 1859.6 L2334.35 1865.48 L2329.46 1865.48 L2329.46 1859.6 Z" fill="#000000" fill-rule="evenodd" fill-opacity="1" /><path clip-path="url(#clip220)" d="M2354.53 1849.07 Q2351.2 1849.07 2349.28 1850.85 Q2347.38 1852.64 2347.38 1855.76 Q2347.38 1858.89 2349.28 1860.67 Q2351.2 1862.45 2354.53 1862.45 Q2357.87 1862.45 2359.79 1860.67 Q2361.71 1858.86 2361.71 1855.76 Q2361.71 1852.64 2359.79 1850.85 Q2357.89 1849.07 2354.53 1849.07 M2349.86 1847.08 Q2346.85 1846.34 2345.16 1844.28 Q2343.49 1842.22 2343.49 1839.26 Q2343.49 1835.11 2346.43 1832.71 Q2349.39 1830.3 2354.53 1830.3 Q2359.69 1830.3 2362.63 1832.71 Q2365.57 1835.11 2365.57 1839.26 Q2365.57 1842.22 2363.88 1844.28 Q2362.22 1846.34 2359.23 1847.08 Q2362.61 1847.87 2364.49 1850.16 Q2366.38 1852.45 2366.38 1855.76 Q2366.38 1860.78 2363.31 1863.47 Q2360.25 1866.15 2354.53 1866.15 Q2348.82 1866.15 2345.74 1863.47 Q2342.68 1860.78 2342.68 1855.76 Q2342.68 1852.45 2344.58 1850.16 Q2346.48 1847.87 2349.86 1847.08 M2348.14 1839.7 Q2348.14 1842.38 2349.81 1843.89 Q2351.5 1845.39 2354.53 1845.39 Q2357.54 1845.39 2359.23 1843.89 Q2360.94 1842.38 2360.94 1839.7 Q2360.94 1837.01 2359.23 1835.51 Q2357.54 1834 2354.53 1834 Q2351.5 1834 2349.81 1835.51 Q2348.14 1837.01 2348.14 1839.7 Z" fill="#000000" fill-rule="evenodd" fill-opacity="1" /><polyline clip-path="url(#clip222)" style="stroke:#000000; stroke-linecap:round; stroke-linejoin:round; stroke-width:2; stroke-opacity:0.1; fill:none" points="174.895,1751.15 2640.76,1751.15 "/>
<polyline clip-path="url(#clip222)" style="stroke:#000000; stroke-linecap:round; stroke-linejoin:round; stroke-width:2; stroke-opacity:0.1; fill:none" points="174.895,1336.02 2640.76,1336.02 "/>
<polyline clip-path="url(#clip222)" style="stroke:#000000; stroke-linecap:round; stroke-linejoin:round; stroke-width:2; stroke-opacity:0.1; fill:none" points="174.895,920.898 2640.76,920.898 "/>
<polyline clip-path="url(#clip222)" style="stroke:#000000; stroke-linecap:round; stroke-linejoin:round; stroke-width:2; stroke-opacity:0.1; fill:none" points="174.895,505.772 2640.76,505.772 "/>
<polyline clip-path="url(#clip222)" style="stroke:#000000; stroke-linecap:round; stroke-linejoin:round; stroke-width:2; stroke-opacity:0.1; fill:none" points="174.895,90.6456 2640.76,90.6456 "/>
<polyline clip-path="url(#clip220)" style="stroke:#000000; stroke-linecap:round; stroke-linejoin:round; stroke-width:4; stroke-opacity:1; fill:none" points="174.895,1800.78 174.895,47.2441 "/>
<polyline clip-path="url(#clip220)" style="stroke:#000000; stroke-linecap:round; stroke-linejoin:round; stroke-width:4; stroke-opacity:1; fill:none" points="174.895,1751.15 193.792,1751.15 "/>
<polyline clip-path="url(#clip220)" style="stroke:#000000; stroke-linecap:round; stroke-linejoin:round; stroke-width:4; stroke-opacity:1; fill:none" points="174.895,1336.02 193.792,1336.02 "/>
<polyline clip-path="url(#clip220)" style="stroke:#000000; stroke-linecap:round; stroke-linejoin:round; stroke-width:4; stroke-opacity:1; fill:none" points="174.895,920.898 193.792,920.898 "/>
<polyline clip-path="url(#clip220)" style="stroke:#000000; stroke-linecap:round; stroke-linejoin:round; stroke-width:4; stroke-opacity:1; fill:none" points="174.895,505.772 193.792,505.772 "/>
<polyline clip-path="url(#clip220)" style="stroke:#000000; stroke-linecap:round; stroke-linejoin:round; stroke-width:4; stroke-opacity:1; fill:none" points="174.895,90.6456 193.792,90.6456 "/>
<path clip-path="url(#clip220)" d="M122.63 1736.95 Q119.019 1736.95 117.191 1740.51 Q115.385 1744.06 115.385 1751.19 Q115.385 1758.29 117.191 1761.86 Q119.019 1765.4 122.63 1765.4 Q126.265 1765.4 128.07 1761.86 Q129.899 1758.29 129.899 1751.19 Q129.899 1744.06 128.07 1740.51 Q126.265 1736.95 122.63 1736.95 M122.63 1733.25 Q128.441 1733.25 131.496 1737.85 Q134.575 1742.44 134.575 1751.19 Q134.575 1759.91 131.496 1764.52 Q128.441 1769.1 122.63 1769.1 Q116.82 1769.1 113.742 1764.52 Q110.686 1759.91 110.686 1751.19 Q110.686 1742.44 113.742 1737.85 Q116.82 1733.25 122.63 1733.25 Z" fill="#000000" fill-rule="evenodd" fill-opacity="1" /><path clip-path="url(#clip220)" d="M56.3345 1349.37 L72.6539 1349.37 L72.6539 1353.3 L50.7095 1353.3 L50.7095 1349.37 Q53.3715 1346.61 57.9549 1341.99 Q62.5613 1337.33 63.7419 1335.99 Q65.9872 1333.47 66.8668 1331.73 Q67.7696 1329.97 67.7696 1328.28 Q67.7696 1325.53 65.8252 1323.79 Q63.9039 1322.05 60.8021 1322.05 Q58.603 1322.05 56.1493 1322.82 Q53.7188 1323.58 50.941 1325.13 L50.941 1320.41 Q53.7651 1319.28 56.2188 1318.7 Q58.6724 1318.12 60.7095 1318.12 Q66.0798 1318.12 69.2742 1320.8 Q72.4687 1323.49 72.4687 1327.98 Q72.4687 1330.11 71.6585 1332.03 Q70.8715 1333.93 68.765 1336.52 Q68.1863 1337.19 65.0845 1340.41 Q61.9826 1343.61 56.3345 1349.37 Z" fill="#000000" fill-rule="evenodd" fill-opacity="1" /><path clip-path="url(#clip220)" d="M92.4686 1321.82 Q88.8575 1321.82 87.0288 1325.39 Q85.2232 1328.93 85.2232 1336.06 Q85.2232 1343.17 87.0288 1346.73 Q88.8575 1350.27 92.4686 1350.27 Q96.1028 1350.27 97.9083 1346.73 Q99.737 1343.17 99.737 1336.06 Q99.737 1328.93 97.9083 1325.39 Q96.1028 1321.82 92.4686 1321.82 M92.4686 1318.12 Q98.2787 1318.12 101.334 1322.73 Q104.413 1327.31 104.413 1336.06 Q104.413 1344.79 101.334 1349.39 Q98.2787 1353.98 92.4686 1353.98 Q86.6584 1353.98 83.5797 1349.39 Q80.5242 1344.79 80.5242 1336.06 Q80.5242 1327.31 83.5797 1322.73 Q86.6584 1318.12 92.4686 1318.12 Z" fill="#000000" fill-rule="evenodd" fill-opacity="1" /><path clip-path="url(#clip220)" d="M122.63 1321.82 Q119.019 1321.82 117.191 1325.39 Q115.385 1328.93 115.385 1336.06 Q115.385 1343.17 117.191 1346.73 Q119.019 1350.27 122.63 1350.27 Q126.265 1350.27 128.07 1346.73 Q129.899 1343.17 129.899 1336.06 Q129.899 1328.93 128.07 1325.39 Q126.265 1321.82 122.63 1321.82 M122.63 1318.12 Q128.441 1318.12 131.496 1322.73 Q134.575 1327.31 134.575 1336.06 Q134.575 1344.79 131.496 1349.39 Q128.441 1353.98 122.63 1353.98 Q116.82 1353.98 113.742 1349.39 Q110.686 1344.79 110.686 1336.06 Q110.686 1327.31 113.742 1322.73 Q116.82 1318.12 122.63 1318.12 Z" fill="#000000" fill-rule="evenodd" fill-opacity="1" /><path clip-path="url(#clip220)" d="M65.1539 907.692 L53.3484 926.141 L65.1539 926.141 L65.1539 907.692 M63.927 903.618 L69.8066 903.618 L69.8066 926.141 L74.7372 926.141 L74.7372 930.03 L69.8066 930.03 L69.8066 938.178 L65.1539 938.178 L65.1539 930.03 L49.5521 930.03 L49.5521 925.516 L63.927 903.618 Z" fill="#000000" fill-rule="evenodd" fill-opacity="1" /><path clip-path="url(#clip220)" d="M92.4686 906.697 Q88.8575 906.697 87.0288 910.262 Q85.2232 913.803 85.2232 920.933 Q85.2232 928.039 87.0288 931.604 Q88.8575 935.146 92.4686 935.146 Q96.1028 935.146 97.9083 931.604 Q99.737 928.039 99.737 920.933 Q99.737 913.803 97.9083 910.262 Q96.1028 906.697 92.4686 906.697 M92.4686 902.993 Q98.2787 902.993 101.334 907.6 Q104.413 912.183 104.413 920.933 Q104.413 929.66 101.334 934.266 Q98.2787 938.85 92.4686 938.85 Q86.6584 938.85 83.5797 934.266 Q80.5242 929.66 80.5242 920.933 Q80.5242 912.183 83.5797 907.6 Q86.6584 902.993 92.4686 902.993 Z" fill="#000000" fill-rule="evenodd" fill-opacity="1" /><path clip-path="url(#clip220)" d="M122.63 906.697 Q119.019 906.697 117.191 910.262 Q115.385 913.803 115.385 920.933 Q115.385 928.039 117.191 931.604 Q119.019 935.146 122.63 935.146 Q126.265 935.146 128.07 931.604 Q129.899 928.039 129.899 920.933 Q129.899 913.803 128.07 910.262 Q126.265 906.697 122.63 906.697 M122.63 902.993 Q128.441 902.993 131.496 907.6 Q134.575 912.183 134.575 920.933 Q134.575 929.66 131.496 934.266 Q128.441 938.85 122.63 938.85 Q116.82 938.85 113.742 934.266 Q110.686 929.66 110.686 920.933 Q110.686 912.183 113.742 907.6 Q116.82 902.993 122.63 902.993 Z" fill="#000000" fill-rule="evenodd" fill-opacity="1" /><path clip-path="url(#clip220)" d="M62.8854 503.908 Q59.7373 503.908 57.8854 506.061 Q56.0567 508.214 56.0567 511.964 Q56.0567 515.691 57.8854 517.867 Q59.7373 520.02 62.8854 520.02 Q66.0335 520.02 67.8622 517.867 Q69.7141 515.691 69.7141 511.964 Q69.7141 508.214 67.8622 506.061 Q66.0335 503.908 62.8854 503.908 M72.1677 489.256 L72.1677 493.515 Q70.4085 492.682 68.6029 492.242 Q66.8206 491.802 65.0613 491.802 Q60.4317 491.802 57.978 494.927 Q55.5475 498.052 55.2002 504.371 Q56.566 502.358 58.6262 501.293 Q60.6863 500.205 63.1632 500.205 Q68.3715 500.205 71.3807 503.376 Q74.4131 506.524 74.4131 511.964 Q74.4131 517.288 71.265 520.506 Q68.1168 523.723 62.8854 523.723 Q56.89 523.723 53.7188 519.14 Q50.5475 514.533 50.5475 505.807 Q50.5475 497.612 54.4364 492.751 Q58.3252 487.867 64.8761 487.867 Q66.6354 487.867 68.4178 488.214 Q70.2233 488.561 72.1677 489.256 Z" fill="#000000" fill-rule="evenodd" fill-opacity="1" /><path clip-path="url(#clip220)" d="M92.4686 491.571 Q88.8575 491.571 87.0288 495.135 Q85.2232 498.677 85.2232 505.807 Q85.2232 512.913 87.0288 516.478 Q88.8575 520.02 92.4686 520.02 Q96.1028 520.02 97.9083 516.478 Q99.737 512.913 99.737 505.807 Q99.737 498.677 97.9083 495.135 Q96.1028 491.571 92.4686 491.571 M92.4686 487.867 Q98.2787 487.867 101.334 492.473 Q104.413 497.057 104.413 505.807 Q104.413 514.533 101.334 519.14 Q98.2787 523.723 92.4686 523.723 Q86.6584 523.723 83.5797 519.14 Q80.5242 514.533 80.5242 505.807 Q80.5242 497.057 83.5797 492.473 Q86.6584 487.867 92.4686 487.867 Z" fill="#000000" fill-rule="evenodd" fill-opacity="1" /><path clip-path="url(#clip220)" d="M122.63 491.571 Q119.019 491.571 117.191 495.135 Q115.385 498.677 115.385 505.807 Q115.385 512.913 117.191 516.478 Q119.019 520.02 122.63 520.02 Q126.265 520.02 128.07 516.478 Q129.899 512.913 129.899 505.807 Q129.899 498.677 128.07 495.135 Q126.265 491.571 122.63 491.571 M122.63 487.867 Q128.441 487.867 131.496 492.473 Q134.575 497.057 134.575 505.807 Q134.575 514.533 131.496 519.14 Q128.441 523.723 122.63 523.723 Q116.82 523.723 113.742 519.14 Q110.686 514.533 110.686 505.807 Q110.686 497.057 113.742 492.473 Q116.82 487.867 122.63 487.867 Z" fill="#000000" fill-rule="evenodd" fill-opacity="1" /><path clip-path="url(#clip220)" d="M62.3067 91.5136 Q58.9734 91.5136 57.0521 93.296 Q55.1539 95.0784 55.1539 98.2034 Q55.1539 101.328 57.0521 103.111 Q58.9734 104.893 62.3067 104.893 Q65.64 104.893 67.5613 103.111 Q69.4826 101.305 69.4826 98.2034 Q69.4826 95.0784 67.5613 93.296 Q65.6632 91.5136 62.3067 91.5136 M57.6308 89.5229 Q54.6215 88.7821 52.9317 86.722 Q51.2651 84.6618 51.2651 81.6988 Q51.2651 77.5553 54.2049 75.148 Q57.1678 72.7406 62.3067 72.7406 Q67.4687 72.7406 70.4085 75.148 Q73.3483 77.5553 73.3483 81.6988 Q73.3483 84.6618 71.6585 86.722 Q69.9918 88.7821 67.0057 89.5229 Q70.3853 90.3099 72.2603 92.6016 Q74.1585 94.8932 74.1585 98.2034 Q74.1585 103.227 71.0798 105.912 Q68.0242 108.597 62.3067 108.597 Q56.5891 108.597 53.5104 105.912 Q50.4549 103.227 50.4549 98.2034 Q50.4549 94.8932 52.353 92.6016 Q54.2512 90.3099 57.6308 89.5229 M55.9178 82.1387 Q55.9178 84.8238 57.5845 86.3284 Q59.2743 87.8331 62.3067 87.8331 Q65.3159 87.8331 67.0057 86.3284 Q68.7187 84.8238 68.7187 82.1387 Q68.7187 79.4535 67.0057 77.9489 Q65.3159 76.4442 62.3067 76.4442 Q59.2743 76.4442 57.5845 77.9489 Q55.9178 79.4535 55.9178 82.1387 Z" fill="#000000" fill-rule="evenodd" fill-opacity="1" /><path clip-path="url(#clip220)" d="M92.4686 76.4442 Q88.8575 76.4442 87.0288 80.009 Q85.2232 83.5507 85.2232 90.6803 Q85.2232 97.7867 87.0288 101.352 Q88.8575 104.893 92.4686 104.893 Q96.1028 104.893 97.9083 101.352 Q99.737 97.7867 99.737 90.6803 Q99.737 83.5507 97.9083 80.009 Q96.1028 76.4442 92.4686 76.4442 M92.4686 72.7406 Q98.2787 72.7406 101.334 77.347 Q104.413 81.9303 104.413 90.6803 Q104.413 99.4071 101.334 104.014 Q98.2787 108.597 92.4686 108.597 Q86.6584 108.597 83.5797 104.014 Q80.5242 99.4071 80.5242 90.6803 Q80.5242 81.9303 83.5797 77.347 Q86.6584 72.7406 92.4686 72.7406 Z" fill="#000000" fill-rule="evenodd" fill-opacity="1" /><path clip-path="url(#clip220)" d="M122.63 76.4442 Q119.019 76.4442 117.191 80.009 Q115.385 83.5507 115.385 90.6803 Q115.385 97.7867 117.191 101.352 Q119.019 104.893 122.63 104.893 Q126.265 104.893 128.07 101.352 Q129.899 97.7867 129.899 90.6803 Q129.899 83.5507 128.07 80.009 Q126.265 76.4442 122.63 76.4442 M122.63 72.7406 Q128.441 72.7406 131.496 77.347 Q134.575 81.9303 134.575 90.6803 Q134.575 99.4071 131.496 104.014 Q128.441 108.597 122.63 108.597 Q116.82 108.597 113.742 104.014 Q110.686 99.4071 110.686 90.6803 Q110.686 81.9303 113.742 77.347 Q116.82 72.7406 122.63 72.7406 Z" fill="#000000" fill-rule="evenodd" fill-opacity="1" /><path clip-path="url(#clip222)" d="M310.522 1749.08 L310.522 1751.15 L368.274 1751.15 L368.274 1749.08 L310.522 1749.08 L310.522 1749.08  Z" fill="#009af9" fill-rule="evenodd" fill-opacity="1"/>
<polyline clip-path="url(#clip222)" style="stroke:#000000; stroke-linecap:round; stroke-linejoin:round; stroke-width:4; stroke-opacity:1; fill:none" points="310.522,1749.08 310.522,1751.15 368.274,1751.15 368.274,1749.08 310.522,1749.08 "/>
<path clip-path="url(#clip222)" d="M368.274 1747 L368.274 1751.15 L426.027 1751.15 L426.027 1747 L368.274 1747 L368.274 1747  Z" fill="#009af9" fill-rule="evenodd" fill-opacity="1"/>
<polyline clip-path="url(#clip222)" style="stroke:#000000; stroke-linecap:round; stroke-linejoin:round; stroke-width:4; stroke-opacity:1; fill:none" points="368.274,1747 368.274,1751.15 426.027,1751.15 426.027,1747 368.274,1747 "/>
<path clip-path="url(#clip222)" d="M426.027 1747 L426.027 1751.15 L483.78 1751.15 L483.78 1747 L426.027 1747 L426.027 1747  Z" fill="#009af9" fill-rule="evenodd" fill-opacity="1"/>
<polyline clip-path="url(#clip222)" style="stroke:#000000; stroke-linecap:round; stroke-linejoin:round; stroke-width:4; stroke-opacity:1; fill:none" points="426.027,1747 426.027,1751.15 483.78,1751.15 483.78,1747 426.027,1747 "/>
<path clip-path="url(#clip222)" d="M483.78 1738.7 L483.78 1751.15 L541.533 1751.15 L541.533 1738.7 L483.78 1738.7 L483.78 1738.7  Z" fill="#009af9" fill-rule="evenodd" fill-opacity="1"/>
<polyline clip-path="url(#clip222)" style="stroke:#000000; stroke-linecap:round; stroke-linejoin:round; stroke-width:4; stroke-opacity:1; fill:none" points="483.78,1738.7 483.78,1751.15 541.533,1751.15 541.533,1738.7 483.78,1738.7 "/>
<path clip-path="url(#clip222)" d="M541.533 1734.55 L541.533 1751.15 L599.286 1751.15 L599.286 1734.55 L541.533 1734.55 L541.533 1734.55  Z" fill="#009af9" fill-rule="evenodd" fill-opacity="1"/>
<polyline clip-path="url(#clip222)" style="stroke:#000000; stroke-linecap:round; stroke-linejoin:round; stroke-width:4; stroke-opacity:1; fill:none" points="541.533,1734.55 541.533,1751.15 599.286,1751.15 599.286,1734.55 541.533,1734.55 "/>
<path clip-path="url(#clip222)" d="M599.286 1732.47 L599.286 1751.15 L657.039 1751.15 L657.039 1732.47 L599.286 1732.47 L599.286 1732.47  Z" fill="#009af9" fill-rule="evenodd" fill-opacity="1"/>
<polyline clip-path="url(#clip222)" style="stroke:#000000; stroke-linecap:round; stroke-linejoin:round; stroke-width:4; stroke-opacity:1; fill:none" points="599.286,1732.47 599.286,1751.15 657.039,1751.15 657.039,1732.47 599.286,1732.47 "/>
<path clip-path="url(#clip222)" d="M657.039 1703.41 L657.039 1751.15 L714.791 1751.15 L714.791 1703.41 L657.039 1703.41 L657.039 1703.41  Z" fill="#009af9" fill-rule="evenodd" fill-opacity="1"/>
<polyline clip-path="url(#clip222)" style="stroke:#000000; stroke-linecap:round; stroke-linejoin:round; stroke-width:4; stroke-opacity:1; fill:none" points="657.039,1703.41 657.039,1751.15 714.791,1751.15 714.791,1703.41 657.039,1703.41 "/>
<path clip-path="url(#clip222)" d="M714.791 1676.43 L714.791 1751.15 L772.544 1751.15 L772.544 1676.43 L714.791 1676.43 L714.791 1676.43  Z" fill="#009af9" fill-rule="evenodd" fill-opacity="1"/>
<polyline clip-path="url(#clip222)" style="stroke:#000000; stroke-linecap:round; stroke-linejoin:round; stroke-width:4; stroke-opacity:1; fill:none" points="714.791,1676.43 714.791,1751.15 772.544,1751.15 772.544,1676.43 714.791,1676.43 "/>
<path clip-path="url(#clip222)" d="M772.544 1630.76 L772.544 1751.15 L830.297 1751.15 L830.297 1630.76 L772.544 1630.76 L772.544 1630.76  Z" fill="#009af9" fill-rule="evenodd" fill-opacity="1"/>
<polyline clip-path="url(#clip222)" style="stroke:#000000; stroke-linecap:round; stroke-linejoin:round; stroke-width:4; stroke-opacity:1; fill:none" points="772.544,1630.76 772.544,1751.15 830.297,1751.15 830.297,1630.76 772.544,1630.76 "/>
<path clip-path="url(#clip222)" d="M830.297 1572.65 L830.297 1751.15 L888.05 1751.15 L888.05 1572.65 L830.297 1572.65 L830.297 1572.65  Z" fill="#009af9" fill-rule="evenodd" fill-opacity="1"/>
<polyline clip-path="url(#clip222)" style="stroke:#000000; stroke-linecap:round; stroke-linejoin:round; stroke-width:4; stroke-opacity:1; fill:none" points="830.297,1572.65 830.297,1751.15 888.05,1751.15 888.05,1572.65 830.297,1572.65 "/>
<path clip-path="url(#clip222)" d="M888.05 1433.58 L888.05 1751.15 L945.803 1751.15 L945.803 1433.58 L888.05 1433.58 L888.05 1433.58  Z" fill="#009af9" fill-rule="evenodd" fill-opacity="1"/>
<polyline clip-path="url(#clip222)" style="stroke:#000000; stroke-linecap:round; stroke-linejoin:round; stroke-width:4; stroke-opacity:1; fill:none" points="888.05,1433.58 888.05,1751.15 945.803,1751.15 945.803,1433.58 888.05,1433.58 "/>
<path clip-path="url(#clip222)" d="M945.803 1408.67 L945.803 1751.15 L1003.56 1751.15 L1003.56 1408.67 L945.803 1408.67 L945.803 1408.67  Z" fill="#009af9" fill-rule="evenodd" fill-opacity="1"/>
<polyline clip-path="url(#clip222)" style="stroke:#000000; stroke-linecap:round; stroke-linejoin:round; stroke-width:4; stroke-opacity:1; fill:none" points="945.803,1408.67 945.803,1751.15 1003.56,1751.15 1003.56,1408.67 945.803,1408.67 "/>
<path clip-path="url(#clip222)" d="M1003.56 1223.94 L1003.56 1751.15 L1061.31 1751.15 L1061.31 1223.94 L1003.56 1223.94 L1003.56 1223.94  Z" fill="#009af9" fill-rule="evenodd" fill-opacity="1"/>
<polyline clip-path="url(#clip222)" style="stroke:#000000; stroke-linecap:round; stroke-linejoin:round; stroke-width:4; stroke-opacity:1; fill:none" points="1003.56,1223.94 1003.56,1751.15 1061.31,1751.15 1061.31,1223.94 1003.56,1223.94 "/>
<path clip-path="url(#clip222)" d="M1061.31 1097.33 L1061.31 1751.15 L1119.06 1751.15 L1119.06 1097.33 L1061.31 1097.33 L1061.31 1097.33  Z" fill="#009af9" fill-rule="evenodd" fill-opacity="1"/>
<polyline clip-path="url(#clip222)" style="stroke:#000000; stroke-linecap:round; stroke-linejoin:round; stroke-width:4; stroke-opacity:1; fill:none" points="1061.31,1097.33 1061.31,1751.15 1119.06,1751.15 1119.06,1097.33 1061.31,1097.33 "/>
<path clip-path="url(#clip222)" d="M1119.06 833.722 L1119.06 1751.15 L1176.81 1751.15 L1176.81 833.722 L1119.06 833.722 L1119.06 833.722  Z" fill="#009af9" fill-rule="evenodd" fill-opacity="1"/>
<polyline clip-path="url(#clip222)" style="stroke:#000000; stroke-linecap:round; stroke-linejoin:round; stroke-width:4; stroke-opacity:1; fill:none" points="1119.06,833.722 1119.06,1751.15 1176.81,1751.15 1176.81,833.722 1119.06,833.722 "/>
<path clip-path="url(#clip222)" d="M1176.81 671.822 L1176.81 1751.15 L1234.57 1751.15 L1234.57 671.822 L1176.81 671.822 L1176.81 671.822  Z" fill="#009af9" fill-rule="evenodd" fill-opacity="1"/>
<polyline clip-path="url(#clip222)" style="stroke:#000000; stroke-linecap:round; stroke-linejoin:round; stroke-width:4; stroke-opacity:1; fill:none" points="1176.81,671.822 1176.81,1751.15 1234.57,1751.15 1234.57,671.822 1176.81,671.822 "/>
<path clip-path="url(#clip222)" d="M1234.57 437.276 L1234.57 1751.15 L1292.32 1751.15 L1292.32 437.276 L1234.57 437.276 L1234.57 437.276  Z" fill="#009af9" fill-rule="evenodd" fill-opacity="1"/>
<polyline clip-path="url(#clip222)" style="stroke:#000000; stroke-linecap:round; stroke-linejoin:round; stroke-width:4; stroke-opacity:1; fill:none" points="1234.57,437.276 1234.57,1751.15 1292.32,1751.15 1292.32,437.276 1234.57,437.276 "/>
<path clip-path="url(#clip222)" d="M1292.32 262.923 L1292.32 1751.15 L1350.07 1751.15 L1350.07 262.923 L1292.32 262.923 L1292.32 262.923  Z" fill="#009af9" fill-rule="evenodd" fill-opacity="1"/>
<polyline clip-path="url(#clip222)" style="stroke:#000000; stroke-linecap:round; stroke-linejoin:round; stroke-width:4; stroke-opacity:1; fill:none" points="1292.32,262.923 1292.32,1751.15 1350.07,1751.15 1350.07,262.923 1292.32,262.923 "/>
<path clip-path="url(#clip222)" d="M1350.07 198.578 L1350.07 1751.15 L1407.83 1751.15 L1407.83 198.578 L1350.07 198.578 L1350.07 198.578  Z" fill="#009af9" fill-rule="evenodd" fill-opacity="1"/>
<polyline clip-path="url(#clip222)" style="stroke:#000000; stroke-linecap:round; stroke-linejoin:round; stroke-width:4; stroke-opacity:1; fill:none" points="1350.07,198.578 1350.07,1751.15 1407.83,1751.15 1407.83,198.578 1350.07,198.578 "/>
<path clip-path="url(#clip222)" d="M1407.83 96.8724 L1407.83 1751.15 L1465.58 1751.15 L1465.58 96.8724 L1407.83 96.8724 L1407.83 96.8724  Z" fill="#009af9" fill-rule="evenodd" fill-opacity="1"/>
<polyline clip-path="url(#clip222)" style="stroke:#000000; stroke-linecap:round; stroke-linejoin:round; stroke-width:4; stroke-opacity:1; fill:none" points="1407.83,96.8724 1407.83,1751.15 1465.58,1751.15 1465.58,96.8724 1407.83,96.8724 "/>
<path clip-path="url(#clip222)" d="M1465.58 101.024 L1465.58 1751.15 L1523.33 1751.15 L1523.33 101.024 L1465.58 101.024 L1465.58 101.024  Z" fill="#009af9" fill-rule="evenodd" fill-opacity="1"/>
<polyline clip-path="url(#clip222)" style="stroke:#000000; stroke-linecap:round; stroke-linejoin:round; stroke-width:4; stroke-opacity:1; fill:none" points="1465.58,101.024 1465.58,1751.15 1523.33,1751.15 1523.33,101.024 1465.58,101.024 "/>
<path clip-path="url(#clip222)" d="M1523.33 177.822 L1523.33 1751.15 L1581.08 1751.15 L1581.08 177.822 L1523.33 177.822 L1523.33 177.822  Z" fill="#009af9" fill-rule="evenodd" fill-opacity="1"/>
<polyline clip-path="url(#clip222)" style="stroke:#000000; stroke-linecap:round; stroke-linejoin:round; stroke-width:4; stroke-opacity:1; fill:none" points="1523.33,177.822 1523.33,1751.15 1581.08,1751.15 1581.08,177.822 1523.33,177.822 "/>
<path clip-path="url(#clip222)" d="M1581.08 267.074 L1581.08 1751.15 L1638.84 1751.15 L1638.84 267.074 L1581.08 267.074 L1581.08 267.074  Z" fill="#009af9" fill-rule="evenodd" fill-opacity="1"/>
<polyline clip-path="url(#clip222)" style="stroke:#000000; stroke-linecap:round; stroke-linejoin:round; stroke-width:4; stroke-opacity:1; fill:none" points="1581.08,267.074 1581.08,1751.15 1638.84,1751.15 1638.84,267.074 1581.08,267.074 "/>
<path clip-path="url(#clip222)" d="M1638.84 449.73 L1638.84 1751.15 L1696.59 1751.15 L1696.59 449.73 L1638.84 449.73 L1638.84 449.73  Z" fill="#009af9" fill-rule="evenodd" fill-opacity="1"/>
<polyline clip-path="url(#clip222)" style="stroke:#000000; stroke-linecap:round; stroke-linejoin:round; stroke-width:4; stroke-opacity:1; fill:none" points="1638.84,449.73 1638.84,1751.15 1696.59,1751.15 1696.59,449.73 1638.84,449.73 "/>
<path clip-path="url(#clip222)" d="M1696.59 605.402 L1696.59 1751.15 L1754.34 1751.15 L1754.34 605.402 L1696.59 605.402 L1696.59 605.402  Z" fill="#009af9" fill-rule="evenodd" fill-opacity="1"/>
<polyline clip-path="url(#clip222)" style="stroke:#000000; stroke-linecap:round; stroke-linejoin:round; stroke-width:4; stroke-opacity:1; fill:none" points="1696.59,605.402 1696.59,1751.15 1754.34,1751.15 1754.34,605.402 1696.59,605.402 "/>
<path clip-path="url(#clip222)" d="M1754.34 823.344 L1754.34 1751.15 L1812.1 1751.15 L1812.1 823.344 L1754.34 823.344 L1754.34 823.344  Z" fill="#009af9" fill-rule="evenodd" fill-opacity="1"/>
<polyline clip-path="url(#clip222)" style="stroke:#000000; stroke-linecap:round; stroke-linejoin:round; stroke-width:4; stroke-opacity:1; fill:none" points="1754.34,823.344 1754.34,1751.15 1812.1,1751.15 1812.1,823.344 1754.34,823.344 "/>
<path clip-path="url(#clip222)" d="M1812.1 1070.34 L1812.1 1751.15 L1869.85 1751.15 L1869.85 1070.34 L1812.1 1070.34 L1812.1 1070.34  Z" fill="#009af9" fill-rule="evenodd" fill-opacity="1"/>
<polyline clip-path="url(#clip222)" style="stroke:#000000; stroke-linecap:round; stroke-linejoin:round; stroke-width:4; stroke-opacity:1; fill:none" points="1812.1,1070.34 1812.1,1751.15 1869.85,1751.15 1869.85,1070.34 1812.1,1070.34 "/>
<path clip-path="url(#clip222)" d="M1869.85 1221.86 L1869.85 1751.15 L1927.6 1751.15 L1927.6 1221.86 L1869.85 1221.86 L1869.85 1221.86  Z" fill="#009af9" fill-rule="evenodd" fill-opacity="1"/>
<polyline clip-path="url(#clip222)" style="stroke:#000000; stroke-linecap:round; stroke-linejoin:round; stroke-width:4; stroke-opacity:1; fill:none" points="1869.85,1221.86 1869.85,1751.15 1927.6,1751.15 1927.6,1221.86 1869.85,1221.86 "/>
<path clip-path="url(#clip222)" d="M1927.6 1356.78 L1927.6 1751.15 L1985.35 1751.15 L1985.35 1356.78 L1927.6 1356.78 L1927.6 1356.78  Z" fill="#009af9" fill-rule="evenodd" fill-opacity="1"/>
<polyline clip-path="url(#clip222)" style="stroke:#000000; stroke-linecap:round; stroke-linejoin:round; stroke-width:4; stroke-opacity:1; fill:none" points="1927.6,1356.78 1927.6,1751.15 1985.35,1751.15 1985.35,1356.78 1927.6,1356.78 "/>
<path clip-path="url(#clip222)" d="M1985.35 1479.24 L1985.35 1751.15 L2043.11 1751.15 L2043.11 1479.24 L1985.35 1479.24 L1985.35 1479.24  Z" fill="#009af9" fill-rule="evenodd" fill-opacity="1"/>
<polyline clip-path="url(#clip222)" style="stroke:#000000; stroke-linecap:round; stroke-linejoin:round; stroke-width:4; stroke-opacity:1; fill:none" points="1985.35,1479.24 1985.35,1751.15 2043.11,1751.15 2043.11,1479.24 1985.35,1479.24 "/>
<path clip-path="url(#clip222)" d="M2043.11 1578.87 L2043.11 1751.15 L2100.86 1751.15 L2100.86 1578.87 L2043.11 1578.87 L2043.11 1578.87  Z" fill="#009af9" fill-rule="evenodd" fill-opacity="1"/>
<polyline clip-path="url(#clip222)" style="stroke:#000000; stroke-linecap:round; stroke-linejoin:round; stroke-width:4; stroke-opacity:1; fill:none" points="2043.11,1578.87 2043.11,1751.15 2100.86,1751.15 2100.86,1578.87 2043.11,1578.87 "/>
<path clip-path="url(#clip222)" d="M2100.86 1641.14 L2100.86 1751.15 L2158.61 1751.15 L2158.61 1641.14 L2100.86 1641.14 L2100.86 1641.14  Z" fill="#009af9" fill-rule="evenodd" fill-opacity="1"/>
<polyline clip-path="url(#clip222)" style="stroke:#000000; stroke-linecap:round; stroke-linejoin:round; stroke-width:4; stroke-opacity:1; fill:none" points="2100.86,1641.14 2100.86,1751.15 2158.61,1751.15 2158.61,1641.14 2100.86,1641.14 "/>
<path clip-path="url(#clip222)" d="M2158.61 1647.37 L2158.61 1751.15 L2216.37 1751.15 L2216.37 1647.37 L2158.61 1647.37 L2158.61 1647.37  Z" fill="#009af9" fill-rule="evenodd" fill-opacity="1"/>
<polyline clip-path="url(#clip222)" style="stroke:#000000; stroke-linecap:round; stroke-linejoin:round; stroke-width:4; stroke-opacity:1; fill:none" points="2158.61,1647.37 2158.61,1751.15 2216.37,1751.15 2216.37,1647.37 2158.61,1647.37 "/>
<path clip-path="url(#clip222)" d="M2216.37 1715.87 L2216.37 1751.15 L2274.12 1751.15 L2274.12 1715.87 L2216.37 1715.87 L2216.37 1715.87  Z" fill="#009af9" fill-rule="evenodd" fill-opacity="1"/>
<polyline clip-path="url(#clip222)" style="stroke:#000000; stroke-linecap:round; stroke-linejoin:round; stroke-width:4; stroke-opacity:1; fill:none" points="2216.37,1715.87 2216.37,1751.15 2274.12,1751.15 2274.12,1715.87 2216.37,1715.87 "/>
<path clip-path="url(#clip222)" d="M2274.12 1734.55 L2274.12 1751.15 L2331.87 1751.15 L2331.87 1734.55 L2274.12 1734.55 L2274.12 1734.55  Z" fill="#009af9" fill-rule="evenodd" fill-opacity="1"/>
<polyline clip-path="url(#clip222)" style="stroke:#000000; stroke-linecap:round; stroke-linejoin:round; stroke-width:4; stroke-opacity:1; fill:none" points="2274.12,1734.55 2274.12,1751.15 2331.87,1751.15 2331.87,1734.55 2274.12,1734.55 "/>
<path clip-path="url(#clip222)" d="M2331.87 1736.62 L2331.87 1751.15 L2389.62 1751.15 L2389.62 1736.62 L2331.87 1736.62 L2331.87 1736.62  Z" fill="#009af9" fill-rule="evenodd" fill-opacity="1"/>
<polyline clip-path="url(#clip222)" style="stroke:#000000; stroke-linecap:round; stroke-linejoin:round; stroke-width:4; stroke-opacity:1; fill:none" points="2331.87,1736.62 2331.87,1751.15 2389.62,1751.15 2389.62,1736.62 2331.87,1736.62 "/>
<path clip-path="url(#clip222)" d="M2389.62 1740.77 L2389.62 1751.15 L2447.38 1751.15 L2447.38 1740.77 L2389.62 1740.77 L2389.62 1740.77  Z" fill="#009af9" fill-rule="evenodd" fill-opacity="1"/>
<polyline clip-path="url(#clip222)" style="stroke:#000000; stroke-linecap:round; stroke-linejoin:round; stroke-width:4; stroke-opacity:1; fill:none" points="2389.62,1740.77 2389.62,1751.15 2447.38,1751.15 2447.38,1740.77 2389.62,1740.77 "/>
<path clip-path="url(#clip222)" d="M2447.38 1742.85 L2447.38 1751.15 L2505.13 1751.15 L2505.13 1742.85 L2447.38 1742.85 L2447.38 1742.85  Z" fill="#009af9" fill-rule="evenodd" fill-opacity="1"/>
<polyline clip-path="url(#clip222)" style="stroke:#000000; stroke-linecap:round; stroke-linejoin:round; stroke-width:4; stroke-opacity:1; fill:none" points="2447.38,1742.85 2447.38,1751.15 2505.13,1751.15 2505.13,1742.85 2447.38,1742.85 "/>
<circle clip-path="url(#clip222)" style="fill:#009af9; stroke:none; fill-opacity:0" cx="339.398" cy="1749.08" r="2"/>
<circle clip-path="url(#clip222)" style="fill:#009af9; stroke:none; fill-opacity:0" cx="397.151" cy="1747" r="2"/>
<circle clip-path="url(#clip222)" style="fill:#009af9; stroke:none; fill-opacity:0" cx="454.904" cy="1747" r="2"/>
<circle clip-path="url(#clip222)" style="fill:#009af9; stroke:none; fill-opacity:0" cx="512.656" cy="1738.7" r="2"/>
<circle clip-path="url(#clip222)" style="fill:#009af9; stroke:none; fill-opacity:0" cx="570.409" cy="1734.55" r="2"/>
<circle clip-path="url(#clip222)" style="fill:#009af9; stroke:none; fill-opacity:0" cx="628.162" cy="1732.47" r="2"/>
<circle clip-path="url(#clip222)" style="fill:#009af9; stroke:none; fill-opacity:0" cx="685.915" cy="1703.41" r="2"/>
<circle clip-path="url(#clip222)" style="fill:#009af9; stroke:none; fill-opacity:0" cx="743.668" cy="1676.43" r="2"/>
<circle clip-path="url(#clip222)" style="fill:#009af9; stroke:none; fill-opacity:0" cx="801.421" cy="1630.76" r="2"/>
<circle clip-path="url(#clip222)" style="fill:#009af9; stroke:none; fill-opacity:0" cx="859.173" cy="1572.65" r="2"/>
<circle clip-path="url(#clip222)" style="fill:#009af9; stroke:none; fill-opacity:0" cx="916.926" cy="1433.58" r="2"/>
<circle clip-path="url(#clip222)" style="fill:#009af9; stroke:none; fill-opacity:0" cx="974.679" cy="1408.67" r="2"/>
<circle clip-path="url(#clip222)" style="fill:#009af9; stroke:none; fill-opacity:0" cx="1032.43" cy="1223.94" r="2"/>
<circle clip-path="url(#clip222)" style="fill:#009af9; stroke:none; fill-opacity:0" cx="1090.18" cy="1097.33" r="2"/>
<circle clip-path="url(#clip222)" style="fill:#009af9; stroke:none; fill-opacity:0" cx="1147.94" cy="833.722" r="2"/>
<circle clip-path="url(#clip222)" style="fill:#009af9; stroke:none; fill-opacity:0" cx="1205.69" cy="671.822" r="2"/>
<circle clip-path="url(#clip222)" style="fill:#009af9; stroke:none; fill-opacity:0" cx="1263.44" cy="437.276" r="2"/>
<circle clip-path="url(#clip222)" style="fill:#009af9; stroke:none; fill-opacity:0" cx="1321.2" cy="262.923" r="2"/>
<circle clip-path="url(#clip222)" style="fill:#009af9; stroke:none; fill-opacity:0" cx="1378.95" cy="198.578" r="2"/>
<circle clip-path="url(#clip222)" style="fill:#009af9; stroke:none; fill-opacity:0" cx="1436.7" cy="96.8724" r="2"/>
<circle clip-path="url(#clip222)" style="fill:#009af9; stroke:none; fill-opacity:0" cx="1494.45" cy="101.024" r="2"/>
<circle clip-path="url(#clip222)" style="fill:#009af9; stroke:none; fill-opacity:0" cx="1552.21" cy="177.822" r="2"/>
<circle clip-path="url(#clip222)" style="fill:#009af9; stroke:none; fill-opacity:0" cx="1609.96" cy="267.074" r="2"/>
<circle clip-path="url(#clip222)" style="fill:#009af9; stroke:none; fill-opacity:0" cx="1667.71" cy="449.73" r="2"/>
<circle clip-path="url(#clip222)" style="fill:#009af9; stroke:none; fill-opacity:0" cx="1725.47" cy="605.402" r="2"/>
<circle clip-path="url(#clip222)" style="fill:#009af9; stroke:none; fill-opacity:0" cx="1783.22" cy="823.344" r="2"/>
<circle clip-path="url(#clip222)" style="fill:#009af9; stroke:none; fill-opacity:0" cx="1840.97" cy="1070.34" r="2"/>
<circle clip-path="url(#clip222)" style="fill:#009af9; stroke:none; fill-opacity:0" cx="1898.72" cy="1221.86" r="2"/>
<circle clip-path="url(#clip222)" style="fill:#009af9; stroke:none; fill-opacity:0" cx="1956.48" cy="1356.78" r="2"/>
<circle clip-path="url(#clip222)" style="fill:#009af9; stroke:none; fill-opacity:0" cx="2014.23" cy="1479.24" r="2"/>
<circle clip-path="url(#clip222)" style="fill:#009af9; stroke:none; fill-opacity:0" cx="2071.98" cy="1578.87" r="2"/>
<circle clip-path="url(#clip222)" style="fill:#009af9; stroke:none; fill-opacity:0" cx="2129.74" cy="1641.14" r="2"/>
<circle clip-path="url(#clip222)" style="fill:#009af9; stroke:none; fill-opacity:0" cx="2187.49" cy="1647.37" r="2"/>
<circle clip-path="url(#clip222)" style="fill:#009af9; stroke:none; fill-opacity:0" cx="2245.24" cy="1715.87" r="2"/>
<circle clip-path="url(#clip222)" style="fill:#009af9; stroke:none; fill-opacity:0" cx="2302.99" cy="1734.55" r="2"/>
<circle clip-path="url(#clip222)" style="fill:#009af9; stroke:none; fill-opacity:0" cx="2360.75" cy="1736.62" r="2"/>
<circle clip-path="url(#clip222)" style="fill:#009af9; stroke:none; fill-opacity:0" cx="2418.5" cy="1740.77" r="2"/>
<circle clip-path="url(#clip222)" style="fill:#009af9; stroke:none; fill-opacity:0" cx="2476.25" cy="1742.85" r="2"/>
<path clip-path="url(#clip220)" d="M2259.54 209.375 L2558.56 209.375 L2558.56 105.695 L2259.54 105.695  Z" fill="#ffffff" fill-rule="evenodd" fill-opacity="1"/>
<polyline clip-path="url(#clip220)" style="stroke:#000000; stroke-linecap:round; stroke-linejoin:round; stroke-width:4; stroke-opacity:1; fill:none" points="2259.54,209.375 2558.56,209.375 2558.56,105.695 2259.54,105.695 2259.54,209.375 "/>
<path clip-path="url(#clip220)" d="M2286.94 178.271 L2451.33 178.271 L2451.33 136.799 L2286.94 136.799 L2286.94 178.271  Z" fill="#009af9" fill-rule="evenodd" fill-opacity="1"/>
<polyline clip-path="url(#clip220)" style="stroke:#000000; stroke-linecap:round; stroke-linejoin:round; stroke-width:4; stroke-opacity:1; fill:none" points="2286.94,178.271 2451.33,178.271 2451.33,136.799 2286.94,136.799 2286.94,178.271 "/>
<path clip-path="url(#clip220)" d="M2492.57 177.223 Q2490.77 181.852 2489.06 183.264 Q2487.34 184.676 2484.47 184.676 L2481.07 184.676 L2481.07 181.112 L2483.57 181.112 Q2485.33 181.112 2486.3 180.278 Q2487.27 179.445 2488.45 176.343 L2489.22 174.399 L2478.73 148.889 L2483.25 148.889 L2491.35 169.167 L2499.45 148.889 L2503.96 148.889 L2492.57 177.223 Z" fill="#000000" fill-rule="evenodd" fill-opacity="1" /><path clip-path="url(#clip220)" d="M2511.25 170.88 L2518.89 170.88 L2518.89 144.515 L2510.58 146.181 L2510.58 141.922 L2518.85 140.255 L2523.52 140.255 L2523.52 170.88 L2531.16 170.88 L2531.16 174.815 L2511.25 174.815 L2511.25 170.88 Z" fill="#000000" fill-rule="evenodd" fill-opacity="1" /></svg>
