<?xml version="1.0" encoding="utf-8"?>
<svg xmlns="http://www.w3.org/2000/svg" xmlns:xlink="http://www.w3.org/1999/xlink" width="672" height="480" viewBox="0 0 2688 1920">
<defs>
  <clipPath id="clip890">
    <rect x="0" y="0" width="2688" height="1920"/>
  </clipPath>
</defs>
<path clip-path="url(#clip890)" d="
M0 1920 L2688 1920 L2688 0 L0 0  Z
  " fill="#ffffff" fill-rule="evenodd" fill-opacity="1"/>
<defs>
  <clipPath id="clip891">
    <rect x="537" y="0" width="1883" height="1883"/>
  </clipPath>
</defs>
<path clip-path="url(#clip890)" d="
M174.895 1800.78 L2640.76 1800.78 L2640.76 47.2441 L174.895 47.2441  Z
  " fill="#ffffff" fill-rule="evenodd" fill-opacity="1"/>
<defs>
  <clipPath id="clip892">
    <rect x="174" y="47" width="2467" height="1755"/>
  </clipPath>
</defs>
<polyline clip-path="url(#clip892)" style="stroke:#000000; stroke-linecap:round; stroke-linejoin:round; stroke-width:2; stroke-opacity:0.1; fill:none" points="
  648.154,1800.78 648.154,47.2441 
  "/>
<polyline clip-path="url(#clip892)" style="stroke:#000000; stroke-linecap:round; stroke-linejoin:round; stroke-width:2; stroke-opacity:0.1; fill:none" points="
  1210.87,1800.78 1210.87,47.2441 
  "/>
<polyline clip-path="url(#clip892)" style="stroke:#000000; stroke-linecap:round; stroke-linejoin:round; stroke-width:2; stroke-opacity:0.1; fill:none" points="
  1773.59,1800.78 1773.59,47.2441 
  "/>
<polyline clip-path="url(#clip892)" style="stroke:#000000; stroke-linecap:round; stroke-linejoin:round; stroke-width:2; stroke-opacity:0.1; fill:none" points="
  2336.31,1800.78 2336.31,47.2441 
  "/>
<polyline clip-path="url(#clip890)" style="stroke:#000000; stroke-linecap:round; stroke-linejoin:round; stroke-width:4; stroke-opacity:1; fill:none" points="
  174.895,1800.78 2640.76,1800.78 
  "/>
<polyline clip-path="url(#clip890)" style="stroke:#000000; stroke-linecap:round; stroke-linejoin:round; stroke-width:4; stroke-opacity:1; fill:none" points="
  648.154,1800.78 648.154,1781.88 
  "/>
<polyline clip-path="url(#clip890)" style="stroke:#000000; stroke-linecap:round; stroke-linejoin:round; stroke-width:4; stroke-opacity:1; fill:none" points="
  1210.87,1800.78 1210.87,1781.88 
  "/>
<polyline clip-path="url(#clip890)" style="stroke:#000000; stroke-linecap:round; stroke-linejoin:round; stroke-width:4; stroke-opacity:1; fill:none" points="
  1773.59,1800.78 1773.59,1781.88 
  "/>
<polyline clip-path="url(#clip890)" style="stroke:#000000; stroke-linecap:round; stroke-linejoin:round; stroke-width:4; stroke-opacity:1; fill:none" points="
  2336.31,1800.78 2336.31,1781.88 
  "/>
<path clip-path="url(#clip890)" d="M626.336 1834 Q622.725 1834 620.897 1837.57 Q619.091 1841.11 619.091 1848.24 Q619.091 1855.34 620.897 1858.91 Q622.725 1862.45 626.336 1862.45 Q629.971 1862.45 631.776 1858.91 Q633.605 1855.34 633.605 1848.24 Q633.605 1841.11 631.776 1837.57 Q629.971 1834 626.336 1834 M626.336 1830.3 Q632.147 1830.3 635.202 1834.9 Q638.281 1839.49 638.281 1848.24 Q638.281 1856.96 635.202 1861.57 Q632.147 1866.15 626.336 1866.15 Q620.526 1866.15 617.448 1861.57 Q614.392 1856.96 614.392 1848.24 Q614.392 1839.49 617.448 1834.9 Q620.526 1830.3 626.336 1830.3 Z" fill="#000000" fill-rule="evenodd" fill-opacity="1" /><path clip-path="url(#clip890)" d="M646.498 1859.6 L651.383 1859.6 L651.383 1865.48 L646.498 1865.48 L646.498 1859.6 Z" fill="#000000" fill-rule="evenodd" fill-opacity="1" /><path clip-path="url(#clip890)" d="M665.596 1861.55 L681.915 1861.55 L681.915 1865.48 L659.971 1865.48 L659.971 1861.55 Q662.633 1858.79 667.216 1854.16 Q671.822 1849.51 673.003 1848.17 Q675.248 1845.65 676.128 1843.91 Q677.031 1842.15 677.031 1840.46 Q677.031 1837.71 675.086 1835.97 Q673.165 1834.23 670.063 1834.23 Q667.864 1834.23 665.41 1835 Q662.98 1835.76 660.202 1837.31 L660.202 1832.59 Q663.026 1831.46 665.48 1830.88 Q667.933 1830.3 669.971 1830.3 Q675.341 1830.3 678.535 1832.98 Q681.73 1835.67 681.73 1840.16 Q681.73 1842.29 680.92 1844.21 Q680.132 1846.11 678.026 1848.7 Q677.447 1849.37 674.345 1852.59 Q671.244 1855.78 665.596 1861.55 Z" fill="#000000" fill-rule="evenodd" fill-opacity="1" /><path clip-path="url(#clip890)" d="M1188.01 1834 Q1184.4 1834 1182.57 1837.57 Q1180.77 1841.11 1180.77 1848.24 Q1180.77 1855.34 1182.57 1858.91 Q1184.4 1862.45 1188.01 1862.45 Q1191.65 1862.45 1193.45 1858.91 Q1195.28 1855.34 1195.28 1848.24 Q1195.28 1841.11 1193.45 1837.57 Q1191.65 1834 1188.01 1834 M1188.01 1830.3 Q1193.82 1830.3 1196.88 1834.9 Q1199.96 1839.49 1199.96 1848.24 Q1199.96 1856.96 1196.88 1861.57 Q1193.82 1866.15 1188.01 1866.15 Q1182.2 1866.15 1179.13 1861.57 Q1176.07 1856.96 1176.07 1848.24 Q1176.07 1839.49 1179.13 1834.9 Q1182.2 1830.3 1188.01 1830.3 Z" fill="#000000" fill-rule="evenodd" fill-opacity="1" /><path clip-path="url(#clip890)" d="M1208.18 1859.6 L1213.06 1859.6 L1213.06 1865.48 L1208.18 1865.48 L1208.18 1859.6 Z" fill="#000000" fill-rule="evenodd" fill-opacity="1" /><path clip-path="url(#clip890)" d="M1236.09 1835 L1224.29 1853.45 L1236.09 1853.45 L1236.09 1835 M1234.87 1830.92 L1240.75 1830.92 L1240.75 1853.45 L1245.68 1853.45 L1245.68 1857.34 L1240.75 1857.34 L1240.75 1865.48 L1236.09 1865.48 L1236.09 1857.34 L1220.49 1857.34 L1220.49 1852.82 L1234.87 1830.92 Z" fill="#000000" fill-rule="evenodd" fill-opacity="1" /><path clip-path="url(#clip890)" d="M1750.9 1834 Q1747.29 1834 1745.46 1837.57 Q1743.65 1841.11 1743.65 1848.24 Q1743.65 1855.34 1745.46 1858.91 Q1747.29 1862.45 1750.9 1862.45 Q1754.53 1862.45 1756.34 1858.91 Q1758.17 1855.34 1758.17 1848.24 Q1758.17 1841.11 1756.34 1837.57 Q1754.53 1834 1750.9 1834 M1750.9 1830.3 Q1756.71 1830.3 1759.76 1834.9 Q1762.84 1839.49 1762.84 1848.24 Q1762.84 1856.96 1759.76 1861.57 Q1756.71 1866.15 1750.9 1866.15 Q1745.09 1866.15 1742.01 1861.57 Q1738.95 1856.96 1738.95 1848.24 Q1738.95 1839.49 1742.01 1834.9 Q1745.09 1830.3 1750.9 1830.3 Z" fill="#000000" fill-rule="evenodd" fill-opacity="1" /><path clip-path="url(#clip890)" d="M1771.06 1859.6 L1775.94 1859.6 L1775.94 1865.48 L1771.06 1865.48 L1771.06 1859.6 Z" fill="#000000" fill-rule="evenodd" fill-opacity="1" /><path clip-path="url(#clip890)" d="M1796.71 1846.34 Q1793.56 1846.34 1791.71 1848.49 Q1789.88 1850.65 1789.88 1854.4 Q1789.88 1858.12 1791.71 1860.3 Q1793.56 1862.45 1796.71 1862.45 Q1799.85 1862.45 1801.68 1860.3 Q1803.54 1858.12 1803.54 1854.4 Q1803.54 1850.65 1801.68 1848.49 Q1799.85 1846.34 1796.71 1846.34 M1805.99 1831.69 L1805.99 1835.95 Q1804.23 1835.11 1802.42 1834.67 Q1800.64 1834.23 1798.88 1834.23 Q1794.25 1834.23 1791.8 1837.36 Q1789.37 1840.48 1789.02 1846.8 Q1790.39 1844.79 1792.45 1843.72 Q1794.51 1842.64 1796.98 1842.64 Q1802.19 1842.64 1805.2 1845.81 Q1808.23 1848.96 1808.23 1854.4 Q1808.23 1859.72 1805.09 1862.94 Q1801.94 1866.15 1796.71 1866.15 Q1790.71 1866.15 1787.54 1861.57 Q1784.37 1856.96 1784.37 1848.24 Q1784.37 1840.04 1788.26 1835.18 Q1792.15 1830.3 1798.7 1830.3 Q1800.46 1830.3 1802.24 1830.65 Q1804.04 1830.99 1805.99 1831.69 Z" fill="#000000" fill-rule="evenodd" fill-opacity="1" /><path clip-path="url(#clip890)" d="M2313.74 1834 Q2310.13 1834 2308.3 1837.57 Q2306.5 1841.11 2306.5 1848.24 Q2306.5 1855.34 2308.3 1858.91 Q2310.13 1862.45 2313.74 1862.45 Q2317.38 1862.45 2319.18 1858.91 Q2321.01 1855.34 2321.01 1848.24 Q2321.01 1841.11 2319.18 1837.57 Q2317.38 1834 2313.74 1834 M2313.74 1830.3 Q2319.55 1830.3 2322.61 1834.9 Q2325.69 1839.49 2325.69 1848.24 Q2325.69 1856.96 2322.61 1861.57 Q2319.55 1866.15 2313.74 1866.15 Q2307.93 1866.15 2304.86 1861.57 Q2301.8 1856.96 2301.8 1848.24 Q2301.8 1839.49 2304.86 1834.9 Q2307.93 1830.3 2313.74 1830.3 Z" fill="#000000" fill-rule="evenodd" fill-opacity="1" /><path clip-path="url(#clip890)" d="M2333.91 1859.6 L2338.79 1859.6 L2338.79 1865.48 L2333.91 1865.48 L2333.91 1859.6 Z" fill="#000000" fill-rule="evenodd" fill-opacity="1" /><path clip-path="url(#clip890)" d="M2358.98 1849.07 Q2355.64 1849.07 2353.72 1850.85 Q2351.82 1852.64 2351.82 1855.76 Q2351.82 1858.89 2353.72 1860.67 Q2355.64 1862.45 2358.98 1862.45 Q2362.31 1862.45 2364.23 1860.67 Q2366.15 1858.86 2366.15 1855.76 Q2366.15 1852.64 2364.23 1850.85 Q2362.33 1849.07 2358.98 1849.07 M2354.3 1847.08 Q2351.29 1846.34 2349.6 1844.28 Q2347.93 1842.22 2347.93 1839.26 Q2347.93 1835.11 2350.87 1832.71 Q2353.84 1830.3 2358.98 1830.3 Q2364.14 1830.3 2367.08 1832.71 Q2370.02 1835.11 2370.02 1839.26 Q2370.02 1842.22 2368.33 1844.28 Q2366.66 1846.34 2363.67 1847.08 Q2367.05 1847.87 2368.93 1850.16 Q2370.83 1852.45 2370.83 1855.76 Q2370.83 1860.78 2367.75 1863.47 Q2364.69 1866.15 2358.98 1866.15 Q2353.26 1866.15 2350.18 1863.47 Q2347.12 1860.78 2347.12 1855.76 Q2347.12 1852.45 2349.02 1850.16 Q2350.92 1847.87 2354.3 1847.08 M2352.59 1839.7 Q2352.59 1842.38 2354.25 1843.89 Q2355.94 1845.39 2358.98 1845.39 Q2361.98 1845.39 2363.67 1843.89 Q2365.39 1842.38 2365.39 1839.7 Q2365.39 1837.01 2363.67 1835.51 Q2361.98 1834 2358.98 1834 Q2355.94 1834 2354.25 1835.51 Q2352.59 1837.01 2352.59 1839.7 Z" fill="#000000" fill-rule="evenodd" fill-opacity="1" /><polyline clip-path="url(#clip892)" style="stroke:#000000; stroke-linecap:round; stroke-linejoin:round; stroke-width:2; stroke-opacity:0.1; fill:none" points="
  174.895,1751.15 2640.76,1751.15 
  "/>
<polyline clip-path="url(#clip892)" style="stroke:#000000; stroke-linecap:round; stroke-linejoin:round; stroke-width:2; stroke-opacity:0.1; fill:none" points="
  174.895,1360.07 2640.76,1360.07 
  "/>
<polyline clip-path="url(#clip892)" style="stroke:#000000; stroke-linecap:round; stroke-linejoin:round; stroke-width:2; stroke-opacity:0.1; fill:none" points="
  174.895,968.986 2640.76,968.986 
  "/>
<polyline clip-path="url(#clip892)" style="stroke:#000000; stroke-linecap:round; stroke-linejoin:round; stroke-width:2; stroke-opacity:0.1; fill:none" points="
  174.895,577.904 2640.76,577.904 
  "/>
<polyline clip-path="url(#clip892)" style="stroke:#000000; stroke-linecap:round; stroke-linejoin:round; stroke-width:2; stroke-opacity:0.1; fill:none" points="
  174.895,186.821 2640.76,186.821 
  "/>
<polyline clip-path="url(#clip890)" style="stroke:#000000; stroke-linecap:round; stroke-linejoin:round; stroke-width:4; stroke-opacity:1; fill:none" points="
  174.895,1800.78 174.895,47.2441 
  "/>
<polyline clip-path="url(#clip890)" style="stroke:#000000; stroke-linecap:round; stroke-linejoin:round; stroke-width:4; stroke-opacity:1; fill:none" points="
  174.895,1751.15 193.792,1751.15 
  "/>
<polyline clip-path="url(#clip890)" style="stroke:#000000; stroke-linecap:round; stroke-linejoin:round; stroke-width:4; stroke-opacity:1; fill:none" points="
  174.895,1360.07 193.792,1360.07 
  "/>
<polyline clip-path="url(#clip890)" style="stroke:#000000; stroke-linecap:round; stroke-linejoin:round; stroke-width:4; stroke-opacity:1; fill:none" points="
  174.895,968.986 193.792,968.986 
  "/>
<polyline clip-path="url(#clip890)" style="stroke:#000000; stroke-linecap:round; stroke-linejoin:round; stroke-width:4; stroke-opacity:1; fill:none" points="
  174.895,577.904 193.792,577.904 
  "/>
<polyline clip-path="url(#clip890)" style="stroke:#000000; stroke-linecap:round; stroke-linejoin:round; stroke-width:4; stroke-opacity:1; fill:none" points="
  174.895,186.821 193.792,186.821 
  "/>
<path clip-path="url(#clip890)" d="M122.63 1736.95 Q119.019 1736.95 117.191 1740.51 Q115.385 1744.06 115.385 1751.19 Q115.385 1758.29 117.191 1761.86 Q119.019 1765.4 122.63 1765.4 Q126.265 1765.4 128.07 1761.86 Q129.899 1758.29 129.899 1751.19 Q129.899 1744.06 128.07 1740.51 Q126.265 1736.95 122.63 1736.95 M122.63 1733.25 Q128.441 1733.25 131.496 1737.85 Q134.575 1742.44 134.575 1751.19 Q134.575 1759.91 131.496 1764.52 Q128.441 1769.1 122.63 1769.1 Q116.82 1769.1 113.742 1764.52 Q110.686 1759.91 110.686 1751.19 Q110.686 1742.44 113.742 1737.85 Q116.82 1733.25 122.63 1733.25 Z" fill="#000000" fill-rule="evenodd" fill-opacity="1" /><path clip-path="url(#clip890)" d="M56.3345 1373.41 L72.6539 1373.41 L72.6539 1377.35 L50.7095 1377.35 L50.7095 1373.41 Q53.3715 1370.66 57.9549 1366.03 Q62.5613 1361.38 63.7419 1360.03 Q65.9872 1357.51 66.8668 1355.77 Q67.7696 1354.02 67.7696 1352.33 Q67.7696 1349.57 65.8252 1347.83 Q63.9039 1346.1 60.8021 1346.1 Q58.603 1346.1 56.1493 1346.86 Q53.7188 1347.63 50.941 1349.18 L50.941 1344.46 Q53.7651 1343.32 56.2188 1342.74 Q58.6724 1342.16 60.7095 1342.16 Q66.0798 1342.16 69.2742 1344.85 Q72.4687 1347.53 72.4687 1352.02 Q72.4687 1354.15 71.6585 1356.08 Q70.8715 1357.97 68.765 1360.57 Q68.1863 1361.24 65.0845 1364.46 Q61.9826 1367.65 56.3345 1373.41 Z" fill="#000000" fill-rule="evenodd" fill-opacity="1" /><path clip-path="url(#clip890)" d="M92.4686 1345.87 Q88.8575 1345.87 87.0288 1349.43 Q85.2232 1352.97 85.2232 1360.1 Q85.2232 1367.21 87.0288 1370.77 Q88.8575 1374.32 92.4686 1374.32 Q96.1028 1374.32 97.9083 1370.77 Q99.737 1367.21 99.737 1360.1 Q99.737 1352.97 97.9083 1349.43 Q96.1028 1345.87 92.4686 1345.87 M92.4686 1342.16 Q98.2787 1342.16 101.334 1346.77 Q104.413 1351.35 104.413 1360.1 Q104.413 1368.83 101.334 1373.44 Q98.2787 1378.02 92.4686 1378.02 Q86.6584 1378.02 83.5797 1373.44 Q80.5242 1368.83 80.5242 1360.1 Q80.5242 1351.35 83.5797 1346.77 Q86.6584 1342.16 92.4686 1342.16 Z" fill="#000000" fill-rule="evenodd" fill-opacity="1" /><path clip-path="url(#clip890)" d="M122.63 1345.87 Q119.019 1345.87 117.191 1349.43 Q115.385 1352.97 115.385 1360.1 Q115.385 1367.21 117.191 1370.77 Q119.019 1374.32 122.63 1374.32 Q126.265 1374.32 128.07 1370.77 Q129.899 1367.21 129.899 1360.1 Q129.899 1352.97 128.07 1349.43 Q126.265 1345.87 122.63 1345.87 M122.63 1342.16 Q128.441 1342.16 131.496 1346.77 Q134.575 1351.35 134.575 1360.1 Q134.575 1368.83 131.496 1373.44 Q128.441 1378.02 122.63 1378.02 Q116.82 1378.02 113.742 1373.44 Q110.686 1368.83 110.686 1360.1 Q110.686 1351.35 113.742 1346.77 Q116.82 1342.16 122.63 1342.16 Z" fill="#000000" fill-rule="evenodd" fill-opacity="1" /><path clip-path="url(#clip890)" d="M65.1539 955.78 L53.3484 974.229 L65.1539 974.229 L65.1539 955.78 M63.927 951.706 L69.8066 951.706 L69.8066 974.229 L74.7372 974.229 L74.7372 978.118 L69.8066 978.118 L69.8066 986.266 L65.1539 986.266 L65.1539 978.118 L49.5521 978.118 L49.5521 973.604 L63.927 951.706 Z" fill="#000000" fill-rule="evenodd" fill-opacity="1" /><path clip-path="url(#clip890)" d="M92.4686 954.785 Q88.8575 954.785 87.0288 958.35 Q85.2232 961.891 85.2232 969.021 Q85.2232 976.127 87.0288 979.692 Q88.8575 983.234 92.4686 983.234 Q96.1028 983.234 97.9083 979.692 Q99.737 976.127 99.737 969.021 Q99.737 961.891 97.9083 958.35 Q96.1028 954.785 92.4686 954.785 M92.4686 951.081 Q98.2787 951.081 101.334 955.688 Q104.413 960.271 104.413 969.021 Q104.413 977.748 101.334 982.354 Q98.2787 986.937 92.4686 986.937 Q86.6584 986.937 83.5797 982.354 Q80.5242 977.748 80.5242 969.021 Q80.5242 960.271 83.5797 955.688 Q86.6584 951.081 92.4686 951.081 Z" fill="#000000" fill-rule="evenodd" fill-opacity="1" /><path clip-path="url(#clip890)" d="M122.63 954.785 Q119.019 954.785 117.191 958.35 Q115.385 961.891 115.385 969.021 Q115.385 976.127 117.191 979.692 Q119.019 983.234 122.63 983.234 Q126.265 983.234 128.07 979.692 Q129.899 976.127 129.899 969.021 Q129.899 961.891 128.07 958.35 Q126.265 954.785 122.63 954.785 M122.63 951.081 Q128.441 951.081 131.496 955.688 Q134.575 960.271 134.575 969.021 Q134.575 977.748 131.496 982.354 Q128.441 986.937 122.63 986.937 Q116.82 986.937 113.742 982.354 Q110.686 977.748 110.686 969.021 Q110.686 960.271 113.742 955.688 Q116.82 951.081 122.63 951.081 Z" fill="#000000" fill-rule="evenodd" fill-opacity="1" /><path clip-path="url(#clip890)" d="M62.8854 576.04 Q59.7373 576.04 57.8854 578.193 Q56.0567 580.346 56.0567 584.096 Q56.0567 587.823 57.8854 589.999 Q59.7373 592.151 62.8854 592.151 Q66.0335 592.151 67.8622 589.999 Q69.7141 587.823 69.7141 584.096 Q69.7141 580.346 67.8622 578.193 Q66.0335 576.04 62.8854 576.04 M72.1677 561.388 L72.1677 565.647 Q70.4085 564.814 68.6029 564.374 Q66.8206 563.934 65.0613 563.934 Q60.4317 563.934 57.978 567.059 Q55.5475 570.184 55.2002 576.503 Q56.566 574.489 58.6262 573.425 Q60.6863 572.337 63.1632 572.337 Q68.3715 572.337 71.3807 575.508 Q74.4131 578.656 74.4131 584.096 Q74.4131 589.42 71.265 592.638 Q68.1168 595.855 62.8854 595.855 Q56.89 595.855 53.7188 591.272 Q50.5475 586.665 50.5475 577.939 Q50.5475 569.744 54.4364 564.883 Q58.3252 559.999 64.8761 559.999 Q66.6354 559.999 68.4178 560.346 Q70.2233 560.693 72.1677 561.388 Z" fill="#000000" fill-rule="evenodd" fill-opacity="1" /><path clip-path="url(#clip890)" d="M92.4686 563.702 Q88.8575 563.702 87.0288 567.267 Q85.2232 570.809 85.2232 577.939 Q85.2232 585.045 87.0288 588.61 Q88.8575 592.151 92.4686 592.151 Q96.1028 592.151 97.9083 588.61 Q99.737 585.045 99.737 577.939 Q99.737 570.809 97.9083 567.267 Q96.1028 563.702 92.4686 563.702 M92.4686 559.999 Q98.2787 559.999 101.334 564.605 Q104.413 569.189 104.413 577.939 Q104.413 586.665 101.334 591.272 Q98.2787 595.855 92.4686 595.855 Q86.6584 595.855 83.5797 591.272 Q80.5242 586.665 80.5242 577.939 Q80.5242 569.189 83.5797 564.605 Q86.6584 559.999 92.4686 559.999 Z" fill="#000000" fill-rule="evenodd" fill-opacity="1" /><path clip-path="url(#clip890)" d="M122.63 563.702 Q119.019 563.702 117.191 567.267 Q115.385 570.809 115.385 577.939 Q115.385 585.045 117.191 588.61 Q119.019 592.151 122.63 592.151 Q126.265 592.151 128.07 588.61 Q129.899 585.045 129.899 577.939 Q129.899 570.809 128.07 567.267 Q126.265 563.702 122.63 563.702 M122.63 559.999 Q128.441 559.999 131.496 564.605 Q134.575 569.189 134.575 577.939 Q134.575 586.665 131.496 591.272 Q128.441 595.855 122.63 595.855 Q116.82 595.855 113.742 591.272 Q110.686 586.665 110.686 577.939 Q110.686 569.189 113.742 564.605 Q116.82 559.999 122.63 559.999 Z" fill="#000000" fill-rule="evenodd" fill-opacity="1" /><path clip-path="url(#clip890)" d="M62.3067 187.689 Q58.9734 187.689 57.0521 189.472 Q55.1539 191.254 55.1539 194.379 Q55.1539 197.504 57.0521 199.287 Q58.9734 201.069 62.3067 201.069 Q65.64 201.069 67.5613 199.287 Q69.4826 197.481 69.4826 194.379 Q69.4826 191.254 67.5613 189.472 Q65.6632 187.689 62.3067 187.689 M57.6308 185.699 Q54.6215 184.958 52.9317 182.898 Q51.2651 180.838 51.2651 177.875 Q51.2651 173.731 54.2049 171.324 Q57.1678 168.916 62.3067 168.916 Q67.4687 168.916 70.4085 171.324 Q73.3483 173.731 73.3483 177.875 Q73.3483 180.838 71.6585 182.898 Q69.9918 184.958 67.0057 185.699 Q70.3853 186.486 72.2603 188.777 Q74.1585 191.069 74.1585 194.379 Q74.1585 199.402 71.0798 202.088 Q68.0242 204.773 62.3067 204.773 Q56.5891 204.773 53.5104 202.088 Q50.4549 199.402 50.4549 194.379 Q50.4549 191.069 52.353 188.777 Q54.2512 186.486 57.6308 185.699 M55.9178 178.314 Q55.9178 181 57.5845 182.504 Q59.2743 184.009 62.3067 184.009 Q65.3159 184.009 67.0057 182.504 Q68.7187 181 68.7187 178.314 Q68.7187 175.629 67.0057 174.125 Q65.3159 172.62 62.3067 172.62 Q59.2743 172.62 57.5845 174.125 Q55.9178 175.629 55.9178 178.314 Z" fill="#000000" fill-rule="evenodd" fill-opacity="1" /><path clip-path="url(#clip890)" d="M92.4686 172.62 Q88.8575 172.62 87.0288 176.185 Q85.2232 179.727 85.2232 186.856 Q85.2232 193.963 87.0288 197.527 Q88.8575 201.069 92.4686 201.069 Q96.1028 201.069 97.9083 197.527 Q99.737 193.963 99.737 186.856 Q99.737 179.727 97.9083 176.185 Q96.1028 172.62 92.4686 172.62 M92.4686 168.916 Q98.2787 168.916 101.334 173.523 Q104.413 178.106 104.413 186.856 Q104.413 195.583 101.334 200.189 Q98.2787 204.773 92.4686 204.773 Q86.6584 204.773 83.5797 200.189 Q80.5242 195.583 80.5242 186.856 Q80.5242 178.106 83.5797 173.523 Q86.6584 168.916 92.4686 168.916 Z" fill="#000000" fill-rule="evenodd" fill-opacity="1" /><path clip-path="url(#clip890)" d="M122.63 172.62 Q119.019 172.62 117.191 176.185 Q115.385 179.727 115.385 186.856 Q115.385 193.963 117.191 197.527 Q119.019 201.069 122.63 201.069 Q126.265 201.069 128.07 197.527 Q129.899 193.963 129.899 186.856 Q129.899 179.727 128.07 176.185 Q126.265 172.62 122.63 172.62 M122.63 168.916 Q128.441 168.916 131.496 173.523 Q134.575 178.106 134.575 186.856 Q134.575 195.583 131.496 200.189 Q128.441 204.773 122.63 204.773 Q116.82 204.773 113.742 200.189 Q110.686 195.583 110.686 186.856 Q110.686 178.106 113.742 173.523 Q116.82 168.916 122.63 168.916 Z" fill="#000000" fill-rule="evenodd" fill-opacity="1" /><path clip-path="url(#clip892)" d="
M310.522 1749.2 L310.522 1751.15 L366.794 1751.15 L366.794 1749.2 L310.522 1749.2 L310.522 1749.2  Z
  " fill="#009af9" fill-rule="evenodd" fill-opacity="1"/>
<polyline clip-path="url(#clip892)" style="stroke:#000000; stroke-linecap:round; stroke-linejoin:round; stroke-width:4; stroke-opacity:1; fill:none" points="
  310.522,1749.2 310.522,1751.15 366.794,1751.15 366.794,1749.2 310.522,1749.2 
  "/>
<path clip-path="url(#clip892)" d="
M366.794 1749.2 L366.794 1751.15 L423.066 1751.15 L423.066 1749.2 L366.794 1749.2 L366.794 1749.2  Z
  " fill="#009af9" fill-rule="evenodd" fill-opacity="1"/>
<polyline clip-path="url(#clip892)" style="stroke:#000000; stroke-linecap:round; stroke-linejoin:round; stroke-width:4; stroke-opacity:1; fill:none" points="
  366.794,1749.2 366.794,1751.15 423.066,1751.15 423.066,1749.2 366.794,1749.2 
  "/>
<path clip-path="url(#clip892)" d="
M423.066 1751.15 L423.066 1751.15 L479.338 1751.15 L479.338 1751.15 L423.066 1751.15 L423.066 1751.15  Z
  " fill="#009af9" fill-rule="evenodd" fill-opacity="1"/>
<polyline clip-path="url(#clip892)" style="stroke:#000000; stroke-linecap:round; stroke-linejoin:round; stroke-width:4; stroke-opacity:1; fill:none" points="
  423.066,1751.15 423.066,1751.15 479.338,1751.15 423.066,1751.15 
  "/>
<path clip-path="url(#clip892)" d="
M479.338 1749.2 L479.338 1751.15 L535.61 1751.15 L535.61 1749.2 L479.338 1749.2 L479.338 1749.2  Z
  " fill="#009af9" fill-rule="evenodd" fill-opacity="1"/>
<polyline clip-path="url(#clip892)" style="stroke:#000000; stroke-linecap:round; stroke-linejoin:round; stroke-width:4; stroke-opacity:1; fill:none" points="
  479.338,1749.2 479.338,1751.15 535.61,1751.15 535.61,1749.2 479.338,1749.2 
  "/>
<path clip-path="url(#clip892)" d="
M535.61 1739.42 L535.61 1751.15 L591.882 1751.15 L591.882 1739.42 L535.61 1739.42 L535.61 1739.42  Z
  " fill="#009af9" fill-rule="evenodd" fill-opacity="1"/>
<polyline clip-path="url(#clip892)" style="stroke:#000000; stroke-linecap:round; stroke-linejoin:round; stroke-width:4; stroke-opacity:1; fill:none" points="
  535.61,1739.42 535.61,1751.15 591.882,1751.15 591.882,1739.42 535.61,1739.42 
  "/>
<path clip-path="url(#clip892)" d="
M591.882 1739.42 L591.882 1751.15 L648.154 1751.15 L648.154 1739.42 L591.882 1739.42 L591.882 1739.42  Z
  " fill="#009af9" fill-rule="evenodd" fill-opacity="1"/>
<polyline clip-path="url(#clip892)" style="stroke:#000000; stroke-linecap:round; stroke-linejoin:round; stroke-width:4; stroke-opacity:1; fill:none" points="
  591.882,1739.42 591.882,1751.15 648.154,1751.15 648.154,1739.42 591.882,1739.42 
  "/>
<path clip-path="url(#clip892)" d="
M648.154 1727.69 L648.154 1751.15 L704.425 1751.15 L704.425 1727.69 L648.154 1727.69 L648.154 1727.69  Z
  " fill="#009af9" fill-rule="evenodd" fill-opacity="1"/>
<polyline clip-path="url(#clip892)" style="stroke:#000000; stroke-linecap:round; stroke-linejoin:round; stroke-width:4; stroke-opacity:1; fill:none" points="
  648.154,1727.69 648.154,1751.15 704.425,1751.15 704.425,1727.69 648.154,1727.69 
  "/>
<path clip-path="url(#clip892)" d="
M704.425 1715.95 L704.425 1751.15 L760.697 1751.15 L760.697 1715.95 L704.425 1715.95 L704.425 1715.95  Z
  " fill="#009af9" fill-rule="evenodd" fill-opacity="1"/>
<polyline clip-path="url(#clip892)" style="stroke:#000000; stroke-linecap:round; stroke-linejoin:round; stroke-width:4; stroke-opacity:1; fill:none" points="
  704.425,1715.95 704.425,1751.15 760.697,1751.15 760.697,1715.95 704.425,1715.95 
  "/>
<path clip-path="url(#clip892)" d="
M760.697 1680.76 L760.697 1751.15 L816.969 1751.15 L816.969 1680.76 L760.697 1680.76 L760.697 1680.76  Z
  " fill="#009af9" fill-rule="evenodd" fill-opacity="1"/>
<polyline clip-path="url(#clip892)" style="stroke:#000000; stroke-linecap:round; stroke-linejoin:round; stroke-width:4; stroke-opacity:1; fill:none" points="
  760.697,1680.76 760.697,1751.15 816.969,1751.15 816.969,1680.76 760.697,1680.76 
  "/>
<path clip-path="url(#clip892)" d="
M816.969 1649.47 L816.969 1751.15 L873.241 1751.15 L873.241 1649.47 L816.969 1649.47 L816.969 1649.47  Z
  " fill="#009af9" fill-rule="evenodd" fill-opacity="1"/>
<polyline clip-path="url(#clip892)" style="stroke:#000000; stroke-linecap:round; stroke-linejoin:round; stroke-width:4; stroke-opacity:1; fill:none" points="
  816.969,1649.47 816.969,1751.15 873.241,1751.15 873.241,1649.47 816.969,1649.47 
  "/>
<path clip-path="url(#clip892)" d="
M873.241 1588.85 L873.241 1751.15 L929.513 1751.15 L929.513 1588.85 L873.241 1588.85 L873.241 1588.85  Z
  " fill="#009af9" fill-rule="evenodd" fill-opacity="1"/>
<polyline clip-path="url(#clip892)" style="stroke:#000000; stroke-linecap:round; stroke-linejoin:round; stroke-width:4; stroke-opacity:1; fill:none" points="
  873.241,1588.85 873.241,1751.15 929.513,1751.15 929.513,1588.85 873.241,1588.85 
  "/>
<path clip-path="url(#clip892)" d="
M929.513 1510.64 L929.513 1751.15 L985.785 1751.15 L985.785 1510.64 L929.513 1510.64 L929.513 1510.64  Z
  " fill="#009af9" fill-rule="evenodd" fill-opacity="1"/>
<polyline clip-path="url(#clip892)" style="stroke:#000000; stroke-linecap:round; stroke-linejoin:round; stroke-width:4; stroke-opacity:1; fill:none" points="
  929.513,1510.64 929.513,1751.15 985.785,1751.15 985.785,1510.64 929.513,1510.64 
  "/>
<path clip-path="url(#clip892)" d="
M985.785 1403.09 L985.785 1751.15 L1042.06 1751.15 L1042.06 1403.09 L985.785 1403.09 L985.785 1403.09  Z
  " fill="#009af9" fill-rule="evenodd" fill-opacity="1"/>
<polyline clip-path="url(#clip892)" style="stroke:#000000; stroke-linecap:round; stroke-linejoin:round; stroke-width:4; stroke-opacity:1; fill:none" points="
  985.785,1403.09 985.785,1751.15 1042.06,1751.15 1042.06,1403.09 985.785,1403.09 
  "/>
<path clip-path="url(#clip892)" d="
M1042.06 1274.03 L1042.06 1751.15 L1098.33 1751.15 L1098.33 1274.03 L1042.06 1274.03 L1042.06 1274.03  Z
  " fill="#009af9" fill-rule="evenodd" fill-opacity="1"/>
<polyline clip-path="url(#clip892)" style="stroke:#000000; stroke-linecap:round; stroke-linejoin:round; stroke-width:4; stroke-opacity:1; fill:none" points="
  1042.06,1274.03 1042.06,1751.15 1098.33,1751.15 1098.33,1274.03 1042.06,1274.03 
  "/>
<path clip-path="url(#clip892)" d="
M1098.33 1100 L1098.33 1751.15 L1154.6 1751.15 L1154.6 1100 L1098.33 1100 L1098.33 1100  Z
  " fill="#009af9" fill-rule="evenodd" fill-opacity="1"/>
<polyline clip-path="url(#clip892)" style="stroke:#000000; stroke-linecap:round; stroke-linejoin:round; stroke-width:4; stroke-opacity:1; fill:none" points="
  1098.33,1100 1098.33,1751.15 1154.6,1751.15 1154.6,1100 1098.33,1100 
  "/>
<path clip-path="url(#clip892)" d="
M1154.6 931.833 L1154.6 1751.15 L1210.87 1751.15 L1210.87 931.833 L1154.6 931.833 L1154.6 931.833  Z
  " fill="#009af9" fill-rule="evenodd" fill-opacity="1"/>
<polyline clip-path="url(#clip892)" style="stroke:#000000; stroke-linecap:round; stroke-linejoin:round; stroke-width:4; stroke-opacity:1; fill:none" points="
  1154.6,931.833 1154.6,1751.15 1210.87,1751.15 1210.87,931.833 1154.6,931.833 
  "/>
<path clip-path="url(#clip892)" d="
M1210.87 685.451 L1210.87 1751.15 L1267.15 1751.15 L1267.15 685.451 L1210.87 685.451 L1210.87 685.451  Z
  " fill="#009af9" fill-rule="evenodd" fill-opacity="1"/>
<polyline clip-path="url(#clip892)" style="stroke:#000000; stroke-linecap:round; stroke-linejoin:round; stroke-width:4; stroke-opacity:1; fill:none" points="
  1210.87,685.451 1210.87,1751.15 1267.15,1751.15 1267.15,685.451 1210.87,685.451 
  "/>
<path clip-path="url(#clip892)" d="
M1267.15 546.617 L1267.15 1751.15 L1323.42 1751.15 L1323.42 546.617 L1267.15 546.617 L1267.15 546.617  Z
  " fill="#009af9" fill-rule="evenodd" fill-opacity="1"/>
<polyline clip-path="url(#clip892)" style="stroke:#000000; stroke-linecap:round; stroke-linejoin:round; stroke-width:4; stroke-opacity:1; fill:none" points="
  1267.15,546.617 1267.15,1751.15 1323.42,1751.15 1323.42,546.617 1267.15,546.617 
  "/>
<path clip-path="url(#clip892)" d="
M1323.42 396.05 L1323.42 1751.15 L1379.69 1751.15 L1379.69 396.05 L1323.42 396.05 L1323.42 396.05  Z
  " fill="#009af9" fill-rule="evenodd" fill-opacity="1"/>
<polyline clip-path="url(#clip892)" style="stroke:#000000; stroke-linecap:round; stroke-linejoin:round; stroke-width:4; stroke-opacity:1; fill:none" points="
  1323.42,396.05 1323.42,1751.15 1379.69,1751.15 1379.69,396.05 1323.42,396.05 
  "/>
<path clip-path="url(#clip892)" d="
M1379.69 286.547 L1379.69 1751.15 L1435.96 1751.15 L1435.96 286.547 L1379.69 286.547 L1379.69 286.547  Z
  " fill="#009af9" fill-rule="evenodd" fill-opacity="1"/>
<polyline clip-path="url(#clip892)" style="stroke:#000000; stroke-linecap:round; stroke-linejoin:round; stroke-width:4; stroke-opacity:1; fill:none" points="
  1379.69,286.547 1379.69,1751.15 1435.96,1751.15 1435.96,286.547 1379.69,286.547 
  "/>
<path clip-path="url(#clip892)" d="
M1435.96 96.8724 L1435.96 1751.15 L1492.23 1751.15 L1492.23 96.8724 L1435.96 96.8724 L1435.96 96.8724  Z
  " fill="#009af9" fill-rule="evenodd" fill-opacity="1"/>
<polyline clip-path="url(#clip892)" style="stroke:#000000; stroke-linecap:round; stroke-linejoin:round; stroke-width:4; stroke-opacity:1; fill:none" points="
  1435.96,96.8724 1435.96,1751.15 1492.23,1751.15 1492.23,96.8724 1435.96,96.8724 
  "/>
<path clip-path="url(#clip892)" d="
M1492.23 135.981 L1492.23 1751.15 L1548.51 1751.15 L1548.51 135.981 L1492.23 135.981 L1492.23 135.981  Z
  " fill="#009af9" fill-rule="evenodd" fill-opacity="1"/>
<polyline clip-path="url(#clip892)" style="stroke:#000000; stroke-linecap:round; stroke-linejoin:round; stroke-width:4; stroke-opacity:1; fill:none" points="
  1492.23,135.981 1492.23,1751.15 1548.51,1751.15 1548.51,135.981 1492.23,135.981 
  "/>
<path clip-path="url(#clip892)" d="
M1548.51 304.146 L1548.51 1751.15 L1604.78 1751.15 L1604.78 304.146 L1548.51 304.146 L1548.51 304.146  Z
  " fill="#009af9" fill-rule="evenodd" fill-opacity="1"/>
<polyline clip-path="url(#clip892)" style="stroke:#000000; stroke-linecap:round; stroke-linejoin:round; stroke-width:4; stroke-opacity:1; fill:none" points="
  1548.51,304.146 1548.51,1751.15 1604.78,1751.15 1604.78,304.146 1548.51,304.146 
  "/>
<path clip-path="url(#clip892)" d="
M1604.78 390.184 L1604.78 1751.15 L1661.05 1751.15 L1661.05 390.184 L1604.78 390.184 L1604.78 390.184  Z
  " fill="#009af9" fill-rule="evenodd" fill-opacity="1"/>
<polyline clip-path="url(#clip892)" style="stroke:#000000; stroke-linecap:round; stroke-linejoin:round; stroke-width:4; stroke-opacity:1; fill:none" points="
  1604.78,390.184 1604.78,1751.15 1661.05,1751.15 1661.05,390.184 1604.78,390.184 
  "/>
<path clip-path="url(#clip892)" d="
M1661.05 456.668 L1661.05 1751.15 L1717.32 1751.15 L1717.32 456.668 L1661.05 456.668 L1661.05 456.668  Z
  " fill="#009af9" fill-rule="evenodd" fill-opacity="1"/>
<polyline clip-path="url(#clip892)" style="stroke:#000000; stroke-linecap:round; stroke-linejoin:round; stroke-width:4; stroke-opacity:1; fill:none" points="
  1661.05,456.668 1661.05,1751.15 1717.32,1751.15 1717.32,456.668 1661.05,456.668 
  "/>
<path clip-path="url(#clip892)" d="
M1717.32 757.802 L1717.32 1751.15 L1773.59 1751.15 L1773.59 757.802 L1717.32 757.802 L1717.32 757.802  Z
  " fill="#009af9" fill-rule="evenodd" fill-opacity="1"/>
<polyline clip-path="url(#clip892)" style="stroke:#000000; stroke-linecap:round; stroke-linejoin:round; stroke-width:4; stroke-opacity:1; fill:none" points="
  1717.32,757.802 1717.32,1751.15 1773.59,1751.15 1773.59,757.802 1717.32,757.802 
  "/>
<path clip-path="url(#clip892)" d="
M1773.59 886.859 L1773.59 1751.15 L1829.87 1751.15 L1829.87 886.859 L1773.59 886.859 L1773.59 886.859  Z
  " fill="#009af9" fill-rule="evenodd" fill-opacity="1"/>
<polyline clip-path="url(#clip892)" style="stroke:#000000; stroke-linecap:round; stroke-linejoin:round; stroke-width:4; stroke-opacity:1; fill:none" points="
  1773.59,886.859 1773.59,1751.15 1829.87,1751.15 1829.87,886.859 1773.59,886.859 
  "/>
<path clip-path="url(#clip892)" d="
M1829.87 1123.46 L1829.87 1751.15 L1886.14 1751.15 L1886.14 1123.46 L1829.87 1123.46 L1829.87 1123.46  Z
  " fill="#009af9" fill-rule="evenodd" fill-opacity="1"/>
<polyline clip-path="url(#clip892)" style="stroke:#000000; stroke-linecap:round; stroke-linejoin:round; stroke-width:4; stroke-opacity:1; fill:none" points="
  1829.87,1123.46 1829.87,1751.15 1886.14,1751.15 1886.14,1123.46 1829.87,1123.46 
  "/>
<path clip-path="url(#clip892)" d="
M1886.14 1205.59 L1886.14 1751.15 L1942.41 1751.15 L1942.41 1205.59 L1886.14 1205.59 L1886.14 1205.59  Z
  " fill="#009af9" fill-rule="evenodd" fill-opacity="1"/>
<polyline clip-path="url(#clip892)" style="stroke:#000000; stroke-linecap:round; stroke-linejoin:round; stroke-width:4; stroke-opacity:1; fill:none" points="
  1886.14,1205.59 1886.14,1751.15 1942.41,1751.15 1942.41,1205.59 1886.14,1205.59 
  "/>
<path clip-path="url(#clip892)" d="
M1942.41 1362.02 L1942.41 1751.15 L1998.68 1751.15 L1998.68 1362.02 L1942.41 1362.02 L1942.41 1362.02  Z
  " fill="#009af9" fill-rule="evenodd" fill-opacity="1"/>
<polyline clip-path="url(#clip892)" style="stroke:#000000; stroke-linecap:round; stroke-linejoin:round; stroke-width:4; stroke-opacity:1; fill:none" points="
  1942.41,1362.02 1942.41,1751.15 1998.68,1751.15 1998.68,1362.02 1942.41,1362.02 
  "/>
<path clip-path="url(#clip892)" d="
M1998.68 1493.04 L1998.68 1751.15 L2054.95 1751.15 L2054.95 1493.04 L1998.68 1493.04 L1998.68 1493.04  Z
  " fill="#009af9" fill-rule="evenodd" fill-opacity="1"/>
<polyline clip-path="url(#clip892)" style="stroke:#000000; stroke-linecap:round; stroke-linejoin:round; stroke-width:4; stroke-opacity:1; fill:none" points="
  1998.68,1493.04 1998.68,1751.15 2054.95,1751.15 2054.95,1493.04 1998.68,1493.04 
  "/>
<path clip-path="url(#clip892)" d="
M2054.95 1569.3 L2054.95 1751.15 L2111.23 1751.15 L2111.23 1569.3 L2054.95 1569.3 L2054.95 1569.3  Z
  " fill="#009af9" fill-rule="evenodd" fill-opacity="1"/>
<polyline clip-path="url(#clip892)" style="stroke:#000000; stroke-linecap:round; stroke-linejoin:round; stroke-width:4; stroke-opacity:1; fill:none" points="
  2054.95,1569.3 2054.95,1751.15 2111.23,1751.15 2111.23,1569.3 2054.95,1569.3 
  "/>
<path clip-path="url(#clip892)" d="
M2111.23 1645.56 L2111.23 1751.15 L2167.5 1751.15 L2167.5 1645.56 L2111.23 1645.56 L2111.23 1645.56  Z
  " fill="#009af9" fill-rule="evenodd" fill-opacity="1"/>
<polyline clip-path="url(#clip892)" style="stroke:#000000; stroke-linecap:round; stroke-linejoin:round; stroke-width:4; stroke-opacity:1; fill:none" points="
  2111.23,1645.56 2111.23,1751.15 2167.5,1751.15 2167.5,1645.56 2111.23,1645.56 
  "/>
<path clip-path="url(#clip892)" d="
M2167.5 1672.93 L2167.5 1751.15 L2223.77 1751.15 L2223.77 1672.93 L2167.5 1672.93 L2167.5 1672.93  Z
  " fill="#009af9" fill-rule="evenodd" fill-opacity="1"/>
<polyline clip-path="url(#clip892)" style="stroke:#000000; stroke-linecap:round; stroke-linejoin:round; stroke-width:4; stroke-opacity:1; fill:none" points="
  2167.5,1672.93 2167.5,1751.15 2223.77,1751.15 2223.77,1672.93 2167.5,1672.93 
  "/>
<path clip-path="url(#clip892)" d="
M2223.77 1706.18 L2223.77 1751.15 L2280.04 1751.15 L2280.04 1706.18 L2223.77 1706.18 L2223.77 1706.18  Z
  " fill="#009af9" fill-rule="evenodd" fill-opacity="1"/>
<polyline clip-path="url(#clip892)" style="stroke:#000000; stroke-linecap:round; stroke-linejoin:round; stroke-width:4; stroke-opacity:1; fill:none" points="
  2223.77,1706.18 2223.77,1751.15 2280.04,1751.15 2280.04,1706.18 2223.77,1706.18 
  "/>
<path clip-path="url(#clip892)" d="
M2280.04 1729.64 L2280.04 1751.15 L2336.31 1751.15 L2336.31 1729.64 L2280.04 1729.64 L2280.04 1729.64  Z
  " fill="#009af9" fill-rule="evenodd" fill-opacity="1"/>
<polyline clip-path="url(#clip892)" style="stroke:#000000; stroke-linecap:round; stroke-linejoin:round; stroke-width:4; stroke-opacity:1; fill:none" points="
  2280.04,1729.64 2280.04,1751.15 2336.31,1751.15 2336.31,1729.64 2280.04,1729.64 
  "/>
<path clip-path="url(#clip892)" d="
M2336.31 1739.42 L2336.31 1751.15 L2392.59 1751.15 L2392.59 1739.42 L2336.31 1739.42 L2336.31 1739.42  Z
  " fill="#009af9" fill-rule="evenodd" fill-opacity="1"/>
<polyline clip-path="url(#clip892)" style="stroke:#000000; stroke-linecap:round; stroke-linejoin:round; stroke-width:4; stroke-opacity:1; fill:none" points="
  2336.31,1739.42 2336.31,1751.15 2392.59,1751.15 2392.59,1739.42 2336.31,1739.42 
  "/>
<path clip-path="url(#clip892)" d="
M2392.59 1745.28 L2392.59 1751.15 L2448.86 1751.15 L2448.86 1745.28 L2392.59 1745.28 L2392.59 1745.28  Z
  " fill="#009af9" fill-rule="evenodd" fill-opacity="1"/>
<polyline clip-path="url(#clip892)" style="stroke:#000000; stroke-linecap:round; stroke-linejoin:round; stroke-width:4; stroke-opacity:1; fill:none" points="
  2392.59,1745.28 2392.59,1751.15 2448.86,1751.15 2448.86,1745.28 2392.59,1745.28 
  "/>
<path clip-path="url(#clip892)" d="
M2448.86 1745.28 L2448.86 1751.15 L2505.13 1751.15 L2505.13 1745.28 L2448.86 1745.28 L2448.86 1745.28  Z
  " fill="#009af9" fill-rule="evenodd" fill-opacity="1"/>
<polyline clip-path="url(#clip892)" style="stroke:#000000; stroke-linecap:round; stroke-linejoin:round; stroke-width:4; stroke-opacity:1; fill:none" points="
  2448.86,1745.28 2448.86,1751.15 2505.13,1751.15 2505.13,1745.28 2448.86,1745.28 
  "/>
<circle clip-path="url(#clip892)" style="fill:#009af9; stroke:none; fill-opacity:0" cx="338.658" cy="1749.2" r="2"/>
<circle clip-path="url(#clip892)" style="fill:#009af9; stroke:none; fill-opacity:0" cx="394.93" cy="1749.2" r="2"/>
<circle clip-path="url(#clip892)" style="fill:#009af9; stroke:none; fill-opacity:0" cx="451.202" cy="1751.15" r="2"/>
<circle clip-path="url(#clip892)" style="fill:#009af9; stroke:none; fill-opacity:0" cx="507.474" cy="1749.2" r="2"/>
<circle clip-path="url(#clip892)" style="fill:#009af9; stroke:none; fill-opacity:0" cx="563.746" cy="1739.42" r="2"/>
<circle clip-path="url(#clip892)" style="fill:#009af9; stroke:none; fill-opacity:0" cx="620.018" cy="1739.42" r="2"/>
<circle clip-path="url(#clip892)" style="fill:#009af9; stroke:none; fill-opacity:0" cx="676.289" cy="1727.69" r="2"/>
<circle clip-path="url(#clip892)" style="fill:#009af9; stroke:none; fill-opacity:0" cx="732.561" cy="1715.95" r="2"/>
<circle clip-path="url(#clip892)" style="fill:#009af9; stroke:none; fill-opacity:0" cx="788.833" cy="1680.76" r="2"/>
<circle clip-path="url(#clip892)" style="fill:#009af9; stroke:none; fill-opacity:0" cx="845.105" cy="1649.47" r="2"/>
<circle clip-path="url(#clip892)" style="fill:#009af9; stroke:none; fill-opacity:0" cx="901.377" cy="1588.85" r="2"/>
<circle clip-path="url(#clip892)" style="fill:#009af9; stroke:none; fill-opacity:0" cx="957.649" cy="1510.64" r="2"/>
<circle clip-path="url(#clip892)" style="fill:#009af9; stroke:none; fill-opacity:0" cx="1013.92" cy="1403.09" r="2"/>
<circle clip-path="url(#clip892)" style="fill:#009af9; stroke:none; fill-opacity:0" cx="1070.19" cy="1274.03" r="2"/>
<circle clip-path="url(#clip892)" style="fill:#009af9; stroke:none; fill-opacity:0" cx="1126.47" cy="1100" r="2"/>
<circle clip-path="url(#clip892)" style="fill:#009af9; stroke:none; fill-opacity:0" cx="1182.74" cy="931.833" r="2"/>
<circle clip-path="url(#clip892)" style="fill:#009af9; stroke:none; fill-opacity:0" cx="1239.01" cy="685.451" r="2"/>
<circle clip-path="url(#clip892)" style="fill:#009af9; stroke:none; fill-opacity:0" cx="1295.28" cy="546.617" r="2"/>
<circle clip-path="url(#clip892)" style="fill:#009af9; stroke:none; fill-opacity:0" cx="1351.55" cy="396.05" r="2"/>
<circle clip-path="url(#clip892)" style="fill:#009af9; stroke:none; fill-opacity:0" cx="1407.83" cy="286.547" r="2"/>
<circle clip-path="url(#clip892)" style="fill:#009af9; stroke:none; fill-opacity:0" cx="1464.1" cy="96.8724" r="2"/>
<circle clip-path="url(#clip892)" style="fill:#009af9; stroke:none; fill-opacity:0" cx="1520.37" cy="135.981" r="2"/>
<circle clip-path="url(#clip892)" style="fill:#009af9; stroke:none; fill-opacity:0" cx="1576.64" cy="304.146" r="2"/>
<circle clip-path="url(#clip892)" style="fill:#009af9; stroke:none; fill-opacity:0" cx="1632.91" cy="390.184" r="2"/>
<circle clip-path="url(#clip892)" style="fill:#009af9; stroke:none; fill-opacity:0" cx="1689.19" cy="456.668" r="2"/>
<circle clip-path="url(#clip892)" style="fill:#009af9; stroke:none; fill-opacity:0" cx="1745.46" cy="757.802" r="2"/>
<circle clip-path="url(#clip892)" style="fill:#009af9; stroke:none; fill-opacity:0" cx="1801.73" cy="886.859" r="2"/>
<circle clip-path="url(#clip892)" style="fill:#009af9; stroke:none; fill-opacity:0" cx="1858" cy="1123.46" r="2"/>
<circle clip-path="url(#clip892)" style="fill:#009af9; stroke:none; fill-opacity:0" cx="1914.27" cy="1205.59" r="2"/>
<circle clip-path="url(#clip892)" style="fill:#009af9; stroke:none; fill-opacity:0" cx="1970.55" cy="1362.02" r="2"/>
<circle clip-path="url(#clip892)" style="fill:#009af9; stroke:none; fill-opacity:0" cx="2026.82" cy="1493.04" r="2"/>
<circle clip-path="url(#clip892)" style="fill:#009af9; stroke:none; fill-opacity:0" cx="2083.09" cy="1569.3" r="2"/>
<circle clip-path="url(#clip892)" style="fill:#009af9; stroke:none; fill-opacity:0" cx="2139.36" cy="1645.56" r="2"/>
<circle clip-path="url(#clip892)" style="fill:#009af9; stroke:none; fill-opacity:0" cx="2195.63" cy="1672.93" r="2"/>
<circle clip-path="url(#clip892)" style="fill:#009af9; stroke:none; fill-opacity:0" cx="2251.91" cy="1706.18" r="2"/>
<circle clip-path="url(#clip892)" style="fill:#009af9; stroke:none; fill-opacity:0" cx="2308.18" cy="1729.64" r="2"/>
<circle clip-path="url(#clip892)" style="fill:#009af9; stroke:none; fill-opacity:0" cx="2364.45" cy="1739.42" r="2"/>
<circle clip-path="url(#clip892)" style="fill:#009af9; stroke:none; fill-opacity:0" cx="2420.72" cy="1745.28" r="2"/>
<circle clip-path="url(#clip892)" style="fill:#009af9; stroke:none; fill-opacity:0" cx="2476.99" cy="1745.28" r="2"/>
<path clip-path="url(#clip890)" d="
M2259.54 209.375 L2558.56 209.375 L2558.56 105.695 L2259.54 105.695  Z
  " fill="#ffffff" fill-rule="evenodd" fill-opacity="1"/>
<polyline clip-path="url(#clip890)" style="stroke:#000000; stroke-linecap:round; stroke-linejoin:round; stroke-width:4; stroke-opacity:1; fill:none" points="
  2259.54,209.375 2558.56,209.375 2558.56,105.695 2259.54,105.695 2259.54,209.375 
  "/>
<path clip-path="url(#clip890)" d="
M2286.94 178.271 L2451.33 178.271 L2451.33 136.799 L2286.94 136.799 L2286.94 178.271  Z
  " fill="#009af9" fill-rule="evenodd" fill-opacity="1"/>
<polyline clip-path="url(#clip890)" style="stroke:#000000; stroke-linecap:round; stroke-linejoin:round; stroke-width:4; stroke-opacity:1; fill:none" points="
  2286.94,178.271 2451.33,178.271 2451.33,136.799 2286.94,136.799 2286.94,178.271 
  "/>
<path clip-path="url(#clip890)" d="M2492.57 177.223 Q2490.77 181.852 2489.06 183.264 Q2487.34 184.676 2484.47 184.676 L2481.07 184.676 L2481.07 181.112 L2483.57 181.112 Q2485.33 181.112 2486.3 180.278 Q2487.27 179.445 2488.45 176.343 L2489.22 174.399 L2478.73 148.889 L2483.25 148.889 L2491.35 169.167 L2499.45 148.889 L2503.96 148.889 L2492.57 177.223 Z" fill="#000000" fill-rule="evenodd" fill-opacity="1" /><path clip-path="url(#clip890)" d="M2511.25 170.88 L2518.89 170.88 L2518.89 144.515 L2510.58 146.181 L2510.58 141.922 L2518.85 140.255 L2523.52 140.255 L2523.52 170.88 L2531.16 170.88 L2531.16 174.815 L2511.25 174.815 L2511.25 170.88 Z" fill="#000000" fill-rule="evenodd" fill-opacity="1" /></svg>
