<?xml version="1.0" encoding="utf-8"?>
<svg xmlns="http://www.w3.org/2000/svg" xmlns:xlink="http://www.w3.org/1999/xlink" width="672" height="480" viewBox="0 0 2688 1920">
<defs>
  <clipPath id="clip700">
    <rect x="0" y="0" width="2688" height="1920"/>
  </clipPath>
</defs>
<path clip-path="url(#clip700)" d="
M0 1920 L2688 1920 L2688 0 L0 0  Z
  " fill="#ffffff" fill-rule="evenodd" fill-opacity="1"/>
<defs>
  <clipPath id="clip701">
    <rect x="537" y="0" width="1883" height="1883"/>
  </clipPath>
</defs>
<path clip-path="url(#clip700)" d="
M174.895 1800.78 L2640.76 1800.78 L2640.76 47.2441 L174.895 47.2441  Z
  " fill="#ffffff" fill-rule="evenodd" fill-opacity="1"/>
<defs>
  <clipPath id="clip702">
    <rect x="174" y="47" width="2467" height="1755"/>
  </clipPath>
</defs>
<polyline clip-path="url(#clip702)" style="stroke:#000000; stroke-linecap:round; stroke-linejoin:round; stroke-width:2; stroke-opacity:0.1; fill:none" points="
  591.882,1800.78 591.882,47.2441 
  "/>
<polyline clip-path="url(#clip702)" style="stroke:#000000; stroke-linecap:round; stroke-linejoin:round; stroke-width:2; stroke-opacity:0.1; fill:none" points="
  1154.6,1800.78 1154.6,47.2441 
  "/>
<polyline clip-path="url(#clip702)" style="stroke:#000000; stroke-linecap:round; stroke-linejoin:round; stroke-width:2; stroke-opacity:0.1; fill:none" points="
  1717.32,1800.78 1717.32,47.2441 
  "/>
<polyline clip-path="url(#clip702)" style="stroke:#000000; stroke-linecap:round; stroke-linejoin:round; stroke-width:2; stroke-opacity:0.1; fill:none" points="
  2280.04,1800.78 2280.04,47.2441 
  "/>
<polyline clip-path="url(#clip700)" style="stroke:#000000; stroke-linecap:round; stroke-linejoin:round; stroke-width:4; stroke-opacity:1; fill:none" points="
  174.895,1800.78 2640.76,1800.78 
  "/>
<polyline clip-path="url(#clip700)" style="stroke:#000000; stroke-linecap:round; stroke-linejoin:round; stroke-width:4; stroke-opacity:1; fill:none" points="
  591.882,1800.78 591.882,1781.88 
  "/>
<polyline clip-path="url(#clip700)" style="stroke:#000000; stroke-linecap:round; stroke-linejoin:round; stroke-width:4; stroke-opacity:1; fill:none" points="
  1154.6,1800.78 1154.6,1781.88 
  "/>
<polyline clip-path="url(#clip700)" style="stroke:#000000; stroke-linecap:round; stroke-linejoin:round; stroke-width:4; stroke-opacity:1; fill:none" points="
  1717.32,1800.78 1717.32,1781.88 
  "/>
<polyline clip-path="url(#clip700)" style="stroke:#000000; stroke-linecap:round; stroke-linejoin:round; stroke-width:4; stroke-opacity:1; fill:none" points="
  2280.04,1800.78 2280.04,1781.88 
  "/>
<path clip-path="url(#clip700)" d="M570.065 1834 Q566.453 1834 564.625 1837.57 Q562.819 1841.11 562.819 1848.24 Q562.819 1855.34 564.625 1858.91 Q566.453 1862.45 570.065 1862.45 Q573.699 1862.45 575.504 1858.91 Q577.333 1855.34 577.333 1848.24 Q577.333 1841.11 575.504 1837.57 Q573.699 1834 570.065 1834 M570.065 1830.3 Q575.875 1830.3 578.93 1834.9 Q582.009 1839.49 582.009 1848.24 Q582.009 1856.96 578.93 1861.57 Q575.875 1866.15 570.065 1866.15 Q564.254 1866.15 561.176 1861.57 Q558.12 1856.96 558.12 1848.24 Q558.12 1839.49 561.176 1834.9 Q564.254 1830.3 570.065 1830.3 Z" fill="#000000" fill-rule="evenodd" fill-opacity="1" /><path clip-path="url(#clip700)" d="M590.226 1859.6 L595.111 1859.6 L595.111 1865.48 L590.226 1865.48 L590.226 1859.6 Z" fill="#000000" fill-rule="evenodd" fill-opacity="1" /><path clip-path="url(#clip700)" d="M609.324 1861.55 L625.643 1861.55 L625.643 1865.48 L603.699 1865.48 L603.699 1861.55 Q606.361 1858.79 610.944 1854.16 Q615.55 1849.51 616.731 1848.17 Q618.976 1845.65 619.856 1843.91 Q620.759 1842.15 620.759 1840.46 Q620.759 1837.71 618.814 1835.97 Q616.893 1834.23 613.791 1834.23 Q611.592 1834.23 609.138 1835 Q606.708 1835.76 603.93 1837.31 L603.93 1832.59 Q606.754 1831.46 609.208 1830.88 Q611.662 1830.3 613.699 1830.3 Q619.069 1830.3 622.263 1832.98 Q625.458 1835.67 625.458 1840.16 Q625.458 1842.29 624.648 1844.21 Q623.861 1846.11 621.754 1848.7 Q621.175 1849.37 618.074 1852.59 Q614.972 1855.78 609.324 1861.55 Z" fill="#000000" fill-rule="evenodd" fill-opacity="1" /><path clip-path="url(#clip700)" d="M1131.74 1834 Q1128.13 1834 1126.3 1837.57 Q1124.5 1841.11 1124.5 1848.24 Q1124.5 1855.34 1126.3 1858.91 Q1128.13 1862.45 1131.74 1862.45 Q1135.38 1862.45 1137.18 1858.91 Q1139.01 1855.34 1139.01 1848.24 Q1139.01 1841.11 1137.18 1837.57 Q1135.38 1834 1131.74 1834 M1131.74 1830.3 Q1137.55 1830.3 1140.61 1834.9 Q1143.69 1839.49 1143.69 1848.24 Q1143.69 1856.96 1140.61 1861.57 Q1137.55 1866.15 1131.74 1866.15 Q1125.93 1866.15 1122.85 1861.57 Q1119.8 1856.96 1119.8 1848.24 Q1119.8 1839.49 1122.85 1834.9 Q1125.93 1830.3 1131.74 1830.3 Z" fill="#000000" fill-rule="evenodd" fill-opacity="1" /><path clip-path="url(#clip700)" d="M1151.9 1859.6 L1156.79 1859.6 L1156.79 1865.48 L1151.9 1865.48 L1151.9 1859.6 Z" fill="#000000" fill-rule="evenodd" fill-opacity="1" /><path clip-path="url(#clip700)" d="M1179.82 1835 L1168.02 1853.45 L1179.82 1853.45 L1179.82 1835 M1178.59 1830.92 L1184.47 1830.92 L1184.47 1853.45 L1189.4 1853.45 L1189.4 1857.34 L1184.47 1857.34 L1184.47 1865.48 L1179.82 1865.48 L1179.82 1857.34 L1164.22 1857.34 L1164.22 1852.82 L1178.59 1830.92 Z" fill="#000000" fill-rule="evenodd" fill-opacity="1" /><path clip-path="url(#clip700)" d="M1694.62 1834 Q1691.01 1834 1689.18 1837.57 Q1687.38 1841.11 1687.38 1848.24 Q1687.38 1855.34 1689.18 1858.91 Q1691.01 1862.45 1694.62 1862.45 Q1698.26 1862.45 1700.06 1858.91 Q1701.89 1855.34 1701.89 1848.24 Q1701.89 1841.11 1700.06 1837.57 Q1698.26 1834 1694.62 1834 M1694.62 1830.3 Q1700.43 1830.3 1703.49 1834.9 Q1706.57 1839.49 1706.57 1848.24 Q1706.57 1856.96 1703.49 1861.57 Q1700.43 1866.15 1694.62 1866.15 Q1688.81 1866.15 1685.74 1861.57 Q1682.68 1856.96 1682.68 1848.24 Q1682.68 1839.49 1685.74 1834.9 Q1688.81 1830.3 1694.62 1830.3 Z" fill="#000000" fill-rule="evenodd" fill-opacity="1" /><path clip-path="url(#clip700)" d="M1714.79 1859.6 L1719.67 1859.6 L1719.67 1865.48 L1714.79 1865.48 L1714.79 1859.6 Z" fill="#000000" fill-rule="evenodd" fill-opacity="1" /><path clip-path="url(#clip700)" d="M1740.43 1846.34 Q1737.29 1846.34 1735.43 1848.49 Q1733.61 1850.65 1733.61 1854.4 Q1733.61 1858.12 1735.43 1860.3 Q1737.29 1862.45 1740.43 1862.45 Q1743.58 1862.45 1745.41 1860.3 Q1747.26 1858.12 1747.26 1854.4 Q1747.26 1850.65 1745.41 1848.49 Q1743.58 1846.34 1740.43 1846.34 M1749.72 1831.69 L1749.72 1835.95 Q1747.96 1835.11 1746.15 1834.67 Q1744.37 1834.23 1742.61 1834.23 Q1737.98 1834.23 1735.53 1837.36 Q1733.1 1840.48 1732.75 1846.8 Q1734.12 1844.79 1736.18 1843.72 Q1738.24 1842.64 1740.71 1842.64 Q1745.92 1842.64 1748.93 1845.81 Q1751.96 1848.96 1751.96 1854.4 Q1751.96 1859.72 1748.81 1862.94 Q1745.67 1866.15 1740.43 1866.15 Q1734.44 1866.15 1731.27 1861.57 Q1728.1 1856.96 1728.1 1848.24 Q1728.1 1840.04 1731.99 1835.18 Q1735.87 1830.3 1742.43 1830.3 Q1744.18 1830.3 1745.97 1830.65 Q1747.77 1830.99 1749.72 1831.69 Z" fill="#000000" fill-rule="evenodd" fill-opacity="1" /><path clip-path="url(#clip700)" d="M2257.47 1834 Q2253.86 1834 2252.03 1837.57 Q2250.23 1841.11 2250.23 1848.24 Q2250.23 1855.34 2252.03 1858.91 Q2253.86 1862.45 2257.47 1862.45 Q2261.11 1862.45 2262.91 1858.91 Q2264.74 1855.34 2264.74 1848.24 Q2264.74 1841.11 2262.91 1837.57 Q2261.11 1834 2257.47 1834 M2257.47 1830.3 Q2263.28 1830.3 2266.34 1834.9 Q2269.42 1839.49 2269.42 1848.24 Q2269.42 1856.96 2266.34 1861.57 Q2263.28 1866.15 2257.47 1866.15 Q2251.66 1866.15 2248.58 1861.57 Q2245.53 1856.96 2245.53 1848.24 Q2245.53 1839.49 2248.58 1834.9 Q2251.66 1830.3 2257.47 1830.3 Z" fill="#000000" fill-rule="evenodd" fill-opacity="1" /><path clip-path="url(#clip700)" d="M2277.63 1859.6 L2282.52 1859.6 L2282.52 1865.48 L2277.63 1865.48 L2277.63 1859.6 Z" fill="#000000" fill-rule="evenodd" fill-opacity="1" /><path clip-path="url(#clip700)" d="M2302.7 1849.07 Q2299.37 1849.07 2297.45 1850.85 Q2295.55 1852.64 2295.55 1855.76 Q2295.55 1858.89 2297.45 1860.67 Q2299.37 1862.45 2302.7 1862.45 Q2306.04 1862.45 2307.96 1860.67 Q2309.88 1858.86 2309.88 1855.76 Q2309.88 1852.64 2307.96 1850.85 Q2306.06 1849.07 2302.7 1849.07 M2298.03 1847.08 Q2295.02 1846.34 2293.33 1844.28 Q2291.66 1842.22 2291.66 1839.26 Q2291.66 1835.11 2294.6 1832.71 Q2297.56 1830.3 2302.7 1830.3 Q2307.87 1830.3 2310.8 1832.71 Q2313.74 1835.11 2313.74 1839.26 Q2313.74 1842.22 2312.05 1844.28 Q2310.39 1846.34 2307.4 1847.08 Q2310.78 1847.87 2312.66 1850.16 Q2314.55 1852.45 2314.55 1855.76 Q2314.55 1860.78 2311.48 1863.47 Q2308.42 1866.15 2302.7 1866.15 Q2296.99 1866.15 2293.91 1863.47 Q2290.85 1860.78 2290.85 1855.76 Q2290.85 1852.45 2292.75 1850.16 Q2294.65 1847.87 2298.03 1847.08 M2296.31 1839.7 Q2296.31 1842.38 2297.98 1843.89 Q2299.67 1845.39 2302.7 1845.39 Q2305.71 1845.39 2307.4 1843.89 Q2309.12 1842.38 2309.12 1839.7 Q2309.12 1837.01 2307.4 1835.51 Q2305.71 1834 2302.7 1834 Q2299.67 1834 2297.98 1835.51 Q2296.31 1837.01 2296.31 1839.7 Z" fill="#000000" fill-rule="evenodd" fill-opacity="1" /><polyline clip-path="url(#clip702)" style="stroke:#000000; stroke-linecap:round; stroke-linejoin:round; stroke-width:2; stroke-opacity:0.1; fill:none" points="
  174.895,1751.15 2640.76,1751.15 
  "/>
<polyline clip-path="url(#clip702)" style="stroke:#000000; stroke-linecap:round; stroke-linejoin:round; stroke-width:2; stroke-opacity:0.1; fill:none" points="
  174.895,1353.49 2640.76,1353.49 
  "/>
<polyline clip-path="url(#clip702)" style="stroke:#000000; stroke-linecap:round; stroke-linejoin:round; stroke-width:2; stroke-opacity:0.1; fill:none" points="
  174.895,955.825 2640.76,955.825 
  "/>
<polyline clip-path="url(#clip702)" style="stroke:#000000; stroke-linecap:round; stroke-linejoin:round; stroke-width:2; stroke-opacity:0.1; fill:none" points="
  174.895,558.162 2640.76,558.162 
  "/>
<polyline clip-path="url(#clip702)" style="stroke:#000000; stroke-linecap:round; stroke-linejoin:round; stroke-width:2; stroke-opacity:0.1; fill:none" points="
  174.895,160.499 2640.76,160.499 
  "/>
<polyline clip-path="url(#clip700)" style="stroke:#000000; stroke-linecap:round; stroke-linejoin:round; stroke-width:4; stroke-opacity:1; fill:none" points="
  174.895,1800.78 174.895,47.2441 
  "/>
<polyline clip-path="url(#clip700)" style="stroke:#000000; stroke-linecap:round; stroke-linejoin:round; stroke-width:4; stroke-opacity:1; fill:none" points="
  174.895,1751.15 193.792,1751.15 
  "/>
<polyline clip-path="url(#clip700)" style="stroke:#000000; stroke-linecap:round; stroke-linejoin:round; stroke-width:4; stroke-opacity:1; fill:none" points="
  174.895,1353.49 193.792,1353.49 
  "/>
<polyline clip-path="url(#clip700)" style="stroke:#000000; stroke-linecap:round; stroke-linejoin:round; stroke-width:4; stroke-opacity:1; fill:none" points="
  174.895,955.825 193.792,955.825 
  "/>
<polyline clip-path="url(#clip700)" style="stroke:#000000; stroke-linecap:round; stroke-linejoin:round; stroke-width:4; stroke-opacity:1; fill:none" points="
  174.895,558.162 193.792,558.162 
  "/>
<polyline clip-path="url(#clip700)" style="stroke:#000000; stroke-linecap:round; stroke-linejoin:round; stroke-width:4; stroke-opacity:1; fill:none" points="
  174.895,160.499 193.792,160.499 
  "/>
<path clip-path="url(#clip700)" d="M122.63 1736.95 Q119.019 1736.95 117.191 1740.51 Q115.385 1744.06 115.385 1751.19 Q115.385 1758.29 117.191 1761.86 Q119.019 1765.4 122.63 1765.4 Q126.265 1765.4 128.07 1761.86 Q129.899 1758.29 129.899 1751.19 Q129.899 1744.06 128.07 1740.51 Q126.265 1736.95 122.63 1736.95 M122.63 1733.25 Q128.441 1733.25 131.496 1737.85 Q134.575 1742.44 134.575 1751.19 Q134.575 1759.91 131.496 1764.52 Q128.441 1769.1 122.63 1769.1 Q116.82 1769.1 113.742 1764.52 Q110.686 1759.91 110.686 1751.19 Q110.686 1742.44 113.742 1737.85 Q116.82 1733.25 122.63 1733.25 Z" fill="#000000" fill-rule="evenodd" fill-opacity="1" /><path clip-path="url(#clip700)" d="M56.3345 1366.83 L72.6539 1366.83 L72.6539 1370.77 L50.7095 1370.77 L50.7095 1366.83 Q53.3715 1364.08 57.9549 1359.45 Q62.5613 1354.8 63.7419 1353.45 Q65.9872 1350.93 66.8668 1349.19 Q67.7696 1347.43 67.7696 1345.74 Q67.7696 1342.99 65.8252 1341.25 Q63.9039 1339.52 60.8021 1339.52 Q58.603 1339.52 56.1493 1340.28 Q53.7188 1341.05 50.941 1342.6 L50.941 1337.87 Q53.7651 1336.74 56.2188 1336.16 Q58.6724 1335.58 60.7095 1335.58 Q66.0798 1335.58 69.2742 1338.27 Q72.4687 1340.95 72.4687 1345.44 Q72.4687 1347.57 71.6585 1349.49 Q70.8715 1351.39 68.765 1353.99 Q68.1863 1354.66 65.0845 1357.87 Q61.9826 1361.07 56.3345 1366.83 Z" fill="#000000" fill-rule="evenodd" fill-opacity="1" /><path clip-path="url(#clip700)" d="M92.4686 1339.29 Q88.8575 1339.29 87.0288 1342.85 Q85.2232 1346.39 85.2232 1353.52 Q85.2232 1360.63 87.0288 1364.19 Q88.8575 1367.74 92.4686 1367.74 Q96.1028 1367.74 97.9083 1364.19 Q99.737 1360.63 99.737 1353.52 Q99.737 1346.39 97.9083 1342.85 Q96.1028 1339.29 92.4686 1339.29 M92.4686 1335.58 Q98.2787 1335.58 101.334 1340.19 Q104.413 1344.77 104.413 1353.52 Q104.413 1362.25 101.334 1366.86 Q98.2787 1371.44 92.4686 1371.44 Q86.6584 1371.44 83.5797 1366.86 Q80.5242 1362.25 80.5242 1353.52 Q80.5242 1344.77 83.5797 1340.19 Q86.6584 1335.58 92.4686 1335.58 Z" fill="#000000" fill-rule="evenodd" fill-opacity="1" /><path clip-path="url(#clip700)" d="M122.63 1339.29 Q119.019 1339.29 117.191 1342.85 Q115.385 1346.39 115.385 1353.52 Q115.385 1360.63 117.191 1364.19 Q119.019 1367.74 122.63 1367.74 Q126.265 1367.74 128.07 1364.19 Q129.899 1360.63 129.899 1353.52 Q129.899 1346.39 128.07 1342.85 Q126.265 1339.29 122.63 1339.29 M122.63 1335.58 Q128.441 1335.58 131.496 1340.19 Q134.575 1344.77 134.575 1353.52 Q134.575 1362.25 131.496 1366.86 Q128.441 1371.44 122.63 1371.44 Q116.82 1371.44 113.742 1366.86 Q110.686 1362.25 110.686 1353.52 Q110.686 1344.77 113.742 1340.19 Q116.82 1335.58 122.63 1335.58 Z" fill="#000000" fill-rule="evenodd" fill-opacity="1" /><path clip-path="url(#clip700)" d="M65.1539 942.619 L53.3484 961.068 L65.1539 961.068 L65.1539 942.619 M63.927 938.545 L69.8066 938.545 L69.8066 961.068 L74.7372 961.068 L74.7372 964.957 L69.8066 964.957 L69.8066 973.105 L65.1539 973.105 L65.1539 964.957 L49.5521 964.957 L49.5521 960.443 L63.927 938.545 Z" fill="#000000" fill-rule="evenodd" fill-opacity="1" /><path clip-path="url(#clip700)" d="M92.4686 941.623 Q88.8575 941.623 87.0288 945.188 Q85.2232 948.73 85.2232 955.859 Q85.2232 962.966 87.0288 966.531 Q88.8575 970.072 92.4686 970.072 Q96.1028 970.072 97.9083 966.531 Q99.737 962.966 99.737 955.859 Q99.737 948.73 97.9083 945.188 Q96.1028 941.623 92.4686 941.623 M92.4686 937.92 Q98.2787 937.92 101.334 942.526 Q104.413 947.11 104.413 955.859 Q104.413 964.586 101.334 969.193 Q98.2787 973.776 92.4686 973.776 Q86.6584 973.776 83.5797 969.193 Q80.5242 964.586 80.5242 955.859 Q80.5242 947.11 83.5797 942.526 Q86.6584 937.92 92.4686 937.92 Z" fill="#000000" fill-rule="evenodd" fill-opacity="1" /><path clip-path="url(#clip700)" d="M122.63 941.623 Q119.019 941.623 117.191 945.188 Q115.385 948.73 115.385 955.859 Q115.385 962.966 117.191 966.531 Q119.019 970.072 122.63 970.072 Q126.265 970.072 128.07 966.531 Q129.899 962.966 129.899 955.859 Q129.899 948.73 128.07 945.188 Q126.265 941.623 122.63 941.623 M122.63 937.92 Q128.441 937.92 131.496 942.526 Q134.575 947.11 134.575 955.859 Q134.575 964.586 131.496 969.193 Q128.441 973.776 122.63 973.776 Q116.82 973.776 113.742 969.193 Q110.686 964.586 110.686 955.859 Q110.686 947.11 113.742 942.526 Q116.82 937.92 122.63 937.92 Z" fill="#000000" fill-rule="evenodd" fill-opacity="1" /><path clip-path="url(#clip700)" d="M62.8854 556.298 Q59.7373 556.298 57.8854 558.451 Q56.0567 560.604 56.0567 564.354 Q56.0567 568.081 57.8854 570.256 Q59.7373 572.409 62.8854 572.409 Q66.0335 572.409 67.8622 570.256 Q69.7141 568.081 69.7141 564.354 Q69.7141 560.604 67.8622 558.451 Q66.0335 556.298 62.8854 556.298 M72.1677 541.646 L72.1677 545.905 Q70.4085 545.071 68.6029 544.632 Q66.8206 544.192 65.0613 544.192 Q60.4317 544.192 57.978 547.317 Q55.5475 550.442 55.2002 556.761 Q56.566 554.747 58.6262 553.683 Q60.6863 552.595 63.1632 552.595 Q68.3715 552.595 71.3807 555.766 Q74.4131 558.914 74.4131 564.354 Q74.4131 569.678 71.265 572.895 Q68.1168 576.113 62.8854 576.113 Q56.89 576.113 53.7188 571.53 Q50.5475 566.923 50.5475 558.196 Q50.5475 550.002 54.4364 545.141 Q58.3252 540.257 64.8761 540.257 Q66.6354 540.257 68.4178 540.604 Q70.2233 540.951 72.1677 541.646 Z" fill="#000000" fill-rule="evenodd" fill-opacity="1" /><path clip-path="url(#clip700)" d="M92.4686 543.96 Q88.8575 543.96 87.0288 547.525 Q85.2232 551.067 85.2232 558.196 Q85.2232 565.303 87.0288 568.868 Q88.8575 572.409 92.4686 572.409 Q96.1028 572.409 97.9083 568.868 Q99.737 565.303 99.737 558.196 Q99.737 551.067 97.9083 547.525 Q96.1028 543.96 92.4686 543.96 M92.4686 540.257 Q98.2787 540.257 101.334 544.863 Q104.413 549.446 104.413 558.196 Q104.413 566.923 101.334 571.53 Q98.2787 576.113 92.4686 576.113 Q86.6584 576.113 83.5797 571.53 Q80.5242 566.923 80.5242 558.196 Q80.5242 549.446 83.5797 544.863 Q86.6584 540.257 92.4686 540.257 Z" fill="#000000" fill-rule="evenodd" fill-opacity="1" /><path clip-path="url(#clip700)" d="M122.63 543.96 Q119.019 543.96 117.191 547.525 Q115.385 551.067 115.385 558.196 Q115.385 565.303 117.191 568.868 Q119.019 572.409 122.63 572.409 Q126.265 572.409 128.07 568.868 Q129.899 565.303 129.899 558.196 Q129.899 551.067 128.07 547.525 Q126.265 543.96 122.63 543.96 M122.63 540.257 Q128.441 540.257 131.496 544.863 Q134.575 549.446 134.575 558.196 Q134.575 566.923 131.496 571.53 Q128.441 576.113 122.63 576.113 Q116.82 576.113 113.742 571.53 Q110.686 566.923 110.686 558.196 Q110.686 549.446 113.742 544.863 Q116.82 540.257 122.63 540.257 Z" fill="#000000" fill-rule="evenodd" fill-opacity="1" /><path clip-path="url(#clip700)" d="M62.3067 161.367 Q58.9734 161.367 57.0521 163.149 Q55.1539 164.931 55.1539 168.056 Q55.1539 171.181 57.0521 172.964 Q58.9734 174.746 62.3067 174.746 Q65.64 174.746 67.5613 172.964 Q69.4826 171.158 69.4826 168.056 Q69.4826 164.931 67.5613 163.149 Q65.6632 161.367 62.3067 161.367 M57.6308 159.376 Q54.6215 158.635 52.9317 156.575 Q51.2651 154.515 51.2651 151.552 Q51.2651 147.408 54.2049 145.001 Q57.1678 142.594 62.3067 142.594 Q67.4687 142.594 70.4085 145.001 Q73.3483 147.408 73.3483 151.552 Q73.3483 154.515 71.6585 156.575 Q69.9918 158.635 67.0057 159.376 Q70.3853 160.163 72.2603 162.455 Q74.1585 164.746 74.1585 168.056 Q74.1585 173.079 71.0798 175.765 Q68.0242 178.45 62.3067 178.45 Q56.5891 178.45 53.5104 175.765 Q50.4549 173.079 50.4549 168.056 Q50.4549 164.746 52.353 162.455 Q54.2512 160.163 57.6308 159.376 M55.9178 151.992 Q55.9178 154.677 57.5845 156.181 Q59.2743 157.686 62.3067 157.686 Q65.3159 157.686 67.0057 156.181 Q68.7187 154.677 68.7187 151.992 Q68.7187 149.306 67.0057 147.802 Q65.3159 146.297 62.3067 146.297 Q59.2743 146.297 57.5845 147.802 Q55.9178 149.306 55.9178 151.992 Z" fill="#000000" fill-rule="evenodd" fill-opacity="1" /><path clip-path="url(#clip700)" d="M92.4686 146.297 Q88.8575 146.297 87.0288 149.862 Q85.2232 153.404 85.2232 160.533 Q85.2232 167.64 87.0288 171.205 Q88.8575 174.746 92.4686 174.746 Q96.1028 174.746 97.9083 171.205 Q99.737 167.64 99.737 160.533 Q99.737 153.404 97.9083 149.862 Q96.1028 146.297 92.4686 146.297 M92.4686 142.594 Q98.2787 142.594 101.334 147.2 Q104.413 151.783 104.413 160.533 Q104.413 169.26 101.334 173.867 Q98.2787 178.45 92.4686 178.45 Q86.6584 178.45 83.5797 173.867 Q80.5242 169.26 80.5242 160.533 Q80.5242 151.783 83.5797 147.2 Q86.6584 142.594 92.4686 142.594 Z" fill="#000000" fill-rule="evenodd" fill-opacity="1" /><path clip-path="url(#clip700)" d="M122.63 146.297 Q119.019 146.297 117.191 149.862 Q115.385 153.404 115.385 160.533 Q115.385 167.64 117.191 171.205 Q119.019 174.746 122.63 174.746 Q126.265 174.746 128.07 171.205 Q129.899 167.64 129.899 160.533 Q129.899 153.404 128.07 149.862 Q126.265 146.297 122.63 146.297 M122.63 142.594 Q128.441 142.594 131.496 147.2 Q134.575 151.783 134.575 160.533 Q134.575 169.26 131.496 173.867 Q128.441 178.45 122.63 178.45 Q116.82 178.45 113.742 173.867 Q110.686 169.26 110.686 160.533 Q110.686 151.783 113.742 147.2 Q116.82 142.594 122.63 142.594 Z" fill="#000000" fill-rule="evenodd" fill-opacity="1" /><path clip-path="url(#clip702)" d="
M310.522 1749.16 L310.522 1751.15 L366.794 1751.15 L366.794 1749.16 L310.522 1749.16 L310.522 1749.16  Z
  " fill="#009af9" fill-rule="evenodd" fill-opacity="1"/>
<polyline clip-path="url(#clip702)" style="stroke:#000000; stroke-linecap:round; stroke-linejoin:round; stroke-width:4; stroke-opacity:1; fill:none" points="
  310.522,1749.16 310.522,1751.15 366.794,1751.15 366.794,1749.16 310.522,1749.16 
  "/>
<path clip-path="url(#clip702)" d="
M366.794 1751.15 L366.794 1751.15 L423.066 1751.15 L423.066 1751.15 L366.794 1751.15 L366.794 1751.15  Z
  " fill="#009af9" fill-rule="evenodd" fill-opacity="1"/>
<polyline clip-path="url(#clip702)" style="stroke:#000000; stroke-linecap:round; stroke-linejoin:round; stroke-width:4; stroke-opacity:1; fill:none" points="
  366.794,1751.15 366.794,1751.15 423.066,1751.15 366.794,1751.15 
  "/>
<path clip-path="url(#clip702)" d="
M423.066 1743.2 L423.066 1751.15 L479.338 1751.15 L479.338 1743.2 L423.066 1743.2 L423.066 1743.2  Z
  " fill="#009af9" fill-rule="evenodd" fill-opacity="1"/>
<polyline clip-path="url(#clip702)" style="stroke:#000000; stroke-linecap:round; stroke-linejoin:round; stroke-width:4; stroke-opacity:1; fill:none" points="
  423.066,1743.2 423.066,1751.15 479.338,1751.15 479.338,1743.2 423.066,1743.2 
  "/>
<path clip-path="url(#clip702)" d="
M479.338 1747.17 L479.338 1751.15 L535.61 1751.15 L535.61 1747.17 L479.338 1747.17 L479.338 1747.17  Z
  " fill="#009af9" fill-rule="evenodd" fill-opacity="1"/>
<polyline clip-path="url(#clip702)" style="stroke:#000000; stroke-linecap:round; stroke-linejoin:round; stroke-width:4; stroke-opacity:1; fill:none" points="
  479.338,1747.17 479.338,1751.15 535.61,1751.15 535.61,1747.17 479.338,1747.17 
  "/>
<path clip-path="url(#clip702)" d="
M535.61 1743.2 L535.61 1751.15 L591.882 1751.15 L591.882 1743.2 L535.61 1743.2 L535.61 1743.2  Z
  " fill="#009af9" fill-rule="evenodd" fill-opacity="1"/>
<polyline clip-path="url(#clip702)" style="stroke:#000000; stroke-linecap:round; stroke-linejoin:round; stroke-width:4; stroke-opacity:1; fill:none" points="
  535.61,1743.2 535.61,1751.15 591.882,1751.15 591.882,1743.2 535.61,1743.2 
  "/>
<path clip-path="url(#clip702)" d="
M591.882 1723.31 L591.882 1751.15 L648.154 1751.15 L648.154 1723.31 L591.882 1723.31 L591.882 1723.31  Z
  " fill="#009af9" fill-rule="evenodd" fill-opacity="1"/>
<polyline clip-path="url(#clip702)" style="stroke:#000000; stroke-linecap:round; stroke-linejoin:round; stroke-width:4; stroke-opacity:1; fill:none" points="
  591.882,1723.31 591.882,1751.15 648.154,1751.15 648.154,1723.31 591.882,1723.31 
  "/>
<path clip-path="url(#clip702)" d="
M648.154 1701.44 L648.154 1751.15 L704.425 1751.15 L704.425 1701.44 L648.154 1701.44 L648.154 1701.44  Z
  " fill="#009af9" fill-rule="evenodd" fill-opacity="1"/>
<polyline clip-path="url(#clip702)" style="stroke:#000000; stroke-linecap:round; stroke-linejoin:round; stroke-width:4; stroke-opacity:1; fill:none" points="
  648.154,1701.44 648.154,1751.15 704.425,1751.15 704.425,1701.44 648.154,1701.44 
  "/>
<path clip-path="url(#clip702)" d="
M704.425 1669.63 L704.425 1751.15 L760.697 1751.15 L760.697 1669.63 L704.425 1669.63 L704.425 1669.63  Z
  " fill="#009af9" fill-rule="evenodd" fill-opacity="1"/>
<polyline clip-path="url(#clip702)" style="stroke:#000000; stroke-linecap:round; stroke-linejoin:round; stroke-width:4; stroke-opacity:1; fill:none" points="
  704.425,1669.63 704.425,1751.15 760.697,1751.15 760.697,1669.63 704.425,1669.63 
  "/>
<path clip-path="url(#clip702)" d="
M760.697 1623.9 L760.697 1751.15 L816.969 1751.15 L816.969 1623.9 L760.697 1623.9 L760.697 1623.9  Z
  " fill="#009af9" fill-rule="evenodd" fill-opacity="1"/>
<polyline clip-path="url(#clip702)" style="stroke:#000000; stroke-linecap:round; stroke-linejoin:round; stroke-width:4; stroke-opacity:1; fill:none" points="
  760.697,1623.9 760.697,1751.15 816.969,1751.15 816.969,1623.9 760.697,1623.9 
  "/>
<path clip-path="url(#clip702)" d="
M816.969 1574.19 L816.969 1751.15 L873.241 1751.15 L873.241 1574.19 L816.969 1574.19 L816.969 1574.19  Z
  " fill="#009af9" fill-rule="evenodd" fill-opacity="1"/>
<polyline clip-path="url(#clip702)" style="stroke:#000000; stroke-linecap:round; stroke-linejoin:round; stroke-width:4; stroke-opacity:1; fill:none" points="
  816.969,1574.19 816.969,1751.15 873.241,1751.15 873.241,1574.19 816.969,1574.19 
  "/>
<path clip-path="url(#clip702)" d="
M873.241 1492.67 L873.241 1751.15 L929.513 1751.15 L929.513 1492.67 L873.241 1492.67 L873.241 1492.67  Z
  " fill="#009af9" fill-rule="evenodd" fill-opacity="1"/>
<polyline clip-path="url(#clip702)" style="stroke:#000000; stroke-linecap:round; stroke-linejoin:round; stroke-width:4; stroke-opacity:1; fill:none" points="
  873.241,1492.67 873.241,1751.15 929.513,1751.15 929.513,1492.67 873.241,1492.67 
  "/>
<path clip-path="url(#clip702)" d="
M929.513 1341.56 L929.513 1751.15 L985.785 1751.15 L985.785 1341.56 L929.513 1341.56 L929.513 1341.56  Z
  " fill="#009af9" fill-rule="evenodd" fill-opacity="1"/>
<polyline clip-path="url(#clip702)" style="stroke:#000000; stroke-linecap:round; stroke-linejoin:round; stroke-width:4; stroke-opacity:1; fill:none" points="
  929.513,1341.56 929.513,1751.15 985.785,1751.15 985.785,1341.56 929.513,1341.56 
  "/>
<path clip-path="url(#clip702)" d="
M985.785 1174.54 L985.785 1751.15 L1042.06 1751.15 L1042.06 1174.54 L985.785 1174.54 L985.785 1174.54  Z
  " fill="#009af9" fill-rule="evenodd" fill-opacity="1"/>
<polyline clip-path="url(#clip702)" style="stroke:#000000; stroke-linecap:round; stroke-linejoin:round; stroke-width:4; stroke-opacity:1; fill:none" points="
  985.785,1174.54 985.785,1751.15 1042.06,1751.15 1042.06,1174.54 985.785,1174.54 
  "/>
<path clip-path="url(#clip702)" d="
M1042.06 1049.28 L1042.06 1751.15 L1098.33 1751.15 L1098.33 1049.28 L1042.06 1049.28 L1042.06 1049.28  Z
  " fill="#009af9" fill-rule="evenodd" fill-opacity="1"/>
<polyline clip-path="url(#clip702)" style="stroke:#000000; stroke-linecap:round; stroke-linejoin:round; stroke-width:4; stroke-opacity:1; fill:none" points="
  1042.06,1049.28 1042.06,1751.15 1098.33,1751.15 1098.33,1049.28 1042.06,1049.28 
  "/>
<path clip-path="url(#clip702)" d="
M1098.33 890.21 L1098.33 1751.15 L1154.6 1751.15 L1154.6 890.21 L1098.33 890.21 L1098.33 890.21  Z
  " fill="#009af9" fill-rule="evenodd" fill-opacity="1"/>
<polyline clip-path="url(#clip702)" style="stroke:#000000; stroke-linecap:round; stroke-linejoin:round; stroke-width:4; stroke-opacity:1; fill:none" points="
  1098.33,890.21 1098.33,1751.15 1154.6,1751.15 1154.6,890.21 1098.33,890.21 
  "/>
<path clip-path="url(#clip702)" d="
M1154.6 715.239 L1154.6 1751.15 L1210.87 1751.15 L1210.87 715.239 L1154.6 715.239 L1154.6 715.239  Z
  " fill="#009af9" fill-rule="evenodd" fill-opacity="1"/>
<polyline clip-path="url(#clip702)" style="stroke:#000000; stroke-linecap:round; stroke-linejoin:round; stroke-width:4; stroke-opacity:1; fill:none" points="
  1154.6,715.239 1154.6,1751.15 1210.87,1751.15 1210.87,715.239 1154.6,715.239 
  "/>
<path clip-path="url(#clip702)" d="
M1210.87 498.512 L1210.87 1751.15 L1267.15 1751.15 L1267.15 498.512 L1210.87 498.512 L1210.87 498.512  Z
  " fill="#009af9" fill-rule="evenodd" fill-opacity="1"/>
<polyline clip-path="url(#clip702)" style="stroke:#000000; stroke-linecap:round; stroke-linejoin:round; stroke-width:4; stroke-opacity:1; fill:none" points="
  1210.87,498.512 1210.87,1751.15 1267.15,1751.15 1267.15,498.512 1210.87,498.512 
  "/>
<path clip-path="url(#clip702)" d="
M1267.15 397.108 L1267.15 1751.15 L1323.42 1751.15 L1323.42 397.108 L1267.15 397.108 L1267.15 397.108  Z
  " fill="#009af9" fill-rule="evenodd" fill-opacity="1"/>
<polyline clip-path="url(#clip702)" style="stroke:#000000; stroke-linecap:round; stroke-linejoin:round; stroke-width:4; stroke-opacity:1; fill:none" points="
  1267.15,397.108 1267.15,1751.15 1323.42,1751.15 1323.42,397.108 1267.15,397.108 
  "/>
<path clip-path="url(#clip702)" d="
M1323.42 287.751 L1323.42 1751.15 L1379.69 1751.15 L1379.69 287.751 L1323.42 287.751 L1323.42 287.751  Z
  " fill="#009af9" fill-rule="evenodd" fill-opacity="1"/>
<polyline clip-path="url(#clip702)" style="stroke:#000000; stroke-linecap:round; stroke-linejoin:round; stroke-width:4; stroke-opacity:1; fill:none" points="
  1323.42,287.751 1323.42,1751.15 1379.69,1751.15 1379.69,287.751 1323.42,287.751 
  "/>
<path clip-path="url(#clip702)" d="
M1379.69 238.043 L1379.69 1751.15 L1435.96 1751.15 L1435.96 238.043 L1379.69 238.043 L1379.69 238.043  Z
  " fill="#009af9" fill-rule="evenodd" fill-opacity="1"/>
<polyline clip-path="url(#clip702)" style="stroke:#000000; stroke-linecap:round; stroke-linejoin:round; stroke-width:4; stroke-opacity:1; fill:none" points="
  1379.69,238.043 1379.69,1751.15 1435.96,1751.15 1435.96,238.043 1379.69,238.043 
  "/>
<path clip-path="url(#clip702)" d="
M1435.96 96.8724 L1435.96 1751.15 L1492.23 1751.15 L1492.23 96.8724 L1435.96 96.8724 L1435.96 96.8724  Z
  " fill="#009af9" fill-rule="evenodd" fill-opacity="1"/>
<polyline clip-path="url(#clip702)" style="stroke:#000000; stroke-linecap:round; stroke-linejoin:round; stroke-width:4; stroke-opacity:1; fill:none" points="
  1435.96,96.8724 1435.96,1751.15 1492.23,1751.15 1492.23,96.8724 1435.96,96.8724 
  "/>
<path clip-path="url(#clip702)" d="
M1492.23 216.171 L1492.23 1751.15 L1548.51 1751.15 L1548.51 216.171 L1492.23 216.171 L1492.23 216.171  Z
  " fill="#009af9" fill-rule="evenodd" fill-opacity="1"/>
<polyline clip-path="url(#clip702)" style="stroke:#000000; stroke-linecap:round; stroke-linejoin:round; stroke-width:4; stroke-opacity:1; fill:none" points="
  1492.23,216.171 1492.23,1751.15 1548.51,1751.15 1548.51,216.171 1492.23,216.171 
  "/>
<path clip-path="url(#clip702)" d="
M1548.51 347.4 L1548.51 1751.15 L1604.78 1751.15 L1604.78 347.4 L1548.51 347.4 L1548.51 347.4  Z
  " fill="#009af9" fill-rule="evenodd" fill-opacity="1"/>
<polyline clip-path="url(#clip702)" style="stroke:#000000; stroke-linecap:round; stroke-linejoin:round; stroke-width:4; stroke-opacity:1; fill:none" points="
  1548.51,347.4 1548.51,1751.15 1604.78,1751.15 1604.78,347.4 1548.51,347.4 
  "/>
<path clip-path="url(#clip702)" d="
M1604.78 542.255 L1604.78 1751.15 L1661.05 1751.15 L1661.05 542.255 L1604.78 542.255 L1604.78 542.255  Z
  " fill="#009af9" fill-rule="evenodd" fill-opacity="1"/>
<polyline clip-path="url(#clip702)" style="stroke:#000000; stroke-linecap:round; stroke-linejoin:round; stroke-width:4; stroke-opacity:1; fill:none" points="
  1604.78,542.255 1604.78,1751.15 1661.05,1751.15 1661.05,542.255 1604.78,542.255 
  "/>
<path clip-path="url(#clip702)" d="
M1661.05 659.566 L1661.05 1751.15 L1717.32 1751.15 L1717.32 659.566 L1661.05 659.566 L1661.05 659.566  Z
  " fill="#009af9" fill-rule="evenodd" fill-opacity="1"/>
<polyline clip-path="url(#clip702)" style="stroke:#000000; stroke-linecap:round; stroke-linejoin:round; stroke-width:4; stroke-opacity:1; fill:none" points="
  1661.05,659.566 1661.05,1751.15 1717.32,1751.15 1717.32,659.566 1661.05,659.566 
  "/>
<path clip-path="url(#clip702)" d="
M1717.32 910.093 L1717.32 1751.15 L1773.59 1751.15 L1773.59 910.093 L1717.32 910.093 L1717.32 910.093  Z
  " fill="#009af9" fill-rule="evenodd" fill-opacity="1"/>
<polyline clip-path="url(#clip702)" style="stroke:#000000; stroke-linecap:round; stroke-linejoin:round; stroke-width:4; stroke-opacity:1; fill:none" points="
  1717.32,910.093 1717.32,1751.15 1773.59,1751.15 1773.59,910.093 1717.32,910.093 
  "/>
<path clip-path="url(#clip702)" d="
M1773.59 1041.32 L1773.59 1751.15 L1829.87 1751.15 L1829.87 1041.32 L1773.59 1041.32 L1773.59 1041.32  Z
  " fill="#009af9" fill-rule="evenodd" fill-opacity="1"/>
<polyline clip-path="url(#clip702)" style="stroke:#000000; stroke-linecap:round; stroke-linejoin:round; stroke-width:4; stroke-opacity:1; fill:none" points="
  1773.59,1041.32 1773.59,1751.15 1829.87,1751.15 1829.87,1041.32 1773.59,1041.32 
  "/>
<path clip-path="url(#clip702)" d="
M1829.87 1234.19 L1829.87 1751.15 L1886.14 1751.15 L1886.14 1234.19 L1829.87 1234.19 L1829.87 1234.19  Z
  " fill="#009af9" fill-rule="evenodd" fill-opacity="1"/>
<polyline clip-path="url(#clip702)" style="stroke:#000000; stroke-linecap:round; stroke-linejoin:round; stroke-width:4; stroke-opacity:1; fill:none" points="
  1829.87,1234.19 1829.87,1751.15 1886.14,1751.15 1886.14,1234.19 1829.87,1234.19 
  "/>
<path clip-path="url(#clip702)" d="
M1886.14 1427.06 L1886.14 1751.15 L1942.41 1751.15 L1942.41 1427.06 L1886.14 1427.06 L1886.14 1427.06  Z
  " fill="#009af9" fill-rule="evenodd" fill-opacity="1"/>
<polyline clip-path="url(#clip702)" style="stroke:#000000; stroke-linecap:round; stroke-linejoin:round; stroke-width:4; stroke-opacity:1; fill:none" points="
  1886.14,1427.06 1886.14,1751.15 1942.41,1751.15 1942.41,1427.06 1886.14,1427.06 
  "/>
<path clip-path="url(#clip702)" d="
M1942.41 1532.44 L1942.41 1751.15 L1998.68 1751.15 L1998.68 1532.44 L1942.41 1532.44 L1942.41 1532.44  Z
  " fill="#009af9" fill-rule="evenodd" fill-opacity="1"/>
<polyline clip-path="url(#clip702)" style="stroke:#000000; stroke-linecap:round; stroke-linejoin:round; stroke-width:4; stroke-opacity:1; fill:none" points="
  1942.41,1532.44 1942.41,1751.15 1998.68,1751.15 1998.68,1532.44 1942.41,1532.44 
  "/>
<path clip-path="url(#clip702)" d="
M1998.68 1604.02 L1998.68 1751.15 L2054.95 1751.15 L2054.95 1604.02 L1998.68 1604.02 L1998.68 1604.02  Z
  " fill="#009af9" fill-rule="evenodd" fill-opacity="1"/>
<polyline clip-path="url(#clip702)" style="stroke:#000000; stroke-linecap:round; stroke-linejoin:round; stroke-width:4; stroke-opacity:1; fill:none" points="
  1998.68,1604.02 1998.68,1751.15 2054.95,1751.15 2054.95,1604.02 1998.68,1604.02 
  "/>
<path clip-path="url(#clip702)" d="
M2054.95 1619.92 L2054.95 1751.15 L2111.23 1751.15 L2111.23 1619.92 L2054.95 1619.92 L2054.95 1619.92  Z
  " fill="#009af9" fill-rule="evenodd" fill-opacity="1"/>
<polyline clip-path="url(#clip702)" style="stroke:#000000; stroke-linecap:round; stroke-linejoin:round; stroke-width:4; stroke-opacity:1; fill:none" points="
  2054.95,1619.92 2054.95,1751.15 2111.23,1751.15 2111.23,1619.92 2054.95,1619.92 
  "/>
<path clip-path="url(#clip702)" d="
M2111.23 1673.61 L2111.23 1751.15 L2167.5 1751.15 L2167.5 1673.61 L2111.23 1673.61 L2111.23 1673.61  Z
  " fill="#009af9" fill-rule="evenodd" fill-opacity="1"/>
<polyline clip-path="url(#clip702)" style="stroke:#000000; stroke-linecap:round; stroke-linejoin:round; stroke-width:4; stroke-opacity:1; fill:none" points="
  2111.23,1673.61 2111.23,1751.15 2167.5,1751.15 2167.5,1673.61 2111.23,1673.61 
  "/>
<path clip-path="url(#clip702)" d="
M2167.5 1693.49 L2167.5 1751.15 L2223.77 1751.15 L2223.77 1693.49 L2167.5 1693.49 L2167.5 1693.49  Z
  " fill="#009af9" fill-rule="evenodd" fill-opacity="1"/>
<polyline clip-path="url(#clip702)" style="stroke:#000000; stroke-linecap:round; stroke-linejoin:round; stroke-width:4; stroke-opacity:1; fill:none" points="
  2167.5,1693.49 2167.5,1751.15 2223.77,1751.15 2223.77,1693.49 2167.5,1693.49 
  "/>
<path clip-path="url(#clip702)" d="
M2223.77 1725.3 L2223.77 1751.15 L2280.04 1751.15 L2280.04 1725.3 L2223.77 1725.3 L2223.77 1725.3  Z
  " fill="#009af9" fill-rule="evenodd" fill-opacity="1"/>
<polyline clip-path="url(#clip702)" style="stroke:#000000; stroke-linecap:round; stroke-linejoin:round; stroke-width:4; stroke-opacity:1; fill:none" points="
  2223.77,1725.3 2223.77,1751.15 2280.04,1751.15 2280.04,1725.3 2223.77,1725.3 
  "/>
<path clip-path="url(#clip702)" d="
M2280.04 1735.24 L2280.04 1751.15 L2336.31 1751.15 L2336.31 1735.24 L2280.04 1735.24 L2280.04 1735.24  Z
  " fill="#009af9" fill-rule="evenodd" fill-opacity="1"/>
<polyline clip-path="url(#clip702)" style="stroke:#000000; stroke-linecap:round; stroke-linejoin:round; stroke-width:4; stroke-opacity:1; fill:none" points="
  2280.04,1735.24 2280.04,1751.15 2336.31,1751.15 2336.31,1735.24 2280.04,1735.24 
  "/>
<path clip-path="url(#clip702)" d="
M2336.31 1745.19 L2336.31 1751.15 L2392.59 1751.15 L2392.59 1745.19 L2336.31 1745.19 L2336.31 1745.19  Z
  " fill="#009af9" fill-rule="evenodd" fill-opacity="1"/>
<polyline clip-path="url(#clip702)" style="stroke:#000000; stroke-linecap:round; stroke-linejoin:round; stroke-width:4; stroke-opacity:1; fill:none" points="
  2336.31,1745.19 2336.31,1751.15 2392.59,1751.15 2392.59,1745.19 2336.31,1745.19 
  "/>
<path clip-path="url(#clip702)" d="
M2392.59 1749.16 L2392.59 1751.15 L2448.86 1751.15 L2448.86 1749.16 L2392.59 1749.16 L2392.59 1749.16  Z
  " fill="#009af9" fill-rule="evenodd" fill-opacity="1"/>
<polyline clip-path="url(#clip702)" style="stroke:#000000; stroke-linecap:round; stroke-linejoin:round; stroke-width:4; stroke-opacity:1; fill:none" points="
  2392.59,1749.16 2392.59,1751.15 2448.86,1751.15 2448.86,1749.16 2392.59,1749.16 
  "/>
<path clip-path="url(#clip702)" d="
M2448.86 1747.17 L2448.86 1751.15 L2505.13 1751.15 L2505.13 1747.17 L2448.86 1747.17 L2448.86 1747.17  Z
  " fill="#009af9" fill-rule="evenodd" fill-opacity="1"/>
<polyline clip-path="url(#clip702)" style="stroke:#000000; stroke-linecap:round; stroke-linejoin:round; stroke-width:4; stroke-opacity:1; fill:none" points="
  2448.86,1747.17 2448.86,1751.15 2505.13,1751.15 2505.13,1747.17 2448.86,1747.17 
  "/>
<circle clip-path="url(#clip702)" style="fill:#009af9; stroke:none; fill-opacity:0" cx="338.658" cy="1749.16" r="2"/>
<circle clip-path="url(#clip702)" style="fill:#009af9; stroke:none; fill-opacity:0" cx="394.93" cy="1751.15" r="2"/>
<circle clip-path="url(#clip702)" style="fill:#009af9; stroke:none; fill-opacity:0" cx="451.202" cy="1743.2" r="2"/>
<circle clip-path="url(#clip702)" style="fill:#009af9; stroke:none; fill-opacity:0" cx="507.474" cy="1747.17" r="2"/>
<circle clip-path="url(#clip702)" style="fill:#009af9; stroke:none; fill-opacity:0" cx="563.746" cy="1743.2" r="2"/>
<circle clip-path="url(#clip702)" style="fill:#009af9; stroke:none; fill-opacity:0" cx="620.018" cy="1723.31" r="2"/>
<circle clip-path="url(#clip702)" style="fill:#009af9; stroke:none; fill-opacity:0" cx="676.289" cy="1701.44" r="2"/>
<circle clip-path="url(#clip702)" style="fill:#009af9; stroke:none; fill-opacity:0" cx="732.561" cy="1669.63" r="2"/>
<circle clip-path="url(#clip702)" style="fill:#009af9; stroke:none; fill-opacity:0" cx="788.833" cy="1623.9" r="2"/>
<circle clip-path="url(#clip702)" style="fill:#009af9; stroke:none; fill-opacity:0" cx="845.105" cy="1574.19" r="2"/>
<circle clip-path="url(#clip702)" style="fill:#009af9; stroke:none; fill-opacity:0" cx="901.377" cy="1492.67" r="2"/>
<circle clip-path="url(#clip702)" style="fill:#009af9; stroke:none; fill-opacity:0" cx="957.649" cy="1341.56" r="2"/>
<circle clip-path="url(#clip702)" style="fill:#009af9; stroke:none; fill-opacity:0" cx="1013.92" cy="1174.54" r="2"/>
<circle clip-path="url(#clip702)" style="fill:#009af9; stroke:none; fill-opacity:0" cx="1070.19" cy="1049.28" r="2"/>
<circle clip-path="url(#clip702)" style="fill:#009af9; stroke:none; fill-opacity:0" cx="1126.47" cy="890.21" r="2"/>
<circle clip-path="url(#clip702)" style="fill:#009af9; stroke:none; fill-opacity:0" cx="1182.74" cy="715.239" r="2"/>
<circle clip-path="url(#clip702)" style="fill:#009af9; stroke:none; fill-opacity:0" cx="1239.01" cy="498.512" r="2"/>
<circle clip-path="url(#clip702)" style="fill:#009af9; stroke:none; fill-opacity:0" cx="1295.28" cy="397.108" r="2"/>
<circle clip-path="url(#clip702)" style="fill:#009af9; stroke:none; fill-opacity:0" cx="1351.55" cy="287.751" r="2"/>
<circle clip-path="url(#clip702)" style="fill:#009af9; stroke:none; fill-opacity:0" cx="1407.83" cy="238.043" r="2"/>
<circle clip-path="url(#clip702)" style="fill:#009af9; stroke:none; fill-opacity:0" cx="1464.1" cy="96.8724" r="2"/>
<circle clip-path="url(#clip702)" style="fill:#009af9; stroke:none; fill-opacity:0" cx="1520.37" cy="216.171" r="2"/>
<circle clip-path="url(#clip702)" style="fill:#009af9; stroke:none; fill-opacity:0" cx="1576.64" cy="347.4" r="2"/>
<circle clip-path="url(#clip702)" style="fill:#009af9; stroke:none; fill-opacity:0" cx="1632.91" cy="542.255" r="2"/>
<circle clip-path="url(#clip702)" style="fill:#009af9; stroke:none; fill-opacity:0" cx="1689.19" cy="659.566" r="2"/>
<circle clip-path="url(#clip702)" style="fill:#009af9; stroke:none; fill-opacity:0" cx="1745.46" cy="910.093" r="2"/>
<circle clip-path="url(#clip702)" style="fill:#009af9; stroke:none; fill-opacity:0" cx="1801.73" cy="1041.32" r="2"/>
<circle clip-path="url(#clip702)" style="fill:#009af9; stroke:none; fill-opacity:0" cx="1858" cy="1234.19" r="2"/>
<circle clip-path="url(#clip702)" style="fill:#009af9; stroke:none; fill-opacity:0" cx="1914.27" cy="1427.06" r="2"/>
<circle clip-path="url(#clip702)" style="fill:#009af9; stroke:none; fill-opacity:0" cx="1970.55" cy="1532.44" r="2"/>
<circle clip-path="url(#clip702)" style="fill:#009af9; stroke:none; fill-opacity:0" cx="2026.82" cy="1604.02" r="2"/>
<circle clip-path="url(#clip702)" style="fill:#009af9; stroke:none; fill-opacity:0" cx="2083.09" cy="1619.92" r="2"/>
<circle clip-path="url(#clip702)" style="fill:#009af9; stroke:none; fill-opacity:0" cx="2139.36" cy="1673.61" r="2"/>
<circle clip-path="url(#clip702)" style="fill:#009af9; stroke:none; fill-opacity:0" cx="2195.63" cy="1693.49" r="2"/>
<circle clip-path="url(#clip702)" style="fill:#009af9; stroke:none; fill-opacity:0" cx="2251.91" cy="1725.3" r="2"/>
<circle clip-path="url(#clip702)" style="fill:#009af9; stroke:none; fill-opacity:0" cx="2308.18" cy="1735.24" r="2"/>
<circle clip-path="url(#clip702)" style="fill:#009af9; stroke:none; fill-opacity:0" cx="2364.45" cy="1745.19" r="2"/>
<circle clip-path="url(#clip702)" style="fill:#009af9; stroke:none; fill-opacity:0" cx="2420.72" cy="1749.16" r="2"/>
<circle clip-path="url(#clip702)" style="fill:#009af9; stroke:none; fill-opacity:0" cx="2476.99" cy="1747.17" r="2"/>
<path clip-path="url(#clip700)" d="
M2259.54 209.375 L2558.56 209.375 L2558.56 105.695 L2259.54 105.695  Z
  " fill="#ffffff" fill-rule="evenodd" fill-opacity="1"/>
<polyline clip-path="url(#clip700)" style="stroke:#000000; stroke-linecap:round; stroke-linejoin:round; stroke-width:4; stroke-opacity:1; fill:none" points="
  2259.54,209.375 2558.56,209.375 2558.56,105.695 2259.54,105.695 2259.54,209.375 
  "/>
<path clip-path="url(#clip700)" d="
M2286.94 178.271 L2451.33 178.271 L2451.33 136.799 L2286.94 136.799 L2286.94 178.271  Z
  " fill="#009af9" fill-rule="evenodd" fill-opacity="1"/>
<polyline clip-path="url(#clip700)" style="stroke:#000000; stroke-linecap:round; stroke-linejoin:round; stroke-width:4; stroke-opacity:1; fill:none" points="
  2286.94,178.271 2451.33,178.271 2451.33,136.799 2286.94,136.799 2286.94,178.271 
  "/>
<path clip-path="url(#clip700)" d="M2492.57 177.223 Q2490.77 181.852 2489.06 183.264 Q2487.34 184.676 2484.47 184.676 L2481.07 184.676 L2481.07 181.112 L2483.57 181.112 Q2485.33 181.112 2486.3 180.278 Q2487.27 179.445 2488.45 176.343 L2489.22 174.399 L2478.73 148.889 L2483.25 148.889 L2491.35 169.167 L2499.45 148.889 L2503.96 148.889 L2492.57 177.223 Z" fill="#000000" fill-rule="evenodd" fill-opacity="1" /><path clip-path="url(#clip700)" d="M2511.25 170.88 L2518.89 170.88 L2518.89 144.515 L2510.58 146.181 L2510.58 141.922 L2518.85 140.255 L2523.52 140.255 L2523.52 170.88 L2531.16 170.88 L2531.16 174.815 L2511.25 174.815 L2511.25 170.88 Z" fill="#000000" fill-rule="evenodd" fill-opacity="1" /></svg>
