<?xml version="1.0" encoding="utf-8"?>
<svg xmlns="http://www.w3.org/2000/svg" xmlns:xlink="http://www.w3.org/1999/xlink" width="672" height="480" viewBox="0 0 2688 1920">
<defs>
  <clipPath id="clip960">
    <rect x="0" y="0" width="2688" height="1920"/>
  </clipPath>
</defs>
<path clip-path="url(#clip960)" d="M0 1920 L2688 1920 L2688 0 L0 0  Z" fill="#ffffff" fill-rule="evenodd" fill-opacity="1"/>
<defs>
  <clipPath id="clip961">
    <rect x="537" y="0" width="1883" height="1883"/>
  </clipPath>
</defs>
<path clip-path="url(#clip960)" d="M285.978 1734.12 L2640.76 1734.12 L2640.76 47.2441 L285.978 47.2441  Z" fill="#ffffff" fill-rule="evenodd" fill-opacity="1"/>
<defs>
  <clipPath id="clip962">
    <rect x="285" y="47" width="2356" height="1688"/>
  </clipPath>
</defs>
<polyline clip-path="url(#clip962)" style="stroke:#000000; stroke-linecap:round; stroke-linejoin:round; stroke-width:2; stroke-opacity:0.1; fill:none" points="352.623,1734.12 352.623,47.2441 "/>
<polyline clip-path="url(#clip962)" style="stroke:#000000; stroke-linecap:round; stroke-linejoin:round; stroke-width:2; stroke-opacity:0.1; fill:none" points="796.921,1734.12 796.921,47.2441 "/>
<polyline clip-path="url(#clip962)" style="stroke:#000000; stroke-linecap:round; stroke-linejoin:round; stroke-width:2; stroke-opacity:0.1; fill:none" points="1241.22,1734.12 1241.22,47.2441 "/>
<polyline clip-path="url(#clip962)" style="stroke:#000000; stroke-linecap:round; stroke-linejoin:round; stroke-width:2; stroke-opacity:0.1; fill:none" points="1685.52,1734.12 1685.52,47.2441 "/>
<polyline clip-path="url(#clip962)" style="stroke:#000000; stroke-linecap:round; stroke-linejoin:round; stroke-width:2; stroke-opacity:0.1; fill:none" points="2129.81,1734.12 2129.81,47.2441 "/>
<polyline clip-path="url(#clip962)" style="stroke:#000000; stroke-linecap:round; stroke-linejoin:round; stroke-width:2; stroke-opacity:0.1; fill:none" points="2574.11,1734.12 2574.11,47.2441 "/>
<polyline clip-path="url(#clip960)" style="stroke:#000000; stroke-linecap:round; stroke-linejoin:round; stroke-width:4; stroke-opacity:1; fill:none" points="285.978,1734.12 2640.76,1734.12 "/>
<polyline clip-path="url(#clip960)" style="stroke:#000000; stroke-linecap:round; stroke-linejoin:round; stroke-width:4; stroke-opacity:1; fill:none" points="352.623,1734.12 352.623,1715.22 "/>
<polyline clip-path="url(#clip960)" style="stroke:#000000; stroke-linecap:round; stroke-linejoin:round; stroke-width:4; stroke-opacity:1; fill:none" points="796.921,1734.12 796.921,1715.22 "/>
<polyline clip-path="url(#clip960)" style="stroke:#000000; stroke-linecap:round; stroke-linejoin:round; stroke-width:4; stroke-opacity:1; fill:none" points="1241.22,1734.12 1241.22,1715.22 "/>
<polyline clip-path="url(#clip960)" style="stroke:#000000; stroke-linecap:round; stroke-linejoin:round; stroke-width:4; stroke-opacity:1; fill:none" points="1685.52,1734.12 1685.52,1715.22 "/>
<polyline clip-path="url(#clip960)" style="stroke:#000000; stroke-linecap:round; stroke-linejoin:round; stroke-width:4; stroke-opacity:1; fill:none" points="2129.81,1734.12 2129.81,1715.22 "/>
<polyline clip-path="url(#clip960)" style="stroke:#000000; stroke-linecap:round; stroke-linejoin:round; stroke-width:4; stroke-opacity:1; fill:none" points="2574.11,1734.12 2574.11,1715.22 "/>
<path clip-path="url(#clip960)" d="M352.623 1767.34 Q349.012 1767.34 347.183 1770.9 Q345.378 1774.45 345.378 1781.58 Q345.378 1788.68 347.183 1792.25 Q349.012 1795.79 352.623 1795.79 Q356.257 1795.79 358.063 1792.25 Q359.891 1788.68 359.891 1781.58 Q359.891 1774.45 358.063 1770.9 Q356.257 1767.34 352.623 1767.34 M352.623 1763.64 Q358.433 1763.64 361.489 1768.24 Q364.567 1772.83 364.567 1781.58 Q364.567 1790.3 361.489 1794.91 Q358.433 1799.49 352.623 1799.49 Q346.813 1799.49 343.734 1794.91 Q340.678 1790.3 340.678 1781.58 Q340.678 1772.83 343.734 1768.24 Q346.813 1763.64 352.623 1763.64 Z" fill="#000000" fill-rule="nonzero" fill-opacity="1" /><path clip-path="url(#clip960)" d="M771.608 1794.89 L779.247 1794.89 L779.247 1768.52 L770.937 1770.19 L770.937 1765.93 L779.201 1764.26 L783.877 1764.26 L783.877 1794.89 L791.515 1794.89 L791.515 1798.82 L771.608 1798.82 L771.608 1794.89 Z" fill="#000000" fill-rule="nonzero" fill-opacity="1" /><path clip-path="url(#clip960)" d="M810.96 1767.34 Q807.349 1767.34 805.52 1770.9 Q803.714 1774.45 803.714 1781.58 Q803.714 1788.68 805.52 1792.25 Q807.349 1795.79 810.96 1795.79 Q814.594 1795.79 816.4 1792.25 Q818.228 1788.68 818.228 1781.58 Q818.228 1774.45 816.4 1770.9 Q814.594 1767.34 810.96 1767.34 M810.96 1763.64 Q816.77 1763.64 819.825 1768.24 Q822.904 1772.83 822.904 1781.58 Q822.904 1790.3 819.825 1794.91 Q816.77 1799.49 810.96 1799.49 Q805.15 1799.49 802.071 1794.91 Q799.015 1790.3 799.015 1781.58 Q799.015 1772.83 802.071 1768.24 Q805.15 1763.64 810.96 1763.64 Z" fill="#000000" fill-rule="nonzero" fill-opacity="1" /><path clip-path="url(#clip960)" d="M1219.99 1794.89 L1236.31 1794.89 L1236.31 1798.82 L1214.37 1798.82 L1214.37 1794.89 Q1217.03 1792.13 1221.61 1787.5 Q1226.22 1782.85 1227.4 1781.51 Q1229.64 1778.98 1230.52 1777.25 Q1231.43 1775.49 1231.43 1773.8 Q1231.43 1771.04 1229.48 1769.31 Q1227.56 1767.57 1224.46 1767.57 Q1222.26 1767.57 1219.81 1768.34 Q1217.38 1769.1 1214.6 1770.65 L1214.6 1765.93 Q1217.42 1764.79 1219.88 1764.21 Q1222.33 1763.64 1224.37 1763.64 Q1229.74 1763.64 1232.93 1766.32 Q1236.13 1769.01 1236.13 1773.5 Q1236.13 1775.63 1235.32 1777.55 Q1234.53 1779.45 1232.42 1782.04 Q1231.84 1782.71 1228.74 1785.93 Q1225.64 1789.12 1219.99 1794.89 Z" fill="#000000" fill-rule="nonzero" fill-opacity="1" /><path clip-path="url(#clip960)" d="M1256.13 1767.34 Q1252.51 1767.34 1250.69 1770.9 Q1248.88 1774.45 1248.88 1781.58 Q1248.88 1788.68 1250.69 1792.25 Q1252.51 1795.79 1256.13 1795.79 Q1259.76 1795.79 1261.57 1792.25 Q1263.39 1788.68 1263.39 1781.58 Q1263.39 1774.45 1261.57 1770.9 Q1259.76 1767.34 1256.13 1767.34 M1256.13 1763.64 Q1261.94 1763.64 1264.99 1768.24 Q1268.07 1772.83 1268.07 1781.58 Q1268.07 1790.3 1264.99 1794.91 Q1261.94 1799.49 1256.13 1799.49 Q1250.32 1799.49 1247.24 1794.91 Q1244.18 1790.3 1244.18 1781.58 Q1244.18 1772.83 1247.24 1768.24 Q1250.32 1763.64 1256.13 1763.64 Z" fill="#000000" fill-rule="nonzero" fill-opacity="1" /><path clip-path="url(#clip960)" d="M1674.36 1780.19 Q1677.72 1780.9 1679.59 1783.17 Q1681.49 1785.44 1681.49 1788.77 Q1681.49 1793.89 1677.97 1796.69 Q1674.45 1799.49 1667.97 1799.49 Q1665.79 1799.49 1663.48 1799.05 Q1661.19 1798.64 1658.73 1797.78 L1658.73 1793.27 Q1660.68 1794.4 1662.99 1794.98 Q1665.31 1795.56 1667.83 1795.56 Q1672.23 1795.56 1674.52 1793.82 Q1676.84 1792.08 1676.84 1788.77 Q1676.84 1785.72 1674.68 1784.01 Q1672.55 1782.27 1668.73 1782.27 L1664.71 1782.27 L1664.71 1778.43 L1668.92 1778.43 Q1672.37 1778.43 1674.2 1777.06 Q1676.03 1775.67 1676.03 1773.08 Q1676.03 1770.42 1674.13 1769.01 Q1672.25 1767.57 1668.73 1767.57 Q1666.81 1767.57 1664.61 1767.99 Q1662.41 1768.4 1659.78 1769.28 L1659.78 1765.12 Q1662.44 1764.38 1664.75 1764.01 Q1667.09 1763.64 1669.15 1763.64 Q1674.47 1763.64 1677.58 1766.07 Q1680.68 1768.47 1680.68 1772.59 Q1680.68 1775.46 1679.03 1777.46 Q1677.39 1779.42 1674.36 1780.19 Z" fill="#000000" fill-rule="nonzero" fill-opacity="1" /><path clip-path="url(#clip960)" d="M1700.35 1767.34 Q1696.74 1767.34 1694.91 1770.9 Q1693.11 1774.45 1693.11 1781.58 Q1693.11 1788.68 1694.91 1792.25 Q1696.74 1795.79 1700.35 1795.79 Q1703.99 1795.79 1705.79 1792.25 Q1707.62 1788.68 1707.62 1781.58 Q1707.62 1774.45 1705.79 1770.9 Q1703.99 1767.34 1700.35 1767.34 M1700.35 1763.64 Q1706.16 1763.64 1709.22 1768.24 Q1712.3 1772.83 1712.3 1781.58 Q1712.3 1790.3 1709.22 1794.91 Q1706.16 1799.49 1700.35 1799.49 Q1694.54 1799.49 1691.46 1794.91 Q1688.41 1790.3 1688.41 1781.58 Q1688.41 1772.83 1691.46 1768.24 Q1694.54 1763.64 1700.35 1763.64 Z" fill="#000000" fill-rule="nonzero" fill-opacity="1" /><path clip-path="url(#clip960)" d="M2117.98 1768.34 L2106.18 1786.78 L2117.98 1786.78 L2117.98 1768.34 M2116.76 1764.26 L2122.64 1764.26 L2122.64 1786.78 L2127.57 1786.78 L2127.57 1790.67 L2122.64 1790.67 L2122.64 1798.82 L2117.98 1798.82 L2117.98 1790.67 L2102.38 1790.67 L2102.38 1786.16 L2116.76 1764.26 Z" fill="#000000" fill-rule="nonzero" fill-opacity="1" /><path clip-path="url(#clip960)" d="M2145.3 1767.34 Q2141.69 1767.34 2139.86 1770.9 Q2138.05 1774.45 2138.05 1781.58 Q2138.05 1788.68 2139.86 1792.25 Q2141.69 1795.79 2145.3 1795.79 Q2148.93 1795.79 2150.74 1792.25 Q2152.57 1788.68 2152.57 1781.58 Q2152.57 1774.45 2150.74 1770.9 Q2148.93 1767.34 2145.3 1767.34 M2145.3 1763.64 Q2151.11 1763.64 2154.17 1768.24 Q2157.24 1772.83 2157.24 1781.58 Q2157.24 1790.3 2154.17 1794.91 Q2151.11 1799.49 2145.3 1799.49 Q2139.49 1799.49 2136.41 1794.91 Q2133.36 1790.3 2133.36 1781.58 Q2133.36 1772.83 2136.41 1768.24 Q2139.49 1763.64 2145.3 1763.64 Z" fill="#000000" fill-rule="nonzero" fill-opacity="1" /><path clip-path="url(#clip960)" d="M2548.81 1764.26 L2567.17 1764.26 L2567.17 1768.2 L2553.09 1768.2 L2553.09 1776.67 Q2554.11 1776.32 2555.13 1776.16 Q2556.15 1775.97 2557.17 1775.97 Q2562.95 1775.97 2566.33 1779.15 Q2569.71 1782.32 2569.71 1787.73 Q2569.71 1793.31 2566.24 1796.41 Q2562.77 1799.49 2556.45 1799.49 Q2554.27 1799.49 2552 1799.12 Q2549.76 1798.75 2547.35 1798.01 L2547.35 1793.31 Q2549.44 1794.45 2551.66 1795 Q2553.88 1795.56 2556.36 1795.56 Q2560.36 1795.56 2562.7 1793.45 Q2565.04 1791.34 2565.04 1787.73 Q2565.04 1784.12 2562.7 1782.02 Q2560.36 1779.91 2556.36 1779.91 Q2554.48 1779.91 2552.61 1780.33 Q2550.75 1780.74 2548.81 1781.62 L2548.81 1764.26 Z" fill="#000000" fill-rule="nonzero" fill-opacity="1" /><path clip-path="url(#clip960)" d="M2588.93 1767.34 Q2585.31 1767.34 2583.49 1770.9 Q2581.68 1774.45 2581.68 1781.58 Q2581.68 1788.68 2583.49 1792.25 Q2585.31 1795.79 2588.93 1795.79 Q2592.56 1795.79 2594.37 1792.25 Q2596.19 1788.68 2596.19 1781.58 Q2596.19 1774.45 2594.37 1770.9 Q2592.56 1767.34 2588.93 1767.34 M2588.93 1763.64 Q2594.74 1763.64 2597.79 1768.24 Q2600.87 1772.83 2600.87 1781.58 Q2600.87 1790.3 2597.79 1794.91 Q2594.74 1799.49 2588.93 1799.49 Q2583.12 1799.49 2580.04 1794.91 Q2576.98 1790.3 2576.98 1781.58 Q2576.98 1772.83 2580.04 1768.24 Q2583.12 1763.64 2588.93 1763.64 Z" fill="#000000" fill-rule="nonzero" fill-opacity="1" /><path clip-path="url(#clip960)" d="M1424.09 1842.11 L1415.37 1865.76 L1432.84 1865.76 L1424.09 1842.11 M1420.46 1835.78 L1427.75 1835.78 L1445.86 1883.3 L1439.18 1883.3 L1434.85 1871.11 L1413.43 1871.11 L1409.1 1883.3 L1402.32 1883.3 L1420.46 1835.78 Z" fill="#000000" fill-rule="nonzero" fill-opacity="1" /><path clip-path="url(#clip960)" d="M1476 1865.06 Q1476 1858.7 1473.36 1855.2 Q1470.75 1851.7 1466.01 1851.7 Q1461.3 1851.7 1458.66 1855.2 Q1456.05 1858.7 1456.05 1865.06 Q1456.05 1871.4 1458.66 1874.9 Q1461.3 1878.4 1466.01 1878.4 Q1470.75 1878.4 1473.36 1874.9 Q1476 1871.4 1476 1865.06 M1481.86 1878.88 Q1481.86 1887.98 1477.82 1892.4 Q1473.77 1896.86 1465.44 1896.86 Q1462.35 1896.86 1459.61 1896.38 Q1456.87 1895.94 1454.3 1894.98 L1454.3 1889.28 Q1456.87 1890.69 1459.39 1891.35 Q1461.9 1892.02 1464.51 1892.02 Q1470.27 1892.02 1473.14 1889 Q1476 1886.01 1476 1879.93 L1476 1877.03 Q1474.19 1880.18 1471.36 1881.74 Q1468.52 1883.3 1464.58 1883.3 Q1458.02 1883.3 1454.01 1878.3 Q1450 1873.31 1450 1865.06 Q1450 1856.79 1454.01 1851.79 Q1458.02 1846.79 1464.58 1846.79 Q1468.52 1846.79 1471.36 1848.35 Q1474.19 1849.91 1476 1853.06 L1476 1847.65 L1481.86 1847.65 L1481.86 1878.88 Z" fill="#000000" fill-rule="nonzero" fill-opacity="1" /><path clip-path="url(#clip960)" d="M1524.41 1864.01 L1524.41 1866.88 L1497.49 1866.88 Q1497.87 1872.92 1501.12 1876.11 Q1504.39 1879.26 1510.22 1879.26 Q1513.59 1879.26 1516.74 1878.43 Q1519.93 1877.6 1523.05 1875.95 L1523.05 1881.49 Q1519.89 1882.82 1516.58 1883.52 Q1513.27 1884.22 1509.87 1884.22 Q1501.34 1884.22 1496.34 1879.26 Q1491.38 1874.29 1491.38 1865.83 Q1491.38 1857.07 1496.09 1851.95 Q1500.83 1846.79 1508.85 1846.79 Q1516.04 1846.79 1520.21 1851.44 Q1524.41 1856.06 1524.41 1864.01 M1518.56 1862.29 Q1518.49 1857.49 1515.85 1854.62 Q1513.24 1851.76 1508.91 1851.76 Q1504.01 1851.76 1501.05 1854.53 Q1498.12 1857.3 1497.68 1862.33 L1518.56 1862.29 Z" fill="#000000" fill-rule="nonzero" fill-opacity="1" /><polyline clip-path="url(#clip962)" style="stroke:#000000; stroke-linecap:round; stroke-linejoin:round; stroke-width:2; stroke-opacity:0.1; fill:none" points="285.978,1686.38 2640.76,1686.38 "/>
<polyline clip-path="url(#clip962)" style="stroke:#000000; stroke-linecap:round; stroke-linejoin:round; stroke-width:2; stroke-opacity:0.1; fill:none" points="285.978,1362.61 2640.76,1362.61 "/>
<polyline clip-path="url(#clip962)" style="stroke:#000000; stroke-linecap:round; stroke-linejoin:round; stroke-width:2; stroke-opacity:0.1; fill:none" points="285.978,1038.84 2640.76,1038.84 "/>
<polyline clip-path="url(#clip962)" style="stroke:#000000; stroke-linecap:round; stroke-linejoin:round; stroke-width:2; stroke-opacity:0.1; fill:none" points="285.978,715.068 2640.76,715.068 "/>
<polyline clip-path="url(#clip962)" style="stroke:#000000; stroke-linecap:round; stroke-linejoin:round; stroke-width:2; stroke-opacity:0.1; fill:none" points="285.978,391.299 2640.76,391.299 "/>
<polyline clip-path="url(#clip962)" style="stroke:#000000; stroke-linecap:round; stroke-linejoin:round; stroke-width:2; stroke-opacity:0.1; fill:none" points="285.978,67.5302 2640.76,67.5302 "/>
<polyline clip-path="url(#clip960)" style="stroke:#000000; stroke-linecap:round; stroke-linejoin:round; stroke-width:4; stroke-opacity:1; fill:none" points="285.978,1734.12 285.978,47.2441 "/>
<polyline clip-path="url(#clip960)" style="stroke:#000000; stroke-linecap:round; stroke-linejoin:round; stroke-width:4; stroke-opacity:1; fill:none" points="285.978,1686.38 304.876,1686.38 "/>
<polyline clip-path="url(#clip960)" style="stroke:#000000; stroke-linecap:round; stroke-linejoin:round; stroke-width:4; stroke-opacity:1; fill:none" points="285.978,1362.61 304.876,1362.61 "/>
<polyline clip-path="url(#clip960)" style="stroke:#000000; stroke-linecap:round; stroke-linejoin:round; stroke-width:4; stroke-opacity:1; fill:none" points="285.978,1038.84 304.876,1038.84 "/>
<polyline clip-path="url(#clip960)" style="stroke:#000000; stroke-linecap:round; stroke-linejoin:round; stroke-width:4; stroke-opacity:1; fill:none" points="285.978,715.068 304.876,715.068 "/>
<polyline clip-path="url(#clip960)" style="stroke:#000000; stroke-linecap:round; stroke-linejoin:round; stroke-width:4; stroke-opacity:1; fill:none" points="285.978,391.299 304.876,391.299 "/>
<polyline clip-path="url(#clip960)" style="stroke:#000000; stroke-linecap:round; stroke-linejoin:round; stroke-width:4; stroke-opacity:1; fill:none" points="285.978,67.5302 304.876,67.5302 "/>
<path clip-path="url(#clip960)" d="M128.159 1672.17 Q124.548 1672.17 122.719 1675.74 Q120.913 1679.28 120.913 1686.41 Q120.913 1693.52 122.719 1697.08 Q124.548 1700.62 128.159 1700.62 Q131.793 1700.62 133.599 1697.08 Q135.427 1693.52 135.427 1686.41 Q135.427 1679.28 133.599 1675.74 Q131.793 1672.17 128.159 1672.17 M128.159 1668.47 Q133.969 1668.47 137.025 1673.08 Q140.103 1677.66 140.103 1686.41 Q140.103 1695.14 137.025 1699.74 Q133.969 1704.33 128.159 1704.33 Q122.349 1704.33 119.27 1699.74 Q116.214 1695.14 116.214 1686.41 Q116.214 1677.66 119.27 1673.08 Q122.349 1668.47 128.159 1668.47 Z" fill="#000000" fill-rule="nonzero" fill-opacity="1" /><path clip-path="url(#clip960)" d="M148.321 1697.78 L153.205 1697.78 L153.205 1703.66 L148.321 1703.66 L148.321 1697.78 Z" fill="#000000" fill-rule="nonzero" fill-opacity="1" /><path clip-path="url(#clip960)" d="M173.39 1672.17 Q169.779 1672.17 167.95 1675.74 Q166.145 1679.28 166.145 1686.41 Q166.145 1693.52 167.95 1697.08 Q169.779 1700.62 173.39 1700.62 Q177.024 1700.62 178.83 1697.08 Q180.659 1693.52 180.659 1686.41 Q180.659 1679.28 178.83 1675.74 Q177.024 1672.17 173.39 1672.17 M173.39 1668.47 Q179.2 1668.47 182.256 1673.08 Q185.334 1677.66 185.334 1686.41 Q185.334 1695.14 182.256 1699.74 Q179.2 1704.33 173.39 1704.33 Q167.58 1704.33 164.501 1699.74 Q161.446 1695.14 161.446 1686.41 Q161.446 1677.66 164.501 1673.08 Q167.58 1668.47 173.39 1668.47 Z" fill="#000000" fill-rule="nonzero" fill-opacity="1" /><path clip-path="url(#clip960)" d="M203.552 1672.17 Q199.941 1672.17 198.112 1675.74 Q196.307 1679.28 196.307 1686.41 Q196.307 1693.52 198.112 1697.08 Q199.941 1700.62 203.552 1700.62 Q207.186 1700.62 208.992 1697.08 Q210.82 1693.52 210.82 1686.41 Q210.82 1679.28 208.992 1675.74 Q207.186 1672.17 203.552 1672.17 M203.552 1668.47 Q209.362 1668.47 212.418 1673.08 Q215.496 1677.66 215.496 1686.41 Q215.496 1695.14 212.418 1699.74 Q209.362 1704.33 203.552 1704.33 Q197.742 1704.33 194.663 1699.74 Q191.608 1695.14 191.608 1686.41 Q191.608 1677.66 194.663 1673.08 Q197.742 1668.47 203.552 1668.47 Z" fill="#000000" fill-rule="nonzero" fill-opacity="1" /><path clip-path="url(#clip960)" d="M233.714 1672.17 Q230.103 1672.17 228.274 1675.74 Q226.468 1679.28 226.468 1686.41 Q226.468 1693.52 228.274 1697.08 Q230.103 1700.62 233.714 1700.62 Q237.348 1700.62 239.154 1697.08 Q240.982 1693.52 240.982 1686.41 Q240.982 1679.28 239.154 1675.74 Q237.348 1672.17 233.714 1672.17 M233.714 1668.47 Q239.524 1668.47 242.58 1673.08 Q245.658 1677.66 245.658 1686.41 Q245.658 1695.14 242.58 1699.74 Q239.524 1704.33 233.714 1704.33 Q227.904 1704.33 224.825 1699.74 Q221.769 1695.14 221.769 1686.41 Q221.769 1677.66 224.825 1673.08 Q227.904 1668.47 233.714 1668.47 Z" fill="#000000" fill-rule="nonzero" fill-opacity="1" /><path clip-path="url(#clip960)" d="M129.154 1348.4 Q125.543 1348.4 123.714 1351.97 Q121.909 1355.51 121.909 1362.64 Q121.909 1369.75 123.714 1373.31 Q125.543 1376.85 129.154 1376.85 Q132.788 1376.85 134.594 1373.31 Q136.423 1369.75 136.423 1362.64 Q136.423 1355.51 134.594 1351.97 Q132.788 1348.4 129.154 1348.4 M129.154 1344.7 Q134.964 1344.7 138.02 1349.31 Q141.099 1353.89 141.099 1362.64 Q141.099 1371.37 138.02 1375.97 Q134.964 1380.56 129.154 1380.56 Q123.344 1380.56 120.265 1375.97 Q117.21 1371.37 117.21 1362.64 Q117.21 1353.89 120.265 1349.31 Q123.344 1344.7 129.154 1344.7 Z" fill="#000000" fill-rule="nonzero" fill-opacity="1" /><path clip-path="url(#clip960)" d="M149.316 1374.01 L154.2 1374.01 L154.2 1379.89 L149.316 1379.89 L149.316 1374.01 Z" fill="#000000" fill-rule="nonzero" fill-opacity="1" /><path clip-path="url(#clip960)" d="M174.385 1348.4 Q170.774 1348.4 168.946 1351.97 Q167.14 1355.51 167.14 1362.64 Q167.14 1369.75 168.946 1373.31 Q170.774 1376.85 174.385 1376.85 Q178.02 1376.85 179.825 1373.31 Q181.654 1369.75 181.654 1362.64 Q181.654 1355.51 179.825 1351.97 Q178.02 1348.4 174.385 1348.4 M174.385 1344.7 Q180.196 1344.7 183.251 1349.31 Q186.33 1353.89 186.33 1362.64 Q186.33 1371.37 183.251 1375.97 Q180.196 1380.56 174.385 1380.56 Q168.575 1380.56 165.497 1375.97 Q162.441 1371.37 162.441 1362.64 Q162.441 1353.89 165.497 1349.31 Q168.575 1344.7 174.385 1344.7 Z" fill="#000000" fill-rule="nonzero" fill-opacity="1" /><path clip-path="url(#clip960)" d="M204.547 1348.4 Q200.936 1348.4 199.108 1351.97 Q197.302 1355.51 197.302 1362.64 Q197.302 1369.75 199.108 1373.31 Q200.936 1376.85 204.547 1376.85 Q208.182 1376.85 209.987 1373.31 Q211.816 1369.75 211.816 1362.64 Q211.816 1355.51 209.987 1351.97 Q208.182 1348.4 204.547 1348.4 M204.547 1344.7 Q210.357 1344.7 213.413 1349.31 Q216.492 1353.89 216.492 1362.64 Q216.492 1371.37 213.413 1375.97 Q210.357 1380.56 204.547 1380.56 Q198.737 1380.56 195.658 1375.97 Q192.603 1371.37 192.603 1362.64 Q192.603 1353.89 195.658 1349.31 Q198.737 1344.7 204.547 1344.7 Z" fill="#000000" fill-rule="nonzero" fill-opacity="1" /><path clip-path="url(#clip960)" d="M224.756 1345.33 L243.112 1345.33 L243.112 1349.26 L229.038 1349.26 L229.038 1357.73 Q230.056 1357.39 231.075 1357.22 Q232.093 1357.04 233.112 1357.04 Q238.899 1357.04 242.279 1360.21 Q245.658 1363.38 245.658 1368.8 Q245.658 1374.38 242.186 1377.48 Q238.714 1380.56 232.394 1380.56 Q230.218 1380.56 227.95 1380.19 Q225.705 1379.82 223.297 1379.08 L223.297 1374.38 Q225.381 1375.51 227.603 1376.07 Q229.825 1376.62 232.302 1376.62 Q236.306 1376.62 238.644 1374.52 Q240.982 1372.41 240.982 1368.8 Q240.982 1365.19 238.644 1363.08 Q236.306 1360.97 232.302 1360.97 Q230.427 1360.97 228.552 1361.39 Q226.7 1361.81 224.756 1362.69 L224.756 1345.33 Z" fill="#000000" fill-rule="nonzero" fill-opacity="1" /><path clip-path="url(#clip960)" d="M128.159 1024.64 Q124.548 1024.64 122.719 1028.2 Q120.913 1031.74 120.913 1038.87 Q120.913 1045.98 122.719 1049.54 Q124.548 1053.08 128.159 1053.08 Q131.793 1053.08 133.599 1049.54 Q135.427 1045.98 135.427 1038.87 Q135.427 1031.74 133.599 1028.2 Q131.793 1024.64 128.159 1024.64 M128.159 1020.93 Q133.969 1020.93 137.025 1025.54 Q140.103 1030.12 140.103 1038.87 Q140.103 1047.6 137.025 1052.21 Q133.969 1056.79 128.159 1056.79 Q122.349 1056.79 119.27 1052.21 Q116.214 1047.6 116.214 1038.87 Q116.214 1030.12 119.27 1025.54 Q122.349 1020.93 128.159 1020.93 Z" fill="#000000" fill-rule="nonzero" fill-opacity="1" /><path clip-path="url(#clip960)" d="M148.321 1050.24 L153.205 1050.24 L153.205 1056.12 L148.321 1056.12 L148.321 1050.24 Z" fill="#000000" fill-rule="nonzero" fill-opacity="1" /><path clip-path="url(#clip960)" d="M173.39 1024.64 Q169.779 1024.64 167.95 1028.2 Q166.145 1031.74 166.145 1038.87 Q166.145 1045.98 167.95 1049.54 Q169.779 1053.08 173.39 1053.08 Q177.024 1053.08 178.83 1049.54 Q180.659 1045.98 180.659 1038.87 Q180.659 1031.74 178.83 1028.2 Q177.024 1024.64 173.39 1024.64 M173.39 1020.93 Q179.2 1020.93 182.256 1025.54 Q185.334 1030.12 185.334 1038.87 Q185.334 1047.6 182.256 1052.21 Q179.2 1056.79 173.39 1056.79 Q167.58 1056.79 164.501 1052.21 Q161.446 1047.6 161.446 1038.87 Q161.446 1030.12 164.501 1025.54 Q167.58 1020.93 173.39 1020.93 Z" fill="#000000" fill-rule="nonzero" fill-opacity="1" /><path clip-path="url(#clip960)" d="M194.362 1052.18 L202.001 1052.18 L202.001 1025.82 L193.691 1027.48 L193.691 1023.22 L201.955 1021.56 L206.631 1021.56 L206.631 1052.18 L214.269 1052.18 L214.269 1056.12 L194.362 1056.12 L194.362 1052.18 Z" fill="#000000" fill-rule="nonzero" fill-opacity="1" /><path clip-path="url(#clip960)" d="M233.714 1024.64 Q230.103 1024.64 228.274 1028.2 Q226.468 1031.74 226.468 1038.87 Q226.468 1045.98 228.274 1049.54 Q230.103 1053.08 233.714 1053.08 Q237.348 1053.08 239.154 1049.54 Q240.982 1045.98 240.982 1038.87 Q240.982 1031.74 239.154 1028.2 Q237.348 1024.64 233.714 1024.64 M233.714 1020.93 Q239.524 1020.93 242.58 1025.54 Q245.658 1030.12 245.658 1038.87 Q245.658 1047.6 242.58 1052.21 Q239.524 1056.79 233.714 1056.79 Q227.904 1056.79 224.825 1052.21 Q221.769 1047.6 221.769 1038.87 Q221.769 1030.12 224.825 1025.54 Q227.904 1020.93 233.714 1020.93 Z" fill="#000000" fill-rule="nonzero" fill-opacity="1" /><path clip-path="url(#clip960)" d="M129.154 700.867 Q125.543 700.867 123.714 704.432 Q121.909 707.973 121.909 715.103 Q121.909 722.209 123.714 725.774 Q125.543 729.316 129.154 729.316 Q132.788 729.316 134.594 725.774 Q136.423 722.209 136.423 715.103 Q136.423 707.973 134.594 704.432 Q132.788 700.867 129.154 700.867 M129.154 697.163 Q134.964 697.163 138.02 701.77 Q141.099 706.353 141.099 715.103 Q141.099 723.83 138.02 728.436 Q134.964 733.02 129.154 733.02 Q123.344 733.02 120.265 728.436 Q117.21 723.83 117.21 715.103 Q117.21 706.353 120.265 701.77 Q123.344 697.163 129.154 697.163 Z" fill="#000000" fill-rule="nonzero" fill-opacity="1" /><path clip-path="url(#clip960)" d="M149.316 726.469 L154.2 726.469 L154.2 732.348 L149.316 732.348 L149.316 726.469 Z" fill="#000000" fill-rule="nonzero" fill-opacity="1" /><path clip-path="url(#clip960)" d="M174.385 700.867 Q170.774 700.867 168.946 704.432 Q167.14 707.973 167.14 715.103 Q167.14 722.209 168.946 725.774 Q170.774 729.316 174.385 729.316 Q178.02 729.316 179.825 725.774 Q181.654 722.209 181.654 715.103 Q181.654 707.973 179.825 704.432 Q178.02 700.867 174.385 700.867 M174.385 697.163 Q180.196 697.163 183.251 701.77 Q186.33 706.353 186.33 715.103 Q186.33 723.83 183.251 728.436 Q180.196 733.02 174.385 733.02 Q168.575 733.02 165.497 728.436 Q162.441 723.83 162.441 715.103 Q162.441 706.353 165.497 701.77 Q168.575 697.163 174.385 697.163 Z" fill="#000000" fill-rule="nonzero" fill-opacity="1" /><path clip-path="url(#clip960)" d="M195.358 728.413 L202.996 728.413 L202.996 702.047 L194.686 703.714 L194.686 699.455 L202.95 697.788 L207.626 697.788 L207.626 728.413 L215.265 728.413 L215.265 732.348 L195.358 732.348 L195.358 728.413 Z" fill="#000000" fill-rule="nonzero" fill-opacity="1" /><path clip-path="url(#clip960)" d="M224.756 697.788 L243.112 697.788 L243.112 701.723 L229.038 701.723 L229.038 710.196 Q230.056 709.848 231.075 709.686 Q232.093 709.501 233.112 709.501 Q238.899 709.501 242.279 712.672 Q245.658 715.844 245.658 721.26 Q245.658 726.839 242.186 729.941 Q238.714 733.02 232.394 733.02 Q230.218 733.02 227.95 732.649 Q225.705 732.279 223.297 731.538 L223.297 726.839 Q225.381 727.973 227.603 728.529 Q229.825 729.084 232.302 729.084 Q236.306 729.084 238.644 726.978 Q240.982 724.871 240.982 721.26 Q240.982 717.649 238.644 715.543 Q236.306 713.436 232.302 713.436 Q230.427 713.436 228.552 713.853 Q226.7 714.27 224.756 715.149 L224.756 697.788 Z" fill="#000000" fill-rule="nonzero" fill-opacity="1" /><path clip-path="url(#clip960)" d="M128.159 377.098 Q124.548 377.098 122.719 380.663 Q120.913 384.204 120.913 391.334 Q120.913 398.44 122.719 402.005 Q124.548 405.547 128.159 405.547 Q131.793 405.547 133.599 402.005 Q135.427 398.44 135.427 391.334 Q135.427 384.204 133.599 380.663 Q131.793 377.098 128.159 377.098 M128.159 373.394 Q133.969 373.394 137.025 378.001 Q140.103 382.584 140.103 391.334 Q140.103 400.061 137.025 404.667 Q133.969 409.25 128.159 409.25 Q122.349 409.25 119.27 404.667 Q116.214 400.061 116.214 391.334 Q116.214 382.584 119.27 378.001 Q122.349 373.394 128.159 373.394 Z" fill="#000000" fill-rule="nonzero" fill-opacity="1" /><path clip-path="url(#clip960)" d="M148.321 402.7 L153.205 402.7 L153.205 408.579 L148.321 408.579 L148.321 402.7 Z" fill="#000000" fill-rule="nonzero" fill-opacity="1" /><path clip-path="url(#clip960)" d="M173.39 377.098 Q169.779 377.098 167.95 380.663 Q166.145 384.204 166.145 391.334 Q166.145 398.44 167.95 402.005 Q169.779 405.547 173.39 405.547 Q177.024 405.547 178.83 402.005 Q180.659 398.44 180.659 391.334 Q180.659 384.204 178.83 380.663 Q177.024 377.098 173.39 377.098 M173.39 373.394 Q179.2 373.394 182.256 378.001 Q185.334 382.584 185.334 391.334 Q185.334 400.061 182.256 404.667 Q179.2 409.25 173.39 409.25 Q167.58 409.25 164.501 404.667 Q161.446 400.061 161.446 391.334 Q161.446 382.584 164.501 378.001 Q167.58 373.394 173.39 373.394 Z" fill="#000000" fill-rule="nonzero" fill-opacity="1" /><path clip-path="url(#clip960)" d="M197.58 404.644 L213.899 404.644 L213.899 408.579 L191.955 408.579 L191.955 404.644 Q194.617 401.889 199.2 397.26 Q203.807 392.607 204.987 391.264 Q207.232 388.741 208.112 387.005 Q209.015 385.246 209.015 383.556 Q209.015 380.802 207.07 379.065 Q205.149 377.329 202.047 377.329 Q199.848 377.329 197.395 378.093 Q194.964 378.857 192.186 380.408 L192.186 375.686 Q195.01 374.552 197.464 373.973 Q199.918 373.394 201.955 373.394 Q207.325 373.394 210.519 376.079 Q213.714 378.765 213.714 383.255 Q213.714 385.385 212.904 387.306 Q212.117 389.204 210.01 391.797 Q209.432 392.468 206.33 395.686 Q203.228 398.88 197.58 404.644 Z" fill="#000000" fill-rule="nonzero" fill-opacity="1" /><path clip-path="url(#clip960)" d="M233.714 377.098 Q230.103 377.098 228.274 380.663 Q226.468 384.204 226.468 391.334 Q226.468 398.44 228.274 402.005 Q230.103 405.547 233.714 405.547 Q237.348 405.547 239.154 402.005 Q240.982 398.44 240.982 391.334 Q240.982 384.204 239.154 380.663 Q237.348 377.098 233.714 377.098 M233.714 373.394 Q239.524 373.394 242.58 378.001 Q245.658 382.584 245.658 391.334 Q245.658 400.061 242.58 404.667 Q239.524 409.25 233.714 409.25 Q227.904 409.25 224.825 404.667 Q221.769 400.061 221.769 391.334 Q221.769 382.584 224.825 378.001 Q227.904 373.394 233.714 373.394 Z" fill="#000000" fill-rule="nonzero" fill-opacity="1" /><path clip-path="url(#clip960)" d="M129.154 53.3289 Q125.543 53.3289 123.714 56.8936 Q121.909 60.4353 121.909 67.5649 Q121.909 74.6713 123.714 78.2361 Q125.543 81.7778 129.154 81.7778 Q132.788 81.7778 134.594 78.2361 Q136.423 74.6713 136.423 67.5649 Q136.423 60.4353 134.594 56.8936 Q132.788 53.3289 129.154 53.3289 M129.154 49.6252 Q134.964 49.6252 138.02 54.2316 Q141.099 58.8149 141.099 67.5649 Q141.099 76.2917 138.02 80.8982 Q134.964 85.4815 129.154 85.4815 Q123.344 85.4815 120.265 80.8982 Q117.21 76.2917 117.21 67.5649 Q117.21 58.8149 120.265 54.2316 Q123.344 49.6252 129.154 49.6252 Z" fill="#000000" fill-rule="nonzero" fill-opacity="1" /><path clip-path="url(#clip960)" d="M149.316 78.9306 L154.2 78.9306 L154.2 84.8102 L149.316 84.8102 L149.316 78.9306 Z" fill="#000000" fill-rule="nonzero" fill-opacity="1" /><path clip-path="url(#clip960)" d="M174.385 53.3289 Q170.774 53.3289 168.946 56.8936 Q167.14 60.4353 167.14 67.5649 Q167.14 74.6713 168.946 78.2361 Q170.774 81.7778 174.385 81.7778 Q178.02 81.7778 179.825 78.2361 Q181.654 74.6713 181.654 67.5649 Q181.654 60.4353 179.825 56.8936 Q178.02 53.3289 174.385 53.3289 M174.385 49.6252 Q180.196 49.6252 183.251 54.2316 Q186.33 58.8149 186.33 67.5649 Q186.33 76.2917 183.251 80.8982 Q180.196 85.4815 174.385 85.4815 Q168.575 85.4815 165.497 80.8982 Q162.441 76.2917 162.441 67.5649 Q162.441 58.8149 165.497 54.2316 Q168.575 49.6252 174.385 49.6252 Z" fill="#000000" fill-rule="nonzero" fill-opacity="1" /><path clip-path="url(#clip960)" d="M198.575 80.875 L214.894 80.875 L214.894 84.8102 L192.95 84.8102 L192.95 80.875 Q195.612 78.1204 200.195 73.4908 Q204.802 68.838 205.982 67.4954 Q208.228 64.9723 209.107 63.2362 Q210.01 61.477 210.01 59.7872 Q210.01 57.0325 208.066 55.2964 Q206.145 53.5603 203.043 53.5603 Q200.844 53.5603 198.39 54.3242 Q195.959 55.0881 193.182 56.639 L193.182 51.9168 Q196.006 50.7826 198.459 50.2039 Q200.913 49.6252 202.95 49.6252 Q208.32 49.6252 211.515 52.3103 Q214.709 54.9955 214.709 59.4862 Q214.709 61.6158 213.899 63.5371 Q213.112 65.4353 211.006 68.0278 Q210.427 68.6991 207.325 71.9167 Q204.223 75.1111 198.575 80.875 Z" fill="#000000" fill-rule="nonzero" fill-opacity="1" /><path clip-path="url(#clip960)" d="M224.756 50.2502 L243.112 50.2502 L243.112 54.1853 L229.038 54.1853 L229.038 62.6575 Q230.056 62.3103 231.075 62.1483 Q232.093 61.9631 233.112 61.9631 Q238.899 61.9631 242.279 65.1343 Q245.658 68.3056 245.658 73.7223 Q245.658 79.3009 242.186 82.4028 Q238.714 85.4815 232.394 85.4815 Q230.218 85.4815 227.95 85.1111 Q225.705 84.7407 223.297 84 L223.297 79.3009 Q225.381 80.4352 227.603 80.9907 Q229.825 81.5463 232.302 81.5463 Q236.306 81.5463 238.644 79.4398 Q240.982 77.3334 240.982 73.7223 Q240.982 70.1112 238.644 68.0047 Q236.306 65.8982 232.302 65.8982 Q230.427 65.8982 228.552 66.3149 Q226.7 66.7316 224.756 67.6112 L224.756 50.2502 Z" fill="#000000" fill-rule="nonzero" fill-opacity="1" /><path clip-path="url(#clip960)" d="M15.678 1072.09 L21.9483 1072.09 Q20.1977 1075.75 19.3383 1078.99 Q18.479 1082.24 18.479 1085.26 Q18.479 1090.52 20.516 1093.38 Q22.553 1096.21 26.3088 1096.21 Q29.4598 1096.21 31.0831 1094.34 Q32.6745 1092.43 33.6612 1087.14 L34.4569 1083.26 Q35.8255 1076.07 39.2948 1072.66 Q42.7323 1069.22 48.5251 1069.22 Q55.4319 1069.22 58.9967 1073.87 Q62.5615 1078.48 62.5615 1087.43 Q62.5615 1090.8 61.7976 1094.62 Q61.0337 1098.41 59.5378 1102.48 L52.9174 1102.48 Q55.1136 1098.57 56.2276 1094.81 Q57.3416 1091.06 57.3416 1087.43 Q57.3416 1081.92 55.1773 1078.93 Q53.0129 1075.94 49.0025 1075.94 Q45.5014 1075.94 43.528 1078.1 Q41.5546 1080.24 40.568 1085.14 L39.8041 1089.05 Q38.3718 1096.25 35.3162 1099.46 Q32.2607 1102.67 26.818 1102.67 Q20.516 1102.67 16.8875 1098.25 Q13.2591 1093.79 13.2591 1086 Q13.2591 1082.65 13.8638 1079.19 Q14.4686 1075.72 15.678 1072.09 Z" fill="#000000" fill-rule="nonzero" fill-opacity="1" /><path clip-path="url(#clip960)" d="M25.9905 1059.45 L25.9905 1053.59 L61.6384 1053.59 L61.6384 1059.45 L25.9905 1059.45 M12.1132 1059.45 L12.1132 1053.59 L19.5293 1053.59 L19.5293 1059.45 L12.1132 1059.45 Z" fill="#000000" fill-rule="nonzero" fill-opacity="1" /><path clip-path="url(#clip960)" d="M40.1224 1011.71 L61.6384 1011.71 L61.6384 1017.56 L40.3133 1017.56 Q35.2526 1017.56 32.7381 1019.54 Q30.2237 1021.51 30.2237 1025.46 Q30.2237 1030.2 33.2474 1032.94 Q36.2711 1035.68 41.491 1035.68 L61.6384 1035.68 L61.6384 1041.56 L25.9905 1041.56 L25.9905 1035.68 L31.5287 1035.68 Q28.314 1033.57 26.7225 1030.74 Q25.1311 1027.88 25.1311 1024.15 Q25.1311 1018.01 28.9505 1014.86 Q32.7381 1011.71 40.1224 1011.71 Z" fill="#000000" fill-rule="nonzero" fill-opacity="1" /><path clip-path="url(#clip960)" d="M12.1132 1000.25 L12.1132 994.362 L41.3637 994.362 L25.9905 976.888 L25.9905 969.408 L42.6686 988.315 L61.6384 968.613 L61.6384 976.252 L44.2282 994.362 L61.6384 994.362 L61.6384 1000.25 L12.1132 1000.25 Z" fill="#000000" fill-rule="nonzero" fill-opacity="1" /><path clip-path="url(#clip960)" d="M27.0408 918.833 L32.579 918.833 Q31.3059 921.316 30.6693 923.989 Q30.0327 926.663 30.0327 929.527 Q30.0327 933.888 31.3695 936.084 Q32.7063 938.248 35.3799 938.248 Q37.4169 938.248 38.5946 936.689 Q39.7404 935.129 40.7908 930.418 L41.2364 928.413 Q42.5732 922.175 45.0239 919.565 Q47.4429 916.923 51.8034 916.923 Q56.7687 916.923 59.6651 920.87 Q62.5615 924.785 62.5615 931.66 Q62.5615 934.524 61.9886 937.644 Q61.4475 940.731 60.3335 944.168 L54.2861 944.168 Q55.973 940.922 56.8323 937.771 Q57.6599 934.62 57.6599 931.532 Q57.6599 927.395 56.2594 925.167 Q54.8271 922.939 52.249 922.939 Q49.8619 922.939 48.5887 924.562 Q47.3156 926.153 46.1379 931.596 L45.6605 933.633 Q44.5147 939.076 42.1594 941.495 Q39.7722 943.914 35.6345 943.914 Q30.6056 943.914 27.8684 940.349 Q25.1311 936.784 25.1311 930.227 Q25.1311 926.981 25.6085 924.116 Q26.086 921.252 27.0408 918.833 Z" fill="#000000" fill-rule="nonzero" fill-opacity="1" /><path clip-path="url(#clip960)" d="M15.869 901.805 L25.9905 901.805 L25.9905 889.742 L30.542 889.742 L30.542 901.805 L49.8937 901.805 Q54.2542 901.805 55.4955 900.627 Q56.7368 899.417 56.7368 895.757 L56.7368 889.742 L61.6384 889.742 L61.6384 895.757 Q61.6384 902.537 59.124 905.115 Q56.5777 907.693 49.8937 907.693 L30.542 907.693 L30.542 911.99 L25.9905 911.99 L25.9905 907.693 L15.869 907.693 L15.869 901.805 Z" fill="#000000" fill-rule="nonzero" fill-opacity="1" /><path clip-path="url(#clip960)" d="M31.465 861.382 Q30.8921 862.369 30.6375 863.547 Q30.351 864.693 30.351 866.093 Q30.351 871.058 33.5975 873.732 Q36.8122 876.374 42.8596 876.374 L61.6384 876.374 L61.6384 882.262 L25.9905 882.262 L25.9905 876.374 L31.5287 876.374 Q28.2821 874.528 26.7225 871.568 Q25.1311 868.607 25.1311 864.374 Q25.1311 863.77 25.2266 863.037 Q25.2903 862.305 25.4494 861.414 L31.465 861.382 Z" fill="#000000" fill-rule="nonzero" fill-opacity="1" /><path clip-path="url(#clip960)" d="M42.3504 826.18 L45.2149 826.18 L45.2149 853.107 Q51.2623 852.725 54.4452 849.479 Q57.5962 846.2 57.5962 840.376 Q57.5962 837.002 56.7687 833.851 Q55.9411 830.668 54.2861 827.549 L59.8242 827.549 Q61.161 830.7 61.8612 834.01 Q62.5615 837.32 62.5615 840.726 Q62.5615 849.256 57.5962 854.253 Q52.631 859.218 44.1646 859.218 Q35.4117 859.218 30.2873 854.507 Q25.1311 849.765 25.1311 841.744 Q25.1311 834.551 29.7781 830.381 Q34.3932 826.18 42.3504 826.18 M40.6316 832.036 Q35.8255 832.1 32.9609 834.742 Q30.0964 837.352 30.0964 841.681 Q30.0964 846.582 32.8654 849.542 Q35.6345 852.47 40.6634 852.916 L40.6316 832.036 Z" fill="#000000" fill-rule="nonzero" fill-opacity="1" /><path clip-path="url(#clip960)" d="M40.1224 786.935 L61.6384 786.935 L61.6384 792.792 L40.3133 792.792 Q35.2526 792.792 32.7381 794.765 Q30.2237 796.739 30.2237 800.685 Q30.2237 805.428 33.2474 808.165 Q36.2711 810.902 41.491 810.902 L61.6384 810.902 L61.6384 816.791 L25.9905 816.791 L25.9905 810.902 L31.5287 810.902 Q28.314 808.802 26.7225 805.969 Q25.1311 803.104 25.1311 799.38 Q25.1311 793.237 28.9505 790.086 Q32.7381 786.935 40.1224 786.935 Z" fill="#000000" fill-rule="nonzero" fill-opacity="1" /><path clip-path="url(#clip960)" d="M43.4007 751.797 Q37.035 751.797 33.5338 754.439 Q30.0327 757.048 30.0327 761.791 Q30.0327 766.502 33.5338 769.143 Q37.035 771.753 43.4007 771.753 Q49.7346 771.753 53.2357 769.143 Q56.7368 766.502 56.7368 761.791 Q56.7368 757.048 53.2357 754.439 Q49.7346 751.797 43.4007 751.797 M57.2143 745.94 Q66.3172 745.94 70.7414 749.983 Q75.1974 754.025 75.1974 762.364 Q75.1974 765.451 74.72 768.188 Q74.2744 770.926 73.3195 773.504 L67.6222 773.504 Q69.0227 770.926 69.6911 768.411 Q70.3595 765.897 70.3595 763.287 Q70.3595 757.526 67.3358 754.661 Q64.3439 751.797 58.2646 751.797 L55.3682 751.797 Q58.5192 753.611 60.0788 756.444 Q61.6384 759.276 61.6384 763.223 Q61.6384 769.78 56.6414 773.79 Q51.6443 777.801 43.4007 777.801 Q35.1253 777.801 30.1282 773.79 Q25.1311 769.78 25.1311 763.223 Q25.1311 759.276 26.6907 756.444 Q28.2503 753.611 31.4013 751.797 L25.9905 751.797 L25.9905 745.94 L57.2143 745.94 Z" fill="#000000" fill-rule="nonzero" fill-opacity="1" /><path clip-path="url(#clip960)" d="M15.869 728.084 L25.9905 728.084 L25.9905 716.021 L30.542 716.021 L30.542 728.084 L49.8937 728.084 Q54.2542 728.084 55.4955 726.907 Q56.7368 725.697 56.7368 722.037 L56.7368 716.021 L61.6384 716.021 L61.6384 722.037 Q61.6384 728.817 59.124 731.395 Q56.5777 733.973 49.8937 733.973 L30.542 733.973 L30.542 738.27 L25.9905 738.27 L25.9905 733.973 L15.869 733.973 L15.869 728.084 Z" fill="#000000" fill-rule="nonzero" fill-opacity="1" /><path clip-path="url(#clip960)" d="M40.1224 678.687 L61.6384 678.687 L61.6384 684.543 L40.3133 684.543 Q35.2526 684.543 32.7381 686.516 Q30.2237 688.49 30.2237 692.437 Q30.2237 697.179 33.2474 699.916 Q36.2711 702.653 41.491 702.653 L61.6384 702.653 L61.6384 708.542 L12.1132 708.542 L12.1132 702.653 L31.5287 702.653 Q28.314 700.553 26.7225 697.72 Q25.1311 694.855 25.1311 691.132 Q25.1311 684.989 28.9505 681.838 Q32.7381 678.687 40.1224 678.687 Z" fill="#000000" fill-rule="nonzero" fill-opacity="1" /><polyline clip-path="url(#clip962)" style="stroke:#009af9; stroke-linecap:round; stroke-linejoin:round; stroke-width:4; stroke-opacity:1; fill:none" points="352.623,1686.38 397.053,703.627 441.482,225.095 485.912,94.9858 530.342,188.206 574.772,407.288 619.201,679.324 663.631,952.895 708.061,1195 752.491,1387.99 796.921,1526.49 841.35,1614.34 885.78,1661.51 930.21,1681.05 974.64,1686.02 1019.07,1686.38 1063.5,1686.38 1107.93,1686.38 1152.36,1686.38 1196.79,1686.38 1241.22,1686.38 1285.65,1686.38 1330.08,1686.38 1374.51,1686.38 1418.94,1686.38 1463.37,1686.38 1507.8,1686.38 1552.23,1686.38 1596.66,1686.38 1641.09,1686.38 1685.52,1686.38 1729.95,1686.38 1774.38,1686.38 1818.81,1686.38 1863.23,1686.38 1907.66,1686.38 1952.09,1686.38 1996.52,1686.38 2040.95,1686.38 2085.38,1686.38 2129.81,1686.38 2174.24,1686.38 2218.67,1686.38 2263.1,1686.38 2307.53,1686.38 2351.96,1686.38 2396.39,1686.38 2440.82,1686.38 2485.25,1686.38 2529.68,1686.38 2574.11,1686.38 "/>
<path clip-path="url(#clip960)" d="M2230.05 207.153 L2562.26 207.153 L2562.26 103.473 L2230.05 103.473  Z" fill="#ffffff" fill-rule="evenodd" fill-opacity="1"/>
<polyline clip-path="url(#clip960)" style="stroke:#000000; stroke-linecap:round; stroke-linejoin:round; stroke-width:4; stroke-opacity:1; fill:none" points="2230.05,207.153 2562.26,207.153 2562.26,103.473 2230.05,103.473 2230.05,207.153 "/>
<polyline clip-path="url(#clip960)" style="stroke:#009af9; stroke-linecap:round; stroke-linejoin:round; stroke-width:4; stroke-opacity:1; fill:none" points="2256.21,155.313 2413.2,155.313 "/>
<path clip-path="url(#clip960)" d="M2439.36 138.033 L2444.04 138.033 L2444.04 168.658 L2460.87 168.658 L2460.87 172.593 L2439.36 172.593 L2439.36 138.033 Z" fill="#000000" fill-rule="nonzero" fill-opacity="1" /><path clip-path="url(#clip960)" d="M2486.93 158.565 L2486.93 160.649 L2467.35 160.649 Q2467.63 165.047 2469.99 167.362 Q2472.37 169.653 2476.61 169.653 Q2479.06 169.653 2481.35 169.052 Q2483.67 168.45 2485.94 167.246 L2485.94 171.274 Q2483.65 172.246 2481.24 172.755 Q2478.83 173.264 2476.35 173.264 Q2470.15 173.264 2466.52 169.653 Q2462.91 166.042 2462.91 159.885 Q2462.91 153.519 2466.33 149.792 Q2469.78 146.042 2475.61 146.042 Q2480.84 146.042 2483.88 149.422 Q2486.93 152.778 2486.93 158.565 M2482.67 157.315 Q2482.63 153.82 2480.71 151.737 Q2478.81 149.653 2475.66 149.653 Q2472.09 149.653 2469.94 151.667 Q2467.81 153.681 2467.49 157.339 L2482.67 157.315 Z" fill="#000000" fill-rule="nonzero" fill-opacity="1" /><path clip-path="url(#clip960)" d="M2505.71 159.561 Q2500.54 159.561 2498.55 160.741 Q2496.56 161.922 2496.56 164.769 Q2496.56 167.038 2498.04 168.38 Q2499.55 169.7 2502.12 169.7 Q2505.66 169.7 2507.79 167.2 Q2509.94 164.677 2509.94 160.51 L2509.94 159.561 L2505.71 159.561 M2514.2 157.802 L2514.2 172.593 L2509.94 172.593 L2509.94 168.658 Q2508.48 171.019 2506.31 172.153 Q2504.13 173.264 2500.98 173.264 Q2497 173.264 2494.64 171.042 Q2492.3 168.797 2492.3 165.047 Q2492.3 160.672 2495.22 158.45 Q2498.16 156.228 2503.97 156.228 L2509.94 156.228 L2509.94 155.811 Q2509.94 152.871 2508 151.274 Q2506.08 149.653 2502.58 149.653 Q2500.36 149.653 2498.25 150.186 Q2496.15 150.718 2494.2 151.783 L2494.2 147.848 Q2496.54 146.945 2498.74 146.505 Q2500.94 146.042 2503.02 146.042 Q2508.65 146.042 2511.42 148.959 Q2514.2 151.876 2514.2 157.802 Z" fill="#000000" fill-rule="nonzero" fill-opacity="1" /><path clip-path="url(#clip960)" d="M2536.1 136.575 L2536.1 140.117 L2532.03 140.117 Q2529.73 140.117 2528.83 141.042 Q2527.95 141.968 2527.95 144.376 L2527.95 146.667 L2534.96 146.667 L2534.96 149.978 L2527.95 149.978 L2527.95 172.593 L2523.67 172.593 L2523.67 149.978 L2519.59 149.978 L2519.59 146.667 L2523.67 146.667 L2523.67 144.862 Q2523.67 140.533 2525.68 138.566 Q2527.7 136.575 2532.07 136.575 L2536.1 136.575 Z" fill="#000000" fill-rule="nonzero" fill-opacity="1" /></svg>
