<?xml version="1.0" encoding="utf-8"?>
<svg xmlns="http://www.w3.org/2000/svg" xmlns:xlink="http://www.w3.org/1999/xlink" width="672" height="480" viewBox="0 0 2688 1920">
<defs>
  <clipPath id="clip040">
    <rect x="0" y="0" width="2688" height="1920"/>
  </clipPath>
</defs>
<path clip-path="url(#clip040)" d="M0 1920 L2688 1920 L2688 0 L0 0  Z" fill="#ffffff" fill-rule="evenodd" fill-opacity="1"/>
<defs>
  <clipPath id="clip041">
    <rect x="537" y="0" width="1883" height="1883"/>
  </clipPath>
</defs>
<path clip-path="url(#clip040)" d="M143.576 1800.78 L2640.76 1800.78 L2640.76 47.2441 L143.576 47.2441  Z" fill="#ffffff" fill-rule="evenodd" fill-opacity="1"/>
<defs>
  <clipPath id="clip042">
    <rect x="143" y="47" width="2498" height="1755"/>
  </clipPath>
</defs>
<polyline clip-path="url(#clip042)" style="stroke:#000000; stroke-linecap:round; stroke-linejoin:round; stroke-width:2; stroke-opacity:0.1; fill:none" points="280.925,1800.78 280.925,47.2441 "/>
<polyline clip-path="url(#clip042)" style="stroke:#000000; stroke-linecap:round; stroke-linejoin:round; stroke-width:2; stroke-opacity:0.1; fill:none" points="651.339,1800.78 651.339,47.2441 "/>
<polyline clip-path="url(#clip042)" style="stroke:#000000; stroke-linecap:round; stroke-linejoin:round; stroke-width:2; stroke-opacity:0.1; fill:none" points="1021.75,1800.78 1021.75,47.2441 "/>
<polyline clip-path="url(#clip042)" style="stroke:#000000; stroke-linecap:round; stroke-linejoin:round; stroke-width:2; stroke-opacity:0.1; fill:none" points="1392.17,1800.78 1392.17,47.2441 "/>
<polyline clip-path="url(#clip042)" style="stroke:#000000; stroke-linecap:round; stroke-linejoin:round; stroke-width:2; stroke-opacity:0.1; fill:none" points="1762.58,1800.78 1762.58,47.2441 "/>
<polyline clip-path="url(#clip042)" style="stroke:#000000; stroke-linecap:round; stroke-linejoin:round; stroke-width:2; stroke-opacity:0.1; fill:none" points="2132.99,1800.78 2132.99,47.2441 "/>
<polyline clip-path="url(#clip042)" style="stroke:#000000; stroke-linecap:round; stroke-linejoin:round; stroke-width:2; stroke-opacity:0.1; fill:none" points="2503.41,1800.78 2503.41,47.2441 "/>
<polyline clip-path="url(#clip040)" style="stroke:#000000; stroke-linecap:round; stroke-linejoin:round; stroke-width:4; stroke-opacity:1; fill:none" points="143.576,1800.78 2640.76,1800.78 "/>
<polyline clip-path="url(#clip040)" style="stroke:#000000; stroke-linecap:round; stroke-linejoin:round; stroke-width:4; stroke-opacity:1; fill:none" points="280.925,1800.78 280.925,1781.88 "/>
<polyline clip-path="url(#clip040)" style="stroke:#000000; stroke-linecap:round; stroke-linejoin:round; stroke-width:4; stroke-opacity:1; fill:none" points="651.339,1800.78 651.339,1781.88 "/>
<polyline clip-path="url(#clip040)" style="stroke:#000000; stroke-linecap:round; stroke-linejoin:round; stroke-width:4; stroke-opacity:1; fill:none" points="1021.75,1800.78 1021.75,1781.88 "/>
<polyline clip-path="url(#clip040)" style="stroke:#000000; stroke-linecap:round; stroke-linejoin:round; stroke-width:4; stroke-opacity:1; fill:none" points="1392.17,1800.78 1392.17,1781.88 "/>
<polyline clip-path="url(#clip040)" style="stroke:#000000; stroke-linecap:round; stroke-linejoin:round; stroke-width:4; stroke-opacity:1; fill:none" points="1762.58,1800.78 1762.58,1781.88 "/>
<polyline clip-path="url(#clip040)" style="stroke:#000000; stroke-linecap:round; stroke-linejoin:round; stroke-width:4; stroke-opacity:1; fill:none" points="2132.99,1800.78 2132.99,1781.88 "/>
<polyline clip-path="url(#clip040)" style="stroke:#000000; stroke-linecap:round; stroke-linejoin:round; stroke-width:4; stroke-opacity:1; fill:none" points="2503.41,1800.78 2503.41,1781.88 "/>
<path clip-path="url(#clip040)" d="M243.68 1834 Q240.069 1834 238.24 1837.57 Q236.434 1841.11 236.434 1848.24 Q236.434 1855.34 238.24 1858.91 Q240.069 1862.45 243.68 1862.45 Q247.314 1862.45 249.12 1858.91 Q250.948 1855.34 250.948 1848.24 Q250.948 1841.11 249.12 1837.57 Q247.314 1834 243.68 1834 M243.68 1830.3 Q249.49 1830.3 252.545 1834.9 Q255.624 1839.49 255.624 1848.24 Q255.624 1856.96 252.545 1861.57 Q249.49 1866.15 243.68 1866.15 Q237.87 1866.15 234.791 1861.57 Q231.735 1856.96 231.735 1848.24 Q231.735 1839.49 234.791 1834.9 Q237.87 1830.3 243.68 1830.3 Z" fill="#000000" fill-rule="nonzero" fill-opacity="1" /><path clip-path="url(#clip040)" d="M263.842 1859.6 L268.726 1859.6 L268.726 1865.48 L263.842 1865.48 L263.842 1859.6 Z" fill="#000000" fill-rule="nonzero" fill-opacity="1" /><path clip-path="url(#clip040)" d="M282.939 1861.55 L299.258 1861.55 L299.258 1865.48 L277.314 1865.48 L277.314 1861.55 Q279.976 1858.79 284.559 1854.16 Q289.166 1849.51 290.346 1848.17 Q292.592 1845.65 293.471 1843.91 Q294.374 1842.15 294.374 1840.46 Q294.374 1837.71 292.429 1835.97 Q290.508 1834.23 287.406 1834.23 Q285.207 1834.23 282.754 1835 Q280.323 1835.76 277.545 1837.31 L277.545 1832.59 Q280.369 1831.46 282.823 1830.88 Q285.277 1830.3 287.314 1830.3 Q292.684 1830.3 295.879 1832.98 Q299.073 1835.67 299.073 1840.16 Q299.073 1842.29 298.263 1844.21 Q297.476 1846.11 295.369 1848.7 Q294.791 1849.37 291.689 1852.59 Q288.587 1855.78 282.939 1861.55 Z" fill="#000000" fill-rule="nonzero" fill-opacity="1" /><path clip-path="url(#clip040)" d="M307.892 1830.92 L330.114 1830.92 L330.114 1832.91 L317.568 1865.48 L312.684 1865.48 L324.489 1834.86 L307.892 1834.86 L307.892 1830.92 Z" fill="#000000" fill-rule="nonzero" fill-opacity="1" /><path clip-path="url(#clip040)" d="M613.688 1834 Q610.077 1834 608.248 1837.57 Q606.443 1841.11 606.443 1848.24 Q606.443 1855.34 608.248 1858.91 Q610.077 1862.45 613.688 1862.45 Q617.322 1862.45 619.128 1858.91 Q620.957 1855.34 620.957 1848.24 Q620.957 1841.11 619.128 1837.57 Q617.322 1834 613.688 1834 M613.688 1830.3 Q619.498 1830.3 622.554 1834.9 Q625.633 1839.49 625.633 1848.24 Q625.633 1856.96 622.554 1861.57 Q619.498 1866.15 613.688 1866.15 Q607.878 1866.15 604.799 1861.57 Q601.744 1856.96 601.744 1848.24 Q601.744 1839.49 604.799 1834.9 Q607.878 1830.3 613.688 1830.3 Z" fill="#000000" fill-rule="nonzero" fill-opacity="1" /><path clip-path="url(#clip040)" d="M633.85 1859.6 L638.734 1859.6 L638.734 1865.48 L633.85 1865.48 L633.85 1859.6 Z" fill="#000000" fill-rule="nonzero" fill-opacity="1" /><path clip-path="url(#clip040)" d="M652.947 1861.55 L669.267 1861.55 L669.267 1865.48 L647.322 1865.48 L647.322 1861.55 Q649.984 1858.79 654.568 1854.16 Q659.174 1849.51 660.355 1848.17 Q662.6 1845.65 663.48 1843.91 Q664.382 1842.15 664.382 1840.46 Q664.382 1837.71 662.438 1835.97 Q660.517 1834.23 657.415 1834.23 Q655.216 1834.23 652.762 1835 Q650.332 1835.76 647.554 1837.31 L647.554 1832.59 Q650.378 1831.46 652.832 1830.88 Q655.285 1830.3 657.322 1830.3 Q662.693 1830.3 665.887 1832.98 Q669.081 1835.67 669.081 1840.16 Q669.081 1842.29 668.271 1844.21 Q667.484 1846.11 665.378 1848.7 Q664.799 1849.37 661.697 1852.59 Q658.595 1855.78 652.947 1861.55 Z" fill="#000000" fill-rule="nonzero" fill-opacity="1" /><path clip-path="url(#clip040)" d="M689.081 1849.07 Q685.748 1849.07 683.827 1850.85 Q681.929 1852.64 681.929 1855.76 Q681.929 1858.89 683.827 1860.67 Q685.748 1862.45 689.081 1862.45 Q692.415 1862.45 694.336 1860.67 Q696.257 1858.86 696.257 1855.76 Q696.257 1852.64 694.336 1850.85 Q692.438 1849.07 689.081 1849.07 M684.405 1847.08 Q681.396 1846.34 679.706 1844.28 Q678.04 1842.22 678.04 1839.26 Q678.04 1835.11 680.98 1832.71 Q683.943 1830.3 689.081 1830.3 Q694.243 1830.3 697.183 1832.71 Q700.123 1835.11 700.123 1839.26 Q700.123 1842.22 698.433 1844.28 Q696.767 1846.34 693.78 1847.08 Q697.16 1847.87 699.035 1850.16 Q700.933 1852.45 700.933 1855.76 Q700.933 1860.78 697.854 1863.47 Q694.799 1866.15 689.081 1866.15 Q683.364 1866.15 680.285 1863.47 Q677.23 1860.78 677.23 1855.76 Q677.23 1852.45 679.128 1850.16 Q681.026 1847.87 684.405 1847.08 M682.693 1839.7 Q682.693 1842.38 684.359 1843.89 Q686.049 1845.39 689.081 1845.39 Q692.091 1845.39 693.78 1843.89 Q695.493 1842.38 695.493 1839.7 Q695.493 1837.01 693.78 1835.51 Q692.091 1834 689.081 1834 Q686.049 1834 684.359 1835.51 Q682.693 1837.01 682.693 1839.7 Z" fill="#000000" fill-rule="nonzero" fill-opacity="1" /><path clip-path="url(#clip040)" d="M984.148 1834 Q980.537 1834 978.708 1837.57 Q976.903 1841.11 976.903 1848.24 Q976.903 1855.34 978.708 1858.91 Q980.537 1862.45 984.148 1862.45 Q987.782 1862.45 989.588 1858.91 Q991.417 1855.34 991.417 1848.24 Q991.417 1841.11 989.588 1837.57 Q987.782 1834 984.148 1834 M984.148 1830.3 Q989.958 1830.3 993.014 1834.9 Q996.093 1839.49 996.093 1848.24 Q996.093 1856.96 993.014 1861.57 Q989.958 1866.15 984.148 1866.15 Q978.338 1866.15 975.259 1861.57 Q972.204 1856.96 972.204 1848.24 Q972.204 1839.49 975.259 1834.9 Q978.338 1830.3 984.148 1830.3 Z" fill="#000000" fill-rule="nonzero" fill-opacity="1" /><path clip-path="url(#clip040)" d="M1004.31 1859.6 L1009.19 1859.6 L1009.19 1865.48 L1004.31 1865.48 L1004.31 1859.6 Z" fill="#000000" fill-rule="nonzero" fill-opacity="1" /><path clip-path="url(#clip040)" d="M1023.41 1861.55 L1039.73 1861.55 L1039.73 1865.48 L1017.78 1865.48 L1017.78 1861.55 Q1020.44 1858.79 1025.03 1854.16 Q1029.63 1849.51 1030.81 1848.17 Q1033.06 1845.65 1033.94 1843.91 Q1034.84 1842.15 1034.84 1840.46 Q1034.84 1837.71 1032.9 1835.97 Q1030.98 1834.23 1027.87 1834.23 Q1025.68 1834.23 1023.22 1835 Q1020.79 1835.76 1018.01 1837.31 L1018.01 1832.59 Q1020.84 1831.46 1023.29 1830.88 Q1025.75 1830.3 1027.78 1830.3 Q1033.15 1830.3 1036.35 1832.98 Q1039.54 1835.67 1039.54 1840.16 Q1039.54 1842.29 1038.73 1844.21 Q1037.94 1846.11 1035.84 1848.7 Q1035.26 1849.37 1032.16 1852.59 Q1029.06 1855.78 1023.41 1861.55 Z" fill="#000000" fill-rule="nonzero" fill-opacity="1" /><path clip-path="url(#clip040)" d="M1049.68 1864.77 L1049.68 1860.51 Q1051.44 1861.34 1053.25 1861.78 Q1055.05 1862.22 1056.79 1862.22 Q1061.42 1862.22 1063.85 1859.12 Q1066.3 1855.99 1066.65 1849.65 Q1065.31 1851.64 1063.24 1852.71 Q1061.18 1853.77 1058.68 1853.77 Q1053.5 1853.77 1050.47 1850.65 Q1047.46 1847.5 1047.46 1842.06 Q1047.46 1836.73 1050.61 1833.52 Q1053.75 1830.3 1058.99 1830.3 Q1064.98 1830.3 1068.13 1834.9 Q1071.3 1839.49 1071.3 1848.24 Q1071.3 1856.41 1067.41 1861.29 Q1063.55 1866.15 1056.99 1866.15 Q1055.24 1866.15 1053.43 1865.81 Q1051.62 1865.46 1049.68 1864.77 M1058.99 1850.11 Q1062.13 1850.11 1063.96 1847.96 Q1065.81 1845.81 1065.81 1842.06 Q1065.81 1838.33 1063.96 1836.18 Q1062.13 1834 1058.99 1834 Q1055.84 1834 1053.99 1836.18 Q1052.16 1838.33 1052.16 1842.06 Q1052.16 1845.81 1053.99 1847.96 Q1055.84 1850.11 1058.99 1850.11 Z" fill="#000000" fill-rule="nonzero" fill-opacity="1" /><path clip-path="url(#clip040)" d="M1354.47 1834 Q1350.86 1834 1349.03 1837.57 Q1347.22 1841.11 1347.22 1848.24 Q1347.22 1855.34 1349.03 1858.91 Q1350.86 1862.45 1354.47 1862.45 Q1358.1 1862.45 1359.91 1858.91 Q1361.74 1855.34 1361.74 1848.24 Q1361.74 1841.11 1359.91 1837.57 Q1358.1 1834 1354.47 1834 M1354.47 1830.3 Q1360.28 1830.3 1363.33 1834.9 Q1366.41 1839.49 1366.41 1848.24 Q1366.41 1856.96 1363.33 1861.57 Q1360.28 1866.15 1354.47 1866.15 Q1348.66 1866.15 1345.58 1861.57 Q1342.52 1856.96 1342.52 1848.24 Q1342.52 1839.49 1345.58 1834.9 Q1348.66 1830.3 1354.47 1830.3 Z" fill="#000000" fill-rule="nonzero" fill-opacity="1" /><path clip-path="url(#clip040)" d="M1374.63 1859.6 L1379.52 1859.6 L1379.52 1865.48 L1374.63 1865.48 L1374.63 1859.6 Z" fill="#000000" fill-rule="nonzero" fill-opacity="1" /><path clip-path="url(#clip040)" d="M1403.87 1846.85 Q1407.22 1847.57 1409.1 1849.84 Q1411 1852.1 1411 1855.44 Q1411 1860.55 1407.48 1863.35 Q1403.96 1866.15 1397.48 1866.15 Q1395.3 1866.15 1392.99 1865.71 Q1390.7 1865.3 1388.24 1864.44 L1388.24 1859.93 Q1390.19 1861.06 1392.5 1861.64 Q1394.82 1862.22 1397.34 1862.22 Q1401.74 1862.22 1404.03 1860.48 Q1406.34 1858.75 1406.34 1855.44 Q1406.34 1852.38 1404.19 1850.67 Q1402.06 1848.93 1398.24 1848.93 L1394.21 1848.93 L1394.21 1845.09 L1398.43 1845.09 Q1401.88 1845.09 1403.71 1843.72 Q1405.53 1842.34 1405.53 1839.74 Q1405.53 1837.08 1403.64 1835.67 Q1401.76 1834.23 1398.24 1834.23 Q1396.32 1834.23 1394.12 1834.65 Q1391.92 1835.07 1389.28 1835.95 L1389.28 1831.78 Q1391.95 1831.04 1394.26 1830.67 Q1396.6 1830.3 1398.66 1830.3 Q1403.98 1830.3 1407.08 1832.73 Q1410.19 1835.14 1410.19 1839.26 Q1410.19 1842.13 1408.54 1844.12 Q1406.9 1846.09 1403.87 1846.85 Z" fill="#000000" fill-rule="nonzero" fill-opacity="1" /><path clip-path="url(#clip040)" d="M1429.86 1834 Q1426.25 1834 1424.42 1837.57 Q1422.62 1841.11 1422.62 1848.24 Q1422.62 1855.34 1424.42 1858.91 Q1426.25 1862.45 1429.86 1862.45 Q1433.5 1862.45 1435.3 1858.91 Q1437.13 1855.34 1437.13 1848.24 Q1437.13 1841.11 1435.3 1837.57 Q1433.5 1834 1429.86 1834 M1429.86 1830.3 Q1435.67 1830.3 1438.73 1834.9 Q1441.81 1839.49 1441.81 1848.24 Q1441.81 1856.96 1438.73 1861.57 Q1435.67 1866.15 1429.86 1866.15 Q1424.05 1866.15 1420.97 1861.57 Q1417.92 1856.96 1417.92 1848.24 Q1417.92 1839.49 1420.97 1834.9 Q1424.05 1830.3 1429.86 1830.3 Z" fill="#000000" fill-rule="nonzero" fill-opacity="1" /><path clip-path="url(#clip040)" d="M1725.5 1834 Q1721.89 1834 1720.06 1837.57 Q1718.25 1841.11 1718.25 1848.24 Q1718.25 1855.34 1720.06 1858.91 Q1721.89 1862.45 1725.5 1862.45 Q1729.13 1862.45 1730.94 1858.91 Q1732.76 1855.34 1732.76 1848.24 Q1732.76 1841.11 1730.94 1837.57 Q1729.13 1834 1725.5 1834 M1725.5 1830.3 Q1731.31 1830.3 1734.36 1834.9 Q1737.44 1839.49 1737.44 1848.24 Q1737.44 1856.96 1734.36 1861.57 Q1731.31 1866.15 1725.5 1866.15 Q1719.69 1866.15 1716.61 1861.57 Q1713.55 1856.96 1713.55 1848.24 Q1713.55 1839.49 1716.61 1834.9 Q1719.69 1830.3 1725.5 1830.3 Z" fill="#000000" fill-rule="nonzero" fill-opacity="1" /><path clip-path="url(#clip040)" d="M1745.66 1859.6 L1750.54 1859.6 L1750.54 1865.48 L1745.66 1865.48 L1745.66 1859.6 Z" fill="#000000" fill-rule="nonzero" fill-opacity="1" /><path clip-path="url(#clip040)" d="M1774.89 1846.85 Q1778.25 1847.57 1780.13 1849.84 Q1782.02 1852.1 1782.02 1855.44 Q1782.02 1860.55 1778.51 1863.35 Q1774.99 1866.15 1768.51 1866.15 Q1766.33 1866.15 1764.01 1865.71 Q1761.72 1865.3 1759.27 1864.44 L1759.27 1859.93 Q1761.21 1861.06 1763.53 1861.64 Q1765.84 1862.22 1768.37 1862.22 Q1772.76 1862.22 1775.06 1860.48 Q1777.37 1858.75 1777.37 1855.44 Q1777.37 1852.38 1775.22 1850.67 Q1773.09 1848.93 1769.27 1848.93 L1765.24 1848.93 L1765.24 1845.09 L1769.45 1845.09 Q1772.9 1845.09 1774.73 1843.72 Q1776.56 1842.34 1776.56 1839.74 Q1776.56 1837.08 1774.66 1835.67 Q1772.79 1834.23 1769.27 1834.23 Q1767.35 1834.23 1765.15 1834.65 Q1762.95 1835.07 1760.31 1835.95 L1760.31 1831.78 Q1762.97 1831.04 1765.29 1830.67 Q1767.63 1830.3 1769.69 1830.3 Q1775.01 1830.3 1778.11 1832.73 Q1781.21 1835.14 1781.21 1839.26 Q1781.21 1842.13 1779.57 1844.12 Q1777.93 1846.09 1774.89 1846.85 Z" fill="#000000" fill-rule="nonzero" fill-opacity="1" /><path clip-path="url(#clip040)" d="M1791.7 1861.55 L1799.34 1861.55 L1799.34 1835.18 L1791.03 1836.85 L1791.03 1832.59 L1799.29 1830.92 L1803.97 1830.92 L1803.97 1861.55 L1811.61 1861.55 L1811.61 1865.48 L1791.7 1865.48 L1791.7 1861.55 Z" fill="#000000" fill-rule="nonzero" fill-opacity="1" /><path clip-path="url(#clip040)" d="M2096.09 1834 Q2092.48 1834 2090.66 1837.57 Q2088.85 1841.11 2088.85 1848.24 Q2088.85 1855.34 2090.66 1858.91 Q2092.48 1862.45 2096.09 1862.45 Q2099.73 1862.45 2101.53 1858.91 Q2103.36 1855.34 2103.36 1848.24 Q2103.36 1841.11 2101.53 1837.57 Q2099.73 1834 2096.09 1834 M2096.09 1830.3 Q2101.91 1830.3 2104.96 1834.9 Q2108.04 1839.49 2108.04 1848.24 Q2108.04 1856.96 2104.96 1861.57 Q2101.91 1866.15 2096.09 1866.15 Q2090.28 1866.15 2087.21 1861.57 Q2084.15 1856.96 2084.15 1848.24 Q2084.15 1839.49 2087.21 1834.9 Q2090.28 1830.3 2096.09 1830.3 Z" fill="#000000" fill-rule="nonzero" fill-opacity="1" /><path clip-path="url(#clip040)" d="M2116.26 1859.6 L2121.14 1859.6 L2121.14 1865.48 L2116.26 1865.48 L2116.26 1859.6 Z" fill="#000000" fill-rule="nonzero" fill-opacity="1" /><path clip-path="url(#clip040)" d="M2145.49 1846.85 Q2148.85 1847.57 2150.72 1849.84 Q2152.62 1852.1 2152.62 1855.44 Q2152.62 1860.55 2149.1 1863.35 Q2145.59 1866.15 2139.1 1866.15 Q2136.93 1866.15 2134.61 1865.71 Q2132.32 1865.3 2129.87 1864.44 L2129.87 1859.93 Q2131.81 1861.06 2134.13 1861.64 Q2136.44 1862.22 2138.97 1862.22 Q2143.36 1862.22 2145.65 1860.48 Q2147.97 1858.75 2147.97 1855.44 Q2147.97 1852.38 2145.82 1850.67 Q2143.69 1848.93 2139.87 1848.93 L2135.84 1848.93 L2135.84 1845.09 L2140.05 1845.09 Q2143.5 1845.09 2145.33 1843.72 Q2147.16 1842.34 2147.16 1839.74 Q2147.16 1837.08 2145.26 1835.67 Q2143.39 1834.23 2139.87 1834.23 Q2137.95 1834.23 2135.75 1834.65 Q2133.55 1835.07 2130.91 1835.95 L2130.91 1831.78 Q2133.57 1831.04 2135.89 1830.67 Q2138.22 1830.3 2140.28 1830.3 Q2145.61 1830.3 2148.71 1832.73 Q2151.81 1835.14 2151.81 1839.26 Q2151.81 1842.13 2150.17 1844.12 Q2148.53 1846.09 2145.49 1846.85 Z" fill="#000000" fill-rule="nonzero" fill-opacity="1" /><path clip-path="url(#clip040)" d="M2165.52 1861.55 L2181.84 1861.55 L2181.84 1865.48 L2159.89 1865.48 L2159.89 1861.55 Q2162.55 1858.79 2167.14 1854.16 Q2171.74 1849.51 2172.92 1848.17 Q2175.17 1845.65 2176.05 1843.91 Q2176.95 1842.15 2176.95 1840.46 Q2176.95 1837.71 2175.01 1835.97 Q2173.09 1834.23 2169.98 1834.23 Q2167.78 1834.23 2165.33 1835 Q2162.9 1835.76 2160.12 1837.31 L2160.12 1832.59 Q2162.95 1831.46 2165.4 1830.88 Q2167.85 1830.3 2169.89 1830.3 Q2175.26 1830.3 2178.46 1832.98 Q2181.65 1835.67 2181.65 1840.16 Q2181.65 1842.29 2180.84 1844.21 Q2180.05 1846.11 2177.95 1848.7 Q2177.37 1849.37 2174.27 1852.59 Q2171.16 1855.78 2165.52 1861.55 Z" fill="#000000" fill-rule="nonzero" fill-opacity="1" /><path clip-path="url(#clip040)" d="M2466.03 1834 Q2462.42 1834 2460.59 1837.57 Q2458.79 1841.11 2458.79 1848.24 Q2458.79 1855.34 2460.59 1858.91 Q2462.42 1862.45 2466.03 1862.45 Q2469.67 1862.45 2471.47 1858.91 Q2473.3 1855.34 2473.3 1848.24 Q2473.3 1841.11 2471.47 1837.57 Q2469.67 1834 2466.03 1834 M2466.03 1830.3 Q2471.84 1830.3 2474.9 1834.9 Q2477.98 1839.49 2477.98 1848.24 Q2477.98 1856.96 2474.9 1861.57 Q2471.84 1866.15 2466.03 1866.15 Q2460.22 1866.15 2457.15 1861.57 Q2454.09 1856.96 2454.09 1848.24 Q2454.09 1839.49 2457.15 1834.9 Q2460.22 1830.3 2466.03 1830.3 Z" fill="#000000" fill-rule="nonzero" fill-opacity="1" /><path clip-path="url(#clip040)" d="M2486.2 1859.6 L2491.08 1859.6 L2491.08 1865.48 L2486.2 1865.48 L2486.2 1859.6 Z" fill="#000000" fill-rule="nonzero" fill-opacity="1" /><path clip-path="url(#clip040)" d="M2515.43 1846.85 Q2518.79 1847.57 2520.66 1849.84 Q2522.56 1852.1 2522.56 1855.44 Q2522.56 1860.55 2519.04 1863.35 Q2515.52 1866.15 2509.04 1866.15 Q2506.87 1866.15 2504.55 1865.71 Q2502.26 1865.3 2499.81 1864.44 L2499.81 1859.93 Q2501.75 1861.06 2504.07 1861.64 Q2506.38 1862.22 2508.9 1862.22 Q2513.3 1862.22 2515.59 1860.48 Q2517.91 1858.75 2517.91 1855.44 Q2517.91 1852.38 2515.76 1850.67 Q2513.63 1848.93 2509.81 1848.93 L2505.78 1848.93 L2505.78 1845.09 L2509.99 1845.09 Q2513.44 1845.09 2515.27 1843.72 Q2517.1 1842.34 2517.1 1839.74 Q2517.1 1837.08 2515.2 1835.67 Q2513.33 1834.23 2509.81 1834.23 Q2507.89 1834.23 2505.69 1834.65 Q2503.49 1835.07 2500.85 1835.95 L2500.85 1831.78 Q2503.51 1831.04 2505.83 1830.67 Q2508.16 1830.3 2510.22 1830.3 Q2515.55 1830.3 2518.65 1832.73 Q2521.75 1835.14 2521.75 1839.26 Q2521.75 1842.13 2520.11 1844.12 Q2518.46 1846.09 2515.43 1846.85 Z" fill="#000000" fill-rule="nonzero" fill-opacity="1" /><path clip-path="url(#clip040)" d="M2545.59 1846.85 Q2548.95 1847.57 2550.83 1849.84 Q2552.72 1852.1 2552.72 1855.44 Q2552.72 1860.55 2549.2 1863.35 Q2545.69 1866.15 2539.2 1866.15 Q2537.03 1866.15 2534.71 1865.71 Q2532.42 1865.3 2529.97 1864.44 L2529.97 1859.93 Q2531.91 1861.06 2534.23 1861.64 Q2536.54 1862.22 2539.07 1862.22 Q2543.46 1862.22 2545.76 1860.48 Q2548.07 1858.75 2548.07 1855.44 Q2548.07 1852.38 2545.92 1850.67 Q2543.79 1848.93 2539.97 1848.93 L2535.94 1848.93 L2535.94 1845.09 L2540.15 1845.09 Q2543.6 1845.09 2545.43 1843.72 Q2547.26 1842.34 2547.26 1839.74 Q2547.26 1837.08 2545.36 1835.67 Q2543.49 1834.23 2539.97 1834.23 Q2538.05 1834.23 2535.85 1834.65 Q2533.65 1835.07 2531.01 1835.95 L2531.01 1831.78 Q2533.67 1831.04 2535.99 1830.67 Q2538.33 1830.3 2540.39 1830.3 Q2545.71 1830.3 2548.81 1832.73 Q2551.91 1835.14 2551.91 1839.26 Q2551.91 1842.13 2550.27 1844.12 Q2548.63 1846.09 2545.59 1846.85 Z" fill="#000000" fill-rule="nonzero" fill-opacity="1" /><polyline clip-path="url(#clip042)" style="stroke:#000000; stroke-linecap:round; stroke-linejoin:round; stroke-width:2; stroke-opacity:0.1; fill:none" points="143.576,1751.15 2640.76,1751.15 "/>
<polyline clip-path="url(#clip042)" style="stroke:#000000; stroke-linecap:round; stroke-linejoin:round; stroke-width:2; stroke-opacity:0.1; fill:none" points="143.576,1264.6 2640.76,1264.6 "/>
<polyline clip-path="url(#clip042)" style="stroke:#000000; stroke-linecap:round; stroke-linejoin:round; stroke-width:2; stroke-opacity:0.1; fill:none" points="143.576,778.046 2640.76,778.046 "/>
<polyline clip-path="url(#clip042)" style="stroke:#000000; stroke-linecap:round; stroke-linejoin:round; stroke-width:2; stroke-opacity:0.1; fill:none" points="143.576,291.493 2640.76,291.493 "/>
<polyline clip-path="url(#clip040)" style="stroke:#000000; stroke-linecap:round; stroke-linejoin:round; stroke-width:4; stroke-opacity:1; fill:none" points="143.576,1800.78 143.576,47.2441 "/>
<polyline clip-path="url(#clip040)" style="stroke:#000000; stroke-linecap:round; stroke-linejoin:round; stroke-width:4; stroke-opacity:1; fill:none" points="143.576,1751.15 162.473,1751.15 "/>
<polyline clip-path="url(#clip040)" style="stroke:#000000; stroke-linecap:round; stroke-linejoin:round; stroke-width:4; stroke-opacity:1; fill:none" points="143.576,1264.6 162.473,1264.6 "/>
<polyline clip-path="url(#clip040)" style="stroke:#000000; stroke-linecap:round; stroke-linejoin:round; stroke-width:4; stroke-opacity:1; fill:none" points="143.576,778.046 162.473,778.046 "/>
<polyline clip-path="url(#clip040)" style="stroke:#000000; stroke-linecap:round; stroke-linejoin:round; stroke-width:4; stroke-opacity:1; fill:none" points="143.576,291.493 162.473,291.493 "/>
<path clip-path="url(#clip040)" d="M91.3112 1736.95 Q87.7001 1736.95 85.8714 1740.51 Q84.0658 1744.06 84.0658 1751.19 Q84.0658 1758.29 85.8714 1761.86 Q87.7001 1765.4 91.3112 1765.4 Q94.9454 1765.4 96.7509 1761.86 Q98.5796 1758.29 98.5796 1751.19 Q98.5796 1744.06 96.7509 1740.51 Q94.9454 1736.95 91.3112 1736.95 M91.3112 1733.25 Q97.1213 1733.25 100.177 1737.85 Q103.256 1742.44 103.256 1751.19 Q103.256 1759.91 100.177 1764.52 Q97.1213 1769.1 91.3112 1769.1 Q85.501 1769.1 82.4223 1764.52 Q79.3668 1759.91 79.3668 1751.19 Q79.3668 1742.44 82.4223 1737.85 Q85.501 1733.25 91.3112 1733.25 Z" fill="#000000" fill-rule="nonzero" fill-opacity="1" /><path clip-path="url(#clip040)" d="M51.9595 1277.94 L59.5984 1277.94 L59.5984 1251.58 L51.2882 1253.24 L51.2882 1248.99 L59.5521 1247.32 L64.228 1247.32 L64.228 1277.94 L71.8668 1277.94 L71.8668 1281.88 L51.9595 1281.88 L51.9595 1277.94 Z" fill="#000000" fill-rule="nonzero" fill-opacity="1" /><path clip-path="url(#clip040)" d="M91.3112 1250.4 Q87.7001 1250.4 85.8714 1253.96 Q84.0658 1257.5 84.0658 1264.63 Q84.0658 1271.74 85.8714 1275.3 Q87.7001 1278.85 91.3112 1278.85 Q94.9454 1278.85 96.7509 1275.3 Q98.5796 1271.74 98.5796 1264.63 Q98.5796 1257.5 96.7509 1253.96 Q94.9454 1250.4 91.3112 1250.4 M91.3112 1246.69 Q97.1213 1246.69 100.177 1251.3 Q103.256 1255.88 103.256 1264.63 Q103.256 1273.36 100.177 1277.97 Q97.1213 1282.55 91.3112 1282.55 Q85.501 1282.55 82.4223 1277.97 Q79.3668 1273.36 79.3668 1264.63 Q79.3668 1255.88 82.4223 1251.3 Q85.501 1246.69 91.3112 1246.69 Z" fill="#000000" fill-rule="nonzero" fill-opacity="1" /><path clip-path="url(#clip040)" d="M55.1771 791.391 L71.4965 791.391 L71.4965 795.326 L49.5521 795.326 L49.5521 791.391 Q52.2141 788.636 56.7975 784.007 Q61.4039 779.354 62.5845 778.011 Q64.8298 775.488 65.7094 773.752 Q66.6122 771.993 66.6122 770.303 Q66.6122 767.548 64.6678 765.812 Q62.7465 764.076 59.6447 764.076 Q57.4456 764.076 54.9919 764.84 Q52.5614 765.604 49.7836 767.155 L49.7836 762.433 Q52.6077 761.298 55.0614 760.72 Q57.515 760.141 59.5521 760.141 Q64.9224 760.141 68.1168 762.826 Q71.3113 765.511 71.3113 770.002 Q71.3113 772.132 70.5011 774.053 Q69.7141 775.951 67.6076 778.544 Q67.0289 779.215 63.927 782.432 Q60.8252 785.627 55.1771 791.391 Z" fill="#000000" fill-rule="nonzero" fill-opacity="1" /><path clip-path="url(#clip040)" d="M91.3112 763.845 Q87.7001 763.845 85.8714 767.409 Q84.0658 770.951 84.0658 778.081 Q84.0658 785.187 85.8714 788.752 Q87.7001 792.294 91.3112 792.294 Q94.9454 792.294 96.7509 788.752 Q98.5796 785.187 98.5796 778.081 Q98.5796 770.951 96.7509 767.409 Q94.9454 763.845 91.3112 763.845 M91.3112 760.141 Q97.1213 760.141 100.177 764.747 Q103.256 769.331 103.256 778.081 Q103.256 786.807 100.177 791.414 Q97.1213 795.997 91.3112 795.997 Q85.501 795.997 82.4223 791.414 Q79.3668 786.807 79.3668 778.081 Q79.3668 769.331 82.4223 764.747 Q85.501 760.141 91.3112 760.141 Z" fill="#000000" fill-rule="nonzero" fill-opacity="1" /><path clip-path="url(#clip040)" d="M65.3159 290.139 Q68.6724 290.857 70.5474 293.125 Q72.4455 295.394 72.4455 298.727 Q72.4455 303.843 68.927 306.644 Q65.4085 309.445 58.9271 309.445 Q56.7512 309.445 54.4364 309.005 Q52.1447 308.588 49.691 307.732 L49.691 303.218 Q51.6354 304.352 53.9503 304.931 Q56.2651 305.51 58.7882 305.51 Q63.1863 305.51 65.478 303.773 Q67.7928 302.037 67.7928 298.727 Q67.7928 295.672 65.64 293.959 Q63.5104 292.223 59.691 292.223 L55.6632 292.223 L55.6632 288.38 L59.8761 288.38 Q63.3252 288.38 65.1539 287.014 Q66.9826 285.625 66.9826 283.033 Q66.9826 280.371 65.0845 278.959 Q63.2095 277.524 59.691 277.524 Q57.7697 277.524 55.5706 277.94 Q53.3715 278.357 50.7327 279.237 L50.7327 275.07 Q53.3947 274.329 55.7095 273.959 Q58.0475 273.588 60.1076 273.588 Q65.4317 273.588 68.5335 276.019 Q71.6353 278.426 71.6353 282.547 Q71.6353 285.417 69.9918 287.408 Q68.3483 289.375 65.3159 290.139 Z" fill="#000000" fill-rule="nonzero" fill-opacity="1" /><path clip-path="url(#clip040)" d="M91.3112 277.292 Q87.7001 277.292 85.8714 280.857 Q84.0658 284.399 84.0658 291.528 Q84.0658 298.635 85.8714 302.199 Q87.7001 305.741 91.3112 305.741 Q94.9454 305.741 96.7509 302.199 Q98.5796 298.635 98.5796 291.528 Q98.5796 284.399 96.7509 280.857 Q94.9454 277.292 91.3112 277.292 M91.3112 273.588 Q97.1213 273.588 100.177 278.195 Q103.256 282.778 103.256 291.528 Q103.256 300.255 100.177 304.861 Q97.1213 309.445 91.3112 309.445 Q85.501 309.445 82.4223 304.861 Q79.3668 300.255 79.3668 291.528 Q79.3668 282.778 82.4223 278.195 Q85.501 273.588 91.3112 273.588 Z" fill="#000000" fill-rule="nonzero" fill-opacity="1" /><path clip-path="url(#clip042)" d="M280.925 1605.19 L280.925 1751.15 L651.339 1751.15 L651.339 1605.19 L280.925 1605.19 L280.925 1605.19  Z" fill="#009af9" fill-rule="evenodd" fill-opacity="1"/>
<polyline clip-path="url(#clip042)" style="stroke:#000000; stroke-linecap:round; stroke-linejoin:round; stroke-width:4; stroke-opacity:1; fill:none" points="280.925,1605.19 280.925,1751.15 651.339,1751.15 651.339,1605.19 280.925,1605.19 "/>
<path clip-path="url(#clip042)" d="M651.339 1264.6 L651.339 1751.15 L1021.75 1751.15 L1021.75 1264.6 L651.339 1264.6 L651.339 1264.6  Z" fill="#009af9" fill-rule="evenodd" fill-opacity="1"/>
<polyline clip-path="url(#clip042)" style="stroke:#000000; stroke-linecap:round; stroke-linejoin:round; stroke-width:4; stroke-opacity:1; fill:none" points="651.339,1264.6 651.339,1751.15 1021.75,1751.15 1021.75,1264.6 651.339,1264.6 "/>
<path clip-path="url(#clip042)" d="M1021.75 145.528 L1021.75 1751.15 L1392.17 1751.15 L1392.17 145.528 L1021.75 145.528 L1021.75 145.528  Z" fill="#009af9" fill-rule="evenodd" fill-opacity="1"/>
<polyline clip-path="url(#clip042)" style="stroke:#000000; stroke-linecap:round; stroke-linejoin:round; stroke-width:4; stroke-opacity:1; fill:none" points="1021.75,145.528 1021.75,1751.15 1392.17,1751.15 1392.17,145.528 1021.75,145.528 "/>
<path clip-path="url(#clip042)" d="M1392.17 96.8724 L1392.17 1751.15 L1762.58 1751.15 L1762.58 96.8724 L1392.17 96.8724 L1392.17 96.8724  Z" fill="#009af9" fill-rule="evenodd" fill-opacity="1"/>
<polyline clip-path="url(#clip042)" style="stroke:#000000; stroke-linecap:round; stroke-linejoin:round; stroke-width:4; stroke-opacity:1; fill:none" points="1392.17,96.8724 1392.17,1751.15 1762.58,1751.15 1762.58,96.8724 1392.17,96.8724 "/>
<path clip-path="url(#clip042)" d="M1762.58 875.356 L1762.58 1751.15 L2132.99 1751.15 L2132.99 875.356 L1762.58 875.356 L1762.58 875.356  Z" fill="#009af9" fill-rule="evenodd" fill-opacity="1"/>
<polyline clip-path="url(#clip042)" style="stroke:#000000; stroke-linecap:round; stroke-linejoin:round; stroke-width:4; stroke-opacity:1; fill:none" points="1762.58,875.356 1762.58,1751.15 2132.99,1751.15 2132.99,875.356 1762.58,875.356 "/>
<path clip-path="url(#clip042)" d="M2132.99 1653.84 L2132.99 1751.15 L2503.41 1751.15 L2503.41 1653.84 L2132.99 1653.84 L2132.99 1653.84  Z" fill="#009af9" fill-rule="evenodd" fill-opacity="1"/>
<polyline clip-path="url(#clip042)" style="stroke:#000000; stroke-linecap:round; stroke-linejoin:round; stroke-width:4; stroke-opacity:1; fill:none" points="2132.99,1653.84 2132.99,1751.15 2503.41,1751.15 2503.41,1653.84 2132.99,1653.84 "/>
<circle clip-path="url(#clip042)" style="fill:#009af9; stroke:none; fill-opacity:0" cx="466.132" cy="1605.19" r="2"/>
<circle clip-path="url(#clip042)" style="fill:#009af9; stroke:none; fill-opacity:0" cx="836.545" cy="1264.6" r="2"/>
<circle clip-path="url(#clip042)" style="fill:#009af9; stroke:none; fill-opacity:0" cx="1206.96" cy="145.528" r="2"/>
<circle clip-path="url(#clip042)" style="fill:#009af9; stroke:none; fill-opacity:0" cx="1577.37" cy="96.8724" r="2"/>
<circle clip-path="url(#clip042)" style="fill:#009af9; stroke:none; fill-opacity:0" cx="1947.79" cy="875.356" r="2"/>
<circle clip-path="url(#clip042)" style="fill:#009af9; stroke:none; fill-opacity:0" cx="2318.2" cy="1653.84" r="2"/>
<path clip-path="url(#clip040)" d="M2255.37 209.375 L2557.52 209.375 L2557.52 105.695 L2255.37 105.695  Z" fill="#ffffff" fill-rule="evenodd" fill-opacity="1"/>
<polyline clip-path="url(#clip040)" style="stroke:#000000; stroke-linecap:round; stroke-linejoin:round; stroke-width:4; stroke-opacity:1; fill:none" points="2255.37,209.375 2557.52,209.375 2557.52,105.695 2255.37,105.695 2255.37,209.375 "/>
<path clip-path="url(#clip040)" d="M2283.11 178.271 L2449.59 178.271 L2449.59 136.799 L2283.11 136.799 L2283.11 178.271  Z" fill="#009af9" fill-rule="evenodd" fill-opacity="1"/>
<polyline clip-path="url(#clip040)" style="stroke:#000000; stroke-linecap:round; stroke-linejoin:round; stroke-width:4; stroke-opacity:1; fill:none" points="2283.11,178.271 2449.59,178.271 2449.59,136.799 2283.11,136.799 2283.11,178.271 "/>
<path clip-path="url(#clip040)" d="M2491.18 177.223 Q2489.38 181.852 2487.66 183.264 Q2485.95 184.676 2483.08 184.676 L2479.68 184.676 L2479.68 181.112 L2482.18 181.112 Q2483.94 181.112 2484.91 180.278 Q2485.88 179.445 2487.06 176.343 L2487.83 174.399 L2477.34 148.889 L2481.85 148.889 L2489.96 169.167 L2498.06 148.889 L2502.57 148.889 L2491.18 177.223 Z" fill="#000000" fill-rule="nonzero" fill-opacity="1" /><path clip-path="url(#clip040)" d="M2509.86 170.88 L2517.5 170.88 L2517.5 144.515 L2509.19 146.181 L2509.19 141.922 L2517.46 140.255 L2522.13 140.255 L2522.13 170.88 L2529.77 170.88 L2529.77 174.815 L2509.86 174.815 L2509.86 170.88 Z" fill="#000000" fill-rule="nonzero" fill-opacity="1" /></svg>
