<?xml version="1.0" encoding="utf-8"?>
<svg xmlns="http://www.w3.org/2000/svg" xmlns:xlink="http://www.w3.org/1999/xlink" width="672" height="480" viewBox="0 0 2688 1920">
<defs>
  <clipPath id="clip450">
    <rect x="0" y="0" width="2688" height="1920"/>
  </clipPath>
</defs>
<path clip-path="url(#clip450)" d="M0 1920 L2688 1920 L2688 0 L0 0  Z" fill="#ffffff" fill-rule="evenodd" fill-opacity="1"/>
<defs>
  <clipPath id="clip451">
    <rect x="537" y="0" width="1883" height="1883"/>
  </clipPath>
</defs>
<path clip-path="url(#clip450)" d="M143.576 1800.78 L2640.76 1800.78 L2640.76 47.2441 L143.576 47.2441  Z" fill="#ffffff" fill-rule="evenodd" fill-opacity="1"/>
<defs>
  <clipPath id="clip452">
    <rect x="143" y="47" width="2498" height="1755"/>
  </clipPath>
</defs>
<polyline clip-path="url(#clip452)" style="stroke:#000000; stroke-linecap:round; stroke-linejoin:round; stroke-width:2; stroke-opacity:0.1; fill:none" points="280.925,1800.78 280.925,47.2441 "/>
<polyline clip-path="url(#clip452)" style="stroke:#000000; stroke-linecap:round; stroke-linejoin:round; stroke-width:2; stroke-opacity:0.1; fill:none" points="685.012,1800.78 685.012,47.2441 "/>
<polyline clip-path="url(#clip452)" style="stroke:#000000; stroke-linecap:round; stroke-linejoin:round; stroke-width:2; stroke-opacity:0.1; fill:none" points="1089.1,1800.78 1089.1,47.2441 "/>
<polyline clip-path="url(#clip452)" style="stroke:#000000; stroke-linecap:round; stroke-linejoin:round; stroke-width:2; stroke-opacity:0.1; fill:none" points="1493.19,1800.78 1493.19,47.2441 "/>
<polyline clip-path="url(#clip452)" style="stroke:#000000; stroke-linecap:round; stroke-linejoin:round; stroke-width:2; stroke-opacity:0.1; fill:none" points="1897.28,1800.78 1897.28,47.2441 "/>
<polyline clip-path="url(#clip452)" style="stroke:#000000; stroke-linecap:round; stroke-linejoin:round; stroke-width:2; stroke-opacity:0.1; fill:none" points="2301.36,1800.78 2301.36,47.2441 "/>
<polyline clip-path="url(#clip450)" style="stroke:#000000; stroke-linecap:round; stroke-linejoin:round; stroke-width:4; stroke-opacity:1; fill:none" points="143.576,1800.78 2640.76,1800.78 "/>
<polyline clip-path="url(#clip450)" style="stroke:#000000; stroke-linecap:round; stroke-linejoin:round; stroke-width:4; stroke-opacity:1; fill:none" points="280.925,1800.78 280.925,1781.88 "/>
<polyline clip-path="url(#clip450)" style="stroke:#000000; stroke-linecap:round; stroke-linejoin:round; stroke-width:4; stroke-opacity:1; fill:none" points="685.012,1800.78 685.012,1781.88 "/>
<polyline clip-path="url(#clip450)" style="stroke:#000000; stroke-linecap:round; stroke-linejoin:round; stroke-width:4; stroke-opacity:1; fill:none" points="1089.1,1800.78 1089.1,1781.88 "/>
<polyline clip-path="url(#clip450)" style="stroke:#000000; stroke-linecap:round; stroke-linejoin:round; stroke-width:4; stroke-opacity:1; fill:none" points="1493.19,1800.78 1493.19,1781.88 "/>
<polyline clip-path="url(#clip450)" style="stroke:#000000; stroke-linecap:round; stroke-linejoin:round; stroke-width:4; stroke-opacity:1; fill:none" points="1897.28,1800.78 1897.28,1781.88 "/>
<polyline clip-path="url(#clip450)" style="stroke:#000000; stroke-linecap:round; stroke-linejoin:round; stroke-width:4; stroke-opacity:1; fill:none" points="2301.36,1800.78 2301.36,1781.88 "/>
<path clip-path="url(#clip450)" d="M258.309 1834 Q254.698 1834 252.87 1837.57 Q251.064 1841.11 251.064 1848.24 Q251.064 1855.34 252.87 1858.91 Q254.698 1862.45 258.309 1862.45 Q261.944 1862.45 263.749 1858.91 Q265.578 1855.34 265.578 1848.24 Q265.578 1841.11 263.749 1837.57 Q261.944 1834 258.309 1834 M258.309 1830.3 Q264.119 1830.3 267.175 1834.9 Q270.254 1839.49 270.254 1848.24 Q270.254 1856.96 267.175 1861.57 Q264.119 1866.15 258.309 1866.15 Q252.499 1866.15 249.42 1861.57 Q246.365 1856.96 246.365 1848.24 Q246.365 1839.49 249.42 1834.9 Q252.499 1830.3 258.309 1830.3 Z" fill="#000000" fill-rule="nonzero" fill-opacity="1" /><path clip-path="url(#clip450)" d="M278.471 1859.6 L283.355 1859.6 L283.355 1865.48 L278.471 1865.48 L278.471 1859.6 Z" fill="#000000" fill-rule="nonzero" fill-opacity="1" /><path clip-path="url(#clip450)" d="M303.541 1834 Q299.929 1834 298.101 1837.57 Q296.295 1841.11 296.295 1848.24 Q296.295 1855.34 298.101 1858.91 Q299.929 1862.45 303.541 1862.45 Q307.175 1862.45 308.98 1858.91 Q310.809 1855.34 310.809 1848.24 Q310.809 1841.11 308.98 1837.57 Q307.175 1834 303.541 1834 M303.541 1830.3 Q309.351 1830.3 312.406 1834.9 Q315.485 1839.49 315.485 1848.24 Q315.485 1856.96 312.406 1861.57 Q309.351 1866.15 303.541 1866.15 Q297.73 1866.15 294.652 1861.57 Q291.596 1856.96 291.596 1848.24 Q291.596 1839.49 294.652 1834.9 Q297.73 1830.3 303.541 1830.3 Z" fill="#000000" fill-rule="nonzero" fill-opacity="1" /><path clip-path="url(#clip450)" d="M663.01 1834 Q659.399 1834 657.57 1837.57 Q655.765 1841.11 655.765 1848.24 Q655.765 1855.34 657.57 1858.91 Q659.399 1862.45 663.01 1862.45 Q666.645 1862.45 668.45 1858.91 Q670.279 1855.34 670.279 1848.24 Q670.279 1841.11 668.45 1837.57 Q666.645 1834 663.01 1834 M663.01 1830.3 Q668.82 1830.3 671.876 1834.9 Q674.955 1839.49 674.955 1848.24 Q674.955 1856.96 671.876 1861.57 Q668.82 1866.15 663.01 1866.15 Q657.2 1866.15 654.121 1861.57 Q651.066 1856.96 651.066 1848.24 Q651.066 1839.49 654.121 1834.9 Q657.2 1830.3 663.01 1830.3 Z" fill="#000000" fill-rule="nonzero" fill-opacity="1" /><path clip-path="url(#clip450)" d="M683.172 1859.6 L688.056 1859.6 L688.056 1865.48 L683.172 1865.48 L683.172 1859.6 Z" fill="#000000" fill-rule="nonzero" fill-opacity="1" /><path clip-path="url(#clip450)" d="M699.052 1861.55 L706.691 1861.55 L706.691 1835.18 L698.38 1836.85 L698.38 1832.59 L706.644 1830.92 L711.32 1830.92 L711.32 1861.55 L718.959 1861.55 L718.959 1865.48 L699.052 1865.48 L699.052 1861.55 Z" fill="#000000" fill-rule="nonzero" fill-opacity="1" /><path clip-path="url(#clip450)" d="M1067.28 1834 Q1063.67 1834 1061.84 1837.57 Q1060.04 1841.11 1060.04 1848.24 Q1060.04 1855.34 1061.84 1858.91 Q1063.67 1862.45 1067.28 1862.45 Q1070.92 1862.45 1072.72 1858.91 Q1074.55 1855.34 1074.55 1848.24 Q1074.55 1841.11 1072.72 1837.57 Q1070.92 1834 1067.28 1834 M1067.28 1830.3 Q1073.09 1830.3 1076.15 1834.9 Q1079.23 1839.49 1079.23 1848.24 Q1079.23 1856.96 1076.15 1861.57 Q1073.09 1866.15 1067.28 1866.15 Q1061.47 1866.15 1058.39 1861.57 Q1055.34 1856.96 1055.34 1848.24 Q1055.34 1839.49 1058.39 1834.9 Q1061.47 1830.3 1067.28 1830.3 Z" fill="#000000" fill-rule="nonzero" fill-opacity="1" /><path clip-path="url(#clip450)" d="M1087.44 1859.6 L1092.33 1859.6 L1092.33 1865.48 L1087.44 1865.48 L1087.44 1859.6 Z" fill="#000000" fill-rule="nonzero" fill-opacity="1" /><path clip-path="url(#clip450)" d="M1106.54 1861.55 L1122.86 1861.55 L1122.86 1865.48 L1100.92 1865.48 L1100.92 1861.55 Q1103.58 1858.79 1108.16 1854.16 Q1112.77 1849.51 1113.95 1848.17 Q1116.19 1845.65 1117.07 1843.91 Q1117.98 1842.15 1117.98 1840.46 Q1117.98 1837.71 1116.03 1835.97 Q1114.11 1834.23 1111.01 1834.23 Q1108.81 1834.23 1106.36 1835 Q1103.93 1835.76 1101.15 1837.31 L1101.15 1832.59 Q1103.97 1831.46 1106.43 1830.88 Q1108.88 1830.3 1110.92 1830.3 Q1116.29 1830.3 1119.48 1832.98 Q1122.68 1835.67 1122.68 1840.16 Q1122.68 1842.29 1121.87 1844.21 Q1121.08 1846.11 1118.97 1848.7 Q1118.39 1849.37 1115.29 1852.59 Q1112.19 1855.78 1106.54 1861.55 Z" fill="#000000" fill-rule="nonzero" fill-opacity="1" /><path clip-path="url(#clip450)" d="M1470.9 1834 Q1467.28 1834 1465.46 1837.57 Q1463.65 1841.11 1463.65 1848.24 Q1463.65 1855.34 1465.46 1858.91 Q1467.28 1862.45 1470.9 1862.45 Q1474.53 1862.45 1476.34 1858.91 Q1478.16 1855.34 1478.16 1848.24 Q1478.16 1841.11 1476.34 1837.57 Q1474.53 1834 1470.9 1834 M1470.9 1830.3 Q1476.71 1830.3 1479.76 1834.9 Q1482.84 1839.49 1482.84 1848.24 Q1482.84 1856.96 1479.76 1861.57 Q1476.71 1866.15 1470.9 1866.15 Q1465.09 1866.15 1462.01 1861.57 Q1458.95 1856.96 1458.95 1848.24 Q1458.95 1839.49 1462.01 1834.9 Q1465.09 1830.3 1470.9 1830.3 Z" fill="#000000" fill-rule="nonzero" fill-opacity="1" /><path clip-path="url(#clip450)" d="M1491.06 1859.6 L1495.94 1859.6 L1495.94 1865.48 L1491.06 1865.48 L1491.06 1859.6 Z" fill="#000000" fill-rule="nonzero" fill-opacity="1" /><path clip-path="url(#clip450)" d="M1520.29 1846.85 Q1523.65 1847.57 1525.53 1849.84 Q1527.42 1852.1 1527.42 1855.44 Q1527.42 1860.55 1523.91 1863.35 Q1520.39 1866.15 1513.91 1866.15 Q1511.73 1866.15 1509.41 1865.71 Q1507.12 1865.3 1504.67 1864.44 L1504.67 1859.93 Q1506.61 1861.06 1508.93 1861.64 Q1511.24 1862.22 1513.77 1862.22 Q1518.16 1862.22 1520.46 1860.48 Q1522.77 1858.75 1522.77 1855.44 Q1522.77 1852.38 1520.62 1850.67 Q1518.49 1848.93 1514.67 1848.93 L1510.64 1848.93 L1510.64 1845.09 L1514.85 1845.09 Q1518.3 1845.09 1520.13 1843.72 Q1521.96 1842.34 1521.96 1839.74 Q1521.96 1837.08 1520.06 1835.67 Q1518.19 1834.23 1514.67 1834.23 Q1512.75 1834.23 1510.55 1834.65 Q1508.35 1835.07 1505.71 1835.95 L1505.71 1831.78 Q1508.37 1831.04 1510.69 1830.67 Q1513.03 1830.3 1515.09 1830.3 Q1520.41 1830.3 1523.51 1832.73 Q1526.61 1835.14 1526.61 1839.26 Q1526.61 1842.13 1524.97 1844.12 Q1523.33 1846.09 1520.29 1846.85 Z" fill="#000000" fill-rule="nonzero" fill-opacity="1" /><path clip-path="url(#clip450)" d="M1874.42 1834 Q1870.81 1834 1868.98 1837.57 Q1867.17 1841.11 1867.17 1848.24 Q1867.17 1855.34 1868.98 1858.91 Q1870.81 1862.45 1874.42 1862.45 Q1878.05 1862.45 1879.86 1858.91 Q1881.68 1855.34 1881.68 1848.24 Q1881.68 1841.11 1879.86 1837.57 Q1878.05 1834 1874.42 1834 M1874.42 1830.3 Q1880.23 1830.3 1883.28 1834.9 Q1886.36 1839.49 1886.36 1848.24 Q1886.36 1856.96 1883.28 1861.57 Q1880.23 1866.15 1874.42 1866.15 Q1868.61 1866.15 1865.53 1861.57 Q1862.47 1856.96 1862.47 1848.24 Q1862.47 1839.49 1865.53 1834.9 Q1868.61 1830.3 1874.42 1830.3 Z" fill="#000000" fill-rule="nonzero" fill-opacity="1" /><path clip-path="url(#clip450)" d="M1894.58 1859.6 L1899.46 1859.6 L1899.46 1865.48 L1894.58 1865.48 L1894.58 1859.6 Z" fill="#000000" fill-rule="nonzero" fill-opacity="1" /><path clip-path="url(#clip450)" d="M1922.49 1835 L1910.69 1853.45 L1922.49 1853.45 L1922.49 1835 M1921.27 1830.92 L1927.15 1830.92 L1927.15 1853.45 L1932.08 1853.45 L1932.08 1857.34 L1927.15 1857.34 L1927.15 1865.48 L1922.49 1865.48 L1922.49 1857.34 L1906.89 1857.34 L1906.89 1852.82 L1921.27 1830.92 Z" fill="#000000" fill-rule="nonzero" fill-opacity="1" /><path clip-path="url(#clip450)" d="M2279.24 1834 Q2275.63 1834 2273.81 1837.57 Q2272 1841.11 2272 1848.24 Q2272 1855.34 2273.81 1858.91 Q2275.63 1862.45 2279.24 1862.45 Q2282.88 1862.45 2284.68 1858.91 Q2286.51 1855.34 2286.51 1848.24 Q2286.51 1841.11 2284.68 1837.57 Q2282.88 1834 2279.24 1834 M2279.24 1830.3 Q2285.05 1830.3 2288.11 1834.9 Q2291.19 1839.49 2291.19 1848.24 Q2291.19 1856.96 2288.11 1861.57 Q2285.05 1866.15 2279.24 1866.15 Q2273.43 1866.15 2270.36 1861.57 Q2267.3 1856.96 2267.3 1848.24 Q2267.3 1839.49 2270.36 1834.9 Q2273.43 1830.3 2279.24 1830.3 Z" fill="#000000" fill-rule="nonzero" fill-opacity="1" /><path clip-path="url(#clip450)" d="M2299.41 1859.6 L2304.29 1859.6 L2304.29 1865.48 L2299.41 1865.48 L2299.41 1859.6 Z" fill="#000000" fill-rule="nonzero" fill-opacity="1" /><path clip-path="url(#clip450)" d="M2314.52 1830.92 L2332.88 1830.92 L2332.88 1834.86 L2318.8 1834.86 L2318.8 1843.33 Q2319.82 1842.98 2320.84 1842.82 Q2321.86 1842.64 2322.88 1842.64 Q2328.67 1842.64 2332.05 1845.81 Q2335.43 1848.98 2335.43 1854.4 Q2335.43 1859.97 2331.95 1863.08 Q2328.48 1866.15 2322.16 1866.15 Q2319.99 1866.15 2317.72 1865.78 Q2315.47 1865.41 2313.06 1864.67 L2313.06 1859.97 Q2315.15 1861.11 2317.37 1861.66 Q2319.59 1862.22 2322.07 1862.22 Q2326.07 1862.22 2328.41 1860.11 Q2330.75 1858.01 2330.75 1854.4 Q2330.75 1850.78 2328.41 1848.68 Q2326.07 1846.57 2322.07 1846.57 Q2320.19 1846.57 2318.32 1846.99 Q2316.47 1847.4 2314.52 1848.28 L2314.52 1830.92 Z" fill="#000000" fill-rule="nonzero" fill-opacity="1" /><polyline clip-path="url(#clip452)" style="stroke:#000000; stroke-linecap:round; stroke-linejoin:round; stroke-width:2; stroke-opacity:0.1; fill:none" points="143.576,1751.15 2640.76,1751.15 "/>
<polyline clip-path="url(#clip452)" style="stroke:#000000; stroke-linecap:round; stroke-linejoin:round; stroke-width:2; stroke-opacity:0.1; fill:none" points="143.576,1420.3 2640.76,1420.3 "/>
<polyline clip-path="url(#clip452)" style="stroke:#000000; stroke-linecap:round; stroke-linejoin:round; stroke-width:2; stroke-opacity:0.1; fill:none" points="143.576,1089.44 2640.76,1089.44 "/>
<polyline clip-path="url(#clip452)" style="stroke:#000000; stroke-linecap:round; stroke-linejoin:round; stroke-width:2; stroke-opacity:0.1; fill:none" points="143.576,758.584 2640.76,758.584 "/>
<polyline clip-path="url(#clip452)" style="stroke:#000000; stroke-linecap:round; stroke-linejoin:round; stroke-width:2; stroke-opacity:0.1; fill:none" points="143.576,427.728 2640.76,427.728 "/>
<polyline clip-path="url(#clip452)" style="stroke:#000000; stroke-linecap:round; stroke-linejoin:round; stroke-width:2; stroke-opacity:0.1; fill:none" points="143.576,96.8724 2640.76,96.8724 "/>
<polyline clip-path="url(#clip450)" style="stroke:#000000; stroke-linecap:round; stroke-linejoin:round; stroke-width:4; stroke-opacity:1; fill:none" points="143.576,1800.78 143.576,47.2441 "/>
<polyline clip-path="url(#clip450)" style="stroke:#000000; stroke-linecap:round; stroke-linejoin:round; stroke-width:4; stroke-opacity:1; fill:none" points="143.576,1751.15 162.473,1751.15 "/>
<polyline clip-path="url(#clip450)" style="stroke:#000000; stroke-linecap:round; stroke-linejoin:round; stroke-width:4; stroke-opacity:1; fill:none" points="143.576,1420.3 162.473,1420.3 "/>
<polyline clip-path="url(#clip450)" style="stroke:#000000; stroke-linecap:round; stroke-linejoin:round; stroke-width:4; stroke-opacity:1; fill:none" points="143.576,1089.44 162.473,1089.44 "/>
<polyline clip-path="url(#clip450)" style="stroke:#000000; stroke-linecap:round; stroke-linejoin:round; stroke-width:4; stroke-opacity:1; fill:none" points="143.576,758.584 162.473,758.584 "/>
<polyline clip-path="url(#clip450)" style="stroke:#000000; stroke-linecap:round; stroke-linejoin:round; stroke-width:4; stroke-opacity:1; fill:none" points="143.576,427.728 162.473,427.728 "/>
<polyline clip-path="url(#clip450)" style="stroke:#000000; stroke-linecap:round; stroke-linejoin:round; stroke-width:4; stroke-opacity:1; fill:none" points="143.576,96.8724 162.473,96.8724 "/>
<path clip-path="url(#clip450)" d="M91.3112 1736.95 Q87.7001 1736.95 85.8714 1740.51 Q84.0658 1744.06 84.0658 1751.19 Q84.0658 1758.29 85.8714 1761.86 Q87.7001 1765.4 91.3112 1765.4 Q94.9454 1765.4 96.7509 1761.86 Q98.5796 1758.29 98.5796 1751.19 Q98.5796 1744.06 96.7509 1740.51 Q94.9454 1736.95 91.3112 1736.95 M91.3112 1733.25 Q97.1213 1733.25 100.177 1737.85 Q103.256 1742.44 103.256 1751.19 Q103.256 1759.91 100.177 1764.52 Q97.1213 1769.1 91.3112 1769.1 Q85.501 1769.1 82.4223 1764.52 Q79.3668 1759.91 79.3668 1751.19 Q79.3668 1742.44 82.4223 1737.85 Q85.501 1733.25 91.3112 1733.25 Z" fill="#000000" fill-rule="nonzero" fill-opacity="1" /><path clip-path="url(#clip450)" d="M82.3529 1403.02 L100.709 1403.02 L100.709 1406.95 L86.6353 1406.95 L86.6353 1415.42 Q87.6538 1415.08 88.6723 1414.91 Q89.6908 1414.73 90.7093 1414.73 Q96.4963 1414.73 99.8759 1417.9 Q103.256 1421.07 103.256 1426.49 Q103.256 1432.07 99.7833 1435.17 Q96.3111 1438.25 89.9917 1438.25 Q87.8158 1438.25 85.5473 1437.88 Q83.3019 1437.51 80.8946 1436.77 L80.8946 1432.07 Q82.9779 1433.2 85.2001 1433.76 Q87.4223 1434.31 89.8991 1434.31 Q93.9037 1434.31 96.2417 1432.2 Q98.5796 1430.1 98.5796 1426.49 Q98.5796 1422.88 96.2417 1420.77 Q93.9037 1418.66 89.8991 1418.66 Q88.0241 1418.66 86.1492 1419.08 Q84.2973 1419.5 82.3529 1420.38 L82.3529 1403.02 Z" fill="#000000" fill-rule="nonzero" fill-opacity="1" /><path clip-path="url(#clip450)" d="M51.9595 1102.78 L59.5984 1102.78 L59.5984 1076.42 L51.2882 1078.09 L51.2882 1073.83 L59.5521 1072.16 L64.228 1072.16 L64.228 1102.78 L71.8668 1102.78 L71.8668 1106.72 L51.9595 1106.72 L51.9595 1102.78 Z" fill="#000000" fill-rule="nonzero" fill-opacity="1" /><path clip-path="url(#clip450)" d="M91.3112 1075.24 Q87.7001 1075.24 85.8714 1078.8 Q84.0658 1082.34 84.0658 1089.47 Q84.0658 1096.58 85.8714 1100.15 Q87.7001 1103.69 91.3112 1103.69 Q94.9454 1103.69 96.7509 1100.15 Q98.5796 1096.58 98.5796 1089.47 Q98.5796 1082.34 96.7509 1078.8 Q94.9454 1075.24 91.3112 1075.24 M91.3112 1071.53 Q97.1213 1071.53 100.177 1076.14 Q103.256 1080.72 103.256 1089.47 Q103.256 1098.2 100.177 1102.81 Q97.1213 1107.39 91.3112 1107.39 Q85.501 1107.39 82.4223 1102.81 Q79.3668 1098.2 79.3668 1089.47 Q79.3668 1080.72 82.4223 1076.14 Q85.501 1071.53 91.3112 1071.53 Z" fill="#000000" fill-rule="nonzero" fill-opacity="1" /><path clip-path="url(#clip450)" d="M52.9549 771.929 L60.5937 771.929 L60.5937 745.563 L52.2836 747.23 L52.2836 742.971 L60.5474 741.304 L65.2233 741.304 L65.2233 771.929 L72.8622 771.929 L72.8622 775.864 L52.9549 775.864 L52.9549 771.929 Z" fill="#000000" fill-rule="nonzero" fill-opacity="1" /><path clip-path="url(#clip450)" d="M82.3529 741.304 L100.709 741.304 L100.709 745.239 L86.6353 745.239 L86.6353 753.711 Q87.6538 753.364 88.6723 753.202 Q89.6908 753.017 90.7093 753.017 Q96.4963 753.017 99.8759 756.188 Q103.256 759.359 103.256 764.776 Q103.256 770.355 99.7833 773.456 Q96.3111 776.535 89.9917 776.535 Q87.8158 776.535 85.5473 776.165 Q83.3019 775.794 80.8946 775.054 L80.8946 770.355 Q82.9779 771.489 85.2001 772.044 Q87.4223 772.6 89.8991 772.6 Q93.9037 772.6 96.2417 770.494 Q98.5796 768.387 98.5796 764.776 Q98.5796 761.165 96.2417 759.058 Q93.9037 756.952 89.8991 756.952 Q88.0241 756.952 86.1492 757.369 Q84.2973 757.785 82.3529 758.665 L82.3529 741.304 Z" fill="#000000" fill-rule="nonzero" fill-opacity="1" /><path clip-path="url(#clip450)" d="M55.1771 441.073 L71.4965 441.073 L71.4965 445.008 L49.5521 445.008 L49.5521 441.073 Q52.2141 438.318 56.7975 433.689 Q61.4039 429.036 62.5845 427.693 Q64.8298 425.17 65.7094 423.434 Q66.6122 421.675 66.6122 419.985 Q66.6122 417.231 64.6678 415.494 Q62.7465 413.758 59.6447 413.758 Q57.4456 413.758 54.9919 414.522 Q52.5614 415.286 49.7836 416.837 L49.7836 412.115 Q52.6077 410.981 55.0614 410.402 Q57.515 409.823 59.5521 409.823 Q64.9224 409.823 68.1168 412.508 Q71.3113 415.193 71.3113 419.684 Q71.3113 421.814 70.5011 423.735 Q69.7141 425.633 67.6076 428.226 Q67.0289 428.897 63.927 432.115 Q60.8252 435.309 55.1771 441.073 Z" fill="#000000" fill-rule="nonzero" fill-opacity="1" /><path clip-path="url(#clip450)" d="M91.3112 413.527 Q87.7001 413.527 85.8714 417.092 Q84.0658 420.633 84.0658 427.763 Q84.0658 434.869 85.8714 438.434 Q87.7001 441.976 91.3112 441.976 Q94.9454 441.976 96.7509 438.434 Q98.5796 434.869 98.5796 427.763 Q98.5796 420.633 96.7509 417.092 Q94.9454 413.527 91.3112 413.527 M91.3112 409.823 Q97.1213 409.823 100.177 414.43 Q103.256 419.013 103.256 427.763 Q103.256 436.49 100.177 441.096 Q97.1213 445.679 91.3112 445.679 Q85.501 445.679 82.4223 441.096 Q79.3668 436.49 79.3668 427.763 Q79.3668 419.013 82.4223 414.43 Q85.501 409.823 91.3112 409.823 Z" fill="#000000" fill-rule="nonzero" fill-opacity="1" /><path clip-path="url(#clip450)" d="M56.1725 110.217 L72.4918 110.217 L72.4918 114.152 L50.5475 114.152 L50.5475 110.217 Q53.2095 107.463 57.7928 102.833 Q62.3993 98.1803 63.5798 96.8377 Q65.8252 94.3146 66.7048 92.5785 Q67.6076 90.8192 67.6076 89.1294 Q67.6076 86.3748 65.6632 84.6387 Q63.7419 82.9026 60.64 82.9026 Q58.441 82.9026 55.9873 83.6665 Q53.5567 84.4304 50.779 85.9813 L50.779 81.2591 Q53.603 80.1249 56.0567 79.5462 Q58.5104 78.9675 60.5474 78.9675 Q65.9178 78.9675 69.1122 81.6526 Q72.3066 84.3378 72.3066 88.8285 Q72.3066 90.9581 71.4965 92.8794 Q70.7094 94.7776 68.6029 97.3701 Q68.0242 98.0414 64.9224 101.259 Q61.8206 104.453 56.1725 110.217 Z" fill="#000000" fill-rule="nonzero" fill-opacity="1" /><path clip-path="url(#clip450)" d="M82.3529 79.5924 L100.709 79.5924 L100.709 83.5276 L86.6353 83.5276 L86.6353 91.9998 Q87.6538 91.6526 88.6723 91.4905 Q89.6908 91.3053 90.7093 91.3053 Q96.4963 91.3053 99.8759 94.4766 Q103.256 97.6479 103.256 103.065 Q103.256 108.643 99.7833 111.745 Q96.3111 114.824 89.9917 114.824 Q87.8158 114.824 85.5473 114.453 Q83.3019 114.083 80.8946 113.342 L80.8946 108.643 Q82.9779 109.777 85.2001 110.333 Q87.4223 110.889 89.8991 110.889 Q93.9037 110.889 96.2417 108.782 Q98.5796 106.676 98.5796 103.065 Q98.5796 99.4535 96.2417 97.347 Q93.9037 95.2405 89.8991 95.2405 Q88.0241 95.2405 86.1492 95.6572 Q84.2973 96.0738 82.3529 96.9535 L82.3529 79.5924 Z" fill="#000000" fill-rule="nonzero" fill-opacity="1" /><path clip-path="url(#clip452)" d="M280.925 1420.3 L280.925 1751.15 L482.969 1751.15 L482.969 1420.3 L280.925 1420.3 L280.925 1420.3  Z" fill="#009af9" fill-rule="evenodd" fill-opacity="1"/>
<polyline clip-path="url(#clip452)" style="stroke:#000000; stroke-linecap:round; stroke-linejoin:round; stroke-width:4; stroke-opacity:1; fill:none" points="280.925,1420.3 280.925,1751.15 482.969,1751.15 482.969,1420.3 280.925,1420.3 "/>
<path clip-path="url(#clip452)" d="M482.969 96.8724 L482.969 1751.15 L685.012 1751.15 L685.012 96.8724 L482.969 96.8724 L482.969 96.8724  Z" fill="#009af9" fill-rule="evenodd" fill-opacity="1"/>
<polyline clip-path="url(#clip452)" style="stroke:#000000; stroke-linecap:round; stroke-linejoin:round; stroke-width:4; stroke-opacity:1; fill:none" points="482.969,96.8724 482.969,1751.15 685.012,1751.15 685.012,96.8724 482.969,96.8724 "/>
<path clip-path="url(#clip452)" d="M685.012 493.899 L685.012 1751.15 L887.056 1751.15 L887.056 493.899 L685.012 493.899 L685.012 493.899  Z" fill="#009af9" fill-rule="evenodd" fill-opacity="1"/>
<polyline clip-path="url(#clip452)" style="stroke:#000000; stroke-linecap:round; stroke-linejoin:round; stroke-width:4; stroke-opacity:1; fill:none" points="685.012,493.899 685.012,1751.15 887.056,1751.15 887.056,493.899 685.012,493.899 "/>
<path clip-path="url(#clip452)" d="M887.056 493.899 L887.056 1751.15 L1089.1 1751.15 L1089.1 493.899 L887.056 493.899 L887.056 493.899  Z" fill="#009af9" fill-rule="evenodd" fill-opacity="1"/>
<polyline clip-path="url(#clip452)" style="stroke:#000000; stroke-linecap:round; stroke-linejoin:round; stroke-width:4; stroke-opacity:1; fill:none" points="887.056,493.899 887.056,1751.15 1089.1,1751.15 1089.1,493.899 887.056,493.899 "/>
<path clip-path="url(#clip452)" d="M1089.1 1023.27 L1089.1 1751.15 L1291.14 1751.15 L1291.14 1023.27 L1089.1 1023.27 L1089.1 1023.27  Z" fill="#009af9" fill-rule="evenodd" fill-opacity="1"/>
<polyline clip-path="url(#clip452)" style="stroke:#000000; stroke-linecap:round; stroke-linejoin:round; stroke-width:4; stroke-opacity:1; fill:none" points="1089.1,1023.27 1089.1,1751.15 1291.14,1751.15 1291.14,1023.27 1089.1,1023.27 "/>
<path clip-path="url(#clip452)" d="M1291.14 1155.61 L1291.14 1751.15 L1493.19 1751.15 L1493.19 1155.61 L1291.14 1155.61 L1291.14 1155.61  Z" fill="#009af9" fill-rule="evenodd" fill-opacity="1"/>
<polyline clip-path="url(#clip452)" style="stroke:#000000; stroke-linecap:round; stroke-linejoin:round; stroke-width:4; stroke-opacity:1; fill:none" points="1291.14,1155.61 1291.14,1751.15 1493.19,1751.15 1493.19,1155.61 1291.14,1155.61 "/>
<path clip-path="url(#clip452)" d="M1493.19 1354.12 L1493.19 1751.15 L1695.23 1751.15 L1695.23 1354.12 L1493.19 1354.12 L1493.19 1354.12  Z" fill="#009af9" fill-rule="evenodd" fill-opacity="1"/>
<polyline clip-path="url(#clip452)" style="stroke:#000000; stroke-linecap:round; stroke-linejoin:round; stroke-width:4; stroke-opacity:1; fill:none" points="1493.19,1354.12 1493.19,1751.15 1695.23,1751.15 1695.23,1354.12 1493.19,1354.12 "/>
<path clip-path="url(#clip452)" d="M1695.23 1684.98 L1695.23 1751.15 L1897.28 1751.15 L1897.28 1684.98 L1695.23 1684.98 L1695.23 1684.98  Z" fill="#009af9" fill-rule="evenodd" fill-opacity="1"/>
<polyline clip-path="url(#clip452)" style="stroke:#000000; stroke-linecap:round; stroke-linejoin:round; stroke-width:4; stroke-opacity:1; fill:none" points="1695.23,1684.98 1695.23,1751.15 1897.28,1751.15 1897.28,1684.98 1695.23,1684.98 "/>
<path clip-path="url(#clip452)" d="M1897.28 1552.64 L1897.28 1751.15 L2099.32 1751.15 L2099.32 1552.64 L1897.28 1552.64 L1897.28 1552.64  Z" fill="#009af9" fill-rule="evenodd" fill-opacity="1"/>
<polyline clip-path="url(#clip452)" style="stroke:#000000; stroke-linecap:round; stroke-linejoin:round; stroke-width:4; stroke-opacity:1; fill:none" points="1897.28,1552.64 1897.28,1751.15 2099.32,1751.15 2099.32,1552.64 1897.28,1552.64 "/>
<path clip-path="url(#clip452)" d="M2099.32 1684.98 L2099.32 1751.15 L2301.36 1751.15 L2301.36 1684.98 L2099.32 1684.98 L2099.32 1684.98  Z" fill="#009af9" fill-rule="evenodd" fill-opacity="1"/>
<polyline clip-path="url(#clip452)" style="stroke:#000000; stroke-linecap:round; stroke-linejoin:round; stroke-width:4; stroke-opacity:1; fill:none" points="2099.32,1684.98 2099.32,1751.15 2301.36,1751.15 2301.36,1684.98 2099.32,1684.98 "/>
<path clip-path="url(#clip452)" d="M2301.36 1684.98 L2301.36 1751.15 L2503.41 1751.15 L2503.41 1684.98 L2301.36 1684.98 L2301.36 1684.98  Z" fill="#009af9" fill-rule="evenodd" fill-opacity="1"/>
<polyline clip-path="url(#clip452)" style="stroke:#000000; stroke-linecap:round; stroke-linejoin:round; stroke-width:4; stroke-opacity:1; fill:none" points="2301.36,1684.98 2301.36,1751.15 2503.41,1751.15 2503.41,1684.98 2301.36,1684.98 "/>
<circle clip-path="url(#clip452)" style="fill:#009af9; stroke:none; fill-opacity:0" cx="381.947" cy="1420.3" r="2"/>
<circle clip-path="url(#clip452)" style="fill:#009af9; stroke:none; fill-opacity:0" cx="583.991" cy="96.8724" r="2"/>
<circle clip-path="url(#clip452)" style="fill:#009af9; stroke:none; fill-opacity:0" cx="786.034" cy="493.899" r="2"/>
<circle clip-path="url(#clip452)" style="fill:#009af9; stroke:none; fill-opacity:0" cx="988.078" cy="493.899" r="2"/>
<circle clip-path="url(#clip452)" style="fill:#009af9; stroke:none; fill-opacity:0" cx="1190.12" cy="1023.27" r="2"/>
<circle clip-path="url(#clip452)" style="fill:#009af9; stroke:none; fill-opacity:0" cx="1392.17" cy="1155.61" r="2"/>
<circle clip-path="url(#clip452)" style="fill:#009af9; stroke:none; fill-opacity:0" cx="1594.21" cy="1354.12" r="2"/>
<circle clip-path="url(#clip452)" style="fill:#009af9; stroke:none; fill-opacity:0" cx="1796.25" cy="1684.98" r="2"/>
<circle clip-path="url(#clip452)" style="fill:#009af9; stroke:none; fill-opacity:0" cx="1998.3" cy="1552.64" r="2"/>
<circle clip-path="url(#clip452)" style="fill:#009af9; stroke:none; fill-opacity:0" cx="2200.34" cy="1684.98" r="2"/>
<circle clip-path="url(#clip452)" style="fill:#009af9; stroke:none; fill-opacity:0" cx="2402.38" cy="1684.98" r="2"/>
<path clip-path="url(#clip450)" d="M2255.37 209.375 L2557.52 209.375 L2557.52 105.695 L2255.37 105.695  Z" fill="#ffffff" fill-rule="evenodd" fill-opacity="1"/>
<polyline clip-path="url(#clip450)" style="stroke:#000000; stroke-linecap:round; stroke-linejoin:round; stroke-width:4; stroke-opacity:1; fill:none" points="2255.37,209.375 2557.52,209.375 2557.52,105.695 2255.37,105.695 2255.37,209.375 "/>
<path clip-path="url(#clip450)" d="M2283.11 178.271 L2449.59 178.271 L2449.59 136.799 L2283.11 136.799 L2283.11 178.271  Z" fill="#009af9" fill-rule="evenodd" fill-opacity="1"/>
<polyline clip-path="url(#clip450)" style="stroke:#000000; stroke-linecap:round; stroke-linejoin:round; stroke-width:4; stroke-opacity:1; fill:none" points="2283.11,178.271 2449.59,178.271 2449.59,136.799 2283.11,136.799 2283.11,178.271 "/>
<path clip-path="url(#clip450)" d="M2491.18 177.223 Q2489.38 181.852 2487.66 183.264 Q2485.95 184.676 2483.08 184.676 L2479.68 184.676 L2479.68 181.112 L2482.18 181.112 Q2483.94 181.112 2484.91 180.278 Q2485.88 179.445 2487.06 176.343 L2487.83 174.399 L2477.34 148.889 L2481.85 148.889 L2489.96 169.167 L2498.06 148.889 L2502.57 148.889 L2491.18 177.223 Z" fill="#000000" fill-rule="nonzero" fill-opacity="1" /><path clip-path="url(#clip450)" d="M2509.86 170.88 L2517.5 170.88 L2517.5 144.515 L2509.19 146.181 L2509.19 141.922 L2517.46 140.255 L2522.13 140.255 L2522.13 170.88 L2529.77 170.88 L2529.77 174.815 L2509.86 174.815 L2509.86 170.88 Z" fill="#000000" fill-rule="nonzero" fill-opacity="1" /></svg>
